G04*
G04 #@! TF.GenerationSoftware,Altium Limited,Altium Designer,23.3.1 (30)*
G04*
G04 Layer_Color=16711935*
%FSLAX25Y25*%
%MOIN*%
G70*
G04*
G04 #@! TF.SameCoordinates,6A428117-56C8-45C2-912A-06D29EFC6305*
G04*
G04*
G04 #@! TF.FilePolarity,Positive*
G04*
G01*
G75*
%ADD13C,0.01000*%
D13*
X383858Y0D02*
X384887Y54D01*
X385905Y215D01*
X386900Y482D01*
X387862Y851D01*
X388779Y1319D01*
X389644Y1880D01*
X390444Y2528D01*
X391173Y3257D01*
X391821Y4057D01*
X392382Y4921D01*
X392850Y5839D01*
X393219Y6801D01*
X393486Y7796D01*
X393647Y8814D01*
X393701Y9843D01*
Y305118D02*
X393647Y306147D01*
X393486Y307165D01*
X393219Y308160D01*
X392850Y309121D01*
X392382Y310039D01*
X391821Y310903D01*
X391173Y311704D01*
X390444Y312433D01*
X389644Y313081D01*
X388779Y313642D01*
X387862Y314110D01*
X386900Y314479D01*
X385905Y314746D01*
X384887Y314907D01*
X383858Y314961D01*
X9843D02*
X8814Y314907D01*
X7796Y314746D01*
X6801Y314479D01*
X5839Y314110D01*
X4921Y313642D01*
X4057Y313081D01*
X3257Y312433D01*
X2528Y311704D01*
X1880Y310903D01*
X1319Y310039D01*
X851Y309121D01*
X482Y308160D01*
X215Y307165D01*
X54Y306147D01*
X0Y305118D01*
Y9843D02*
X54Y8814D01*
X215Y7796D01*
X482Y6801D01*
X851Y5839D01*
X1319Y4921D01*
X1880Y4057D01*
X2528Y3257D01*
X3257Y2528D01*
X4057Y1880D01*
X4921Y1319D01*
X5839Y851D01*
X6801Y482D01*
X7796Y215D01*
X8814Y54D01*
X9843Y0D01*
X0Y9843D02*
Y305118D01*
X9843Y314961D02*
X383858D01*
X393701Y9843D02*
Y305118D01*
X9843Y0D02*
X383858D01*
M02*
