M48
;Layer_Color=9474304
;FILE_FORMAT=2:4
INCH,TZ
;TYPE=PLATED
T1F00S00C0.0118
T2F00S00C0.0433
T3F00S00C0.0669
T4F00S00C0.1339
T5F00S00C0.1772
T6F00S00C0.2283
;TYPE=NON_PLATED
T7F00S00C0.1024
%
T01
X36902Y1076
X37598Y787
X38294Y1076
X38583Y1772
X38294Y2468
X37598Y2756
X36902Y2468
X36614Y1772
X21457Y4724
Y5512
X19488Y5512
Y4724
X18898Y2953
X18307
X17618
X17028
X17067Y6319
X17441
X18494Y6407
X18780Y6585
X18784Y7347
X18460
X17441Y7500
X17106
Y8583
X17441
X18450Y8627
X18784
X19961Y8120
X20315Y8199
X20635Y8159
X20984Y8150
X21068Y8627
X20714
X24134Y8386
Y7992
X13682Y5842
Y5315
Y4787
Y4260
X13170Y5399
X12580
X12875Y2264
X15748Y2953
X16339
X7185Y3874
X7146Y4372
Y4871
Y5370
Y5869
Y6367
Y6866
X2468Y2468
X2756Y1772
X2468Y1076
X1772Y787
X1076Y1076
X787Y1772
X1076Y2468
X1772Y2756
X669Y25433
Y25932
Y26430
Y26929
Y27428
Y27927
X1142Y27205
X5748Y27283
X6102Y26880
X6693
X7205Y26795
Y26268
Y25740
Y27323
Y21417
X6811Y21024
X7205Y20630
X6811Y20236
X7598
Y21024
X6417Y20630
X6024Y20236
X5630Y19843
Y20630
X6024Y21024
X6417Y21417
X5630
X3780Y19291
X3346Y19488
X2638Y18465
Y18032
X2244Y17126
Y16339
X4055Y16339
Y17126
X8622Y15226
X8957
X9488Y15354
Y15827
X10197
Y15354
Y14882
Y14409
X10236Y13898
X9488Y14882
X10906Y15354
Y15827
X11614
X11614Y16299
X11614Y16772
X11614Y17244
X11614Y17717
X11614Y18189
X11614Y18661
X12224
X12224Y18189
X12224Y17717
X12224Y17244
X12224Y16772
X12224Y16299
X12224Y15827
X12835
X12835Y16299
X12835Y16772
X12835Y17244
X12835Y17717
X12835Y18189
X12835Y18661
X13583Y18524
X14567
X15551
X16043Y19055
X15059
X14075
X13583Y19587
X14567Y19587
X15551
X15059Y17992
X14075
X13583Y17461
X13583Y16929
X16043
X15551Y17461
X16043Y17992
X16161Y14449
X8701Y13386
X8366
X9488Y18189
X9488Y18661
X10197Y18661
X10197Y18189
X10906Y18189
X10906Y18661
X8622Y19252
X8346Y19803
X16535Y18524
Y17461
X17953Y18189
X17953Y18661
X18661Y18661
X18661Y18189
X19370Y18189
X19370Y18661
X20079Y18661
X20079Y18189
X20079Y17717
X20079Y17244
X20079Y16772
X20079Y16299
X20079Y15827
X20689Y15827
X20689Y16299
X20689Y16772
X20689Y17244
X20689Y17717
X20689Y18189
X20689Y18661
X21299Y18661
X21299Y18189
X21299Y17717
X21299Y17244
X21299Y16772
X21299Y16299
X21299Y15827
X22047Y16929
X22047Y17461
X22539Y17992
X23524
X24508
X24016Y17461
X25000
X24508Y16929
X25000Y18524
X24016
X23031
X22047
X22539Y19055
X23524
X24508
X24016Y19587
X23031
X22047Y19587
X26417Y18661
X26417Y18189
X27126Y18189
X27126Y18661
X27835Y18661
X27835Y18189
X28543Y18189
X28543Y18661
X29252
X29252Y18189
X29252Y17717
X29252Y17244
X29252Y16772
X29252Y16299
X29252Y15827
X29961
X29961Y16299
X29961Y16772
X29961Y17244
X29961Y17717
X29961Y18189
X29961Y18661
X31201Y17913
X31201Y19882
X28543Y17717
X28543Y17244
X28543Y16772
X28543Y16299
X28543Y15827
X27835
Y15354
X27126
Y15827
X26417
Y15354
Y14882
X27126
Y14409
X27165Y13898
X25591Y13386
X25256
X24902Y14803
X24567
X19370Y15354
Y15827
X18661
Y15354
Y14882
Y14409
X18701Y13898
X17953Y14882
Y15354
Y15827
X16437Y14646
X16398Y13386
X16732
X31988Y17913
X31988Y19882
X32352Y25899
X32943
X32953Y28543
Y29724
X32953Y30906
X34134
X34291Y28378
X36902Y29028
X37598Y28740
X38294Y29028
X38583Y29724
X38294Y30420
X37598Y30709
X36902Y30420
X36614Y29724
X31772Y29724
Y28543
X30591
Y29724
X30591Y30906
X31772
X29409
X29252Y28378
X2468Y29028
X1772Y28740
X1076Y29028
X787Y29724
X1076Y30420
X1772Y30709
X2468Y30420
X2756Y29724
X669Y28425
T02
X34941Y4921
Y6102
Y7283
Y8465
Y9646
X36122
Y8465
Y7283
Y6102
Y4921
Y15650
Y16831
Y18012
X34941
Y16831
Y15650
T03
X9803Y23583
Y25591
X11811
Y23583
X16939
X18947
Y25591
X16939
X24075
Y23583
X26083
Y25591
T04
X37598Y1772
X1772
X37598Y29724
X1772
T05
X4921Y2677
Y5512
T06
X4469Y9685
Y14016
T07
X36122Y3740
Y10827
Y14468
Y19193
M30
