G04*
G04 #@! TF.GenerationSoftware,Altium Limited,Altium Designer,23.3.1 (30)*
G04*
G04 Layer_Physical_Order=4*
G04 Layer_Color=16711680*
%FSLAX25Y25*%
%MOIN*%
G70*
G04*
G04 #@! TF.SameCoordinates,6A428117-56C8-45C2-912A-06D29EFC6305*
G04*
G04*
G04 #@! TF.FilePolarity,Positive*
G04*
G01*
G75*
%ADD13C,0.01000*%
%ADD62C,0.01181*%
%ADD63C,0.00803*%
%ADD64C,0.01968*%
%ADD65C,0.23622*%
%ADD66C,0.25591*%
%ADD67C,0.31496*%
%ADD68C,0.10236*%
%ADD69C,0.07087*%
%ADD70C,0.10039*%
%ADD71C,0.02362*%
G36*
X134843Y202756D02*
X130905Y198819D01*
Y146653D01*
X121063Y136811D01*
X102362D01*
X92520Y146653D01*
Y160433D01*
X90551Y162402D01*
Y195866D01*
X80709Y205709D01*
Y277559D01*
X134843D01*
Y202756D01*
D02*
G37*
G36*
X214567Y147638D02*
X203740Y136811D01*
X187008D01*
X177165Y146653D01*
Y160433D01*
X169783Y167815D01*
Y185531D01*
X162402Y192913D01*
Y277559D01*
X214567D01*
Y147638D01*
D02*
G37*
G36*
X289370Y250984D02*
X302165Y238189D01*
Y154528D01*
X284449Y136811D01*
X271654D01*
X261811Y146653D01*
Y160433D01*
X254429Y167815D01*
Y191437D01*
X223425Y222441D01*
Y277559D01*
X289370D01*
Y250984D01*
D02*
G37*
D13*
X157087Y107087D02*
Y146850D01*
X160236Y150000D01*
X167323D01*
X159055Y158268D02*
X179528D01*
X150394Y149606D02*
X159055Y158268D01*
X217717Y128740D02*
X242520Y153543D01*
X263779D01*
X183071Y128740D02*
X217717D01*
X176772Y135039D02*
X183071Y128740D01*
X176772Y135039D02*
Y140551D01*
X167323Y150000D02*
X176772Y140551D01*
X102362Y135236D02*
Y138976D01*
Y135236D02*
X174409Y63189D01*
Y85827D02*
Y89764D01*
X157087Y107087D02*
X174409Y89764D01*
X150394Y101969D02*
Y149606D01*
X174409Y75000D02*
Y77953D01*
X150394Y101969D02*
X174409Y77953D01*
D62*
X187040Y83169D02*
X187732Y83861D01*
Y86157D01*
X180263Y81444D02*
X181988Y83169D01*
X187040D01*
X244882Y106299D02*
Y139764D01*
X220079Y81496D02*
X244882Y106299D01*
Y139764D02*
X249016Y143898D01*
Y148031D01*
X255906Y108268D02*
Y133858D01*
X224016Y76378D02*
X255906Y108268D01*
X164370Y142323D02*
X172047Y134646D01*
Y128347D02*
X210679Y89715D01*
X172047Y128347D02*
Y134646D01*
X164370Y142323D02*
Y146457D01*
X167323Y117679D02*
X193719Y91283D01*
X167323Y117679D02*
Y133858D01*
X204429Y76378D02*
X224016D01*
X199606Y81201D02*
X204429Y76378D01*
X209842Y81496D02*
X220079D01*
X210679Y86270D02*
Y89715D01*
X193719Y79349D02*
Y91283D01*
X187845Y73474D02*
X193719Y79349D01*
X92126Y131496D02*
Y136614D01*
X164961Y58661D02*
X176378D01*
X92126Y131496D02*
X164961Y58661D01*
X176378D02*
X180263Y62547D01*
Y81444D01*
X87008Y128740D02*
Y133858D01*
Y128740D02*
X162205Y53543D01*
X183071D01*
X86221Y142520D02*
Y152264D01*
Y142520D02*
X92126Y136614D01*
X183071Y53543D02*
X187795Y58268D01*
Y65748D01*
X187732Y86157D02*
X187845Y86270D01*
D63*
X43307Y281496D02*
X52165Y290354D01*
X294291D01*
X300197Y284449D01*
Y262795D02*
Y284449D01*
X333661Y163386D02*
Y229331D01*
X300197Y262795D02*
X333661Y229331D01*
Y163386D02*
X340551Y156496D01*
X349410D01*
X43307Y198425D02*
Y281496D01*
X37795Y192913D02*
X43307Y198425D01*
D64*
X73622Y29528D02*
X205118D01*
X241339Y65748D01*
X49213Y53937D02*
X73622Y29528D01*
X49213Y53937D02*
Y55118D01*
X329429Y258987D02*
X345306Y243110D01*
X368110D01*
X377953Y125000D02*
Y233268D01*
X368110Y243110D02*
X377953Y233268D01*
X373031Y120079D02*
X377953Y125000D01*
X345472Y120079D02*
X373031D01*
X334646Y109252D02*
X345472Y120079D01*
X334646Y24606D02*
Y109252D01*
X131890Y16732D02*
X326772D01*
X334646Y24606D01*
X128750Y19872D02*
X131890Y16732D01*
X128750Y19872D02*
Y22638D01*
X241339Y65748D02*
Y79921D01*
D65*
X49213Y26772D02*
D03*
Y55118D02*
D03*
D66*
X375984Y17717D02*
D03*
X17717D02*
D03*
X17717Y297244D02*
D03*
X375984D02*
D03*
D67*
X44685Y140157D02*
D03*
Y96850D02*
D03*
D68*
X361221Y144685D02*
D03*
Y191929D02*
D03*
Y108268D02*
D03*
Y37402D02*
D03*
D69*
Y156496D02*
D03*
Y168307D02*
D03*
Y180118D02*
D03*
X349410Y156496D02*
D03*
Y168307D02*
D03*
Y180118D02*
D03*
Y96457D02*
D03*
Y84646D02*
D03*
Y72835D02*
D03*
Y61024D02*
D03*
Y49213D02*
D03*
X361221Y96457D02*
D03*
Y84646D02*
D03*
Y72835D02*
D03*
Y61024D02*
D03*
Y49213D02*
D03*
D70*
X240748Y235827D02*
D03*
Y255906D02*
D03*
X260827Y235827D02*
D03*
Y255906D02*
D03*
X189469D02*
D03*
Y235827D02*
D03*
X169390Y255906D02*
D03*
Y235827D02*
D03*
X98032D02*
D03*
Y255906D02*
D03*
X118110Y235827D02*
D03*
Y255906D02*
D03*
D71*
X184498Y87057D02*
D03*
X205955Y80020D02*
D03*
X203150Y82776D02*
D03*
X183071Y29528D02*
D03*
X188976D02*
D03*
X170276D02*
D03*
X176181D02*
D03*
X163386D02*
D03*
X157480D02*
D03*
X26378Y184646D02*
D03*
X375984Y7874D02*
D03*
X366142Y17717D02*
D03*
X385827D02*
D03*
X375984Y27559D02*
D03*
X382944Y10757D02*
D03*
X369024D02*
D03*
X382944Y24676D02*
D03*
X369024D02*
D03*
X17717Y7874D02*
D03*
X7874Y17717D02*
D03*
X27559D02*
D03*
X17717Y27559D02*
D03*
X24676Y10757D02*
D03*
X10757D02*
D03*
X24676Y24676D02*
D03*
X10757D02*
D03*
X17717Y287402D02*
D03*
X7874Y297244D02*
D03*
X27559D02*
D03*
X17717Y307087D02*
D03*
X24676Y290284D02*
D03*
X10757D02*
D03*
X24676Y304204D02*
D03*
X10757D02*
D03*
X375984Y287402D02*
D03*
X366142Y297244D02*
D03*
X385827D02*
D03*
X375984Y307087D02*
D03*
X382944Y290284D02*
D03*
X369024D02*
D03*
X382944Y304204D02*
D03*
X369024D02*
D03*
X22441Y171260D02*
D03*
Y163386D02*
D03*
X40551Y171260D02*
D03*
Y163386D02*
D03*
X212992Y158268D02*
D03*
X212992Y186614D02*
D03*
X212992Y181890D02*
D03*
X212992Y177165D02*
D03*
X212992Y172441D02*
D03*
X212992Y167717D02*
D03*
X212992Y162992D02*
D03*
X206890Y158268D02*
D03*
X206890Y186614D02*
D03*
X206890Y181890D02*
D03*
X206890Y177165D02*
D03*
X206890Y172441D02*
D03*
X206890Y167717D02*
D03*
X206890Y162992D02*
D03*
X245079Y169291D02*
D03*
X240158Y174606D02*
D03*
X250000D02*
D03*
X245079Y179921D02*
D03*
X235236D02*
D03*
X250000Y185236D02*
D03*
X240158D02*
D03*
X230315D02*
D03*
X225394Y179921D02*
D03*
X220472Y185236D02*
D03*
Y174606D02*
D03*
X225394Y190551D02*
D03*
X235236D02*
D03*
X245079D02*
D03*
X220472Y195866D02*
D03*
X230315Y195866D02*
D03*
X240158D02*
D03*
X220472Y169291D02*
D03*
X128346Y158268D02*
D03*
X128347Y162992D02*
D03*
X128347Y167717D02*
D03*
X128347Y172441D02*
D03*
X128347Y177165D02*
D03*
X128347Y181890D02*
D03*
X128347Y186614D02*
D03*
X122244Y158268D02*
D03*
X122244Y162992D02*
D03*
X122244Y167717D02*
D03*
X122244Y172441D02*
D03*
X122244Y177165D02*
D03*
X122244Y181890D02*
D03*
X122244Y186614D02*
D03*
X135827Y169291D02*
D03*
X155512Y195866D02*
D03*
X145669D02*
D03*
X135827Y195866D02*
D03*
X299606Y162992D02*
D03*
X299606Y167717D02*
D03*
X299606Y172441D02*
D03*
X299606Y177165D02*
D03*
X299606Y181890D02*
D03*
X299606Y186614D02*
D03*
X299606Y158268D02*
D03*
X292520Y162992D02*
D03*
X292520Y167717D02*
D03*
X292520Y172441D02*
D03*
X292520Y177165D02*
D03*
X292520Y181890D02*
D03*
X292520Y186614D02*
D03*
X292520Y158268D02*
D03*
X264173D02*
D03*
X285433D02*
D03*
X278346Y153543D02*
D03*
Y158268D02*
D03*
X271260D02*
D03*
Y153543D02*
D03*
X264173D02*
D03*
Y148819D02*
D03*
X271260D02*
D03*
Y144095D02*
D03*
X271654Y138976D02*
D03*
X264173Y186614D02*
D03*
X264173Y181890D02*
D03*
X271260Y186614D02*
D03*
X271260Y181890D02*
D03*
X278346Y181890D02*
D03*
X278346Y186614D02*
D03*
X285433Y186614D02*
D03*
X285433Y181890D02*
D03*
X285433Y177165D02*
D03*
X285433Y172441D02*
D03*
X285433Y167717D02*
D03*
X285433Y162992D02*
D03*
X160433Y190551D02*
D03*
X150591D02*
D03*
X140748D02*
D03*
X200787Y162992D02*
D03*
X200787Y167717D02*
D03*
X200787Y172441D02*
D03*
X200787Y177165D02*
D03*
X200787Y181890D02*
D03*
X200787Y186614D02*
D03*
X193701Y186614D02*
D03*
X193701Y181890D02*
D03*
X186614Y181890D02*
D03*
X186614Y186614D02*
D03*
X179527Y181890D02*
D03*
X179527Y186614D02*
D03*
X187008Y138976D02*
D03*
X186614Y144095D02*
D03*
Y148819D02*
D03*
X179528D02*
D03*
Y153543D02*
D03*
X186614D02*
D03*
Y158268D02*
D03*
X193701D02*
D03*
Y153543D02*
D03*
X200787Y158268D02*
D03*
X251772Y133858D02*
D03*
X255906D02*
D03*
X164370Y146457D02*
D03*
X179528Y158268D02*
D03*
X94882Y186614D02*
D03*
X94882Y181890D02*
D03*
X101969Y186614D02*
D03*
X101969Y181890D02*
D03*
X109055Y181890D02*
D03*
X109055Y186614D02*
D03*
X116142Y186614D02*
D03*
X116142Y181890D02*
D03*
X116142Y177165D02*
D03*
X116142Y172441D02*
D03*
X116142Y167717D02*
D03*
X116142Y162992D02*
D03*
X116142Y158268D02*
D03*
X109055Y153543D02*
D03*
Y158268D02*
D03*
X94882D02*
D03*
X101969D02*
D03*
Y153543D02*
D03*
X94882D02*
D03*
Y148819D02*
D03*
X101969D02*
D03*
Y144095D02*
D03*
X102362Y138976D02*
D03*
X83465Y198031D02*
D03*
X86221Y192520D02*
D03*
X56299Y198425D02*
D03*
X60236Y202362D02*
D03*
X68110D02*
D03*
X75984D02*
D03*
X56299Y206299D02*
D03*
X64173D02*
D03*
X72047D02*
D03*
X60236Y210236D02*
D03*
X68110D02*
D03*
X75984D02*
D03*
X72047Y214173D02*
D03*
X64173D02*
D03*
X56299D02*
D03*
X33465Y194882D02*
D03*
X37795Y192913D02*
D03*
X135827Y174606D02*
D03*
Y185236D02*
D03*
X140748Y179921D02*
D03*
X145669Y185236D02*
D03*
X155512D02*
D03*
X165354D02*
D03*
X150591Y179921D02*
D03*
X160433D02*
D03*
X165354Y174606D02*
D03*
X155512D02*
D03*
X160433Y169291D02*
D03*
X209842Y81496D02*
D03*
X170669Y85827D02*
D03*
Y75000D02*
D03*
Y63189D02*
D03*
X194882Y55118D02*
D03*
Y47244D02*
D03*
X214567Y55118D02*
D03*
Y47244D02*
D03*
X312008Y179134D02*
D03*
X319882D02*
D03*
X312008Y198819D02*
D03*
X319882D02*
D03*
X323524Y258987D02*
D03*
X329429D02*
D03*
X128750Y22638D02*
D03*
X136821Y58423D02*
D03*
Y47872D02*
D03*
Y53148D02*
D03*
Y42596D02*
D03*
X125797Y53994D02*
D03*
X131703D02*
D03*
X71850Y38738D02*
D03*
X71464Y43725D02*
D03*
Y53699D02*
D03*
Y58686D02*
D03*
Y63672D02*
D03*
Y68659D02*
D03*
Y48712D02*
D03*
X241339Y83858D02*
D03*
Y79921D02*
D03*
X160827Y144488D02*
D03*
X244882Y148031D02*
D03*
X163189Y133858D02*
D03*
X6693Y264304D02*
D03*
X11417Y272047D02*
D03*
X6693Y284252D02*
D03*
Y279265D02*
D03*
Y274278D02*
D03*
Y269291D02*
D03*
Y259318D02*
D03*
Y254331D02*
D03*
X66929Y268799D02*
D03*
X61024D02*
D03*
X72047Y257402D02*
D03*
Y267953D02*
D03*
Y262677D02*
D03*
Y273228D02*
D03*
X57480Y272835D02*
D03*
X26378Y180315D02*
D03*
X342913Y283776D02*
D03*
X292520D02*
D03*
X305906Y285433D02*
D03*
X317717D02*
D03*
X329528D02*
D03*
X305906Y297244D02*
D03*
X317717D02*
D03*
X329528D02*
D03*
X341339Y309055D02*
D03*
X329528D02*
D03*
X317717D02*
D03*
X305906D02*
D03*
X294094D02*
D03*
X167323Y133858D02*
D03*
X249016Y148031D02*
D03*
X174409Y75000D02*
D03*
X89173Y155020D02*
D03*
X83268Y133858D02*
D03*
X86221Y152264D02*
D03*
X87008Y133858D02*
D03*
X174409Y85827D02*
D03*
Y63189D02*
D03*
X187845Y73474D02*
D03*
X184596D02*
D03*
X210679Y86270D02*
D03*
X206742D02*
D03*
X187845D02*
D03*
X199606Y81201D02*
D03*
X184941Y64075D02*
D03*
X187795Y65847D02*
D03*
M02*
