M48
;Layer_Color=9474304
;FILE_FORMAT=2:4
INCH,TZ
;TYPE=PLATED
T01F00S00C0.0079
T02F00S00C0.0118
T03F00S00C0.0354
T04F00S00C0.0433
T05F00S00C0.0472
T06F00S00C0.0984
T08F00S00C0.1339
T09F00S00C0.1772
T10F00S00C0.2283
;TYPE=NON_PLATED
T11F00S00C0.0472
T12F00S00C0.0492
T13F00S00C0.1024
%
T01
X6299Y6929
X6693Y7008
Y8189
X6299Y8189
X9606Y8346
X9567Y8858
X9961
X10354
X11122Y8661
Y8268
Y7972
Y7579
Y7283
Y6890
X10335Y6496
Y6102
Y5709
Y5315
X10039Y4921
X10630
X11220
X11811
X12402
X12402Y4331
X11811
X11220
X10630
X10039
X9252Y4429
X9744Y6890
X9606Y7598
X9567Y10236
X9961
X10354
X10709Y10709
X10965Y11949
X11476
Y12461
X10965
X10453
Y11949
X11988
Y12461
X12303Y13976
X12697
Y14567
X12303
X12697Y15098
X13091
Y15610
X12697
X10276Y15512
Y15197
X9882Y15197
Y15512
X9921Y13583
X9606Y13425
X9213
Y13032
X8819
X8720Y12205
X8701Y11614
Y11024
X15157Y14843
Y15276
X20748Y14961
X21220
X21654Y15591
X21752Y12402
Y11614
X21417Y10846
X21358Y9449
Y9055
X20817Y9931
X20079Y10236
X19488
X18898Y10276
X18701Y8661
X19094
X19488
X19882
X20276
X23622Y8268
Y7874
X24016
X24409
Y8268
X24016
Y7480
X24409
X23622
X26063Y7638
X26441
Y7165
X26063
X26024Y5709
X25787Y5394
Y4921
X26024Y4606
X28831Y4331
X29134Y4606
X28858Y8819
X29902Y9429
X29921Y10433
X29528
X30512
X30906
X30787Y11811
X31201Y11713
X30591Y12129
X30673Y12972
Y13341
X31024
Y13825
X30673
Y14193
X30217
Y13825
X29760
X29409
Y13341
X29760
Y12972
X30217
Y13341
X29760Y14193
X29735Y15326
X31024Y15236
X27087Y15177
X27461Y14311
Y13819
Y13130
Y12638
X27618Y11594
X27618Y11043
X27913Y11299
X29094Y11457
X29055Y12244
X29862Y11850
X28504Y13386
X27618Y10000
X24264Y10854
X22835Y11339
X31102Y8819
X16122Y4823
X17874Y1732
X35827Y3740
Y4134
X36890Y9764
X36986Y10175
X37378Y9897
X37321Y9447
X37769Y9619
X38937Y8465
X38406Y11909
Y12500
X34055Y12559
Y13051
X33465Y13287
Y13780
X33957Y13780
Y14449
X34016Y14843
Y15354
X31845Y15486
X31497Y15348
X32087Y13701
Y13425
X31534Y12193
X32795Y12205
X34055Y11870
Y11378
X33366Y10807
X33366Y10256
X35039Y13858
X41968Y11535
X41496Y10866
X41968Y9724
X42677Y8708
X45000Y8268
X45079Y6299
X43819Y6417
X45354Y13189
X46144Y14409
X46129Y14961
X46124Y15512
X46445Y15236
X46457Y14685
X47165Y13307
Y12480
X47047Y10866
X47638
X48228
X48465Y11180
X49764Y11260
Y10827
Y10394
X50039Y10118
X50087Y9595
X49714Y9849
X49724Y9331
X49173Y9134
X48780Y9094
X48492Y8855
X48740Y8543
X48228Y9488
X47638
X47047
Y6299
X49980Y7402
X50413
X51378Y7953
X51929
X52126Y8346
X51654
X51181
X51654Y9646
X52085Y9567
X52087Y9941
X52088Y10315
X51654Y10157
X52470Y9567
X52854
X53228
Y9173
X54232Y9843
X54291Y10984
Y11417
Y11850
X54646Y11614
Y11220
X56220Y11299
X56240Y10472
X57441Y10236
X57362Y11339
Y11811
X57717Y11968
Y11575
Y11181
X56220Y12795
X54606Y13661
X54232
X52992Y14134
X53268Y12677
X52677Y12559
X52244
X52087Y12913
X51220
Y12539
X50866Y12717
X49843Y12520
X50236Y11102
Y10591
X52598Y10945
X52520Y12205
X52913
X51791Y14764
X51594Y15118
X51791Y15453
X51142Y14764
X51417Y14488
X51142Y14213
X50394Y14409
X50098Y14173
Y14764
X50433Y14961
X48543Y15000
Y14449
X53228Y7402
X53661
X54291Y7795
X54724
X55732Y6063
X56024Y5787
X58504Y5630
X58976
X59213Y5315
X58740
X58268
X62598Y17717
X63386
X64173
Y18504
Y19291
Y20079
Y20866
X64567Y20472
X65354
X65748Y20866
X65354Y21260
X66142
X66535Y20866
X67323
X66929Y21260
X67717
X68110Y21654
X67717Y22047
X68110Y22441
Y23228
Y24016
Y24803
X67717Y25197
X68110Y25591
Y26378
Y27165
Y27953
X68110Y28740
Y29528
Y30315
Y31102
X67323
X66535
X65748
X64961
X64173
X63386
X62992Y29134
X62598
Y28740
X62992
X63386Y28346
X63780
Y27953
Y27559
Y27165
Y26772
Y26378
Y25984
Y25591
Y25197
Y24803
Y24409
X63386
Y24803
Y25197
Y25591
Y25984
Y26378
Y26772
Y27165
Y27559
Y27953
X62992Y24803
Y24409
X62598
Y24803
X63780Y23622
Y22835
Y22047
X64567Y21260
X64961Y20866
Y20079
X63386Y20177
Y20571
Y19783
Y19390
X62992
X62598
X62598Y18504
X63386
X68110Y20079
X67717Y20472
X68110Y20866
X62205Y20571
X61811
Y20177
X62205
Y19783
X61811
Y19390
X62205
X61417
X61024
X60630
Y19783
Y20177
Y20571
X60138Y19488
X59449Y19291
Y18504
X60236
X61024
X61811
Y17717
X61024
X60236
X58661Y19291
Y20079
X57874
Y19291
X57087
Y20079
X56299
Y18504
X56732
X57165
X57638
X55787
X54724Y19291
Y20079
X53937
Y19291
X53150
Y20079
X53130Y20768
Y21161
X52736
Y20768
Y21555
Y21949
X53130
Y21555
X54724Y21654
Y22441
X54764Y23858
X53976
Y24646
X54370
Y25039
X53976
Y25433
X54370
Y25827
Y26220
Y26614
Y27008
Y27402
Y27795
Y28189
X54764
X55157
Y27795
X55551
Y28189
Y28583
X54764
X53976
Y28189
Y27795
Y27402
Y27008
Y26614
Y26220
Y25827
X53189Y26220
Y25433
Y25039
X52795
Y24646
Y24252
X53189
Y24646
Y23858
X50827
Y24252
Y24646
X51220
Y24252
Y25039
X50827
Y25433
Y26220
X51220
X51614
Y26614
X51220
X50827
Y27008
X51220
X51614
Y27402
Y27795
X52402
X53189
Y28583
X52795
Y28976
Y29370
X53189
Y30157
X52402
Y29370
Y28976
Y28583
Y27008
X53189
X52402Y26220
X50305Y27067
X50394Y28583
Y28976
Y29370
X50787
Y28976
Y28583
X50827Y30157
X51614
X53976
Y29370
X54764
Y30157
X55551
Y29370
X56339
Y30157
Y30945
X57126
X57913
X59941Y30906
X61122
X62303
X62205Y28346
X61417
X61024
X60512Y28268
X60276Y27953
X60394Y27126
X59173Y27205
Y26811
Y26417
Y26024
Y25630
Y25236
X58780
X58386
Y25630
X58780
Y26024
X58386
Y26417
X58780
Y26811
X58386
Y27205
X58780
Y27598
X58386
X58780Y27992
X59173
Y27598
X56339Y27795
X55945
Y28189
X56339Y28583
X56299Y21654
X57087
X57874
Y20866
X58661
X59449Y20079
X57087Y20866
X54724Y20866
X52362Y20079
Y19291
X51575
X50787
Y20079
X50846Y20768
X51240
Y21161
X50846
Y21555
X51240
Y21949
X50846
X48701Y21949
X48307
Y21555
Y21161
Y20768
X48701
Y21161
Y21555
X48425Y20276
X48386Y19685
Y18898
X47598
Y18110
X49213Y18898
Y19685
X50000Y19291
Y20079
X51575
X50354Y16693
X49803
X50079Y16417
Y16968
X52776Y15866
X50039Y23858
Y24646
Y25433
X48425
Y25827
X48032
X47638
X47244
X47244Y26220
Y26614
Y27008
Y27402
Y28189
Y28583
X47638
X48425
X48819
X48858Y31004
X48465
X48071
X47677
X47283
X46890
X47726Y27067
X48425Y25039
Y24646
Y24252
Y23858
X58583Y23740
X61024Y24409
X61417
X61811
X62205
Y24803
X61811
Y25197
X62205
X61417
Y24803
X61024
Y25197
X46850Y25039
Y24646
Y24252
X46457
Y24646
Y23858
X46850
Y25433
Y25827
Y28583
X46457
X45669
X45276
X43819Y28307
X43425
X43032
Y27913
X42638
X42244
Y28307
X42638
X43425Y27913
X43819
Y27520
X43425
Y27126
X43032
X42244
X41457
X40669
X39882
Y26339
X39055Y26102
Y25315
X38268
Y26102
X37500Y26083
X36713
X35925
X35118Y26102
X34331
Y25315
X35118
Y24528
X34331
Y23740
X35118
Y22953
X34331
Y22165
X35118
Y21378
X34331
Y20591
X35118
Y19803
X34331
X34606Y18898
X35394
Y18110
X34606
X33819
Y18898
X33031
Y18110
X32244
Y18898
X31457
Y18110
X31496Y15748
X31844Y15885
X32283Y16043
Y16437
X37480Y16181
X37756Y15922
X38031Y16181
X37756Y16457
X37756Y17323
X38543
X39331
Y18110
X38543
X37756
X36969
Y17323
X36693Y19803
Y20591
X37480
Y19803
X38268
Y20591
Y21378
Y22165
Y22953
Y23740
Y24528
X39055
Y23740
Y22953
Y22165
Y21378
Y20591
Y19803
X39843Y20591
X41417Y20591
Y19803
X43386
X43780Y20197
X44173Y19803
X44567Y20197
X44961Y19803
X45354Y20197
Y20984
X45965Y21063
X46417Y21161
X46811
Y20768
X46417
Y21555
X46811
Y21949
X46417
X45965Y22638
X44567Y20984
X43780
X44173Y20591
X43386
X44961
X46063Y19685
X46850Y20276
X46811Y18110
Y17323
X46024
X44449Y18110
Y18898
X43661
Y18110
Y17323
X42874
Y18110
X42087Y17323
X41417Y22953
X39843Y22953
X39055Y26890
X38268
X37480
X36693
X35906
X35118
X34331
X39882Y27913
Y28701
X40669
Y27913
X41457
Y28701
X41929Y29882
Y30276
Y30669
Y31063
X39409Y31063
Y30669
Y30276
Y29882
X39016Y29921
Y30709
X38622Y30315
X38228Y30709
Y29921
X38622Y29528
Y31102
X44921Y31004
X45315
X45709
X46102
X46496
X43819Y27126
Y26732
X43425
X35906Y20591
Y19803
X30669Y18898
Y18110
X29882
Y18898
X29094
X28307
Y18110
X29094
X27520Y18504
Y19291
X26732
Y18504
X25945
Y19291
X25157
Y18504
X24370
Y19291
Y20079
X23976
X23583
Y20472
X23189
X22795
Y20079
X23189
X22795Y19291
X23583
Y18504
X22795
X21220
X20433
X19646
X19646Y19291
X20433
X21220
X21220Y20079
X20827
X20827Y20472
X21220
X21614
Y20079
X21063Y20906
Y21299
Y21693
Y23071
X21457
Y23465
X21063
Y23858
X21457
Y24252
Y24646
Y25039
X21063
Y24646
Y24252
X20669
Y24646
X20276
Y24252
X19882
Y24646
Y25039
X20276
X20669
X19882Y25433
Y25827
X19488
Y25433
Y25039
Y24646
Y24252
X19094
Y24646
Y25039
Y25433
Y25827
X16968Y26772
Y27165
X16575
Y26772
X16181
Y27165
X15787
Y26772
Y26378
Y25984
Y25591
Y25197
Y24803
Y24409
Y24016
X16181
X16575
X17362
X17756
X17677Y21654
X17283
Y21260
X17677
X18071
Y21654
X18465
Y21260
Y20827
Y20472
Y20079
X18858
X19252
X19646
X20039
Y20472
Y20827
X19646
Y20472
X19252
Y20827
X18858
Y20472
Y19291
X17283
X16496
X16496Y18504
X15709
Y19291
Y20866
Y21260
Y21654
X16102
Y21260
X16496
Y21654
X16890
Y21260
X17283Y20866
X18071
Y20079
X17283
X16496Y20866
X17283Y18504
X18071
X18976Y15906
X26752Y16673
X28110Y16457
X24370Y20866
X23976
X23583
Y21260
Y21654
Y22047
X23976
Y22441
X24370
Y21654
X23976
Y21260
Y20472
X23583Y22441
X23898Y25433
X24685
Y26220
X23898
Y27008
X24685
Y27795
X23898
Y28583
X24685
Y29370
X23898
Y30157
X24685
Y30945
X23898
X23110Y30157
X22323
X21535
X20748
X19961
X19173
X18386
X17598
Y30945
X16929Y30512
Y29724
X16535Y29331
X16142Y29724
X16083Y30413
X15689
Y30807
X16083
Y31201
X15689
X16535Y30906
Y30118
X27835Y30157
Y29370
X28622
Y30157
Y30945
X27835
Y28583
Y27795
X28622
Y28583
Y27008
Y26220
Y25433
X27835
Y26220
Y27008
X27047Y26220
Y25433
X26260
Y26220
X25472
Y25433
X15266Y25354
X15000Y24016
X14606
X14528Y21654
Y21260
X14921
Y21654
X15315
Y21260
X14921Y20866
Y19291
X14134
Y18504
X13346
X13071Y19291
Y19685
Y20079
Y20472
X12677
Y20079
Y19685
Y19291
X11181
X10787
Y19685
X11181
Y20079
X10787
Y20472
X11181
X11378Y21260
X9803
X8228
X8228Y20472
X8622
Y20079
Y19685
Y19291
X8228
Y19685
Y20079
X6732
X6339
Y20472
X6732
Y19685
X6339
Y19291
X6732
X7047Y18504
X6614Y17835
X6299Y17559
X5472Y18504
X4685
X3898
X3110
X2323
X1535
X748
X748Y19291
X1535
Y20079
X748
X748Y20866
X1535
Y21654
X748
X748Y22441
X1535
X2323
X3110
X3898
X4685
Y23228
X3898
X3110
X2323
X2323Y24016
X3110
X3898
X4685
Y24803
X3898
X6299Y24803
X6693
Y24409
X6299
Y24016
X6693
X7087Y24409
X7480
Y24803
X7087
Y25591
X6299
Y26378
X7087
Y27165
X6299
X7874
X8268Y27559
X8661
Y27165
X9055Y27559
Y27953
X8661
X8268
X9449
Y27559
Y27165
X9843Y27559
X10236
Y27165
X10630Y27559
X11024
Y27165
Y27953
Y28346
Y28740
Y29134
X10630
Y29528
Y29921
X11024
Y30315
Y30709
X10630
Y30315
Y31102
X11024
X11811
Y30315
X12598
X13386
Y31102
X14193Y31201
Y30807
Y30413
X13386Y29528
Y28740
Y27953
Y27165
X12598
Y27953
Y28740
X11811
Y27953
Y27165
Y26378
Y25984
Y25591
Y25197
Y24803
Y24409
X11417
X11024
Y24016
Y24803
X11417
X11024Y25591
Y26378
X10236
X9449
X8661
X7874
X8661Y25591
Y24803
X8268
Y24409
X8661
Y24016
X8268
X7874Y24409
Y24803
X9449Y25591
X10236
Y27953
X9843
X10630
Y28346
Y28740
X11024Y29528
X11811
X12598
X12283Y26535
X12687Y25354
X12953Y21260
X11772Y18504
X10197
X8622
X9409Y19291
X9882Y16968
Y16614
Y16260
X10276Y16260
Y16614
Y16969
X12707Y16791
X13100
Y16280
X12707
X14921Y18504
X9449Y24016
X6654Y21260
X4685Y21654
X3898
X3898Y20866
X4685
Y20079
X3898
X3898Y19291
X4685
X3110
Y20079
X2323
X2323Y19291
Y20866
X3110
Y21654
X2323
X1535Y23228
X748
X748Y24016
X1535
X748Y24803
X669Y28858
Y29646
X1457Y28858
X3819
X4606
X5394
X5787
X6181
Y29252
X5787
Y29646
X6181
Y30039
X5787
Y30433
X6181
Y30827
X5787
Y31220
X6181
X5394
Y30433
Y29646
X6575
Y29252
Y28858
Y30039
Y30433
X6181Y31614
X5787
Y32008
X6181
X5394
Y32795
X6181
X6368Y33238
X6850Y32874
X7126Y32598
X9449Y32677
X10236
Y31890
X9843
X9449
X9055
X10630
X11024
Y31496
Y32677
X11417
Y32283
X11811
X12205
X12598
Y31890
X11811
Y32677
Y33071
X11417
Y33465
Y33858
Y34252
Y34646
X11811
Y34252
Y33858
Y33465
X11024
Y34252
X10236
X9449
Y35039
X10236
Y33465
X9449
X8465Y34961
X7362Y35472
X7323Y37874
X8071
X7697Y38760
X9350Y37500
X10138
X10709Y37756
X12047Y37913
X12520
X12972Y38760
X14783Y38051
X14961Y36220
Y35827
X15354
X11890Y35610
X11516Y35610
X12244Y36457
X13386Y31890
X14193Y31594
X4606Y32795
X3819
Y33583
X4606
X3031
Y32795
X2244
X1457
X669
Y32008
X3228Y35197
X4567Y35354
X5039
X4508Y36417
X5512Y36811
X15984Y37283
X16535Y37008
Y36220
X16142Y35827
X15748
Y35433
X16142
X16535
X16142Y35039
X15748
Y34646
Y34252
X16142
Y34646
X16535
Y33858
X16142
X15748
Y33465
X16142
Y33071
X16535
Y32283
X16142
Y32677
X15748
Y32283
X15689Y31594
X16083
X16535Y31693
X16929Y31299
X17598Y31732
X18386
X19173
X19961
X20748
X21535
X22323
X23110
X23898
X24685
Y32520
X23898
X24016Y33858
X24803Y34646
X25591Y33858
X25472Y32520
X26260
X27047
X27835
X28622
Y31732
X27835
X27067Y31693
X26280
X25492
X26378Y34646
X27165Y33858
X27953Y34646
X28740Y33858
X29528Y34646
X30315Y33858
X31102Y34646
Y36220
X30315Y35433
X29528Y36220
X28740Y35433
X27953Y36220
X27165Y35433
X26378Y36220
X25591Y35433
Y37008
X26378Y37795
X27165Y37008
X27953Y37795
X28740Y37008
X29528Y37795
X30315Y37008
X31102Y37795
X30315Y38583
X28740
X27165
X25591
X24016
X22441
X21654Y37795
X20472Y38583
X19685
X18898
X18110
X17323
Y37795
Y34646
Y33858
X18110
X18898
X19685
X20472
Y34646
X21654Y34646
X22441Y33858
X20472Y33071
X19685
X18898
X18110
X17323
X15748
X31890Y33858
X32677Y34646
X33465Y33858
X34252Y34646
X35039Y33858
X35827Y34646
X36614Y33858
X37402Y34646
X38189Y33858
X38976Y34646
X39764Y33858
X40551Y34646
X41339Y33858
X42126Y34646
X42913Y33858
X44488
X45276Y34646
Y33071
X46063Y32283
X46102Y31398
X45709
X45315
X44921
X44488Y32283
X43701Y33071
X42913Y32283
X42126Y33071
X41339Y32283
X41378Y31496
X41772
X40984
X40591
X40197
X39803
X39409Y31457
X39016Y31496
X38228
X38189Y32283
X38976Y33071
X39764Y32283
X40551Y33071
Y36220
X41339Y35433
Y37008
X40551Y37795
X39764Y37008
X38976Y37795
X38189Y37008
X37402Y37795
X36614Y37008
Y35433
X35827Y36220
X35039Y35433
X34252Y36220
X33465Y35433
X32677Y36220
X31890Y35433
Y37008
X32677Y37795
X31890Y38583
X36614
X38189
X39764
X41339
X39764Y35433
X38976Y36220
X38189Y35433
X37402Y36220
X46496Y33701
X46850Y33071
X46496Y31398
X46890
X47283
X47677
X48071
X48465
X48858
X49311Y32283
X50413Y32087
X50807
Y32480
Y32874
X50413
Y32480
Y31693
X50807
X52303
X52697
Y32087
X52303
Y32480
Y32874
X52697
Y32480
X53583Y32126
Y31339
X54370Y31339
Y31732
Y32126
Y32520
Y32913
Y33307
Y33701
Y34094
Y35276
X53583
X52795
Y34488
X53583
Y33701
X52795
X52008
X51220
X50433
X49646
X48858
X48071
X47283
X47638Y32283
X48425Y33071
X50433Y34488
X51220
Y35276
Y36063
X50433
Y35276
Y36850
Y37638
X51220
X51693Y37520
X52835
X53228Y37756
X54528Y37874
X55118
X56378Y37087
X55528Y35627
Y35236
X53819Y36063
X52008Y35276
X51220Y36850
Y38425
X50433
X49646
X51693Y38819
X52835
X53583Y32913
X54764Y31732
Y31339
X55157
Y31732
X55945
Y31339
X56339
X56732
Y31732
X56339
X57126
Y31339
X57520
Y31732
X57913
Y31339
X59941Y31299
X60335
X60728
X61122
X61516
X61909
X62303
X61654Y33425
Y33819
X60945Y34291
X58740Y34449
X59646Y32756
Y32362
X59449Y36890
X58504Y37402
X63268Y38248
X64370Y37205
X64016Y34803
Y34213
X64783Y34075
X64961Y32677
X65748
Y31890
X64961
X64173
Y32677
X63386
Y31890
X66535
Y32677
X67323
X68110
Y31890
X67323
X66732Y35039
X65532Y35138
T02
X879Y879
X1575Y591
X2271Y879
X2559Y1575
X2271Y2271
X1575Y2559
X879Y2271
X591Y1575
X27618Y10413
X27618Y12224
X28425Y12874
X32559Y12598
X33268Y11890
X33406Y9626
X33753Y2271
X33465Y1575
X33753Y879
X34449Y591
X35145Y879
X35433Y1575
X35145Y2271
X34449Y2559
X38150Y14055
X66627Y2271
X66339Y1575
X66627Y879
X67323Y591
X68019Y879
X68307Y1575
X68019Y2271
X67323Y2559
X50827Y27795
X44921Y26721
Y26260
X42461Y30669
X18071Y26693
Y26231
X20630Y21693
X2271Y37099
X1575Y36811
X879Y37099
X591Y37795
X879Y38491
X1575Y38780
X2271Y38491
X2559Y37795
X33465Y37795
X33753Y37099
X34449Y36811
X35145Y37099
X35433Y37795
X35145Y38491
X34449Y38780
X33753Y38491
X66627
X66339Y37795
X66627Y37099
X67323Y36811
X68019Y37099
X68307Y37795
X68019Y38491
X67323Y38780
T03
X13598Y1181
X14598
X3774Y11319
Y12319
X22933Y14197
Y15197
X16815Y1181
X15815
T04
X2067Y5315
Y6496
X3248
Y7677
X2067
Y8858
X3248
Y5315
Y14961
X2067
X60827Y3346
X62008
Y2165
X60827
X63189
Y3346
X65650Y6496
Y7677
Y8858
Y10039
Y11220
X66831
Y10039
Y8858
Y7677
Y6496
X3248Y16142
X2067
T05
X19803Y1181
X20803
X21803
X22803
X23803
X24803
Y2854
X23803
X22803
X21803
X20803
X19803
X27831
X28831
X29831
X30831
Y1181
X29831
X28831
X27831
X38807Y1862
Y2862
X39807
Y1862
X40807
Y2862
X41807
Y1862
X42807
Y2862
X43807
Y1862
X44807
Y2862
X45807
Y1862
X46807
Y2862
X47807
Y1862
X51732Y2173
X52732
X53732
X54732
X55732
X56732
Y1173
X55732
X54732
X53732
X52732
X51732
T06
X36949Y29193
X26043Y23563
T08
X1575Y1575
X34449
X67323
X1575Y37795
X34449Y37795
X67323
T09
X7638Y2362
X10472
X66535Y15807
Y18642
T10
X66142Y23819
Y28150
X2559Y26378
Y30709
X19094Y36417
X23425
X43504Y36413
X47835
T11
X1697Y13780
Y17323
T12
X1693Y4134
Y10039
T13
X59646Y3346
X64370
X65650Y5315
Y12402
M30
