G04*
G04 #@! TF.GenerationSoftware,Altium Limited,Altium Designer,24.10.1 (45)*
G04*
G04 Layer_Physical_Order=3*
G04 Layer_Color=16440176*
%FSLAX25Y25*%
%MOIN*%
G70*
G04*
G04 #@! TF.SameCoordinates,2ED57A9A-72F5-4DC9-83BB-2DC3BA24BD7A*
G04*
G04*
G04 #@! TF.FilePolarity,Positive*
G04*
G01*
G75*
%ADD125C,0.10236*%
%ADD126C,0.07087*%
%ADD127R,0.07087X0.07087*%
%ADD128C,0.05906*%
%ADD129R,0.05906X0.05906*%
%ADD130C,0.25591*%
G04:AMPARAMS|DCode=131|XSize=393.7mil|YSize=196.85mil|CornerRadius=1.97mil|HoleSize=0mil|Usage=FLASHONLY|Rotation=270.000|XOffset=0mil|YOffset=0mil|HoleType=Round|Shape=RoundedRectangle|*
%AMROUNDEDRECTD131*
21,1,0.39370,0.19291,0,0,270.0*
21,1,0.38976,0.19685,0,0,270.0*
1,1,0.00394,-0.09646,-0.19488*
1,1,0.00394,-0.09646,0.19488*
1,1,0.00394,0.09646,0.19488*
1,1,0.00394,0.09646,-0.19488*
%
%ADD131ROUNDEDRECTD131*%
%ADD132C,0.13780*%
%ADD133R,0.05906X0.05906*%
%ADD134C,0.04921*%
%ADD135C,0.23622*%
%ADD136C,0.31496*%
%ADD137C,0.04724*%
%ADD138C,0.01772*%
%ADD139C,0.02362*%
D125*
X656496Y124016D02*
D03*
Y53150D02*
D03*
X643701Y33465D02*
D03*
X596457D02*
D03*
D126*
X656496Y112205D02*
D03*
Y100394D02*
D03*
Y88583D02*
D03*
Y76772D02*
D03*
Y64961D02*
D03*
X668307Y112205D02*
D03*
Y100394D02*
D03*
Y88583D02*
D03*
Y76772D02*
D03*
Y64961D02*
D03*
X631890Y33465D02*
D03*
X620079D02*
D03*
X608268D02*
D03*
X631890Y21654D02*
D03*
X620079D02*
D03*
X608268D02*
D03*
X288307Y11811D02*
D03*
X298307D02*
D03*
X278307D02*
D03*
X288307Y28543D02*
D03*
X298307D02*
D03*
X278307D02*
D03*
X517323Y21732D02*
D03*
X527323D02*
D03*
X537323D02*
D03*
X557323D02*
D03*
X547323D02*
D03*
X567323Y11732D02*
D03*
X557323D02*
D03*
X547323D02*
D03*
X537323D02*
D03*
X527323D02*
D03*
X517323D02*
D03*
X198031Y28543D02*
D03*
X208032D02*
D03*
X218032D02*
D03*
X238032D02*
D03*
X228031D02*
D03*
X198031Y11811D02*
D03*
X208032D02*
D03*
X218032D02*
D03*
X238032D02*
D03*
X228031D02*
D03*
X388071Y18622D02*
D03*
Y28622D02*
D03*
X398071Y18622D02*
D03*
Y28622D02*
D03*
X408071Y18622D02*
D03*
Y28622D02*
D03*
X418071Y18622D02*
D03*
Y28622D02*
D03*
X428071Y18622D02*
D03*
Y28622D02*
D03*
X438071Y18622D02*
D03*
Y28622D02*
D03*
X448071Y18622D02*
D03*
Y28622D02*
D03*
X458071Y18622D02*
D03*
Y28622D02*
D03*
X468071Y18622D02*
D03*
Y28622D02*
D03*
X478071Y18622D02*
D03*
X20669Y88583D02*
D03*
X32480Y53150D02*
D03*
Y76772D02*
D03*
Y88583D02*
D03*
X20669Y53150D02*
D03*
Y64961D02*
D03*
Y76772D02*
D03*
X32480Y64961D02*
D03*
Y149606D02*
D03*
Y161417D02*
D03*
X20669Y149606D02*
D03*
Y161417D02*
D03*
D127*
X308307Y11811D02*
D03*
Y28543D02*
D03*
X567323Y21732D02*
D03*
X248031Y28543D02*
D03*
Y11811D02*
D03*
X478071Y28622D02*
D03*
D128*
X135984Y11811D02*
D03*
X168150D02*
D03*
X37736Y123189D02*
D03*
X229331Y141969D02*
D03*
D129*
X145984Y11811D02*
D03*
X158150D02*
D03*
D130*
X344488Y377953D02*
D03*
Y15748D02*
D03*
X673228D02*
D03*
X15748D02*
D03*
X673228Y377953D02*
D03*
X15748Y377953D02*
D03*
D131*
X369488Y237598D02*
D03*
X260433Y293898D02*
D03*
D132*
X369488D02*
D03*
X260433Y237598D02*
D03*
D133*
X37736Y113189D02*
D03*
X229331Y151969D02*
D03*
D134*
X16929Y100394D02*
D03*
Y41339D02*
D03*
D135*
X76378Y23622D02*
D03*
X104724D02*
D03*
X665354Y186417D02*
D03*
Y158071D02*
D03*
D136*
X661417Y297244D02*
D03*
Y253937D02*
D03*
X435039Y364134D02*
D03*
X478346D02*
D03*
X190945Y364173D02*
D03*
X234252D02*
D03*
X25591Y307087D02*
D03*
Y263779D02*
D03*
D137*
X16969Y137795D02*
D03*
Y173228D02*
D03*
D138*
X178740Y17323D02*
D03*
X438189Y64173D02*
D03*
X414961Y108661D02*
D03*
X62992Y175591D02*
D03*
X66142Y178347D02*
D03*
X151575Y148425D02*
D03*
Y152756D02*
D03*
X498032Y166929D02*
D03*
X503543D02*
D03*
X484135Y172047D02*
D03*
X484252Y166535D02*
D03*
X480921Y174803D02*
D03*
X480975Y169291D02*
D03*
X481128Y163779D02*
D03*
X500787Y169685D02*
D03*
Y164173D02*
D03*
X532677Y126772D02*
D03*
X389370Y84646D02*
D03*
X426772Y87084D02*
D03*
X655315Y351378D02*
D03*
X576378Y185039D02*
D03*
X557874D02*
D03*
X562992D02*
D03*
X529921Y141339D02*
D03*
X640158Y348031D02*
D03*
X571654Y185039D02*
D03*
X567323D02*
D03*
X129724Y387598D02*
D03*
X516142Y277953D02*
D03*
X381496Y140551D02*
D03*
X384055Y119095D02*
D03*
Y125000D02*
D03*
X538189Y360630D02*
D03*
X643701Y372047D02*
D03*
X585827Y237402D02*
D03*
X592126Y271654D02*
D03*
X299016Y94291D02*
D03*
X288583Y88189D02*
D03*
X311024D02*
D03*
X290945Y114567D02*
D03*
X285039Y133858D02*
D03*
X288307Y43307D02*
D03*
X291339Y46063D02*
D03*
X172835Y212598D02*
D03*
Y216535D02*
D03*
Y208661D02*
D03*
X122835Y265354D02*
D03*
X207480Y149606D02*
D03*
X212205D02*
D03*
X189764Y159055D02*
D03*
X98819Y151969D02*
D03*
Y155118D02*
D03*
Y162598D02*
D03*
Y166142D02*
D03*
Y169685D02*
D03*
X260630Y76378D02*
D03*
Y71653D02*
D03*
X260236Y46063D02*
D03*
Y57087D02*
D03*
X131004Y167913D02*
D03*
X127067D02*
D03*
X264413Y71653D02*
D03*
Y76378D02*
D03*
X257874Y53937D02*
D03*
Y49213D02*
D03*
X373205Y94465D02*
D03*
X368898Y97638D02*
D03*
X369861Y101751D02*
D03*
X377690Y96193D02*
D03*
X373775Y98972D02*
D03*
X589764Y56299D02*
D03*
X585039D02*
D03*
X592126Y53150D02*
D03*
X587402D02*
D03*
X582677D02*
D03*
X560236Y57874D02*
D03*
X557323Y60630D02*
D03*
X562205Y127953D02*
D03*
X102756Y169685D02*
D03*
Y166142D02*
D03*
Y162598D02*
D03*
Y155118D02*
D03*
Y151969D02*
D03*
X88189Y130315D02*
D03*
X96063Y134252D02*
D03*
X92126D02*
D03*
Y130315D02*
D03*
X66929Y81890D02*
D03*
Y70079D02*
D03*
X62992Y81890D02*
D03*
Y70079D02*
D03*
X216535Y155905D02*
D03*
X362992Y177559D02*
D03*
X368504D02*
D03*
X365748Y180315D02*
D03*
Y174966D02*
D03*
X208268Y200787D02*
D03*
X239764Y224410D02*
D03*
X235827Y220472D02*
D03*
X239764Y216535D02*
D03*
X235827Y212598D02*
D03*
X239764Y208661D02*
D03*
Y200787D02*
D03*
X235827D02*
D03*
Y204724D02*
D03*
X231890Y200787D02*
D03*
X216142D02*
D03*
X184646Y208268D02*
D03*
Y204724D02*
D03*
Y200787D02*
D03*
X188583D02*
D03*
X192520D02*
D03*
X200394D02*
D03*
Y208268D02*
D03*
X87205Y122047D02*
D03*
X124016Y43307D02*
D03*
X118110D02*
D03*
X112205D02*
D03*
X106299D02*
D03*
X100394D02*
D03*
X100394Y49213D02*
D03*
X106299D02*
D03*
X112205D02*
D03*
X118110D02*
D03*
X124016D02*
D03*
X542913Y77953D02*
D03*
X547244D02*
D03*
X487402Y85433D02*
D03*
X484922Y88551D02*
D03*
X487795Y90945D02*
D03*
X519291Y79528D02*
D03*
X516535Y83465D02*
D03*
X521260D02*
D03*
X513779Y79528D02*
D03*
X511811Y83465D02*
D03*
X504331Y149606D02*
D03*
X503937Y144095D02*
D03*
X573622Y113386D02*
D03*
Y118110D02*
D03*
X577165Y111811D02*
D03*
Y115748D02*
D03*
Y119685D02*
D03*
X562402Y104724D02*
D03*
X525984Y109449D02*
D03*
X419685Y97244D02*
D03*
Y115354D02*
D03*
X484646Y111795D02*
D03*
X502362Y105905D02*
D03*
Y111024D02*
D03*
X497638Y108268D02*
D03*
Y112598D02*
D03*
Y103937D02*
D03*
X500873Y95952D02*
D03*
X515945Y151181D02*
D03*
X517913Y154528D02*
D03*
Y147638D02*
D03*
X527756Y158661D02*
D03*
X562205Y112992D02*
D03*
X546457Y116142D02*
D03*
Y112205D02*
D03*
X542913Y109843D02*
D03*
Y118504D02*
D03*
Y114173D02*
D03*
X532283Y91732D02*
D03*
X516535Y96457D02*
D03*
Y101575D02*
D03*
X520884Y103149D02*
D03*
X520867Y99409D02*
D03*
X574409Y102362D02*
D03*
X542323Y98425D02*
D03*
X520850Y95669D02*
D03*
X524697D02*
D03*
X528543D02*
D03*
X532283D02*
D03*
X520866Y129134D02*
D03*
X500394Y101181D02*
D03*
X497142Y98490D02*
D03*
X497244Y93307D02*
D03*
X491732Y91339D02*
D03*
X161221Y48228D02*
D03*
X511417Y147638D02*
D03*
X508661Y127165D02*
D03*
X529134Y122047D02*
D03*
X525197D02*
D03*
X526772Y125591D02*
D03*
X522441D02*
D03*
X512205Y125394D02*
D03*
Y129134D02*
D03*
X514173Y144882D02*
D03*
X511417Y142126D02*
D03*
X450000Y82677D02*
D03*
X453543Y131890D02*
D03*
X471654Y133071D02*
D03*
Y124803D02*
D03*
X498425Y125197D02*
D03*
X202756Y86614D02*
D03*
X198819D02*
D03*
X194882D02*
D03*
X190945D02*
D03*
X187008D02*
D03*
X504134Y74016D02*
D03*
X499803D02*
D03*
X532283D02*
D03*
X536614D02*
D03*
X542323Y136614D02*
D03*
X546063D02*
D03*
X500984Y147638D02*
D03*
Y141732D02*
D03*
X482283Y108661D02*
D03*
X476378D02*
D03*
X470472D02*
D03*
X482283Y94882D02*
D03*
X476378D02*
D03*
X470472D02*
D03*
X350394Y138583D02*
D03*
X281102Y164567D02*
D03*
X270866Y151772D02*
D03*
X318440Y158853D02*
D03*
X318446Y154857D02*
D03*
X314961Y157480D02*
D03*
X297351Y153256D02*
D03*
X310236Y152362D02*
D03*
X314967Y153484D02*
D03*
X333661Y102559D02*
D03*
X333661Y108071D02*
D03*
X276181Y100000D02*
D03*
X279134Y112992D02*
D03*
X276181Y110433D02*
D03*
X276181Y115945D02*
D03*
X228346Y113386D02*
D03*
X244094Y78740D02*
D03*
X236221D02*
D03*
X240158D02*
D03*
Y82677D02*
D03*
Y74803D02*
D03*
X236221D02*
D03*
X244094D02*
D03*
Y82677D02*
D03*
X236221D02*
D03*
X242638Y108543D02*
D03*
X215158Y108465D02*
D03*
X213583Y90551D02*
D03*
Y94488D02*
D03*
X194882Y102362D02*
D03*
X200787D02*
D03*
X188976Y102756D02*
D03*
X208169Y99311D02*
D03*
X92520Y44291D02*
D03*
X95669Y102362D02*
D03*
X99606D02*
D03*
X103543D02*
D03*
Y88583D02*
D03*
X99606D02*
D03*
X95669D02*
D03*
X103347Y53150D02*
D03*
Y57087D02*
D03*
X87008Y116142D02*
D03*
Y110236D02*
D03*
X99213Y135827D02*
D03*
X96063Y75984D02*
D03*
Y83465D02*
D03*
X97441Y68898D02*
D03*
X127067Y162795D02*
D03*
X131004D02*
D03*
X126969Y156102D02*
D03*
X130905D02*
D03*
Y150984D02*
D03*
X126969D02*
D03*
X123031Y145669D02*
D03*
X126969D02*
D03*
Y139764D02*
D03*
X123031D02*
D03*
X114764Y124606D02*
D03*
Y119488D02*
D03*
X109646D02*
D03*
Y124606D02*
D03*
X104527Y119488D02*
D03*
Y124606D02*
D03*
X119882Y119488D02*
D03*
Y124606D02*
D03*
X107087Y107087D02*
D03*
X103347Y61024D02*
D03*
Y64961D02*
D03*
X111221Y68898D02*
D03*
Y72835D02*
D03*
Y75787D02*
D03*
Y79724D02*
D03*
Y82677D02*
D03*
Y86614D02*
D03*
X327953Y122047D02*
D03*
X315342Y121933D02*
D03*
X305906Y121290D02*
D03*
X307874Y118110D02*
D03*
X340158Y153543D02*
D03*
Y147638D02*
D03*
X267520Y166732D02*
D03*
X298622Y118504D02*
D03*
X312008Y117126D02*
D03*
X320866Y134252D02*
D03*
Y137008D02*
D03*
X274606Y126378D02*
D03*
Y131299D02*
D03*
Y138189D02*
D03*
Y143110D02*
D03*
X340551Y118701D02*
D03*
Y113779D02*
D03*
Y130512D02*
D03*
Y125591D02*
D03*
X334646Y137795D02*
D03*
Y132874D02*
D03*
X309055Y104331D02*
D03*
X305118D02*
D03*
X299213D02*
D03*
X295276D02*
D03*
X290551Y122441D02*
D03*
X297598Y129724D02*
D03*
Y133405D02*
D03*
X294094D02*
D03*
X297598Y141929D02*
D03*
Y138248D02*
D03*
X294094D02*
D03*
X306732Y141929D02*
D03*
Y138248D02*
D03*
X310236D02*
D03*
X306732Y129724D02*
D03*
Y133405D02*
D03*
X310236D02*
D03*
X302165Y141929D02*
D03*
Y138248D02*
D03*
Y129724D02*
D03*
Y133405D02*
D03*
X632677Y382480D02*
D03*
X122441Y364567D02*
D03*
X147835Y380512D02*
D03*
X107087Y377559D02*
D03*
X76968Y387598D02*
D03*
X63681Y332382D02*
D03*
X32283Y351969D02*
D03*
X73622Y354724D02*
D03*
X80709Y378740D02*
D03*
X73228D02*
D03*
X45079Y364173D02*
D03*
X55118Y368110D02*
D03*
X647835Y340748D02*
D03*
X667323Y350394D02*
D03*
X640158Y342126D02*
D03*
X616535Y338189D02*
D03*
Y334252D02*
D03*
X555283Y352362D02*
D03*
Y356267D02*
D03*
X382283Y299213D02*
D03*
Y307087D02*
D03*
Y314961D02*
D03*
X394094Y314567D02*
D03*
Y310630D02*
D03*
Y306693D02*
D03*
Y298819D02*
D03*
X419291D02*
D03*
X421260Y346457D02*
D03*
X216535Y377953D02*
D03*
Y346457D02*
D03*
X248031D02*
D03*
X224409Y338583D02*
D03*
X240157D02*
D03*
X224409Y385827D02*
D03*
X240157D02*
D03*
X263779Y346457D02*
D03*
Y362205D02*
D03*
Y377953D02*
D03*
X279527Y346457D02*
D03*
Y362205D02*
D03*
Y377953D02*
D03*
X295275Y346457D02*
D03*
Y362205D02*
D03*
Y377953D02*
D03*
X311024Y346457D02*
D03*
Y362205D02*
D03*
Y377953D02*
D03*
X326772Y346457D02*
D03*
Y362205D02*
D03*
Y377953D02*
D03*
X342520Y346457D02*
D03*
Y362205D02*
D03*
X358268Y346457D02*
D03*
Y362205D02*
D03*
X374016Y346457D02*
D03*
Y362205D02*
D03*
Y377953D02*
D03*
X255905Y338583D02*
D03*
Y354331D02*
D03*
Y370079D02*
D03*
Y385827D02*
D03*
X271654Y338583D02*
D03*
Y354331D02*
D03*
Y370079D02*
D03*
Y385827D02*
D03*
X287402Y338583D02*
D03*
Y354331D02*
D03*
Y370079D02*
D03*
Y385827D02*
D03*
X303150Y338583D02*
D03*
Y354331D02*
D03*
Y370079D02*
D03*
Y385827D02*
D03*
X318898Y338583D02*
D03*
Y354331D02*
D03*
Y370079D02*
D03*
Y385827D02*
D03*
X334646Y338583D02*
D03*
Y354331D02*
D03*
X350394Y338583D02*
D03*
Y354331D02*
D03*
X366142Y338583D02*
D03*
Y354331D02*
D03*
Y370079D02*
D03*
Y385827D02*
D03*
X551181Y378740D02*
D03*
X545276D02*
D03*
X594488Y368898D02*
D03*
X528346Y375197D02*
D03*
X516929D02*
D03*
X528346Y388189D02*
D03*
X516929D02*
D03*
X532283Y377559D02*
D03*
X563779Y370866D02*
D03*
X605118Y282677D02*
D03*
X602756Y279528D02*
D03*
X596457Y327559D02*
D03*
Y323622D02*
D03*
X587402Y344488D02*
D03*
X609449Y342913D02*
D03*
X585039Y374016D02*
D03*
X623032Y309055D02*
D03*
Y312992D02*
D03*
X619095D02*
D03*
X615158D02*
D03*
X611221Y309055D02*
D03*
Y312992D02*
D03*
X607283D02*
D03*
X603346D02*
D03*
X599409D02*
D03*
Y309055D02*
D03*
X622047Y205709D02*
D03*
X618110D02*
D03*
X622047Y201772D02*
D03*
X618110D02*
D03*
X622047Y197835D02*
D03*
X618110D02*
D03*
X606299Y205709D02*
D03*
Y201772D02*
D03*
Y197835D02*
D03*
X633858Y205709D02*
D03*
Y201772D02*
D03*
Y197835D02*
D03*
Y193898D02*
D03*
X629921D02*
D03*
X625984D02*
D03*
X622047D02*
D03*
X618110D02*
D03*
X614173D02*
D03*
X610236D02*
D03*
X606299D02*
D03*
X569882Y226378D02*
D03*
X554134D02*
D03*
X585630Y210630D02*
D03*
X577756Y218504D02*
D03*
X569882Y210630D02*
D03*
X562008Y218504D02*
D03*
X546260D02*
D03*
X554134Y210630D02*
D03*
X467520Y202756D02*
D03*
X483268D02*
D03*
X499016D02*
D03*
X514764D02*
D03*
X530512D02*
D03*
X546260D02*
D03*
X562008D02*
D03*
X577756D02*
D03*
X593504D02*
D03*
X601378Y194882D02*
D03*
X585630D02*
D03*
X569882D02*
D03*
X554134D02*
D03*
X538386D02*
D03*
X522638D02*
D03*
X506890D02*
D03*
X491142D02*
D03*
X475394D02*
D03*
X459646Y226378D02*
D03*
Y210630D02*
D03*
Y194882D02*
D03*
X46850Y240158D02*
D03*
Y224410D02*
D03*
Y208661D02*
D03*
Y192913D02*
D03*
X31102Y240158D02*
D03*
Y192913D02*
D03*
Y208661D02*
D03*
Y224410D02*
D03*
X38976Y248031D02*
D03*
Y232283D02*
D03*
Y216535D02*
D03*
Y200787D02*
D03*
X7480Y248031D02*
D03*
Y232283D02*
D03*
Y216535D02*
D03*
Y200787D02*
D03*
X15354Y240158D02*
D03*
Y224410D02*
D03*
Y208661D02*
D03*
X23228Y232283D02*
D03*
Y216535D02*
D03*
Y200787D02*
D03*
X15354Y192913D02*
D03*
X7480Y185039D02*
D03*
X23228D02*
D03*
X38976D02*
D03*
X120472Y379134D02*
D03*
X125197D02*
D03*
X50394Y353543D02*
D03*
X45669D02*
D03*
X68504Y328740D02*
D03*
X71260Y325984D02*
D03*
X84646Y349606D02*
D03*
X159843Y372835D02*
D03*
X413386Y385827D02*
D03*
X381890D02*
D03*
X397638D02*
D03*
X413386Y370079D02*
D03*
X381890D02*
D03*
X397638D02*
D03*
X405512Y377953D02*
D03*
X389764D02*
D03*
X405512Y362205D02*
D03*
X389764D02*
D03*
X405512Y346457D02*
D03*
X413386Y354331D02*
D03*
X397638D02*
D03*
X389764Y346457D02*
D03*
X381890Y354331D02*
D03*
X452756Y346457D02*
D03*
X444882Y338583D02*
D03*
X429134D02*
D03*
X413386D02*
D03*
X397638D02*
D03*
X381890D02*
D03*
X484252Y330709D02*
D03*
X468504D02*
D03*
X452756D02*
D03*
X437008D02*
D03*
X421260D02*
D03*
X405512D02*
D03*
X389764D02*
D03*
X493110Y322835D02*
D03*
X476378D02*
D03*
X460630D02*
D03*
X444882D02*
D03*
X429134D02*
D03*
X413386D02*
D03*
X397638D02*
D03*
X381890D02*
D03*
X419291Y302756D02*
D03*
X386221Y295276D02*
D03*
X390158Y299213D02*
D03*
Y307087D02*
D03*
Y314961D02*
D03*
X394094Y302756D02*
D03*
X386221Y303150D02*
D03*
Y311024D02*
D03*
X398031Y314961D02*
D03*
X413779D02*
D03*
X405905D02*
D03*
X417717D02*
D03*
X419291Y306693D02*
D03*
Y310630D02*
D03*
X409842Y314961D02*
D03*
X401968D02*
D03*
X161417Y297244D02*
D03*
X156890Y315945D02*
D03*
Y312008D02*
D03*
Y308071D02*
D03*
Y304134D02*
D03*
X160827D02*
D03*
Y308071D02*
D03*
Y312008D02*
D03*
Y315945D02*
D03*
X141929Y312008D02*
D03*
Y308071D02*
D03*
Y304134D02*
D03*
Y315945D02*
D03*
X512401Y207677D02*
D03*
Y211614D02*
D03*
Y215551D02*
D03*
Y219488D02*
D03*
X508464D02*
D03*
Y215551D02*
D03*
Y211614D02*
D03*
Y207677D02*
D03*
X527362Y211614D02*
D03*
Y215551D02*
D03*
Y219488D02*
D03*
X531299D02*
D03*
Y215551D02*
D03*
Y211614D02*
D03*
Y207677D02*
D03*
X527362D02*
D03*
X468111Y207677D02*
D03*
Y211614D02*
D03*
Y215551D02*
D03*
Y219488D02*
D03*
X464174D02*
D03*
Y215551D02*
D03*
Y211614D02*
D03*
Y207677D02*
D03*
X483071Y211614D02*
D03*
Y215551D02*
D03*
Y219488D02*
D03*
X487008D02*
D03*
Y215551D02*
D03*
Y211614D02*
D03*
Y207677D02*
D03*
X483071D02*
D03*
X523031Y328740D02*
D03*
Y324803D02*
D03*
Y320866D02*
D03*
Y316929D02*
D03*
X526968D02*
D03*
Y320866D02*
D03*
Y324803D02*
D03*
Y328740D02*
D03*
X508071Y324803D02*
D03*
Y320866D02*
D03*
Y316929D02*
D03*
X504134D02*
D03*
Y320866D02*
D03*
Y324803D02*
D03*
Y328740D02*
D03*
X508071D02*
D03*
X449213Y313976D02*
D03*
X464961D02*
D03*
X480709D02*
D03*
X488583D02*
D03*
Y310039D02*
D03*
X480709D02*
D03*
X476772D02*
D03*
X484646D02*
D03*
X472835D02*
D03*
X468898D02*
D03*
X464961D02*
D03*
X461024D02*
D03*
X457087D02*
D03*
X453150D02*
D03*
X449213D02*
D03*
X476772Y313976D02*
D03*
X461024D02*
D03*
X484646D02*
D03*
X468898D02*
D03*
X472835D02*
D03*
X453150D02*
D03*
X457087D02*
D03*
X477264Y270669D02*
D03*
X503051D02*
D03*
X118898Y356102D02*
D03*
X115157Y356102D02*
D03*
X176772Y212598D02*
D03*
X180709D02*
D03*
X161024D02*
D03*
X164961D02*
D03*
X149213D02*
D03*
X66535D02*
D03*
X82284D02*
D03*
X98032D02*
D03*
X113779D02*
D03*
X129528D02*
D03*
X126772Y192913D02*
D03*
X130709D02*
D03*
Y196850D02*
D03*
Y200787D02*
D03*
Y204724D02*
D03*
X126772D02*
D03*
Y200787D02*
D03*
Y196850D02*
D03*
X107874Y192913D02*
D03*
Y196850D02*
D03*
Y200787D02*
D03*
Y204724D02*
D03*
X111811D02*
D03*
Y200787D02*
D03*
Y196850D02*
D03*
Y192913D02*
D03*
X86221D02*
D03*
Y196850D02*
D03*
Y200787D02*
D03*
Y204724D02*
D03*
X63386D02*
D03*
Y200787D02*
D03*
Y196850D02*
D03*
Y192913D02*
D03*
X67323D02*
D03*
Y196850D02*
D03*
Y200787D02*
D03*
Y204724D02*
D03*
X82284D02*
D03*
Y200787D02*
D03*
Y196850D02*
D03*
Y192913D02*
D03*
X94095D02*
D03*
X141339D02*
D03*
X54724Y185039D02*
D03*
X70473D02*
D03*
X86221D02*
D03*
X101969D02*
D03*
X117717D02*
D03*
X133465D02*
D03*
X196457Y208268D02*
D03*
X192520D02*
D03*
Y204724D02*
D03*
X196457D02*
D03*
X200394D02*
D03*
X157087Y212598D02*
D03*
X184646Y216535D02*
D03*
X180709D02*
D03*
X176772D02*
D03*
X168898D02*
D03*
X164961D02*
D03*
X161024D02*
D03*
X149213D02*
D03*
X157087D02*
D03*
X153150D02*
D03*
X145276D02*
D03*
X227953Y204724D02*
D03*
X210630Y209055D02*
D03*
Y212992D02*
D03*
X212205Y204724D02*
D03*
X188583D02*
D03*
X212205Y185039D02*
D03*
X149213D02*
D03*
X164961D02*
D03*
X180709D02*
D03*
X196457D02*
D03*
X227953D02*
D03*
X243701D02*
D03*
X188583Y192913D02*
D03*
X172835D02*
D03*
X157087D02*
D03*
X180709Y200787D02*
D03*
X164961D02*
D03*
X149213D02*
D03*
X164961Y208661D02*
D03*
X157087D02*
D03*
X149213D02*
D03*
X145276Y212598D02*
D03*
X153150D02*
D03*
X168898D02*
D03*
X184646D02*
D03*
X180709Y208661D02*
D03*
X188583Y208268D02*
D03*
X196457Y200787D02*
D03*
X204331Y192913D02*
D03*
X235827D02*
D03*
X216142Y204724D02*
D03*
X208268D02*
D03*
X212205Y200787D02*
D03*
X227953D02*
D03*
X231890Y204724D02*
D03*
X243701Y200787D02*
D03*
Y208661D02*
D03*
Y216535D02*
D03*
X235827D02*
D03*
Y208661D02*
D03*
X239764Y204724D02*
D03*
Y212598D02*
D03*
Y220472D02*
D03*
X243701Y224410D02*
D03*
X235827D02*
D03*
X165354Y293307D02*
D03*
X169291Y297244D02*
D03*
Y305118D02*
D03*
X165354Y301181D02*
D03*
Y309055D02*
D03*
X169291Y312992D02*
D03*
X165354Y316929D02*
D03*
X152657Y253543D02*
D03*
X126870D02*
D03*
X210630Y216929D02*
D03*
D139*
X284252Y128740D02*
D03*
X325590Y125984D02*
D03*
X332677Y118898D02*
D03*
X344488Y368110D02*
D03*
X334646Y377953D02*
D03*
X354331D02*
D03*
X344488Y387795D02*
D03*
X351448Y370993D02*
D03*
X337528D02*
D03*
X351448Y384912D02*
D03*
X337528D02*
D03*
X344488Y5906D02*
D03*
X334646Y15748D02*
D03*
X354331D02*
D03*
X344488Y25591D02*
D03*
X351448Y8788D02*
D03*
X337528D02*
D03*
X351448Y22708D02*
D03*
X337528D02*
D03*
X334055Y96260D02*
D03*
X276181Y104134D02*
D03*
X276181Y122244D02*
D03*
X424606Y306693D02*
D03*
X449213Y267215D02*
D03*
Y262598D02*
D03*
X206299Y216929D02*
D03*
X180709Y266929D02*
D03*
Y262313D02*
D03*
X673228Y5906D02*
D03*
X663386Y15748D02*
D03*
X683071D02*
D03*
X673228Y25591D02*
D03*
X680188Y8788D02*
D03*
X666269D02*
D03*
X680188Y22708D02*
D03*
X666269D02*
D03*
X15748Y5906D02*
D03*
X5906Y15748D02*
D03*
X25591D02*
D03*
X15748Y25591D02*
D03*
X22708Y8788D02*
D03*
X8788D02*
D03*
X22708Y22708D02*
D03*
X8788D02*
D03*
X673228Y368110D02*
D03*
X663386Y377953D02*
D03*
X683071D02*
D03*
X673228Y387795D02*
D03*
X680188Y370993D02*
D03*
X666269D02*
D03*
X680188Y384912D02*
D03*
X666269D02*
D03*
X15748Y368110D02*
D03*
X5906Y377953D02*
D03*
X25591D02*
D03*
X15748Y387795D02*
D03*
X22708Y370993D02*
D03*
X8788D02*
D03*
X22708Y384912D02*
D03*
X8788D02*
D03*
M02*
