G04*
G04 #@! TF.GenerationSoftware,Altium Limited,Altium Designer,24.10.1 (45)*
G04*
G04 Layer_Color=16711935*
%FSLAX25Y25*%
%MOIN*%
G70*
G04*
G04 #@! TF.SameCoordinates,9BC8A13C-1D6A-410A-9E68-788C98055640*
G04*
G04*
G04 #@! TF.FilePolarity,Negative*
G04*
G01*
G75*
%ADD108C,0.32087*%
%ADD109C,0.24213*%
%ADD110C,0.05315*%
%ADD111C,0.07677*%
%ADD112C,0.05118*%
G04:AMPARAMS|DCode=113|XSize=419.29mil|YSize=210.63mil|CornerRadius=8.07mil|HoleSize=0mil|Usage=FLASHONLY|Rotation=270.000|XOffset=0mil|YOffset=0mil|HoleType=Round|Shape=RoundedRectangle|*
%AMROUNDEDRECTD113*
21,1,0.41929,0.19449,0,0,270.0*
21,1,0.40315,0.21063,0,0,270.0*
1,1,0.01614,-0.09724,-0.20157*
1,1,0.01614,-0.09724,0.20157*
1,1,0.01614,0.09724,0.20157*
1,1,0.01614,0.09724,-0.20157*
%
%ADD113ROUNDEDRECTD113*%
%ADD114C,0.14370*%
%ADD115C,0.06496*%
%ADD116R,0.06496X0.06496*%
%ADD117C,0.10630*%
%ADD118R,0.07677X0.07677*%
%ADD119C,0.26181*%
%ADD120R,0.06496X0.06496*%
D108*
X234252Y364173D02*
D03*
X190945D02*
D03*
X25591Y263779D02*
D03*
Y307087D02*
D03*
X478346Y364134D02*
D03*
X435039D02*
D03*
X661417Y238189D02*
D03*
Y281496D02*
D03*
D109*
X665354Y186417D02*
D03*
Y158071D02*
D03*
X104724Y23622D02*
D03*
X76378D02*
D03*
D110*
X16929Y41339D02*
D03*
Y100394D02*
D03*
D111*
X32480Y64961D02*
D03*
X20669Y76772D02*
D03*
Y64961D02*
D03*
Y53150D02*
D03*
X32480Y88583D02*
D03*
Y76772D02*
D03*
Y53150D02*
D03*
X20669Y88583D02*
D03*
X32480Y161417D02*
D03*
X20669D02*
D03*
X32480Y149606D02*
D03*
X20669D02*
D03*
X656496Y112205D02*
D03*
Y100394D02*
D03*
Y88583D02*
D03*
Y76772D02*
D03*
Y64961D02*
D03*
X668307Y112205D02*
D03*
Y100394D02*
D03*
Y88583D02*
D03*
Y76772D02*
D03*
Y64961D02*
D03*
X631890Y33465D02*
D03*
X620079D02*
D03*
X608268D02*
D03*
X631890Y21654D02*
D03*
X620079D02*
D03*
X608268D02*
D03*
X288307Y11811D02*
D03*
X298307D02*
D03*
X278307D02*
D03*
X288307Y28543D02*
D03*
X298307D02*
D03*
X278307D02*
D03*
X517323Y21732D02*
D03*
X527323D02*
D03*
X537323D02*
D03*
X557323D02*
D03*
X547323D02*
D03*
X567323Y11732D02*
D03*
X557323D02*
D03*
X547323D02*
D03*
X537323D02*
D03*
X527323D02*
D03*
X517323D02*
D03*
X198031Y28543D02*
D03*
X208032D02*
D03*
X218032D02*
D03*
X238032D02*
D03*
X228031D02*
D03*
X198031Y11811D02*
D03*
X208032D02*
D03*
X218032D02*
D03*
X238032D02*
D03*
X228031D02*
D03*
X388071Y18622D02*
D03*
Y28622D02*
D03*
X398071Y18622D02*
D03*
Y28622D02*
D03*
X408071Y18622D02*
D03*
Y28622D02*
D03*
X418071Y18622D02*
D03*
Y28622D02*
D03*
X428071Y18622D02*
D03*
Y28622D02*
D03*
X438071Y18622D02*
D03*
Y28622D02*
D03*
X448071Y18622D02*
D03*
Y28622D02*
D03*
X458071Y18622D02*
D03*
Y28622D02*
D03*
X468071Y18622D02*
D03*
Y28622D02*
D03*
X478071Y18622D02*
D03*
D112*
X16969Y173228D02*
D03*
Y137795D02*
D03*
D113*
X369488Y235630D02*
D03*
X260433Y291929D02*
D03*
D114*
X369488D02*
D03*
X260433Y235630D02*
D03*
D115*
X168150Y11811D02*
D03*
X135984D02*
D03*
X37736Y123189D02*
D03*
X229331Y141969D02*
D03*
D116*
X158150Y11811D02*
D03*
X145984D02*
D03*
D117*
X656496Y124016D02*
D03*
Y53150D02*
D03*
X643701Y33465D02*
D03*
X596457D02*
D03*
D118*
X308307Y11811D02*
D03*
Y28543D02*
D03*
X567323Y21732D02*
D03*
X248031Y28543D02*
D03*
Y11811D02*
D03*
X478071Y28622D02*
D03*
D119*
X344488Y377953D02*
D03*
Y15748D02*
D03*
X673228D02*
D03*
X15748D02*
D03*
X673228Y377953D02*
D03*
X15748Y377953D02*
D03*
D120*
X37736Y113189D02*
D03*
X229331Y151969D02*
D03*
M02*
