G04*
G04 #@! TF.GenerationSoftware,Altium Limited,Altium Designer,24.10.1 (45)*
G04*
G04 Layer_Color=8388736*
%FSLAX25Y25*%
%MOIN*%
G70*
G04*
G04 #@! TF.SameCoordinates,9BC8A13C-1D6A-410A-9E68-788C98055640*
G04*
G04*
G04 #@! TF.FilePolarity,Negative*
G04*
G01*
G75*
G04:AMPARAMS|DCode=62|XSize=56.3mil|YSize=57.09mil|CornerRadius=9.25mil|HoleSize=0mil|Usage=FLASHONLY|Rotation=0.000|XOffset=0mil|YOffset=0mil|HoleType=Round|Shape=RoundedRectangle|*
%AMROUNDEDRECTD62*
21,1,0.05630,0.03858,0,0,0.0*
21,1,0.03780,0.05709,0,0,0.0*
1,1,0.01850,0.01890,-0.01929*
1,1,0.01850,-0.01890,-0.01929*
1,1,0.01850,-0.01890,0.01929*
1,1,0.01850,0.01890,0.01929*
%
%ADD62ROUNDEDRECTD62*%
G04:AMPARAMS|DCode=63|XSize=155.51mil|YSize=84.65mil|CornerRadius=8.86mil|HoleSize=0mil|Usage=FLASHONLY|Rotation=270.000|XOffset=0mil|YOffset=0mil|HoleType=Round|Shape=RoundedRectangle|*
%AMROUNDEDRECTD63*
21,1,0.15551,0.06693,0,0,270.0*
21,1,0.13780,0.08465,0,0,270.0*
1,1,0.01772,-0.03347,-0.06890*
1,1,0.01772,-0.03347,0.06890*
1,1,0.01772,0.03347,0.06890*
1,1,0.01772,0.03347,-0.06890*
%
%ADD63ROUNDEDRECTD63*%
G04:AMPARAMS|DCode=64|XSize=27.56mil|YSize=64.96mil|CornerRadius=4.92mil|HoleSize=0mil|Usage=FLASHONLY|Rotation=0.000|XOffset=0mil|YOffset=0mil|HoleType=Round|Shape=RoundedRectangle|*
%AMROUNDEDRECTD64*
21,1,0.02756,0.05512,0,0,0.0*
21,1,0.01772,0.06496,0,0,0.0*
1,1,0.00984,0.00886,-0.02756*
1,1,0.00984,-0.00886,-0.02756*
1,1,0.00984,-0.00886,0.02756*
1,1,0.00984,0.00886,0.02756*
%
%ADD64ROUNDEDRECTD64*%
G04:AMPARAMS|DCode=65|XSize=148.82mil|YSize=215.75mil|CornerRadius=13.67mil|HoleSize=0mil|Usage=FLASHONLY|Rotation=180.000|XOffset=0mil|YOffset=0mil|HoleType=Round|Shape=RoundedRectangle|*
%AMROUNDEDRECTD65*
21,1,0.14882,0.18840,0,0,180.0*
21,1,0.12148,0.21575,0,0,180.0*
1,1,0.02734,-0.06074,0.09420*
1,1,0.02734,0.06074,0.09420*
1,1,0.02734,0.06074,-0.09420*
1,1,0.02734,-0.06074,-0.09420*
%
%ADD65ROUNDEDRECTD65*%
G04:AMPARAMS|DCode=66|XSize=33.86mil|YSize=59.92mil|CornerRadius=6.45mil|HoleSize=0mil|Usage=FLASHONLY|Rotation=180.000|XOffset=0mil|YOffset=0mil|HoleType=Round|Shape=RoundedRectangle|*
%AMROUNDEDRECTD66*
21,1,0.03386,0.04703,0,0,180.0*
21,1,0.02097,0.05992,0,0,180.0*
1,1,0.01289,-0.01048,0.02351*
1,1,0.01289,0.01048,0.02351*
1,1,0.01289,0.01048,-0.02351*
1,1,0.01289,-0.01048,-0.02351*
%
%ADD66ROUNDEDRECTD66*%
G04:AMPARAMS|DCode=67|XSize=33.86mil|YSize=29.13mil|CornerRadius=5.86mil|HoleSize=0mil|Usage=FLASHONLY|Rotation=0.000|XOffset=0mil|YOffset=0mil|HoleType=Round|Shape=RoundedRectangle|*
%AMROUNDEDRECTD67*
21,1,0.03386,0.01742,0,0,0.0*
21,1,0.02215,0.02913,0,0,0.0*
1,1,0.01171,0.01107,-0.00871*
1,1,0.01171,-0.01107,-0.00871*
1,1,0.01171,-0.01107,0.00871*
1,1,0.01171,0.01107,0.00871*
%
%ADD67ROUNDEDRECTD67*%
G04:AMPARAMS|DCode=68|XSize=92.52mil|YSize=179.13mil|CornerRadius=9.45mil|HoleSize=0mil|Usage=FLASHONLY|Rotation=180.000|XOffset=0mil|YOffset=0mil|HoleType=Round|Shape=RoundedRectangle|*
%AMROUNDEDRECTD68*
21,1,0.09252,0.16024,0,0,180.0*
21,1,0.07362,0.17913,0,0,180.0*
1,1,0.01890,-0.03681,0.08012*
1,1,0.01890,0.03681,0.08012*
1,1,0.01890,0.03681,-0.08012*
1,1,0.01890,-0.03681,-0.08012*
%
%ADD68ROUNDEDRECTD68*%
G04:AMPARAMS|DCode=69|XSize=155.51mil|YSize=84.65mil|CornerRadius=8.86mil|HoleSize=0mil|Usage=FLASHONLY|Rotation=180.000|XOffset=0mil|YOffset=0mil|HoleType=Round|Shape=RoundedRectangle|*
%AMROUNDEDRECTD69*
21,1,0.15551,0.06693,0,0,180.0*
21,1,0.13780,0.08465,0,0,180.0*
1,1,0.01772,-0.06890,0.03347*
1,1,0.01772,0.06890,0.03347*
1,1,0.01772,0.06890,-0.03347*
1,1,0.01772,-0.06890,-0.03347*
%
%ADD69ROUNDEDRECTD69*%
G04:AMPARAMS|DCode=70|XSize=112.21mil|YSize=250mil|CornerRadius=10.93mil|HoleSize=0mil|Usage=FLASHONLY|Rotation=270.000|XOffset=0mil|YOffset=0mil|HoleType=Round|Shape=RoundedRectangle|*
%AMROUNDEDRECTD70*
21,1,0.11221,0.22815,0,0,270.0*
21,1,0.09035,0.25000,0,0,270.0*
1,1,0.02185,-0.11408,-0.04518*
1,1,0.02185,-0.11408,0.04518*
1,1,0.02185,0.11408,0.04518*
1,1,0.02185,0.11408,-0.04518*
%
%ADD70ROUNDEDRECTD70*%
G04:AMPARAMS|DCode=71|XSize=31.5mil|YSize=43.31mil|CornerRadius=6.15mil|HoleSize=0mil|Usage=FLASHONLY|Rotation=180.000|XOffset=0mil|YOffset=0mil|HoleType=Round|Shape=RoundedRectangle|*
%AMROUNDEDRECTD71*
21,1,0.03150,0.03100,0,0,180.0*
21,1,0.01919,0.04331,0,0,180.0*
1,1,0.01230,-0.00960,0.01550*
1,1,0.01230,0.00960,0.01550*
1,1,0.01230,0.00960,-0.01550*
1,1,0.01230,-0.00960,-0.01550*
%
%ADD71ROUNDEDRECTD71*%
G04:AMPARAMS|DCode=72|XSize=31.5mil|YSize=43.31mil|CornerRadius=6.15mil|HoleSize=0mil|Usage=FLASHONLY|Rotation=270.000|XOffset=0mil|YOffset=0mil|HoleType=Round|Shape=RoundedRectangle|*
%AMROUNDEDRECTD72*
21,1,0.03150,0.03100,0,0,270.0*
21,1,0.01919,0.04331,0,0,270.0*
1,1,0.01230,-0.01550,-0.00960*
1,1,0.01230,-0.01550,0.00960*
1,1,0.01230,0.01550,0.00960*
1,1,0.01230,0.01550,-0.00960*
%
%ADD72ROUNDEDRECTD72*%
G04:AMPARAMS|DCode=73|XSize=49.21mil|YSize=41.34mil|CornerRadius=6.5mil|HoleSize=0mil|Usage=FLASHONLY|Rotation=90.000|XOffset=0mil|YOffset=0mil|HoleType=Round|Shape=RoundedRectangle|*
%AMROUNDEDRECTD73*
21,1,0.04921,0.02835,0,0,90.0*
21,1,0.03622,0.04134,0,0,90.0*
1,1,0.01299,0.01417,0.01811*
1,1,0.01299,0.01417,-0.01811*
1,1,0.01299,-0.01417,-0.01811*
1,1,0.01299,-0.01417,0.01811*
%
%ADD73ROUNDEDRECTD73*%
G04:AMPARAMS|DCode=74|XSize=68.9mil|YSize=61.02mil|CornerRadius=7.09mil|HoleSize=0mil|Usage=FLASHONLY|Rotation=90.000|XOffset=0mil|YOffset=0mil|HoleType=Round|Shape=RoundedRectangle|*
%AMROUNDEDRECTD74*
21,1,0.06890,0.04685,0,0,90.0*
21,1,0.05472,0.06102,0,0,90.0*
1,1,0.01417,0.02343,0.02736*
1,1,0.01417,0.02343,-0.02736*
1,1,0.01417,-0.02343,-0.02736*
1,1,0.01417,-0.02343,0.02736*
%
%ADD74ROUNDEDRECTD74*%
G04:AMPARAMS|DCode=75|XSize=110.24mil|YSize=147.64mil|CornerRadius=4.92mil|HoleSize=0mil|Usage=FLASHONLY|Rotation=270.000|XOffset=0mil|YOffset=0mil|HoleType=Round|Shape=RoundedRectangle|*
%AMROUNDEDRECTD75*
21,1,0.11024,0.13780,0,0,270.0*
21,1,0.10039,0.14764,0,0,270.0*
1,1,0.00984,-0.06890,-0.05020*
1,1,0.00984,-0.06890,0.05020*
1,1,0.00984,0.06890,0.05020*
1,1,0.00984,0.06890,-0.05020*
%
%ADD75ROUNDEDRECTD75*%
G04:AMPARAMS|DCode=76|XSize=49.21mil|YSize=41.34mil|CornerRadius=5.61mil|HoleSize=0mil|Usage=FLASHONLY|Rotation=270.000|XOffset=0mil|YOffset=0mil|HoleType=Round|Shape=RoundedRectangle|*
%AMROUNDEDRECTD76*
21,1,0.04921,0.03012,0,0,270.0*
21,1,0.03799,0.04134,0,0,270.0*
1,1,0.01122,-0.01506,-0.01900*
1,1,0.01122,-0.01506,0.01900*
1,1,0.01122,0.01506,0.01900*
1,1,0.01122,0.01506,-0.01900*
%
%ADD76ROUNDEDRECTD76*%
G04:AMPARAMS|DCode=77|XSize=57.09mil|YSize=57.09mil|CornerRadius=8.07mil|HoleSize=0mil|Usage=FLASHONLY|Rotation=270.000|XOffset=0mil|YOffset=0mil|HoleType=Round|Shape=RoundedRectangle|*
%AMROUNDEDRECTD77*
21,1,0.05709,0.04095,0,0,270.0*
21,1,0.04095,0.05709,0,0,270.0*
1,1,0.01614,-0.02047,-0.02047*
1,1,0.01614,-0.02047,0.02047*
1,1,0.01614,0.02047,0.02047*
1,1,0.01614,0.02047,-0.02047*
%
%ADD77ROUNDEDRECTD77*%
G04:AMPARAMS|DCode=78|XSize=49.21mil|YSize=41.34mil|CornerRadius=5.61mil|HoleSize=0mil|Usage=FLASHONLY|Rotation=180.000|XOffset=0mil|YOffset=0mil|HoleType=Round|Shape=RoundedRectangle|*
%AMROUNDEDRECTD78*
21,1,0.04921,0.03012,0,0,180.0*
21,1,0.03799,0.04134,0,0,180.0*
1,1,0.01122,-0.01900,0.01506*
1,1,0.01122,0.01900,0.01506*
1,1,0.01122,0.01900,-0.01506*
1,1,0.01122,-0.01900,-0.01506*
%
%ADD78ROUNDEDRECTD78*%
G04:AMPARAMS|DCode=79|XSize=37.4mil|YSize=41.34mil|CornerRadius=6.89mil|HoleSize=0mil|Usage=FLASHONLY|Rotation=0.000|XOffset=0mil|YOffset=0mil|HoleType=Round|Shape=RoundedRectangle|*
%AMROUNDEDRECTD79*
21,1,0.03740,0.02756,0,0,0.0*
21,1,0.02362,0.04134,0,0,0.0*
1,1,0.01378,0.01181,-0.01378*
1,1,0.01378,-0.01181,-0.01378*
1,1,0.01378,-0.01181,0.01378*
1,1,0.01378,0.01181,0.01378*
%
%ADD79ROUNDEDRECTD79*%
G04:AMPARAMS|DCode=80|XSize=78.74mil|YSize=59.06mil|CornerRadius=8.86mil|HoleSize=0mil|Usage=FLASHONLY|Rotation=270.000|XOffset=0mil|YOffset=0mil|HoleType=Round|Shape=RoundedRectangle|*
%AMROUNDEDRECTD80*
21,1,0.07874,0.04134,0,0,270.0*
21,1,0.06102,0.05906,0,0,270.0*
1,1,0.01772,-0.02067,-0.03051*
1,1,0.01772,-0.02067,0.03051*
1,1,0.01772,0.02067,0.03051*
1,1,0.01772,0.02067,-0.03051*
%
%ADD80ROUNDEDRECTD80*%
%ADD81C,0.04528*%
G04:AMPARAMS|DCode=82|XSize=26.57mil|YSize=48.82mil|CornerRadius=3.67mil|HoleSize=0mil|Usage=FLASHONLY|Rotation=90.000|XOffset=0mil|YOffset=0mil|HoleType=Round|Shape=RoundedRectangle|*
%AMROUNDEDRECTD82*
21,1,0.02657,0.04149,0,0,90.0*
21,1,0.01924,0.04882,0,0,90.0*
1,1,0.00733,0.02074,0.00962*
1,1,0.00733,0.02074,-0.00962*
1,1,0.00733,-0.02074,-0.00962*
1,1,0.00733,-0.02074,0.00962*
%
%ADD82ROUNDEDRECTD82*%
G04:AMPARAMS|DCode=83|XSize=15.75mil|YSize=51.18mil|CornerRadius=3.45mil|HoleSize=0mil|Usage=FLASHONLY|Rotation=90.000|XOffset=0mil|YOffset=0mil|HoleType=Round|Shape=RoundedRectangle|*
%AMROUNDEDRECTD83*
21,1,0.01575,0.04429,0,0,90.0*
21,1,0.00886,0.05118,0,0,90.0*
1,1,0.00689,0.02215,0.00443*
1,1,0.00689,0.02215,-0.00443*
1,1,0.00689,-0.02215,-0.00443*
1,1,0.00689,-0.02215,0.00443*
%
%ADD83ROUNDEDRECTD83*%
G04:AMPARAMS|DCode=84|XSize=15.75mil|YSize=51.18mil|CornerRadius=3.45mil|HoleSize=0mil|Usage=FLASHONLY|Rotation=0.000|XOffset=0mil|YOffset=0mil|HoleType=Round|Shape=RoundedRectangle|*
%AMROUNDEDRECTD84*
21,1,0.01575,0.04429,0,0,0.0*
21,1,0.00886,0.05118,0,0,0.0*
1,1,0.00689,0.00443,-0.02215*
1,1,0.00689,-0.00443,-0.02215*
1,1,0.00689,-0.00443,0.02215*
1,1,0.00689,0.00443,0.02215*
%
%ADD84ROUNDEDRECTD84*%
G04:AMPARAMS|DCode=85|XSize=49.21mil|YSize=41.34mil|CornerRadius=6.5mil|HoleSize=0mil|Usage=FLASHONLY|Rotation=0.000|XOffset=0mil|YOffset=0mil|HoleType=Round|Shape=RoundedRectangle|*
%AMROUNDEDRECTD85*
21,1,0.04921,0.02835,0,0,0.0*
21,1,0.03622,0.04134,0,0,0.0*
1,1,0.01299,0.01811,-0.01417*
1,1,0.01299,-0.01811,-0.01417*
1,1,0.01299,-0.01811,0.01417*
1,1,0.01299,0.01811,0.01417*
%
%ADD85ROUNDEDRECTD85*%
G04:AMPARAMS|DCode=86|XSize=49.21mil|YSize=139.76mil|CornerRadius=4.92mil|HoleSize=0mil|Usage=FLASHONLY|Rotation=0.000|XOffset=0mil|YOffset=0mil|HoleType=Round|Shape=RoundedRectangle|*
%AMROUNDEDRECTD86*
21,1,0.04921,0.12992,0,0,0.0*
21,1,0.03937,0.13976,0,0,0.0*
1,1,0.00984,0.01968,-0.06496*
1,1,0.00984,-0.01968,-0.06496*
1,1,0.00984,-0.01968,0.06496*
1,1,0.00984,0.01968,0.06496*
%
%ADD86ROUNDEDRECTD86*%
G04:AMPARAMS|DCode=87|XSize=68.9mil|YSize=129.92mil|CornerRadius=7.68mil|HoleSize=0mil|Usage=FLASHONLY|Rotation=0.000|XOffset=0mil|YOffset=0mil|HoleType=Round|Shape=RoundedRectangle|*
%AMROUNDEDRECTD87*
21,1,0.06890,0.11457,0,0,0.0*
21,1,0.05354,0.12992,0,0,0.0*
1,1,0.01535,0.02677,-0.05728*
1,1,0.01535,-0.02677,-0.05728*
1,1,0.01535,-0.02677,0.05728*
1,1,0.01535,0.02677,0.05728*
%
%ADD87ROUNDEDRECTD87*%
G04:AMPARAMS|DCode=88|XSize=61.02mil|YSize=41.34mil|CornerRadius=5.61mil|HoleSize=0mil|Usage=FLASHONLY|Rotation=90.000|XOffset=0mil|YOffset=0mil|HoleType=Round|Shape=RoundedRectangle|*
%AMROUNDEDRECTD88*
21,1,0.06102,0.03012,0,0,90.0*
21,1,0.04980,0.04134,0,0,90.0*
1,1,0.01122,0.01506,0.02490*
1,1,0.01122,0.01506,-0.02490*
1,1,0.01122,-0.01506,-0.02490*
1,1,0.01122,-0.01506,0.02490*
%
%ADD88ROUNDEDRECTD88*%
G04:AMPARAMS|DCode=89|XSize=29.53mil|YSize=45.28mil|CornerRadius=4.96mil|HoleSize=0mil|Usage=FLASHONLY|Rotation=270.000|XOffset=0mil|YOffset=0mil|HoleType=Round|Shape=RoundedRectangle|*
%AMROUNDEDRECTD89*
21,1,0.02953,0.03535,0,0,270.0*
21,1,0.01961,0.04528,0,0,270.0*
1,1,0.00992,-0.01768,-0.00980*
1,1,0.00992,-0.01768,0.00980*
1,1,0.00992,0.01768,0.00980*
1,1,0.00992,0.01768,-0.00980*
%
%ADD89ROUNDEDRECTD89*%
G04:AMPARAMS|DCode=90|XSize=55.12mil|YSize=108.27mil|CornerRadius=6.64mil|HoleSize=0mil|Usage=FLASHONLY|Rotation=0.000|XOffset=0mil|YOffset=0mil|HoleType=Round|Shape=RoundedRectangle|*
%AMROUNDEDRECTD90*
21,1,0.05512,0.09498,0,0,0.0*
21,1,0.04183,0.10827,0,0,0.0*
1,1,0.01329,0.02092,-0.04749*
1,1,0.01329,-0.02092,-0.04749*
1,1,0.01329,-0.02092,0.04749*
1,1,0.01329,0.02092,0.04749*
%
%ADD90ROUNDEDRECTD90*%
G04:AMPARAMS|DCode=91|XSize=224.41mil|YSize=230.32mil|CornerRadius=8.41mil|HoleSize=0mil|Usage=FLASHONLY|Rotation=0.000|XOffset=0mil|YOffset=0mil|HoleType=Round|Shape=RoundedRectangle|*
%AMROUNDEDRECTD91*
21,1,0.22441,0.21348,0,0,0.0*
21,1,0.20758,0.23032,0,0,0.0*
1,1,0.01683,0.10379,-0.10674*
1,1,0.01683,-0.10379,-0.10674*
1,1,0.01683,-0.10379,0.10674*
1,1,0.01683,0.10379,0.10674*
%
%ADD91ROUNDEDRECTD91*%
G04:AMPARAMS|DCode=92|XSize=61.02mil|YSize=41.34mil|CornerRadius=5.61mil|HoleSize=0mil|Usage=FLASHONLY|Rotation=180.000|XOffset=0mil|YOffset=0mil|HoleType=Round|Shape=RoundedRectangle|*
%AMROUNDEDRECTD92*
21,1,0.06102,0.03012,0,0,180.0*
21,1,0.04980,0.04134,0,0,180.0*
1,1,0.01122,-0.02490,0.01506*
1,1,0.01122,0.02490,0.01506*
1,1,0.01122,0.02490,-0.01506*
1,1,0.01122,-0.02490,-0.01506*
%
%ADD92ROUNDEDRECTD92*%
G04:AMPARAMS|DCode=93|XSize=68.9mil|YSize=129.92mil|CornerRadius=7.68mil|HoleSize=0mil|Usage=FLASHONLY|Rotation=90.000|XOffset=0mil|YOffset=0mil|HoleType=Round|Shape=RoundedRectangle|*
%AMROUNDEDRECTD93*
21,1,0.06890,0.11457,0,0,90.0*
21,1,0.05354,0.12992,0,0,90.0*
1,1,0.01535,0.05728,0.02677*
1,1,0.01535,0.05728,-0.02677*
1,1,0.01535,-0.05728,-0.02677*
1,1,0.01535,-0.05728,0.02677*
%
%ADD93ROUNDEDRECTD93*%
G04:AMPARAMS|DCode=94|XSize=80.71mil|YSize=74.8mil|CornerRadius=9.84mil|HoleSize=0mil|Usage=FLASHONLY|Rotation=270.000|XOffset=0mil|YOffset=0mil|HoleType=Round|Shape=RoundedRectangle|*
%AMROUNDEDRECTD94*
21,1,0.08071,0.05512,0,0,270.0*
21,1,0.06102,0.07480,0,0,270.0*
1,1,0.01968,-0.02756,-0.03051*
1,1,0.01968,-0.02756,0.03051*
1,1,0.01968,0.02756,0.03051*
1,1,0.01968,0.02756,-0.03051*
%
%ADD94ROUNDEDRECTD94*%
G04:AMPARAMS|DCode=95|XSize=104.33mil|YSize=72.84mil|CornerRadius=4.92mil|HoleSize=0mil|Usage=FLASHONLY|Rotation=180.000|XOffset=0mil|YOffset=0mil|HoleType=Round|Shape=RoundedRectangle|*
%AMROUNDEDRECTD95*
21,1,0.10433,0.06299,0,0,180.0*
21,1,0.09449,0.07284,0,0,180.0*
1,1,0.00984,-0.04724,0.03150*
1,1,0.00984,0.04724,0.03150*
1,1,0.00984,0.04724,-0.03150*
1,1,0.00984,-0.04724,-0.03150*
%
%ADD95ROUNDEDRECTD95*%
G04:AMPARAMS|DCode=96|XSize=35.91mil|YSize=151.89mil|CornerRadius=5.2mil|HoleSize=0mil|Usage=FLASHONLY|Rotation=0.000|XOffset=0mil|YOffset=0mil|HoleType=Round|Shape=RoundedRectangle|*
%AMROUNDEDRECTD96*
21,1,0.03591,0.14148,0,0,0.0*
21,1,0.02550,0.15189,0,0,0.0*
1,1,0.01041,0.01275,-0.07074*
1,1,0.01041,-0.01275,-0.07074*
1,1,0.01041,-0.01275,0.07074*
1,1,0.01041,0.01275,0.07074*
%
%ADD96ROUNDEDRECTD96*%
G04:AMPARAMS|DCode=97|XSize=53.15mil|YSize=64.96mil|CornerRadius=6.5mil|HoleSize=0mil|Usage=FLASHONLY|Rotation=270.000|XOffset=0mil|YOffset=0mil|HoleType=Round|Shape=RoundedRectangle|*
%AMROUNDEDRECTD97*
21,1,0.05315,0.05197,0,0,270.0*
21,1,0.04016,0.06496,0,0,270.0*
1,1,0.01299,-0.02598,-0.02008*
1,1,0.01299,-0.02598,0.02008*
1,1,0.01299,0.02598,0.02008*
1,1,0.01299,0.02598,-0.02008*
%
%ADD97ROUNDEDRECTD97*%
G04:AMPARAMS|DCode=98|XSize=145.67mil|YSize=185.04mil|CornerRadius=3.94mil|HoleSize=0mil|Usage=FLASHONLY|Rotation=270.000|XOffset=0mil|YOffset=0mil|HoleType=Round|Shape=RoundedRectangle|*
%AMROUNDEDRECTD98*
21,1,0.14567,0.17717,0,0,270.0*
21,1,0.13780,0.18504,0,0,270.0*
1,1,0.00787,-0.08858,-0.06890*
1,1,0.00787,-0.08858,0.06890*
1,1,0.00787,0.08858,0.06890*
1,1,0.00787,0.08858,-0.06890*
%
%ADD98ROUNDEDRECTD98*%
G04:AMPARAMS|DCode=99|XSize=27.56mil|YSize=13.78mil|CornerRadius=3.2mil|HoleSize=0mil|Usage=FLASHONLY|Rotation=180.000|XOffset=0mil|YOffset=0mil|HoleType=Round|Shape=RoundedRectangle|*
%AMROUNDEDRECTD99*
21,1,0.02756,0.00738,0,0,180.0*
21,1,0.02116,0.01378,0,0,180.0*
1,1,0.00640,-0.01058,0.00369*
1,1,0.00640,0.01058,0.00369*
1,1,0.00640,0.01058,-0.00369*
1,1,0.00640,-0.01058,-0.00369*
%
%ADD99ROUNDEDRECTD99*%
G04:AMPARAMS|DCode=100|XSize=27.56mil|YSize=13.78mil|CornerRadius=3.2mil|HoleSize=0mil|Usage=FLASHONLY|Rotation=90.000|XOffset=0mil|YOffset=0mil|HoleType=Round|Shape=RoundedRectangle|*
%AMROUNDEDRECTD100*
21,1,0.02756,0.00738,0,0,90.0*
21,1,0.02116,0.01378,0,0,90.0*
1,1,0.00640,0.00369,0.01058*
1,1,0.00640,0.00369,-0.01058*
1,1,0.00640,-0.00369,-0.01058*
1,1,0.00640,-0.00369,0.01058*
%
%ADD100ROUNDEDRECTD100*%
G04:AMPARAMS|DCode=101|XSize=21.65mil|YSize=45.28mil|CornerRadius=4.18mil|HoleSize=0mil|Usage=FLASHONLY|Rotation=0.000|XOffset=0mil|YOffset=0mil|HoleType=Round|Shape=RoundedRectangle|*
%AMROUNDEDRECTD101*
21,1,0.02165,0.03691,0,0,0.0*
21,1,0.01329,0.04528,0,0,0.0*
1,1,0.00837,0.00664,-0.01846*
1,1,0.00837,-0.00664,-0.01846*
1,1,0.00837,-0.00664,0.01846*
1,1,0.00837,0.00664,0.01846*
%
%ADD101ROUNDEDRECTD101*%
G04:AMPARAMS|DCode=102|XSize=33.86mil|YSize=59.92mil|CornerRadius=6.45mil|HoleSize=0mil|Usage=FLASHONLY|Rotation=90.000|XOffset=0mil|YOffset=0mil|HoleType=Round|Shape=RoundedRectangle|*
%AMROUNDEDRECTD102*
21,1,0.03386,0.04703,0,0,90.0*
21,1,0.02097,0.05992,0,0,90.0*
1,1,0.01289,0.02351,0.01048*
1,1,0.01289,0.02351,-0.01048*
1,1,0.01289,-0.02351,-0.01048*
1,1,0.01289,-0.02351,0.01048*
%
%ADD102ROUNDEDRECTD102*%
G04:AMPARAMS|DCode=103|XSize=33.86mil|YSize=29.13mil|CornerRadius=5.86mil|HoleSize=0mil|Usage=FLASHONLY|Rotation=270.000|XOffset=0mil|YOffset=0mil|HoleType=Round|Shape=RoundedRectangle|*
%AMROUNDEDRECTD103*
21,1,0.03386,0.01742,0,0,270.0*
21,1,0.02215,0.02913,0,0,270.0*
1,1,0.01171,-0.00871,-0.01107*
1,1,0.01171,-0.00871,0.01107*
1,1,0.01171,0.00871,0.01107*
1,1,0.01171,0.00871,-0.01107*
%
%ADD103ROUNDEDRECTD103*%
G04:AMPARAMS|DCode=104|XSize=53.15mil|YSize=64.96mil|CornerRadius=6.5mil|HoleSize=0mil|Usage=FLASHONLY|Rotation=0.000|XOffset=0mil|YOffset=0mil|HoleType=Round|Shape=RoundedRectangle|*
%AMROUNDEDRECTD104*
21,1,0.05315,0.05197,0,0,0.0*
21,1,0.04016,0.06496,0,0,0.0*
1,1,0.01299,0.02008,-0.02598*
1,1,0.01299,-0.02008,-0.02598*
1,1,0.01299,-0.02008,0.02598*
1,1,0.01299,0.02008,0.02598*
%
%ADD104ROUNDEDRECTD104*%
G04:AMPARAMS|DCode=105|XSize=45.28mil|YSize=45.28mil|CornerRadius=6.89mil|HoleSize=0mil|Usage=FLASHONLY|Rotation=0.000|XOffset=0mil|YOffset=0mil|HoleType=Round|Shape=RoundedRectangle|*
%AMROUNDEDRECTD105*
21,1,0.04528,0.03150,0,0,0.0*
21,1,0.03150,0.04528,0,0,0.0*
1,1,0.01378,0.01575,-0.01575*
1,1,0.01378,-0.01575,-0.01575*
1,1,0.01378,-0.01575,0.01575*
1,1,0.01378,0.01575,0.01575*
%
%ADD105ROUNDEDRECTD105*%
G04:AMPARAMS|DCode=106|XSize=96.46mil|YSize=104.33mil|CornerRadius=9.74mil|HoleSize=0mil|Usage=FLASHONLY|Rotation=90.000|XOffset=0mil|YOffset=0mil|HoleType=Round|Shape=RoundedRectangle|*
%AMROUNDEDRECTD106*
21,1,0.09646,0.08484,0,0,90.0*
21,1,0.07697,0.10433,0,0,90.0*
1,1,0.01949,0.04242,0.03848*
1,1,0.01949,0.04242,-0.03848*
1,1,0.01949,-0.04242,-0.03848*
1,1,0.01949,-0.04242,0.03848*
%
%ADD106ROUNDEDRECTD106*%
G04:AMPARAMS|DCode=107|XSize=45.28mil|YSize=45.28mil|CornerRadius=6.89mil|HoleSize=0mil|Usage=FLASHONLY|Rotation=90.000|XOffset=0mil|YOffset=0mil|HoleType=Round|Shape=RoundedRectangle|*
%AMROUNDEDRECTD107*
21,1,0.04528,0.03150,0,0,90.0*
21,1,0.03150,0.04528,0,0,90.0*
1,1,0.01378,0.01575,0.01575*
1,1,0.01378,0.01575,-0.01575*
1,1,0.01378,-0.01575,-0.01575*
1,1,0.01378,-0.01575,0.01575*
%
%ADD107ROUNDEDRECTD107*%
%ADD108C,0.32087*%
%ADD109C,0.24213*%
%ADD110C,0.05315*%
%ADD111C,0.07677*%
%ADD112C,0.05118*%
G04:AMPARAMS|DCode=113|XSize=419.29mil|YSize=210.63mil|CornerRadius=8.07mil|HoleSize=0mil|Usage=FLASHONLY|Rotation=270.000|XOffset=0mil|YOffset=0mil|HoleType=Round|Shape=RoundedRectangle|*
%AMROUNDEDRECTD113*
21,1,0.41929,0.19449,0,0,270.0*
21,1,0.40315,0.21063,0,0,270.0*
1,1,0.01614,-0.09724,-0.20157*
1,1,0.01614,-0.09724,0.20157*
1,1,0.01614,0.09724,0.20157*
1,1,0.01614,0.09724,-0.20157*
%
%ADD113ROUNDEDRECTD113*%
%ADD114C,0.14370*%
%ADD115C,0.06496*%
%ADD116R,0.06496X0.06496*%
%ADD117C,0.10630*%
%ADD118R,0.07677X0.07677*%
%ADD119C,0.26181*%
%ADD120R,0.06496X0.06496*%
G36*
X154245Y356500D02*
X154296Y356490D01*
X154313Y356484D01*
X154346Y356473D01*
X154346Y356473D01*
X154490Y356413D01*
X154491Y356413D01*
X154538Y356390D01*
X154581Y356360D01*
X154621Y356326D01*
X154731Y356215D01*
X154731Y356215D01*
X154766Y356176D01*
X154795Y356132D01*
X154818Y356085D01*
X154878Y355940D01*
X154878Y355940D01*
X154889Y355908D01*
X154895Y355891D01*
X154905Y355839D01*
X154909Y355787D01*
Y355787D01*
D01*
Y355709D01*
Y340158D01*
X154905Y340105D01*
X154895Y340054D01*
X154878Y340004D01*
X154855Y339957D01*
X154826Y339913D01*
X154791Y339874D01*
X154752Y339839D01*
X154708Y339810D01*
X154661Y339787D01*
X154612Y339770D01*
X154560Y339760D01*
X154508Y339757D01*
X151752D01*
X151700Y339760D01*
X151648Y339770D01*
X151599Y339787D01*
X151551Y339810D01*
X151508Y339839D01*
X151469Y339874D01*
X151434Y339913D01*
X151405Y339957D01*
X151382Y340004D01*
X151365Y340054D01*
X151355Y340105D01*
X151351Y340158D01*
Y350036D01*
X149436D01*
Y329098D01*
X151351D01*
Y338976D01*
X151355Y339029D01*
X151365Y339080D01*
X151382Y339130D01*
X151405Y339177D01*
X151434Y339220D01*
X151469Y339260D01*
X151508Y339294D01*
X151551Y339323D01*
X151599Y339347D01*
X151648Y339364D01*
X151700Y339374D01*
X151752Y339377D01*
X154508D01*
X154560Y339374D01*
X154612Y339364D01*
X154661Y339347D01*
X154708Y339323D01*
X154752Y339294D01*
X154791Y339260D01*
X154826Y339220D01*
X154855Y339177D01*
X154878Y339130D01*
X154895Y339080D01*
X154905Y339029D01*
X154909Y338976D01*
Y323425D01*
Y323347D01*
D01*
Y323347D01*
X154905Y323295D01*
X154895Y323243D01*
X154889Y323226D01*
X154878Y323194D01*
X154878Y323193D01*
X154818Y323049D01*
X154818Y323049D01*
X154795Y323002D01*
X154766Y322958D01*
X154731Y322919D01*
X154621Y322808D01*
X154621Y322808D01*
X154581Y322773D01*
X154538Y322744D01*
X154491Y322721D01*
X154346Y322661D01*
X154346Y322661D01*
X154313Y322650D01*
X154296Y322644D01*
X154245Y322634D01*
X154192Y322631D01*
D01*
X154192D01*
X152067D01*
D01*
X152067D01*
X152015Y322634D01*
X151964Y322644D01*
X151947Y322650D01*
X151914Y322661D01*
X151914Y322661D01*
X151769Y322721D01*
X151769Y322721D01*
X151722Y322744D01*
X151679Y322773D01*
X151639Y322808D01*
X151529Y322919D01*
X151528Y322919D01*
X151508Y322942D01*
X151494Y322958D01*
X151465Y323002D01*
X151465Y323002D01*
D01*
X151442Y323049D01*
X151382Y323193D01*
X151382Y323194D01*
X151365Y323243D01*
X151355Y323295D01*
X151351Y323347D01*
Y323425D01*
Y326194D01*
X149436D01*
Y326142D01*
X149433Y326089D01*
X149423Y326038D01*
X149406Y325988D01*
X149383Y325941D01*
X149354Y325898D01*
X149319Y325858D01*
X149279Y325824D01*
X149236Y325795D01*
X149189Y325771D01*
X149139Y325754D01*
X149088Y325744D01*
X149035Y325741D01*
X133878D01*
X133826Y325744D01*
X133774Y325754D01*
X133725Y325771D01*
X133677Y325795D01*
X133634Y325824D01*
X133595Y325858D01*
X133560Y325898D01*
X133531Y325941D01*
X133508Y325988D01*
X133491Y326038D01*
X133481Y326089D01*
X133477Y326142D01*
Y352992D01*
X133481Y353044D01*
X133491Y353096D01*
X133508Y353146D01*
X133531Y353192D01*
X133560Y353236D01*
X133595Y353276D01*
X133634Y353310D01*
X133677Y353339D01*
X133725Y353362D01*
X133774Y353379D01*
X133826Y353390D01*
X133878Y353393D01*
X149035D01*
X149088Y353390D01*
X149139Y353379D01*
X149189Y353362D01*
X149236Y353339D01*
X149279Y353310D01*
X149319Y353276D01*
X149354Y353236D01*
X149383Y353192D01*
X149406Y353146D01*
X149423Y353096D01*
X149433Y353044D01*
X149436Y352992D01*
Y352940D01*
X151351D01*
Y355709D01*
Y355787D01*
X151355Y355839D01*
X151365Y355891D01*
X151382Y355940D01*
X151382Y355940D01*
X151442Y356085D01*
X151442Y356085D01*
X151464Y356131D01*
X151465Y356132D01*
D01*
X151465Y356132D01*
X151479Y356154D01*
X151494Y356176D01*
X151528Y356215D01*
X151529Y356215D01*
X151639Y356326D01*
X151639Y356326D01*
X151679Y356360D01*
X151722Y356390D01*
X151769Y356413D01*
X151914Y356473D01*
X151914Y356473D01*
X151947Y356484D01*
X151964Y356490D01*
X152015Y356500D01*
X152067Y356503D01*
X152067D01*
D01*
X154192D01*
D01*
X154192D01*
X154245Y356500D01*
D02*
G37*
G36*
X580918Y353547D02*
X580969Y353537D01*
X580986Y353531D01*
X581019Y353520D01*
X581019Y353520D01*
X581164Y353460D01*
X581164Y353460D01*
X581211Y353437D01*
X581254Y353408D01*
X581294Y353373D01*
X581404Y353262D01*
X581405Y353262D01*
X581439Y353223D01*
X581468Y353179D01*
X581492Y353132D01*
X581551Y352988D01*
X581552Y352988D01*
X581563Y352955D01*
X581568Y352938D01*
X581578Y352887D01*
X581582Y352834D01*
D01*
Y352834D01*
Y352756D01*
Y337205D01*
X581578Y337152D01*
X581568Y337101D01*
X581552Y337051D01*
X581528Y337004D01*
X581499Y336961D01*
X581465Y336921D01*
X581425Y336887D01*
X581382Y336858D01*
X581334Y336834D01*
X581285Y336818D01*
X581233Y336807D01*
X581181Y336804D01*
X578425D01*
X578373Y336807D01*
X578322Y336818D01*
X578272Y336834D01*
X578225Y336858D01*
X578181Y336887D01*
X578142Y336921D01*
X578107Y336961D01*
X578078Y337004D01*
X578055Y337051D01*
X578038Y337101D01*
X578028Y337152D01*
X578024Y337205D01*
Y347083D01*
X576110D01*
Y326145D01*
X578024D01*
Y336024D01*
X578028Y336076D01*
X578038Y336127D01*
X578055Y336177D01*
X578078Y336224D01*
X578107Y336268D01*
X578142Y336307D01*
X578181Y336342D01*
X578225Y336371D01*
X578272Y336394D01*
X578322Y336411D01*
X578373Y336421D01*
X578425Y336424D01*
X581181D01*
X581233Y336421D01*
X581285Y336411D01*
X581334Y336394D01*
X581382Y336371D01*
X581425Y336342D01*
X581465Y336307D01*
X581499Y336268D01*
X581528Y336224D01*
X581552Y336177D01*
X581568Y336127D01*
X581578Y336076D01*
X581582Y336024D01*
Y320472D01*
Y320394D01*
D01*
Y320394D01*
X581578Y320342D01*
X581568Y320290D01*
X581563Y320273D01*
X581552Y320241D01*
X581551Y320241D01*
X581492Y320096D01*
X581492Y320096D01*
X581468Y320049D01*
X581439Y320005D01*
X581405Y319966D01*
X581294Y319855D01*
X581294Y319855D01*
X581254Y319821D01*
X581211Y319792D01*
X581164Y319768D01*
X581019Y319708D01*
X581019Y319708D01*
X580986Y319697D01*
X580969Y319692D01*
X580918Y319681D01*
X580866Y319678D01*
X580866D01*
D01*
X578741D01*
D01*
X578741D01*
X578688Y319681D01*
X578637Y319692D01*
X578620Y319697D01*
X578587Y319708D01*
X578587Y319708D01*
X578443Y319768D01*
X578442Y319768D01*
X578396Y319792D01*
X578352Y319821D01*
X578312Y319855D01*
X578202Y319966D01*
X578202Y319966D01*
X578181Y319990D01*
X578167Y320005D01*
X578138Y320049D01*
X578138Y320049D01*
D01*
X578115Y320096D01*
X578055Y320241D01*
X578055Y320241D01*
X578038Y320290D01*
X578028Y320342D01*
X578024Y320394D01*
Y320472D01*
Y323241D01*
X576110D01*
Y323189D01*
X576106Y323137D01*
X576096Y323085D01*
X576079Y323036D01*
X576056Y322989D01*
X576027Y322945D01*
X575992Y322905D01*
X575953Y322871D01*
X575909Y322842D01*
X575862Y322819D01*
X575812Y322802D01*
X575761Y322792D01*
X575709Y322788D01*
X560551D01*
X560499Y322792D01*
X560447Y322802D01*
X560398Y322819D01*
X560351Y322842D01*
X560307Y322871D01*
X560268Y322905D01*
X560233Y322945D01*
X560204Y322989D01*
X560181Y323036D01*
X560164Y323085D01*
X560154Y323137D01*
X560150Y323189D01*
Y350039D01*
X560154Y350092D01*
X560164Y350143D01*
X560181Y350193D01*
X560204Y350240D01*
X560233Y350283D01*
X560268Y350323D01*
X560307Y350357D01*
X560351Y350387D01*
X560398Y350410D01*
X560447Y350427D01*
X560499Y350437D01*
X560551Y350440D01*
X575709D01*
X575761Y350437D01*
X575812Y350427D01*
X575862Y350410D01*
X575909Y350387D01*
X575953Y350357D01*
X575992Y350323D01*
X576027Y350283D01*
X576056Y350240D01*
X576079Y350193D01*
X576096Y350143D01*
X576106Y350092D01*
X576110Y350039D01*
Y349988D01*
X578024D01*
Y352756D01*
Y352834D01*
X578028Y352887D01*
X578038Y352938D01*
X578055Y352988D01*
X578055Y352988D01*
X578115Y353132D01*
X578115Y353132D01*
X578138Y353179D01*
X578138Y353179D01*
D01*
X578138Y353179D01*
X578153Y353201D01*
X578167Y353223D01*
X578202Y353262D01*
X578202Y353262D01*
X578312Y353373D01*
X578312Y353373D01*
X578352Y353408D01*
X578396Y353437D01*
X578442Y353460D01*
X578587Y353520D01*
X578587Y353520D01*
X578620Y353531D01*
X578637Y353537D01*
X578688Y353547D01*
X578741Y353551D01*
D01*
X578741D01*
X580866D01*
D01*
X580866D01*
X580918Y353547D01*
D02*
G37*
G36*
X103064Y316145D02*
X103115Y316135D01*
X103132Y316129D01*
X103165Y316118D01*
X103165Y316118D01*
X103309Y316058D01*
X103310Y316058D01*
X103357Y316035D01*
X103400Y316006D01*
X103439Y315971D01*
X103550Y315861D01*
X103550Y315861D01*
X103585Y315821D01*
X103614Y315778D01*
X103637Y315731D01*
X103697Y315586D01*
X103697Y315586D01*
X103708Y315553D01*
X103714Y315536D01*
X103724Y315485D01*
X103728Y315433D01*
Y315433D01*
D01*
Y315354D01*
Y299803D01*
X103724Y299751D01*
X103714Y299699D01*
X103697Y299650D01*
X103674Y299603D01*
X103645Y299559D01*
X103610Y299520D01*
X103571Y299485D01*
X103527Y299456D01*
X103480Y299433D01*
X103430Y299416D01*
X103379Y299406D01*
X103327Y299402D01*
X100571D01*
X100519Y299406D01*
X100467Y299416D01*
X100417Y299433D01*
X100370Y299456D01*
X100327Y299485D01*
X100287Y299520D01*
X100253Y299559D01*
X100224Y299603D01*
X100200Y299650D01*
X100184Y299699D01*
X100173Y299751D01*
X100170Y299803D01*
Y309682D01*
X98255D01*
Y288743D01*
X100170D01*
Y298622D01*
X100173Y298674D01*
X100184Y298726D01*
X100200Y298775D01*
X100224Y298822D01*
X100253Y298866D01*
X100287Y298905D01*
X100327Y298940D01*
X100370Y298969D01*
X100417Y298992D01*
X100467Y299009D01*
X100519Y299020D01*
X100571Y299023D01*
X103327D01*
X103379Y299020D01*
X103430Y299009D01*
X103480Y298992D01*
X103527Y298969D01*
X103571Y298940D01*
X103610Y298905D01*
X103645Y298866D01*
X103674Y298822D01*
X103697Y298775D01*
X103714Y298726D01*
X103724Y298674D01*
X103728Y298622D01*
Y283071D01*
Y282993D01*
D01*
Y282993D01*
X103724Y282940D01*
X103714Y282889D01*
X103708Y282872D01*
X103697Y282839D01*
X103697Y282839D01*
X103637Y282695D01*
X103637Y282694D01*
X103614Y282647D01*
X103585Y282604D01*
X103550Y282564D01*
X103440Y282454D01*
X103440Y282454D01*
X103400Y282419D01*
X103357Y282390D01*
X103310Y282367D01*
X103165Y282307D01*
X103165Y282307D01*
X103132Y282296D01*
X103115Y282290D01*
X103064Y282280D01*
X103011Y282276D01*
D01*
X103011D01*
X100886D01*
D01*
X100886D01*
X100834Y282280D01*
X100783Y282290D01*
X100766Y282296D01*
X100733Y282307D01*
X100733Y282307D01*
X100588Y282367D01*
X100588Y282367D01*
X100541Y282390D01*
X100497Y282419D01*
X100458Y282454D01*
X100347Y282564D01*
X100347Y282564D01*
X100327Y282588D01*
X100313Y282604D01*
X100284Y282647D01*
X100284Y282647D01*
D01*
X100260Y282695D01*
X100201Y282839D01*
X100200Y282839D01*
X100184Y282889D01*
X100173Y282940D01*
X100170Y282993D01*
Y283071D01*
Y285839D01*
X98255D01*
Y285787D01*
X98252Y285735D01*
X98242Y285684D01*
X98225Y285634D01*
X98202Y285587D01*
X98172Y285543D01*
X98138Y285504D01*
X98098Y285469D01*
X98055Y285440D01*
X98008Y285417D01*
X97958Y285400D01*
X97907Y285390D01*
X97854Y285386D01*
X82697D01*
X82644Y285390D01*
X82593Y285400D01*
X82543Y285417D01*
X82496Y285440D01*
X82453Y285469D01*
X82413Y285504D01*
X82379Y285543D01*
X82350Y285587D01*
X82327Y285634D01*
X82310Y285684D01*
X82299Y285735D01*
X82296Y285787D01*
Y312638D01*
X82299Y312690D01*
X82310Y312741D01*
X82327Y312791D01*
X82350Y312838D01*
X82379Y312882D01*
X82413Y312921D01*
X82453Y312956D01*
X82496Y312985D01*
X82543Y313008D01*
X82593Y313025D01*
X82644Y313035D01*
X82697Y313039D01*
X97854D01*
X97907Y313035D01*
X97958Y313025D01*
X98008Y313008D01*
X98055Y312985D01*
X98098Y312956D01*
X98138Y312921D01*
X98172Y312882D01*
X98202Y312838D01*
X98225Y312791D01*
X98242Y312741D01*
X98252Y312690D01*
X98255Y312638D01*
Y312586D01*
X100170D01*
Y315354D01*
Y315433D01*
X100173Y315485D01*
X100184Y315536D01*
X100200Y315586D01*
X100201Y315586D01*
X100260Y315731D01*
X100260Y315731D01*
X100283Y315777D01*
X100284Y315778D01*
D01*
X100284Y315778D01*
X100298Y315800D01*
X100313Y315821D01*
X100347Y315861D01*
X100347Y315861D01*
X100458Y315971D01*
X100458Y315971D01*
X100497Y316006D01*
X100541Y316035D01*
X100588Y316058D01*
X100733Y316118D01*
X100733Y316118D01*
X100766Y316129D01*
X100783Y316135D01*
X100834Y316145D01*
X100886Y316149D01*
X100886D01*
D01*
X103011D01*
D01*
X103011D01*
X103064Y316145D01*
D02*
G37*
G36*
X441031Y304363D02*
X441076Y304353D01*
X441119Y304335D01*
X441158Y304310D01*
X441194Y304280D01*
X441224Y304245D01*
X441248Y304205D01*
X441266Y304162D01*
X441277Y304117D01*
X441280Y304071D01*
Y288583D01*
X441277Y288536D01*
X441266Y288491D01*
X441248Y288448D01*
X441224Y288409D01*
X441194Y288373D01*
X441158Y288343D01*
X441119Y288319D01*
X441076Y288301D01*
X441031Y288290D01*
X440984Y288286D01*
X423189D01*
X423143Y288290D01*
X423097Y288301D01*
X423055Y288319D01*
X423015Y288343D01*
X422979Y288373D01*
X422949Y288409D01*
X422925Y288448D01*
X422907Y288491D01*
X422896Y288536D01*
X422893Y288583D01*
Y304071D01*
X422896Y304117D01*
X422907Y304162D01*
X422925Y304205D01*
X422949Y304245D01*
X422979Y304280D01*
X423015Y304310D01*
X423055Y304335D01*
X423097Y304353D01*
X423143Y304363D01*
X423189Y304367D01*
X440984D01*
X441031Y304363D01*
D02*
G37*
G36*
X629638Y284649D02*
X629690Y284639D01*
X629707Y284633D01*
X629740Y284622D01*
X629740Y284622D01*
X629884Y284562D01*
X629884Y284562D01*
X629931Y284539D01*
X629975Y284510D01*
X630014Y284475D01*
X630125Y284365D01*
X630125Y284365D01*
X630160Y284325D01*
X630189Y284282D01*
X630212Y284235D01*
X630272Y284090D01*
X630272Y284090D01*
X630283Y284057D01*
X630289Y284040D01*
X630299Y283989D01*
X630302Y283937D01*
D01*
Y283937D01*
Y283858D01*
Y268307D01*
X630299Y268255D01*
X630289Y268203D01*
X630272Y268154D01*
X630249Y268107D01*
X630220Y268063D01*
X630185Y268024D01*
X630146Y267989D01*
X630102Y267960D01*
X630055Y267937D01*
X630005Y267920D01*
X629954Y267910D01*
X629902Y267906D01*
X627146D01*
X627093Y267910D01*
X627042Y267920D01*
X626992Y267937D01*
X626945Y267960D01*
X626902Y267989D01*
X626862Y268024D01*
X626828Y268063D01*
X626798Y268107D01*
X626775Y268154D01*
X626758Y268203D01*
X626748Y268255D01*
X626745Y268307D01*
Y278186D01*
X624830D01*
Y257247D01*
X626745D01*
Y267126D01*
X626748Y267178D01*
X626758Y267230D01*
X626775Y267279D01*
X626798Y267326D01*
X626828Y267370D01*
X626862Y267409D01*
X626902Y267444D01*
X626945Y267473D01*
X626992Y267496D01*
X627042Y267513D01*
X627093Y267523D01*
X627146Y267527D01*
X629902D01*
X629954Y267523D01*
X630005Y267513D01*
X630055Y267496D01*
X630102Y267473D01*
X630146Y267444D01*
X630185Y267409D01*
X630220Y267370D01*
X630249Y267326D01*
X630272Y267279D01*
X630289Y267230D01*
X630299Y267178D01*
X630302Y267126D01*
Y251575D01*
Y251497D01*
D01*
Y251497D01*
X630299Y251444D01*
X630289Y251393D01*
X630283Y251376D01*
X630272Y251343D01*
X630272Y251343D01*
X630212Y251199D01*
X630212Y251198D01*
X630189Y251151D01*
X630160Y251108D01*
X630125Y251068D01*
X630014Y250958D01*
X630014Y250958D01*
X629975Y250923D01*
X629931Y250894D01*
X629884Y250871D01*
X629740Y250811D01*
X629740Y250811D01*
X629707Y250800D01*
X629690Y250794D01*
X629638Y250784D01*
X629586Y250780D01*
X629586D01*
D01*
X627461D01*
D01*
X627461D01*
X627409Y250784D01*
X627357Y250794D01*
X627341Y250800D01*
X627308Y250811D01*
X627308Y250811D01*
X627163Y250871D01*
X627163Y250871D01*
X627116Y250894D01*
X627072Y250923D01*
X627033Y250958D01*
X626922Y251068D01*
X626922Y251068D01*
X626901Y251092D01*
X626888Y251108D01*
X626859Y251151D01*
X626859Y251151D01*
D01*
X626835Y251198D01*
X626775Y251343D01*
X626775Y251343D01*
X626758Y251393D01*
X626748Y251444D01*
X626745Y251497D01*
Y251575D01*
Y254343D01*
X624830D01*
Y254291D01*
X624827Y254239D01*
X624816Y254188D01*
X624799Y254138D01*
X624776Y254091D01*
X624747Y254047D01*
X624713Y254008D01*
X624673Y253973D01*
X624630Y253944D01*
X624582Y253921D01*
X624533Y253904D01*
X624481Y253894D01*
X624429Y253890D01*
X609272D01*
X609219Y253894D01*
X609168Y253904D01*
X609118Y253921D01*
X609071Y253944D01*
X609028Y253973D01*
X608988Y254008D01*
X608954Y254047D01*
X608924Y254091D01*
X608901Y254138D01*
X608884Y254188D01*
X608874Y254239D01*
X608871Y254291D01*
Y281142D01*
X608874Y281194D01*
X608884Y281245D01*
X608901Y281295D01*
X608924Y281342D01*
X608954Y281386D01*
X608988Y281425D01*
X609028Y281460D01*
X609071Y281489D01*
X609118Y281512D01*
X609168Y281529D01*
X609219Y281539D01*
X609272Y281543D01*
X624429D01*
X624481Y281539D01*
X624533Y281529D01*
X624582Y281512D01*
X624630Y281489D01*
X624673Y281460D01*
X624713Y281425D01*
X624747Y281386D01*
X624776Y281342D01*
X624799Y281295D01*
X624816Y281245D01*
X624827Y281194D01*
X624830Y281142D01*
Y281090D01*
X626745D01*
Y283858D01*
Y283937D01*
X626748Y283989D01*
X626758Y284040D01*
X626775Y284090D01*
X626775Y284090D01*
X626835Y284235D01*
X626835Y284235D01*
X626858Y284281D01*
X626859Y284282D01*
D01*
X626859Y284282D01*
X626873Y284304D01*
X626888Y284325D01*
X626922Y284365D01*
X626922Y284365D01*
X627033Y284475D01*
X627033Y284475D01*
X627072Y284510D01*
X627116Y284539D01*
X627163Y284562D01*
X627308Y284622D01*
X627308Y284622D01*
X627341Y284633D01*
X627357Y284639D01*
X627409Y284649D01*
X627461Y284653D01*
D01*
X627461D01*
X629586D01*
D01*
X629586D01*
X629638Y284649D01*
D02*
G37*
G36*
X548772Y276775D02*
X548824Y276765D01*
X548841Y276759D01*
X548873Y276748D01*
X548874Y276748D01*
X549018Y276688D01*
X549018Y276688D01*
X549065Y276665D01*
X549109Y276636D01*
X549148Y276602D01*
X549259Y276491D01*
X549259Y276491D01*
X549280Y276467D01*
X549294Y276451D01*
X549323Y276408D01*
X549323Y276408D01*
D01*
X549346Y276361D01*
X549406Y276216D01*
X549406Y276216D01*
X549423Y276166D01*
X549433Y276115D01*
X549436Y276063D01*
Y275984D01*
Y273216D01*
X551351D01*
Y273268D01*
X551355Y273320D01*
X551365Y273372D01*
X551382Y273421D01*
X551405Y273468D01*
X551434Y273512D01*
X551469Y273551D01*
X551508Y273586D01*
X551551Y273615D01*
X551599Y273638D01*
X551648Y273655D01*
X551700Y273665D01*
X551752Y273669D01*
X566909D01*
X566962Y273665D01*
X567013Y273655D01*
X567063Y273638D01*
X567110Y273615D01*
X567154Y273586D01*
X567193Y273551D01*
X567228Y273512D01*
X567257Y273468D01*
X567280Y273421D01*
X567297Y273372D01*
X567307Y273320D01*
X567310Y273268D01*
Y246417D01*
X567307Y246365D01*
X567297Y246314D01*
X567280Y246264D01*
X567257Y246217D01*
X567228Y246173D01*
X567193Y246134D01*
X567154Y246099D01*
X567110Y246070D01*
X567063Y246047D01*
X567013Y246030D01*
X566962Y246020D01*
X566909Y246017D01*
X551752D01*
X551700Y246020D01*
X551648Y246030D01*
X551599Y246047D01*
X551551Y246070D01*
X551508Y246099D01*
X551469Y246134D01*
X551434Y246173D01*
X551405Y246217D01*
X551382Y246264D01*
X551365Y246314D01*
X551355Y246365D01*
X551351Y246417D01*
Y246469D01*
X549436D01*
Y243701D01*
Y243622D01*
X549433Y243570D01*
X549423Y243519D01*
X549406Y243469D01*
X549406Y243469D01*
X549346Y243324D01*
X549346Y243324D01*
X549323Y243278D01*
X549323Y243277D01*
D01*
X549323Y243277D01*
X549308Y243255D01*
X549294Y243234D01*
X549259Y243194D01*
X549259Y243194D01*
X549148Y243084D01*
X549148Y243084D01*
X549109Y243049D01*
X549065Y243020D01*
X549018Y242997D01*
X548874Y242937D01*
X548873Y242937D01*
X548841Y242926D01*
X548824Y242920D01*
X548772Y242910D01*
X548720Y242906D01*
X548720D01*
D01*
X546595D01*
D01*
X546595D01*
X546543Y242910D01*
X546491Y242920D01*
X546474Y242926D01*
X546442Y242937D01*
X546441Y242937D01*
X546297Y242997D01*
X546297Y242997D01*
X546250Y243020D01*
X546206Y243049D01*
X546167Y243084D01*
X546056Y243194D01*
X546056Y243194D01*
X546021Y243234D01*
X545992Y243277D01*
X545969Y243324D01*
X545909Y243469D01*
X545909Y243469D01*
X545898Y243502D01*
X545892Y243519D01*
X545882Y243570D01*
X545879Y243622D01*
D01*
Y243622D01*
Y243701D01*
Y259252D01*
X545882Y259304D01*
X545892Y259356D01*
X545909Y259405D01*
X545932Y259452D01*
X545962Y259496D01*
X545996Y259535D01*
X546035Y259570D01*
X546079Y259599D01*
X546126Y259622D01*
X546176Y259639D01*
X546227Y259649D01*
X546279Y259653D01*
X549035D01*
X549088Y259649D01*
X549139Y259639D01*
X549189Y259622D01*
X549236Y259599D01*
X549279Y259570D01*
X549319Y259535D01*
X549353Y259496D01*
X549383Y259452D01*
X549406Y259405D01*
X549423Y259356D01*
X549433Y259304D01*
X549436Y259252D01*
Y249373D01*
X551351D01*
Y270312D01*
X549436D01*
Y260433D01*
X549433Y260381D01*
X549423Y260329D01*
X549406Y260280D01*
X549383Y260233D01*
X549353Y260189D01*
X549319Y260150D01*
X549279Y260115D01*
X549236Y260086D01*
X549189Y260063D01*
X549139Y260046D01*
X549088Y260036D01*
X549035Y260032D01*
X546279D01*
X546227Y260036D01*
X546176Y260046D01*
X546126Y260063D01*
X546079Y260086D01*
X546035Y260115D01*
X545996Y260150D01*
X545962Y260189D01*
X545932Y260233D01*
X545909Y260280D01*
X545892Y260329D01*
X545882Y260381D01*
X545879Y260433D01*
Y275984D01*
Y276063D01*
D01*
Y276063D01*
X545882Y276115D01*
X545892Y276166D01*
X545898Y276183D01*
X545909Y276216D01*
X545909Y276216D01*
X545969Y276361D01*
X545969Y276361D01*
X545992Y276408D01*
X546021Y276451D01*
X546056Y276491D01*
X546167Y276601D01*
X546167Y276602D01*
X546206Y276636D01*
X546250Y276665D01*
X546297Y276688D01*
X546441Y276748D01*
X546442Y276748D01*
X546474Y276759D01*
X546491Y276765D01*
X546543Y276775D01*
X546595Y276779D01*
D01*
X546595D01*
X548720D01*
D01*
X548720D01*
X548772Y276775D01*
D02*
G37*
G36*
X467369Y283797D02*
X467414Y283786D01*
X467457Y283768D01*
X467497Y283744D01*
X467532Y283713D01*
X467562Y283678D01*
X467587Y283638D01*
X467604Y283595D01*
X467615Y283550D01*
X467619Y283504D01*
Y265709D01*
X467615Y265662D01*
X467604Y265617D01*
X467587Y265574D01*
X467562Y265535D01*
X467532Y265499D01*
X467497Y265469D01*
X467457Y265445D01*
X467414Y265427D01*
X467369Y265416D01*
X467323Y265412D01*
X451835D01*
X451788Y265416D01*
X451743Y265427D01*
X451700Y265445D01*
X451660Y265469D01*
X451625Y265499D01*
X451595Y265535D01*
X451571Y265574D01*
X451553Y265617D01*
X451542Y265662D01*
X451539Y265709D01*
Y283504D01*
X451542Y283550D01*
X451553Y283595D01*
X451571Y283638D01*
X451595Y283678D01*
X451625Y283713D01*
X451660Y283744D01*
X451700Y283768D01*
X451743Y283786D01*
X451788Y283797D01*
X451835Y283800D01*
X467323D01*
X467369Y283797D01*
D02*
G37*
G36*
X178133Y264111D02*
X178178Y264101D01*
X178221Y264083D01*
X178261Y264058D01*
X178296Y264028D01*
X178326Y263993D01*
X178350Y263953D01*
X178368Y263910D01*
X178379Y263865D01*
X178383Y263819D01*
Y246024D01*
X178379Y245977D01*
X178368Y245932D01*
X178350Y245889D01*
X178326Y245849D01*
X178296Y245814D01*
X178261Y245784D01*
X178221Y245760D01*
X178178Y245742D01*
X178133Y245731D01*
X178087Y245727D01*
X162598D01*
X162552Y245731D01*
X162507Y245742D01*
X162464Y245760D01*
X162424Y245784D01*
X162389Y245814D01*
X162359Y245849D01*
X162335Y245889D01*
X162317Y245932D01*
X162306Y245977D01*
X162302Y246024D01*
Y263819D01*
X162306Y263865D01*
X162317Y263910D01*
X162335Y263953D01*
X162359Y263993D01*
X162389Y264028D01*
X162424Y264058D01*
X162464Y264083D01*
X162507Y264101D01*
X162552Y264111D01*
X162598Y264115D01*
X178087D01*
X178133Y264111D01*
D02*
G37*
G36*
X207763Y235332D02*
X207808Y235321D01*
X207851Y235303D01*
X207891Y235279D01*
X207926Y235249D01*
X207956Y235213D01*
X207980Y235174D01*
X207998Y235131D01*
X208009Y235086D01*
X208013Y235039D01*
Y219551D01*
X208009Y219505D01*
X207998Y219460D01*
X207980Y219417D01*
X207956Y219377D01*
X207926Y219342D01*
X207891Y219312D01*
X207851Y219287D01*
X207808Y219269D01*
X207763Y219259D01*
X207716Y219255D01*
X189921D01*
X189875Y219259D01*
X189830Y219269D01*
X189787Y219287D01*
X189747Y219312D01*
X189712Y219342D01*
X189682Y219377D01*
X189657Y219417D01*
X189640Y219460D01*
X189629Y219505D01*
X189625Y219551D01*
Y235039D01*
X189629Y235086D01*
X189640Y235131D01*
X189657Y235174D01*
X189682Y235213D01*
X189712Y235249D01*
X189747Y235279D01*
X189787Y235303D01*
X189830Y235321D01*
X189875Y235332D01*
X189921Y235336D01*
X207716D01*
X207763Y235332D01*
D02*
G37*
G36*
X118812Y127352D02*
X118868Y127297D01*
X118898Y127224D01*
Y127185D01*
X118898D01*
X118898Y116909D01*
X118898Y116870D01*
X118868Y116798D01*
X118812Y116743D01*
X118740Y116713D01*
X118701Y116713D01*
X118701Y116713D01*
X105709Y116713D01*
X105669Y116713D01*
X105597Y116743D01*
X105542Y116798D01*
X105512Y116870D01*
X105512Y116909D01*
X105512Y127185D01*
X105512Y127224D01*
X105542Y127296D01*
X105597Y127352D01*
X105669Y127382D01*
X105709Y127382D01*
X105709Y127382D01*
X118701Y127382D01*
X118740Y127382D01*
X118812Y127352D01*
D02*
G37*
D62*
X597894Y279528D02*
D03*
Y271654D02*
D03*
Y263779D02*
D03*
Y255906D02*
D03*
X578287Y248031D02*
D03*
Y255906D02*
D03*
Y263779D02*
D03*
Y271654D02*
D03*
X549173Y348425D02*
D03*
Y340551D02*
D03*
Y332677D02*
D03*
Y324803D02*
D03*
X71319Y311024D02*
D03*
Y303150D02*
D03*
Y295276D02*
D03*
Y287402D02*
D03*
X122500Y351378D02*
D03*
Y343504D02*
D03*
Y335630D02*
D03*
Y327756D02*
D03*
D63*
X188976Y120079D02*
D03*
X249016Y92520D02*
D03*
X211614Y120079D02*
D03*
X555118Y214567D02*
D03*
X573819Y298228D02*
D03*
D64*
X104705Y111417D02*
D03*
X109705D02*
D03*
X114705D02*
D03*
X119705D02*
D03*
X104705Y132677D02*
D03*
X109705D02*
D03*
X114705D02*
D03*
X119705D02*
D03*
D65*
X498504Y270669D02*
D03*
X481811D02*
D03*
X131417Y253543D02*
D03*
X148110D02*
D03*
D66*
X439587Y311102D02*
D03*
X434587D02*
D03*
X429587D02*
D03*
X424587D02*
D03*
X191319Y212520D02*
D03*
X196319D02*
D03*
X206319D02*
D03*
X201319D02*
D03*
D67*
X439587Y287752D02*
D03*
X434587D02*
D03*
X424587D02*
D03*
X429587D02*
D03*
X191319Y235870D02*
D03*
X196319D02*
D03*
X201319D02*
D03*
X206319D02*
D03*
D68*
X475394Y246063D02*
D03*
Y214567D02*
D03*
X519684Y246063D02*
D03*
Y214567D02*
D03*
X515748Y321850D02*
D03*
Y290354D02*
D03*
X149607Y277559D02*
D03*
Y309055D02*
D03*
X119094Y199803D02*
D03*
Y231299D02*
D03*
X74803Y199803D02*
D03*
Y231299D02*
D03*
D69*
X98425Y248031D02*
D03*
X332677Y162402D02*
D03*
X344488Y39370D02*
D03*
X153543Y200787D02*
D03*
X460630Y62992D02*
D03*
D70*
X411417Y250394D02*
D03*
Y217717D02*
D03*
X218504Y276969D02*
D03*
Y309646D02*
D03*
X190945Y276969D02*
D03*
Y309646D02*
D03*
X438976Y250394D02*
D03*
Y217717D02*
D03*
D71*
X659055Y346457D02*
D03*
X651575D02*
D03*
X655315Y355512D02*
D03*
X651575Y340748D02*
D03*
X659055D02*
D03*
X655315Y331693D02*
D03*
X51575Y376181D02*
D03*
X44094D02*
D03*
X47835Y385236D02*
D03*
X80709Y375000D02*
D03*
X73228D02*
D03*
X76968Y384055D02*
D03*
X161221Y44685D02*
D03*
X153740D02*
D03*
X157480Y53740D02*
D03*
D72*
X574409Y99213D02*
D03*
Y91732D02*
D03*
X565354Y95472D02*
D03*
X92126Y83465D02*
D03*
Y75984D02*
D03*
X83071Y79724D02*
D03*
X636811Y382480D02*
D03*
Y375000D02*
D03*
X627756Y378740D02*
D03*
D73*
X482480Y122047D02*
D03*
X476181D02*
D03*
X482480Y135827D02*
D03*
X476181D02*
D03*
X454921Y87598D02*
D03*
X448622D02*
D03*
X537598Y78740D02*
D03*
X531299D02*
D03*
X505118D02*
D03*
X498819D02*
D03*
X454921Y126969D02*
D03*
X448622D02*
D03*
X547441Y131890D02*
D03*
X541142D02*
D03*
X496260Y147638D02*
D03*
X489961D02*
D03*
X496260Y141732D02*
D03*
X489961D02*
D03*
X210433Y81693D02*
D03*
X216732D02*
D03*
X121260Y84646D02*
D03*
X114961D02*
D03*
X121260Y77756D02*
D03*
X114961D02*
D03*
D74*
X431496Y92126D02*
D03*
Y120472D02*
D03*
X419685D02*
D03*
Y92126D02*
D03*
D75*
X147638Y106398D02*
D03*
Y74705D02*
D03*
D76*
X479134Y78740D02*
D03*
X485433D02*
D03*
X527756Y147638D02*
D03*
X521457D02*
D03*
X527756Y154528D02*
D03*
X521457D02*
D03*
X489961Y154724D02*
D03*
X496260D02*
D03*
X562205Y117126D02*
D03*
X555905D02*
D03*
X562205Y123031D02*
D03*
X555905D02*
D03*
X552362Y98425D02*
D03*
X546063D02*
D03*
X552362Y92520D02*
D03*
X546063D02*
D03*
X60827Y64961D02*
D03*
X67126D02*
D03*
X60827Y76772D02*
D03*
X67126D02*
D03*
Y161417D02*
D03*
X60827D02*
D03*
X67126Y149606D02*
D03*
X60827D02*
D03*
X172539Y40354D02*
D03*
X178839D02*
D03*
X79921Y369094D02*
D03*
X73622D02*
D03*
X96653Y116142D02*
D03*
X90354D02*
D03*
X90354Y110236D02*
D03*
X96653D02*
D03*
X105512Y145669D02*
D03*
X99213D02*
D03*
X105512Y139764D02*
D03*
X99213D02*
D03*
X328543Y147638D02*
D03*
X334842D02*
D03*
X328543Y153543D02*
D03*
X334842D02*
D03*
X334842Y141732D02*
D03*
X328543D02*
D03*
X246850Y162402D02*
D03*
X253150D02*
D03*
X246850Y156496D02*
D03*
X253150D02*
D03*
X253150Y131890D02*
D03*
X246850D02*
D03*
X253150Y137795D02*
D03*
X246850D02*
D03*
X368307Y119095D02*
D03*
X362008D02*
D03*
X368307Y125000D02*
D03*
X362008D02*
D03*
X267520Y162402D02*
D03*
X273819D02*
D03*
X273819Y155512D02*
D03*
X267520D02*
D03*
X141535Y384842D02*
D03*
X147835D02*
D03*
X51378Y368110D02*
D03*
X45079D02*
D03*
X71063Y359252D02*
D03*
X64764D02*
D03*
X83858Y321850D02*
D03*
X77559D02*
D03*
X566142Y361221D02*
D03*
X559842D02*
D03*
X134055Y359252D02*
D03*
X127756D02*
D03*
X630709Y348031D02*
D03*
X637008D02*
D03*
X630709Y342126D02*
D03*
X637008D02*
D03*
D77*
X559055Y99606D02*
D03*
Y91339D02*
D03*
X238189Y108543D02*
D03*
Y100275D02*
D03*
X86614Y92323D02*
D03*
Y100591D02*
D03*
X364173Y151772D02*
D03*
Y143504D02*
D03*
X350394Y151772D02*
D03*
Y143504D02*
D03*
X357283Y151772D02*
D03*
Y143504D02*
D03*
D78*
X179134Y52362D02*
D03*
Y46063D02*
D03*
X172244Y52362D02*
D03*
Y46063D02*
D03*
X329724Y102559D02*
D03*
Y96260D02*
D03*
X291339Y157283D02*
D03*
Y163583D02*
D03*
X285433Y157283D02*
D03*
Y163583D02*
D03*
X271654Y115945D02*
D03*
Y122244D02*
D03*
X188976Y91339D02*
D03*
Y97638D02*
D03*
X231299Y108465D02*
D03*
Y102165D02*
D03*
X225394Y108465D02*
D03*
Y102165D02*
D03*
X219488Y102165D02*
D03*
Y108465D02*
D03*
X86614Y50000D02*
D03*
Y56299D02*
D03*
Y61811D02*
D03*
Y68110D02*
D03*
X92520Y61811D02*
D03*
Y68110D02*
D03*
Y50000D02*
D03*
Y56299D02*
D03*
X322539Y141732D02*
D03*
Y148031D02*
D03*
X246850Y144095D02*
D03*
Y150394D02*
D03*
X304134Y100591D02*
D03*
Y94291D02*
D03*
X303150Y163583D02*
D03*
Y157283D02*
D03*
X309055Y163583D02*
D03*
Y157283D02*
D03*
X297244Y163583D02*
D03*
Y157283D02*
D03*
X329724Y114370D02*
D03*
Y108071D02*
D03*
X271654Y104134D02*
D03*
Y110433D02*
D03*
X643701Y382087D02*
D03*
Y375787D02*
D03*
X613189Y329921D02*
D03*
Y323622D02*
D03*
X607283D02*
D03*
Y329921D02*
D03*
X601378Y323622D02*
D03*
Y329921D02*
D03*
X599409Y375197D02*
D03*
Y368898D02*
D03*
X589567Y368898D02*
D03*
Y375197D02*
D03*
X667323Y346654D02*
D03*
Y340354D02*
D03*
D79*
X137795Y44882D02*
D03*
X141535Y53543D02*
D03*
X134055D02*
D03*
D80*
X446772Y119488D02*
D03*
Y95079D02*
D03*
X456772D02*
D03*
Y119488D02*
D03*
D81*
X441929Y127953D02*
D03*
X461614Y87598D02*
D03*
X71319Y321850D02*
D03*
X578346Y232283D02*
D03*
X59130Y358784D02*
D03*
X58858Y375984D02*
D03*
X551181Y360236D02*
D03*
X563681Y385827D02*
D03*
X589567Y384646D02*
D03*
X622835Y342126D02*
D03*
X134843Y384842D02*
D03*
X161417D02*
D03*
X115157Y351378D02*
D03*
X479134Y71653D02*
D03*
X463583Y126969D02*
D03*
Y132874D02*
D03*
X90551Y122047D02*
D03*
X261811Y122244D02*
D03*
X338583Y108071D02*
D03*
X271654Y98228D02*
D03*
X338583Y96260D02*
D03*
X305118Y88189D02*
D03*
X294488D02*
D03*
X59055Y113189D02*
D03*
D82*
X476378Y130561D02*
D03*
Y127313D02*
D03*
D83*
X492126Y125984D02*
D03*
Y124016D02*
D03*
Y122047D02*
D03*
Y120079D02*
D03*
Y118110D02*
D03*
Y116142D02*
D03*
Y114173D02*
D03*
Y112205D02*
D03*
Y110236D02*
D03*
Y108268D02*
D03*
Y106299D02*
D03*
Y104331D02*
D03*
Y102362D02*
D03*
Y100394D02*
D03*
Y98425D02*
D03*
Y96457D02*
D03*
X537402D02*
D03*
Y98425D02*
D03*
Y100394D02*
D03*
Y102362D02*
D03*
Y104331D02*
D03*
Y106299D02*
D03*
Y108268D02*
D03*
Y110236D02*
D03*
Y112205D02*
D03*
Y114173D02*
D03*
Y116142D02*
D03*
Y118110D02*
D03*
Y120079D02*
D03*
Y122047D02*
D03*
Y124016D02*
D03*
Y125984D02*
D03*
D84*
X500000Y88583D02*
D03*
X501968D02*
D03*
X503937D02*
D03*
X505905D02*
D03*
X507874D02*
D03*
X509842D02*
D03*
X511811D02*
D03*
X513779D02*
D03*
X515748D02*
D03*
X517717D02*
D03*
X519685D02*
D03*
X521654D02*
D03*
X523622D02*
D03*
X525591D02*
D03*
X527559D02*
D03*
X529528D02*
D03*
Y133858D02*
D03*
X527559D02*
D03*
X525591D02*
D03*
X523622D02*
D03*
X521654D02*
D03*
X519685D02*
D03*
X517717D02*
D03*
X515748D02*
D03*
X513779D02*
D03*
X511811D02*
D03*
X509842D02*
D03*
X507874D02*
D03*
X505905D02*
D03*
X503937D02*
D03*
X501968D02*
D03*
X500000D02*
D03*
D85*
X470472Y104527D02*
D03*
Y98228D02*
D03*
X476378Y104527D02*
D03*
Y98228D02*
D03*
X482283Y104527D02*
D03*
Y98228D02*
D03*
X229331Y81890D02*
D03*
Y75591D02*
D03*
X200787Y97638D02*
D03*
Y91339D02*
D03*
X194882Y97638D02*
D03*
Y91339D02*
D03*
X258858Y137992D02*
D03*
Y131693D02*
D03*
X356299Y118898D02*
D03*
Y125197D02*
D03*
X125984Y118898D02*
D03*
Y125197D02*
D03*
D86*
X210630Y69882D02*
D03*
X222441D02*
D03*
D87*
X121555Y60039D02*
D03*
X108760D02*
D03*
X121555Y165354D02*
D03*
X108760D02*
D03*
D88*
X121358Y70866D02*
D03*
X114862D02*
D03*
X324508Y135433D02*
D03*
X331004D02*
D03*
X264469Y140748D02*
D03*
X270965D02*
D03*
X264469Y128937D02*
D03*
X270965D02*
D03*
X350689Y116142D02*
D03*
X344193D02*
D03*
X350689Y127953D02*
D03*
X344193D02*
D03*
X112894Y142717D02*
D03*
X119390D02*
D03*
D89*
X218996Y88779D02*
D03*
Y92520D02*
D03*
Y96260D02*
D03*
X208169D02*
D03*
Y92520D02*
D03*
Y88779D02*
D03*
D90*
X611079Y201874D02*
D03*
X629079D02*
D03*
D91*
X620079Y227661D02*
D03*
D92*
X307087Y114469D02*
D03*
Y107972D02*
D03*
X297244Y114469D02*
D03*
Y107972D02*
D03*
X284449Y124311D02*
D03*
Y117815D02*
D03*
X319882Y124311D02*
D03*
Y117815D02*
D03*
X599409Y339272D02*
D03*
Y345768D02*
D03*
X592520Y339272D02*
D03*
Y345768D02*
D03*
X579724Y368799D02*
D03*
Y375295D02*
D03*
X79724Y343209D02*
D03*
Y349705D02*
D03*
X154528Y368799D02*
D03*
Y375295D02*
D03*
X555118D02*
D03*
Y368799D02*
D03*
X55118Y349705D02*
D03*
Y343209D02*
D03*
X129921Y375295D02*
D03*
Y368799D02*
D03*
X548228D02*
D03*
Y375295D02*
D03*
X48228Y343209D02*
D03*
Y349705D02*
D03*
X123031Y368799D02*
D03*
Y375295D02*
D03*
D93*
X178150Y221949D02*
D03*
Y234744D02*
D03*
X163386Y221949D02*
D03*
Y234744D02*
D03*
X148622Y221949D02*
D03*
Y234744D02*
D03*
X485236Y304626D02*
D03*
Y291831D02*
D03*
X470472Y304626D02*
D03*
Y291831D02*
D03*
X455709Y304625D02*
D03*
Y291830D02*
D03*
X604331Y303642D02*
D03*
Y290846D02*
D03*
X618110Y303642D02*
D03*
Y290846D02*
D03*
D94*
X121457Y153543D02*
D03*
X108858D02*
D03*
D95*
X116142Y95472D02*
D03*
X100394D02*
D03*
D96*
X219585Y217520D02*
D03*
X213486D02*
D03*
X224313D02*
D03*
X230411D02*
D03*
X410337Y302165D02*
D03*
X416435D02*
D03*
X405608D02*
D03*
X399510D02*
D03*
D97*
X319882Y112008D02*
D03*
Y100591D02*
D03*
X284449Y112008D02*
D03*
Y100591D02*
D03*
X38386Y352165D02*
D03*
Y340748D02*
D03*
X538386Y377756D02*
D03*
Y366339D02*
D03*
X113189Y377756D02*
D03*
Y366339D02*
D03*
D98*
X302165Y135827D02*
D03*
D99*
X313583Y142717D02*
D03*
Y128937D02*
D03*
Y130905D02*
D03*
Y132874D02*
D03*
Y134843D02*
D03*
Y136811D02*
D03*
Y138779D02*
D03*
Y140748D02*
D03*
X290748Y128937D02*
D03*
Y130905D02*
D03*
Y132874D02*
D03*
Y134843D02*
D03*
Y136811D02*
D03*
Y138779D02*
D03*
Y140748D02*
D03*
Y142717D02*
D03*
D100*
X305118Y126378D02*
D03*
X307087D02*
D03*
X309055D02*
D03*
X311024D02*
D03*
X303150D02*
D03*
X301181D02*
D03*
X299213D02*
D03*
X297244D02*
D03*
X295276D02*
D03*
X293307D02*
D03*
Y145276D02*
D03*
X295276D02*
D03*
X297244D02*
D03*
X299213D02*
D03*
X301181D02*
D03*
X303150D02*
D03*
X305118D02*
D03*
X307087D02*
D03*
X309055D02*
D03*
X311024D02*
D03*
D101*
X135925Y366929D02*
D03*
X138484D02*
D03*
X141043D02*
D03*
X143602D02*
D03*
X135925Y377165D02*
D03*
X138484D02*
D03*
X141043D02*
D03*
X143602D02*
D03*
X605413Y337402D02*
D03*
X607972D02*
D03*
X610532D02*
D03*
X613091D02*
D03*
X605413Y347638D02*
D03*
X607972D02*
D03*
X610532D02*
D03*
X613091D02*
D03*
X61122Y341339D02*
D03*
X63681D02*
D03*
X66240D02*
D03*
X68799D02*
D03*
X61122Y351575D02*
D03*
X63681D02*
D03*
X66240D02*
D03*
X68799D02*
D03*
X561122Y366929D02*
D03*
X563681D02*
D03*
X566240D02*
D03*
X568799D02*
D03*
X561122Y377165D02*
D03*
X563681D02*
D03*
X566240D02*
D03*
X568799D02*
D03*
D102*
X185118Y257421D02*
D03*
Y262421D02*
D03*
Y252421D02*
D03*
Y247421D02*
D03*
X444803Y272106D02*
D03*
Y267106D02*
D03*
Y277106D02*
D03*
Y282106D02*
D03*
D103*
X161768Y262421D02*
D03*
Y257421D02*
D03*
Y252421D02*
D03*
Y247421D02*
D03*
X468153Y267106D02*
D03*
Y272106D02*
D03*
Y277106D02*
D03*
Y282106D02*
D03*
D104*
X585827Y244094D02*
D03*
X597244D02*
D03*
D105*
Y232283D02*
D03*
X79724Y337598D02*
D03*
X7874Y346457D02*
D03*
X522638Y344488D02*
D03*
X579724Y363189D02*
D03*
X115157Y299213D02*
D03*
X154528Y363189D02*
D03*
D106*
X22638Y356102D02*
D03*
Y336811D02*
D03*
X522638Y381693D02*
D03*
Y362402D02*
D03*
X97441Y381693D02*
D03*
Y362402D02*
D03*
D107*
X364173Y136811D02*
D03*
D108*
X234252Y364173D02*
D03*
X190945D02*
D03*
X25591Y263779D02*
D03*
Y307087D02*
D03*
X478346Y364134D02*
D03*
X435039D02*
D03*
X661417Y238189D02*
D03*
Y281496D02*
D03*
D109*
X665354Y186417D02*
D03*
Y158071D02*
D03*
X104724Y23622D02*
D03*
X76378D02*
D03*
D110*
X16929Y41339D02*
D03*
Y100394D02*
D03*
D111*
X32480Y64961D02*
D03*
X20669Y76772D02*
D03*
Y64961D02*
D03*
Y53150D02*
D03*
X32480Y88583D02*
D03*
Y76772D02*
D03*
Y53150D02*
D03*
X20669Y88583D02*
D03*
X32480Y161417D02*
D03*
X20669D02*
D03*
X32480Y149606D02*
D03*
X20669D02*
D03*
X656496Y112205D02*
D03*
Y100394D02*
D03*
Y88583D02*
D03*
Y76772D02*
D03*
Y64961D02*
D03*
X668307Y112205D02*
D03*
Y100394D02*
D03*
Y88583D02*
D03*
Y76772D02*
D03*
Y64961D02*
D03*
X631890Y33465D02*
D03*
X620079D02*
D03*
X608268D02*
D03*
X631890Y21654D02*
D03*
X620079D02*
D03*
X608268D02*
D03*
X288307Y11811D02*
D03*
X298307D02*
D03*
X278307D02*
D03*
X288307Y28543D02*
D03*
X298307D02*
D03*
X278307D02*
D03*
X517323Y21732D02*
D03*
X527323D02*
D03*
X537323D02*
D03*
X557323D02*
D03*
X547323D02*
D03*
X567323Y11732D02*
D03*
X557323D02*
D03*
X547323D02*
D03*
X537323D02*
D03*
X527323D02*
D03*
X517323D02*
D03*
X198031Y28543D02*
D03*
X208032D02*
D03*
X218032D02*
D03*
X238032D02*
D03*
X228031D02*
D03*
X198031Y11811D02*
D03*
X208032D02*
D03*
X218032D02*
D03*
X238032D02*
D03*
X228031D02*
D03*
X388071Y18622D02*
D03*
Y28622D02*
D03*
X398071Y18622D02*
D03*
Y28622D02*
D03*
X408071Y18622D02*
D03*
Y28622D02*
D03*
X418071Y18622D02*
D03*
Y28622D02*
D03*
X428071Y18622D02*
D03*
Y28622D02*
D03*
X438071Y18622D02*
D03*
Y28622D02*
D03*
X448071Y18622D02*
D03*
Y28622D02*
D03*
X458071Y18622D02*
D03*
Y28622D02*
D03*
X468071Y18622D02*
D03*
Y28622D02*
D03*
X478071Y18622D02*
D03*
D112*
X16969Y173228D02*
D03*
Y137795D02*
D03*
D113*
X369488Y235630D02*
D03*
X260433Y291929D02*
D03*
D114*
X369488D02*
D03*
X260433Y235630D02*
D03*
D115*
X168150Y11811D02*
D03*
X135984D02*
D03*
X37736Y123189D02*
D03*
X229331Y141969D02*
D03*
D116*
X158150Y11811D02*
D03*
X145984D02*
D03*
D117*
X656496Y124016D02*
D03*
Y53150D02*
D03*
X643701Y33465D02*
D03*
X596457D02*
D03*
D118*
X308307Y11811D02*
D03*
Y28543D02*
D03*
X567323Y21732D02*
D03*
X248031Y28543D02*
D03*
Y11811D02*
D03*
X478071Y28622D02*
D03*
D119*
X344488Y377953D02*
D03*
Y15748D02*
D03*
X673228D02*
D03*
X15748D02*
D03*
X673228Y377953D02*
D03*
X15748Y377953D02*
D03*
D120*
X37736Y113189D02*
D03*
X229331Y151969D02*
D03*
M02*
