G04*
G04 #@! TF.GenerationSoftware,Altium Limited,Altium Designer,24.10.1 (45)*
G04*
G04 Layer_Physical_Order=4*
G04 Layer_Color=6736896*
%FSLAX25Y25*%
%MOIN*%
G70*
G04*
G04 #@! TF.SameCoordinates,2ED57A9A-72F5-4DC9-83BB-2DC3BA24BD7A*
G04*
G04*
G04 #@! TF.FilePolarity,Positive*
G04*
G01*
G75*
%ADD125C,0.10236*%
%ADD126C,0.07087*%
%ADD127R,0.07087X0.07087*%
%ADD128C,0.05906*%
%ADD129R,0.05906X0.05906*%
%ADD130C,0.25591*%
G04:AMPARAMS|DCode=131|XSize=393.7mil|YSize=196.85mil|CornerRadius=1.97mil|HoleSize=0mil|Usage=FLASHONLY|Rotation=270.000|XOffset=0mil|YOffset=0mil|HoleType=Round|Shape=RoundedRectangle|*
%AMROUNDEDRECTD131*
21,1,0.39370,0.19291,0,0,270.0*
21,1,0.38976,0.19685,0,0,270.0*
1,1,0.00394,-0.09646,-0.19488*
1,1,0.00394,-0.09646,0.19488*
1,1,0.00394,0.09646,0.19488*
1,1,0.00394,0.09646,-0.19488*
%
%ADD131ROUNDEDRECTD131*%
%ADD132C,0.13780*%
%ADD133R,0.05906X0.05906*%
%ADD134C,0.04921*%
%ADD135C,0.23622*%
%ADD136C,0.31496*%
%ADD137C,0.04724*%
%ADD138C,0.01772*%
%ADD139C,0.02362*%
G36*
X668388Y391200D02*
X667818Y391015D01*
X665841Y390007D01*
X664046Y388703D01*
X662478Y387135D01*
X661174Y385340D01*
X660167Y383363D01*
X659481Y381253D01*
X659134Y379062D01*
Y376844D01*
X659481Y374652D01*
X660167Y372542D01*
X661174Y370566D01*
X662478Y368771D01*
X664046Y367202D01*
X665841Y365898D01*
X667818Y364891D01*
X669928Y364205D01*
X672119Y363858D01*
X674338D01*
X676529Y364205D01*
X678639Y364891D01*
X680616Y365898D01*
X682410Y367202D01*
X683979Y368771D01*
X685283Y370566D01*
X686290Y372542D01*
X686476Y373113D01*
X686969Y373035D01*
Y20666D01*
X686476Y20588D01*
X686290Y21158D01*
X685283Y23135D01*
X683979Y24930D01*
X682410Y26499D01*
X680616Y27803D01*
X678639Y28810D01*
X676529Y29495D01*
X674338Y29842D01*
X672119D01*
X669928Y29495D01*
X667818Y28810D01*
X665841Y27803D01*
X664046Y26499D01*
X662478Y24930D01*
X661174Y23135D01*
X660167Y21158D01*
X659481Y19049D01*
X659134Y16857D01*
Y14639D01*
X659481Y12448D01*
X660167Y10338D01*
X661174Y8361D01*
X662478Y6566D01*
X664046Y4997D01*
X665841Y3693D01*
X667818Y2686D01*
X668388Y2501D01*
X668310Y2007D01*
X349407D01*
X349328Y2501D01*
X349899Y2686D01*
X351875Y3693D01*
X353670Y4997D01*
X355239Y6566D01*
X356543Y8361D01*
X357550Y10338D01*
X358236Y12448D01*
X358583Y14639D01*
Y16857D01*
X358236Y19049D01*
X357550Y21158D01*
X356543Y23135D01*
X355239Y24930D01*
X353670Y26499D01*
X351875Y27803D01*
X349899Y28810D01*
X347789Y29495D01*
X345597Y29842D01*
X343379D01*
X341188Y29495D01*
X339078Y28810D01*
X337101Y27803D01*
X335306Y26499D01*
X333737Y24930D01*
X332434Y23135D01*
X331426Y21158D01*
X330741Y19049D01*
X330394Y16857D01*
Y14639D01*
X330741Y12448D01*
X331426Y10338D01*
X332434Y8361D01*
X333737Y6566D01*
X335306Y4997D01*
X337101Y3693D01*
X339078Y2686D01*
X339648Y2501D01*
X339570Y2007D01*
X20666D01*
X20588Y2501D01*
X21158Y2686D01*
X23135Y3693D01*
X24930Y4997D01*
X26499Y6566D01*
X27803Y8361D01*
X28810Y10338D01*
X29495Y12448D01*
X29842Y14639D01*
Y16857D01*
X29495Y19049D01*
X28810Y21158D01*
X27803Y23135D01*
X26499Y24930D01*
X24930Y26499D01*
X23135Y27803D01*
X21158Y28810D01*
X19049Y29495D01*
X16857Y29842D01*
X14639D01*
X12448Y29495D01*
X10338Y28810D01*
X8361Y27803D01*
X6566Y26499D01*
X4997Y24930D01*
X3693Y23135D01*
X2686Y21158D01*
X2501Y20588D01*
X2007Y20666D01*
Y373035D01*
X2501Y373113D01*
X2686Y372542D01*
X3693Y370566D01*
X4997Y368771D01*
X6566Y367202D01*
X8361Y365898D01*
X10338Y364891D01*
X12448Y364205D01*
X14639Y363858D01*
X16857D01*
X19049Y364205D01*
X21158Y364891D01*
X23135Y365898D01*
X24930Y367202D01*
X26499Y368771D01*
X27803Y370566D01*
X28810Y372542D01*
X29495Y374652D01*
X29842Y376844D01*
Y379062D01*
X29495Y381253D01*
X28810Y383363D01*
X27803Y385340D01*
X26499Y387135D01*
X24930Y388703D01*
X23135Y390007D01*
X21158Y391015D01*
X20588Y391200D01*
X20666Y391694D01*
X339570D01*
X339648Y391200D01*
X339078Y391015D01*
X337101Y390007D01*
X335306Y388703D01*
X333737Y387135D01*
X332434Y385340D01*
X331426Y383363D01*
X330741Y381253D01*
X330394Y379062D01*
Y376844D01*
X330741Y374652D01*
X331426Y372542D01*
X332434Y370566D01*
X333737Y368771D01*
X335306Y367202D01*
X337101Y365898D01*
X339078Y364891D01*
X341188Y364205D01*
X343379Y363858D01*
X345597D01*
X347789Y364205D01*
X349899Y364891D01*
X351875Y365898D01*
X353670Y367202D01*
X355239Y368771D01*
X356543Y370566D01*
X357550Y372542D01*
X358236Y374652D01*
X358583Y376844D01*
Y379062D01*
X358236Y381253D01*
X357550Y383363D01*
X356543Y385340D01*
X355239Y387135D01*
X353670Y388703D01*
X351875Y390007D01*
X349899Y391015D01*
X349328Y391200D01*
X349407Y391694D01*
X668310D01*
X668388Y391200D01*
D02*
G37*
%LPC*%
G36*
X130099Y389484D02*
X129349D01*
X128656Y389197D01*
X128126Y388667D01*
X127839Y387973D01*
Y387223D01*
X128126Y386530D01*
X128656Y386000D01*
X129349Y385713D01*
X130099D01*
X130793Y386000D01*
X131323Y386530D01*
X131610Y387223D01*
Y387973D01*
X131323Y388667D01*
X130793Y389197D01*
X130099Y389484D01*
D02*
G37*
G36*
X77344D02*
X76593D01*
X75900Y389197D01*
X75370Y388667D01*
X75083Y387973D01*
Y387223D01*
X75370Y386530D01*
X75900Y386000D01*
X76593Y385713D01*
X77344D01*
X78037Y386000D01*
X78567Y386530D01*
X78854Y387223D01*
Y387973D01*
X78567Y388667D01*
X78037Y389197D01*
X77344Y389484D01*
D02*
G37*
G36*
X148210Y382398D02*
X147459D01*
X146766Y382111D01*
X146236Y381580D01*
X145949Y380887D01*
Y380137D01*
X146236Y379444D01*
X146766Y378913D01*
X147459Y378626D01*
X148210D01*
X148903Y378913D01*
X149433Y379444D01*
X149721Y380137D01*
Y380887D01*
X149433Y381580D01*
X148903Y382111D01*
X148210Y382398D01*
D02*
G37*
G36*
X73603Y380626D02*
X72853D01*
X72160Y380339D01*
X71630Y379808D01*
X71342Y379115D01*
Y378365D01*
X71630Y377672D01*
X72160Y377141D01*
X72853Y376854D01*
X73603D01*
X74297Y377141D01*
X74827Y377672D01*
X75114Y378365D01*
Y379115D01*
X74827Y379808D01*
X74297Y380339D01*
X73603Y380626D01*
D02*
G37*
G36*
X532659Y379445D02*
X531908D01*
X531215Y379158D01*
X530685Y378627D01*
X530398Y377934D01*
Y377184D01*
X530685Y376491D01*
X531215Y375960D01*
X531908Y375673D01*
X532659D01*
X533352Y375960D01*
X533882Y376491D01*
X534169Y377184D01*
Y377934D01*
X533882Y378627D01*
X533352Y379158D01*
X532659Y379445D01*
D02*
G37*
G36*
X107462D02*
X106711D01*
X106018Y379158D01*
X105488Y378627D01*
X105201Y377934D01*
Y377184D01*
X105488Y376491D01*
X106018Y375960D01*
X106711Y375673D01*
X107462D01*
X108155Y375960D01*
X108685Y376491D01*
X108972Y377184D01*
Y377934D01*
X108685Y378627D01*
X108155Y379158D01*
X107462Y379445D01*
D02*
G37*
G36*
X644076Y373933D02*
X643326D01*
X642633Y373646D01*
X642102Y373115D01*
X641815Y372422D01*
Y371672D01*
X642102Y370979D01*
X642633Y370448D01*
X643326Y370161D01*
X644076D01*
X644769Y370448D01*
X645299Y370979D01*
X645587Y371672D01*
Y372422D01*
X645299Y373115D01*
X644769Y373646D01*
X644076Y373933D01*
D02*
G37*
G36*
X564155Y372752D02*
X563404D01*
X562711Y372465D01*
X562181Y371934D01*
X561894Y371241D01*
Y370491D01*
X562181Y369798D01*
X562711Y369267D01*
X563404Y368980D01*
X564155D01*
X564848Y369267D01*
X565378Y369798D01*
X565665Y370491D01*
Y371241D01*
X565378Y371934D01*
X564848Y372465D01*
X564155Y372752D01*
D02*
G37*
G36*
X235491Y383071D02*
X233013D01*
X230557Y382748D01*
X228165Y382106D01*
X225876Y381158D01*
X223730Y379920D01*
X223137Y379464D01*
X234252Y368349D01*
X245367Y379464D01*
X244774Y379920D01*
X242628Y381158D01*
X240339Y382106D01*
X237947Y382748D01*
X235491Y383071D01*
D02*
G37*
G36*
X436278Y383032D02*
X433801D01*
X431345Y382708D01*
X428952Y382067D01*
X426663Y381119D01*
X424518Y379880D01*
X423924Y379425D01*
X435039Y368310D01*
X446154Y379425D01*
X445561Y379880D01*
X443415Y381119D01*
X441127Y382067D01*
X438734Y382708D01*
X436278Y383032D01*
D02*
G37*
G36*
X594863Y370783D02*
X594113D01*
X593420Y370496D01*
X592889Y369966D01*
X592602Y369273D01*
Y368523D01*
X592889Y367829D01*
X593420Y367299D01*
X594113Y367012D01*
X594863D01*
X595556Y367299D01*
X596087Y367829D01*
X596374Y368523D01*
Y369273D01*
X596087Y369966D01*
X595556Y370496D01*
X594863Y370783D01*
D02*
G37*
G36*
X122816Y366453D02*
X122066D01*
X121373Y366166D01*
X120842Y365635D01*
X120555Y364942D01*
Y364192D01*
X120842Y363499D01*
X121373Y362968D01*
X122066Y362681D01*
X122816D01*
X123509Y362968D01*
X124040Y363499D01*
X124327Y364192D01*
Y364942D01*
X124040Y365635D01*
X123509Y366166D01*
X122816Y366453D01*
D02*
G37*
G36*
X45454Y366059D02*
X44704D01*
X44010Y365772D01*
X43480Y365242D01*
X43193Y364548D01*
Y363798D01*
X43480Y363105D01*
X44010Y362575D01*
X44704Y362287D01*
X45454D01*
X46147Y362575D01*
X46678Y363105D01*
X46965Y363798D01*
Y364548D01*
X46678Y365242D01*
X46147Y365772D01*
X45454Y366059D01*
D02*
G37*
G36*
X538564Y362516D02*
X537814D01*
X537121Y362229D01*
X536590Y361698D01*
X536303Y361005D01*
Y360255D01*
X536590Y359562D01*
X537121Y359031D01*
X537814Y358744D01*
X538564D01*
X539257Y359031D01*
X539788Y359562D01*
X540075Y360255D01*
Y361005D01*
X539788Y361698D01*
X539257Y362229D01*
X538564Y362516D01*
D02*
G37*
G36*
X555658Y358153D02*
X554908D01*
X554214Y357866D01*
X553684Y357335D01*
X553397Y356642D01*
Y355892D01*
X553684Y355199D01*
X554214Y354668D01*
X554908Y354381D01*
X555658D01*
X556351Y354668D01*
X556881Y355199D01*
X557168Y355892D01*
Y356642D01*
X556881Y357335D01*
X556351Y357866D01*
X555658Y358153D01*
D02*
G37*
G36*
X115533Y357988D02*
X114782D01*
X114089Y357701D01*
X113559Y357171D01*
X113272Y356477D01*
Y355727D01*
X113559Y355034D01*
X114089Y354504D01*
X114782Y354217D01*
X115533D01*
X116226Y354504D01*
X116756Y355034D01*
X117043Y355727D01*
Y356477D01*
X116756Y357171D01*
X116226Y357701D01*
X115533Y357988D01*
D02*
G37*
G36*
X249543Y375288D02*
X238428Y364173D01*
X249543Y353058D01*
X249998Y353652D01*
X251237Y355797D01*
X252185Y358086D01*
X252826Y360479D01*
X253150Y362935D01*
Y365412D01*
X252826Y367868D01*
X252185Y370261D01*
X251237Y372549D01*
X249998Y374695D01*
X249543Y375288D01*
D02*
G37*
G36*
X218961D02*
X218506Y374695D01*
X217267Y372549D01*
X216319Y370261D01*
X215678Y367868D01*
X215354Y365412D01*
Y362935D01*
X215678Y360479D01*
X216319Y358086D01*
X217267Y355797D01*
X218506Y353652D01*
X218961Y353058D01*
X230076Y364173D01*
X218961Y375288D01*
D02*
G37*
G36*
X419748Y375249D02*
X419293Y374655D01*
X418054Y372510D01*
X417106Y370221D01*
X416465Y367828D01*
X416142Y365372D01*
Y362895D01*
X416465Y360439D01*
X417106Y358046D01*
X418054Y355758D01*
X419293Y353612D01*
X419748Y353019D01*
X430864Y364134D01*
X419748Y375249D01*
D02*
G37*
G36*
X450330Y375249D02*
X439215Y364134D01*
X450330Y353019D01*
X450786Y353612D01*
X452025Y355758D01*
X452973Y358046D01*
X453614Y360439D01*
X453937Y362895D01*
Y365372D01*
X453614Y367828D01*
X452973Y370221D01*
X452025Y372510D01*
X450786Y374655D01*
X450330Y375249D01*
D02*
G37*
G36*
X73997Y356610D02*
X73247D01*
X72554Y356323D01*
X72023Y355793D01*
X71736Y355100D01*
Y354349D01*
X72023Y353656D01*
X72554Y353126D01*
X73247Y352839D01*
X73997D01*
X74690Y353126D01*
X75221Y353656D01*
X75508Y354349D01*
Y355100D01*
X75221Y355793D01*
X74690Y356323D01*
X73997Y356610D01*
D02*
G37*
G36*
X32659Y353854D02*
X31908D01*
X31215Y353567D01*
X30685Y353037D01*
X30398Y352344D01*
Y351593D01*
X30685Y350900D01*
X31215Y350370D01*
X31908Y350083D01*
X32659D01*
X33352Y350370D01*
X33882Y350900D01*
X34169Y351593D01*
Y352344D01*
X33882Y353037D01*
X33352Y353567D01*
X32659Y353854D01*
D02*
G37*
G36*
X655690Y353264D02*
X654940D01*
X654247Y352977D01*
X653716Y352446D01*
X653429Y351753D01*
Y351003D01*
X653716Y350310D01*
X654247Y349779D01*
X654940Y349492D01*
X655690D01*
X656383Y349779D01*
X656914Y350310D01*
X657201Y351003D01*
Y351753D01*
X656914Y352446D01*
X656383Y352977D01*
X655690Y353264D01*
D02*
G37*
G36*
X192062Y381221D02*
X189828D01*
X187612Y380929D01*
X185453Y380350D01*
X183389Y379495D01*
X181454Y378378D01*
X179681Y377017D01*
X178101Y375437D01*
X176740Y373664D01*
X175623Y371729D01*
X174768Y369665D01*
X174189Y367506D01*
X173898Y365291D01*
Y363056D01*
X174189Y360840D01*
X174768Y358682D01*
X175623Y356617D01*
X176740Y354682D01*
X178101Y352909D01*
X179681Y351329D01*
X181454Y349969D01*
X183389Y348851D01*
X185453Y347996D01*
X187612Y347418D01*
X189828Y347126D01*
X192062D01*
X194278Y347418D01*
X196436Y347996D01*
X198501Y348851D01*
X200436Y349969D01*
X202209Y351329D01*
X203789Y352909D01*
X205150Y354682D01*
X206267Y356617D01*
X207122Y358682D01*
X207700Y360840D01*
X207992Y363056D01*
Y365291D01*
X207700Y367506D01*
X207122Y369665D01*
X206267Y371729D01*
X205150Y373664D01*
X203789Y375437D01*
X202209Y377017D01*
X200436Y378378D01*
X198501Y379495D01*
X196436Y380350D01*
X194278Y380929D01*
X192062Y381221D01*
D02*
G37*
G36*
X479464Y381181D02*
X477229D01*
X475014Y380889D01*
X472855Y380311D01*
X470790Y379456D01*
X468855Y378339D01*
X467082Y376978D01*
X465502Y375398D01*
X464142Y373625D01*
X463024Y371690D01*
X462169Y369625D01*
X461591Y367467D01*
X461299Y365251D01*
Y363017D01*
X461591Y360801D01*
X462169Y358642D01*
X463024Y356578D01*
X464142Y354643D01*
X465502Y352870D01*
X467082Y351290D01*
X468855Y349929D01*
X470790Y348812D01*
X472855Y347957D01*
X475014Y347378D01*
X477229Y347087D01*
X479464D01*
X481679Y347378D01*
X483838Y347957D01*
X485902Y348812D01*
X487838Y349929D01*
X489611Y351290D01*
X491191Y352870D01*
X492551Y354643D01*
X493669Y356578D01*
X494524Y358642D01*
X495102Y360801D01*
X495394Y363017D01*
Y365251D01*
X495102Y367467D01*
X494524Y369625D01*
X493669Y371690D01*
X492551Y373625D01*
X491191Y375398D01*
X489611Y376978D01*
X487838Y378339D01*
X485902Y379456D01*
X483838Y380311D01*
X481679Y380889D01*
X479464Y381181D01*
D02*
G37*
G36*
X640533Y349917D02*
X639782D01*
X639089Y349630D01*
X638559Y349100D01*
X638272Y348407D01*
Y347656D01*
X638559Y346963D01*
X639089Y346433D01*
X639782Y346146D01*
X640533D01*
X641226Y346433D01*
X641756Y346963D01*
X642043Y347656D01*
Y348407D01*
X641756Y349100D01*
X641226Y349630D01*
X640533Y349917D01*
D02*
G37*
G36*
X234252Y359997D02*
X223137Y348882D01*
X223730Y348427D01*
X225876Y347188D01*
X228165Y346240D01*
X230557Y345599D01*
X233013Y345276D01*
X235491D01*
X237947Y345599D01*
X240339Y346240D01*
X242628Y347188D01*
X244774Y348427D01*
X245367Y348882D01*
X234252Y359997D01*
D02*
G37*
G36*
X435039Y359958D02*
X423924Y348843D01*
X424518Y348387D01*
X426663Y347149D01*
X428952Y346201D01*
X431345Y345560D01*
X433801Y345236D01*
X436278D01*
X438734Y345560D01*
X441127Y346201D01*
X443415Y347149D01*
X445561Y348387D01*
X446154Y348843D01*
X435039Y359958D01*
D02*
G37*
G36*
X616911Y336138D02*
X616160D01*
X615467Y335851D01*
X614937Y335320D01*
X614650Y334627D01*
Y333877D01*
X614937Y333184D01*
X615467Y332653D01*
X616160Y332366D01*
X616911D01*
X617604Y332653D01*
X618134Y333184D01*
X618421Y333877D01*
Y334627D01*
X618134Y335320D01*
X617604Y335851D01*
X616911Y336138D01*
D02*
G37*
G36*
X64056Y334268D02*
X63306D01*
X62613Y333981D01*
X62082Y333450D01*
X61795Y332757D01*
Y332007D01*
X62082Y331314D01*
X62613Y330783D01*
X63306Y330496D01*
X64056D01*
X64749Y330783D01*
X65280Y331314D01*
X65567Y332007D01*
Y332757D01*
X65280Y333450D01*
X64749Y333981D01*
X64056Y334268D01*
D02*
G37*
G36*
X71635Y327870D02*
X70885D01*
X70192Y327583D01*
X69661Y327052D01*
X69374Y326359D01*
Y325609D01*
X69661Y324916D01*
X70192Y324385D01*
X70885Y324098D01*
X71635D01*
X72328Y324385D01*
X72859Y324916D01*
X73146Y325609D01*
Y326359D01*
X72859Y327052D01*
X72328Y327583D01*
X71635Y327870D01*
D02*
G37*
G36*
X596832Y325508D02*
X596082D01*
X595389Y325221D01*
X594858Y324690D01*
X594571Y323997D01*
Y323247D01*
X594858Y322554D01*
X595389Y322023D01*
X596082Y321736D01*
X596832D01*
X597525Y322023D01*
X598055Y322554D01*
X598343Y323247D01*
Y323997D01*
X598055Y324690D01*
X597525Y325221D01*
X596832Y325508D01*
D02*
G37*
G36*
X425040Y308874D02*
X424172D01*
X423371Y308542D01*
X422757Y307928D01*
X422425Y307127D01*
Y306259D01*
X422757Y305457D01*
X423371Y304844D01*
X424172Y304512D01*
X425040D01*
X425842Y304844D01*
X426455Y305457D01*
X426787Y306259D01*
Y307127D01*
X426455Y307928D01*
X425842Y308542D01*
X425040Y308874D01*
D02*
G37*
G36*
X662656Y316142D02*
X660179D01*
X657723Y315818D01*
X655330Y315177D01*
X653041Y314229D01*
X650896Y312991D01*
X650302Y312535D01*
X661417Y301420D01*
X672533Y312535D01*
X671939Y312991D01*
X669794Y314229D01*
X667505Y315177D01*
X665112Y315818D01*
X662656Y316142D01*
D02*
G37*
G36*
X26708Y324134D02*
X24473D01*
X22258Y323842D01*
X20099Y323264D01*
X18035Y322409D01*
X16099Y321291D01*
X14326Y319931D01*
X12746Y318351D01*
X11386Y316578D01*
X10269Y314643D01*
X9413Y312578D01*
X8835Y310420D01*
X8543Y308204D01*
Y305969D01*
X8835Y303754D01*
X9413Y301595D01*
X10269Y299531D01*
X11386Y297595D01*
X12746Y295822D01*
X14326Y294242D01*
X16099Y292882D01*
X18035Y291765D01*
X20099Y290909D01*
X22258Y290331D01*
X24473Y290039D01*
X26708D01*
X28923Y290331D01*
X31082Y290909D01*
X33147Y291765D01*
X35082Y292882D01*
X36855Y294242D01*
X38435Y295822D01*
X39795Y297595D01*
X40913Y299531D01*
X41768Y301595D01*
X42346Y303754D01*
X42638Y305969D01*
Y308204D01*
X42346Y310420D01*
X41768Y312578D01*
X40913Y314643D01*
X39795Y316578D01*
X38435Y318351D01*
X36855Y319931D01*
X35082Y321291D01*
X33147Y322409D01*
X31082Y323264D01*
X28923Y323842D01*
X26708Y324134D01*
D02*
G37*
G36*
X646126Y308359D02*
X645671Y307766D01*
X644432Y305620D01*
X643484Y303332D01*
X642843Y300939D01*
X642520Y298483D01*
Y296006D01*
X642843Y293549D01*
X643484Y291157D01*
X644432Y288868D01*
X645671Y286723D01*
X646126Y286129D01*
X657241Y297244D01*
X646126Y308359D01*
D02*
G37*
G36*
X676708Y308359D02*
X665593Y297244D01*
X676708Y286129D01*
X677164Y286723D01*
X678403Y288868D01*
X679351Y291157D01*
X679992Y293549D01*
X680315Y296006D01*
Y298483D01*
X679992Y300939D01*
X679351Y303332D01*
X678403Y305620D01*
X677164Y307766D01*
X676708Y308359D01*
D02*
G37*
G36*
X370295Y302087D02*
X368682D01*
X367100Y301772D01*
X365609Y301155D01*
X364268Y300258D01*
X363127Y299118D01*
X362231Y297777D01*
X361614Y296286D01*
X361299Y294704D01*
Y293091D01*
X361614Y291509D01*
X362231Y290019D01*
X363127Y288678D01*
X364268Y287537D01*
X365609Y286641D01*
X367100Y286023D01*
X368682Y285709D01*
X370295D01*
X371877Y286023D01*
X373367Y286641D01*
X374708Y287537D01*
X375849Y288678D01*
X376745Y290019D01*
X377362Y291509D01*
X377677Y293091D01*
Y294704D01*
X377362Y296286D01*
X376745Y297777D01*
X375849Y299118D01*
X374708Y300258D01*
X373367Y301155D01*
X371877Y301772D01*
X370295Y302087D01*
D02*
G37*
G36*
X661417Y293068D02*
X650302Y281953D01*
X650896Y281498D01*
X653041Y280259D01*
X655330Y279311D01*
X657723Y278670D01*
X660179Y278346D01*
X662656D01*
X665112Y278670D01*
X667505Y279311D01*
X669794Y280259D01*
X671939Y281498D01*
X672533Y281953D01*
X661417Y293068D01*
D02*
G37*
G36*
X603131Y281413D02*
X602381D01*
X601688Y281126D01*
X601157Y280596D01*
X600870Y279903D01*
Y279152D01*
X601157Y278459D01*
X601688Y277929D01*
X602381Y277642D01*
X603131D01*
X603824Y277929D01*
X604355Y278459D01*
X604642Y279152D01*
Y279903D01*
X604355Y280596D01*
X603824Y281126D01*
X603131Y281413D01*
D02*
G37*
G36*
X516517Y279839D02*
X515767D01*
X515073Y279552D01*
X514543Y279021D01*
X514256Y278328D01*
Y277578D01*
X514543Y276885D01*
X515073Y276354D01*
X515767Y276067D01*
X516517D01*
X517210Y276354D01*
X517740Y276885D01*
X518027Y277578D01*
Y278328D01*
X517740Y279021D01*
X517210Y279552D01*
X516517Y279839D01*
D02*
G37*
G36*
X270079Y314911D02*
X250787D01*
X250204Y314795D01*
X249709Y314464D01*
X249378Y313970D01*
X249262Y313386D01*
Y274410D01*
X249378Y273826D01*
X249709Y273331D01*
X250204Y273000D01*
X250787Y272884D01*
X270079D01*
X270662Y273000D01*
X271157Y273331D01*
X271488Y273826D01*
X271604Y274410D01*
Y313386D01*
X271488Y313970D01*
X271157Y314464D01*
X270662Y314795D01*
X270079Y314911D01*
D02*
G37*
G36*
X592501Y273539D02*
X591751D01*
X591058Y273252D01*
X590527Y272722D01*
X590240Y272029D01*
Y271278D01*
X590527Y270585D01*
X591058Y270055D01*
X591751Y269768D01*
X592501D01*
X593194Y270055D01*
X593725Y270585D01*
X594012Y271278D01*
Y272029D01*
X593725Y272722D01*
X593194Y273252D01*
X592501Y273539D01*
D02*
G37*
G36*
X503426Y272555D02*
X502676D01*
X501983Y272268D01*
X501452Y271738D01*
X501165Y271044D01*
Y270294D01*
X501452Y269601D01*
X501983Y269071D01*
X502676Y268783D01*
X503426D01*
X504119Y269071D01*
X504650Y269601D01*
X504937Y270294D01*
Y271044D01*
X504650Y271738D01*
X504119Y272268D01*
X503426Y272555D01*
D02*
G37*
G36*
X477639D02*
X476889D01*
X476196Y272268D01*
X475665Y271738D01*
X475378Y271044D01*
Y270294D01*
X475665Y269601D01*
X476196Y269071D01*
X476889Y268783D01*
X477639D01*
X478332Y269071D01*
X478862Y269601D01*
X479150Y270294D01*
Y271044D01*
X478862Y271738D01*
X478332Y272268D01*
X477639Y272555D01*
D02*
G37*
G36*
X26829Y282677D02*
X24352D01*
X21896Y282354D01*
X19503Y281713D01*
X17214Y280765D01*
X15069Y279526D01*
X14475Y279070D01*
X25591Y267955D01*
X36706Y279070D01*
X36112Y279526D01*
X33967Y280765D01*
X31678Y281713D01*
X29285Y282354D01*
X26829Y282677D01*
D02*
G37*
G36*
X123210Y267240D02*
X122459D01*
X121766Y266953D01*
X121236Y266423D01*
X120949Y265729D01*
Y264979D01*
X121236Y264286D01*
X121766Y263756D01*
X122459Y263469D01*
X123210D01*
X123903Y263756D01*
X124433Y264286D01*
X124721Y264979D01*
Y265729D01*
X124433Y266423D01*
X123903Y266953D01*
X123210Y267240D01*
D02*
G37*
G36*
X449646Y269396D02*
X448779D01*
X447977Y269064D01*
X447364Y268450D01*
X447031Y267648D01*
Y266781D01*
X447364Y265979D01*
X447977Y265366D01*
X448432Y265177D01*
Y264636D01*
X447977Y264447D01*
X447364Y263834D01*
X447031Y263032D01*
Y262165D01*
X447364Y261363D01*
X447977Y260749D01*
X448779Y260417D01*
X449646D01*
X450448Y260749D01*
X451062Y261363D01*
X451394Y262165D01*
Y263032D01*
X451062Y263834D01*
X450448Y264447D01*
X449993Y264636D01*
Y265177D01*
X450448Y265366D01*
X451062Y265979D01*
X451394Y266781D01*
Y267648D01*
X451062Y268450D01*
X450448Y269064D01*
X449646Y269396D01*
D02*
G37*
G36*
X181142Y269110D02*
X180275D01*
X179473Y268778D01*
X178860Y268165D01*
X178528Y267363D01*
Y266495D01*
X178860Y265694D01*
X179473Y265080D01*
X179928Y264892D01*
Y264351D01*
X179473Y264162D01*
X178860Y263548D01*
X178528Y262747D01*
Y261879D01*
X178860Y261077D01*
X179473Y260464D01*
X180275Y260132D01*
X181142D01*
X181944Y260464D01*
X182558Y261077D01*
X182890Y261879D01*
Y262747D01*
X182558Y263548D01*
X181944Y264162D01*
X181489Y264351D01*
Y264892D01*
X181944Y265080D01*
X182558Y265694D01*
X182890Y266495D01*
Y267363D01*
X182558Y268165D01*
X181944Y268778D01*
X181142Y269110D01*
D02*
G37*
G36*
X40881Y274895D02*
X29766Y263779D01*
X40881Y252664D01*
X41337Y253258D01*
X42576Y255403D01*
X43524Y257692D01*
X44165Y260085D01*
X44488Y262541D01*
Y265018D01*
X44165Y267474D01*
X43524Y269867D01*
X42576Y272156D01*
X41337Y274301D01*
X40881Y274895D01*
D02*
G37*
G36*
X10300Y274895D02*
X9844Y274301D01*
X8605Y272156D01*
X7657Y269867D01*
X7016Y267474D01*
X6693Y265018D01*
Y262541D01*
X7016Y260085D01*
X7657Y257692D01*
X8605Y255403D01*
X9844Y253258D01*
X10300Y252664D01*
X21415Y263779D01*
X10300Y274895D01*
D02*
G37*
G36*
X153033Y255429D02*
X152282D01*
X151589Y255142D01*
X151059Y254611D01*
X150772Y253918D01*
Y253168D01*
X151059Y252475D01*
X151589Y251945D01*
X152282Y251658D01*
X153033D01*
X153726Y251945D01*
X154256Y252475D01*
X154543Y253168D01*
Y253918D01*
X154256Y254611D01*
X153726Y255142D01*
X153033Y255429D01*
D02*
G37*
G36*
X127245D02*
X126495D01*
X125802Y255142D01*
X125271Y254611D01*
X124984Y253918D01*
Y253168D01*
X125271Y252475D01*
X125802Y251945D01*
X126495Y251658D01*
X127245D01*
X127938Y251945D01*
X128469Y252475D01*
X128756Y253168D01*
Y253918D01*
X128469Y254611D01*
X127938Y255142D01*
X127245Y255429D01*
D02*
G37*
G36*
X25591Y259604D02*
X14475Y248488D01*
X15069Y248033D01*
X17214Y246794D01*
X19503Y245846D01*
X21896Y245205D01*
X24352Y244882D01*
X26829D01*
X29285Y245205D01*
X31678Y245846D01*
X33967Y246794D01*
X36112Y248033D01*
X36706Y248488D01*
X25591Y259604D01*
D02*
G37*
G36*
X662535Y270984D02*
X660300D01*
X658084Y270693D01*
X655926Y270114D01*
X653861Y269259D01*
X651926Y268142D01*
X650153Y266781D01*
X648573Y265201D01*
X647213Y263428D01*
X646095Y261493D01*
X645240Y259428D01*
X644662Y257270D01*
X644370Y255054D01*
Y252820D01*
X644662Y250604D01*
X645240Y248446D01*
X646095Y246381D01*
X647213Y244446D01*
X648573Y242673D01*
X650153Y241093D01*
X651926Y239732D01*
X653861Y238615D01*
X655926Y237760D01*
X658084Y237181D01*
X660300Y236890D01*
X662535D01*
X664750Y237181D01*
X666909Y237760D01*
X668973Y238615D01*
X670909Y239732D01*
X672682Y241093D01*
X674262Y242673D01*
X675622Y244446D01*
X676739Y246381D01*
X677595Y248446D01*
X678173Y250604D01*
X678465Y252820D01*
Y255054D01*
X678173Y257270D01*
X677595Y259428D01*
X676739Y261493D01*
X675622Y263428D01*
X674262Y265201D01*
X672682Y266781D01*
X670909Y268142D01*
X668973Y269259D01*
X666909Y270114D01*
X664750Y270693D01*
X662535Y270984D01*
D02*
G37*
G36*
X586202Y239287D02*
X585452D01*
X584759Y239000D01*
X584228Y238470D01*
X583941Y237777D01*
Y237027D01*
X584228Y236333D01*
X584759Y235803D01*
X585452Y235516D01*
X586202D01*
X586895Y235803D01*
X587426Y236333D01*
X587713Y237027D01*
Y237777D01*
X587426Y238470D01*
X586895Y239000D01*
X586202Y239287D01*
D02*
G37*
G36*
X261240Y245787D02*
X259627D01*
X258044Y245473D01*
X256554Y244855D01*
X255213Y243959D01*
X254072Y242819D01*
X253176Y241477D01*
X252559Y239987D01*
X252244Y238405D01*
Y236792D01*
X252559Y235210D01*
X253176Y233719D01*
X254072Y232378D01*
X255213Y231238D01*
X256554Y230341D01*
X258044Y229724D01*
X259627Y229410D01*
X261240D01*
X262822Y229724D01*
X264312Y230341D01*
X265653Y231238D01*
X266794Y232378D01*
X267690Y233719D01*
X268307Y235210D01*
X268622Y236792D01*
Y238405D01*
X268307Y239987D01*
X267690Y241477D01*
X266794Y242819D01*
X265653Y243959D01*
X264312Y244855D01*
X262822Y245473D01*
X261240Y245787D01*
D02*
G37*
G36*
X379134Y258612D02*
X359842D01*
X359259Y258496D01*
X358764Y258165D01*
X358433Y257670D01*
X358317Y257087D01*
Y218110D01*
X358433Y217527D01*
X358764Y217032D01*
X359259Y216701D01*
X359842Y216585D01*
X379134D01*
X379718Y216701D01*
X380212Y217032D01*
X380543Y217527D01*
X380659Y218110D01*
Y257087D01*
X380543Y257670D01*
X380212Y258165D01*
X379718Y258496D01*
X379134Y258612D01*
D02*
G37*
G36*
X206733Y219110D02*
X205865D01*
X205064Y218778D01*
X204450Y218165D01*
X204118Y217363D01*
Y216495D01*
X204450Y215694D01*
X205064Y215080D01*
X205865Y214748D01*
X206733D01*
X207535Y215080D01*
X208148Y215694D01*
X208480Y216495D01*
Y217363D01*
X208148Y218165D01*
X207535Y218778D01*
X206733Y219110D01*
D02*
G37*
G36*
X666532Y201378D02*
X664177D01*
X661851Y201010D01*
X659611Y200282D01*
X657513Y199213D01*
X657062Y198885D01*
X665354Y190593D01*
X673646Y198885D01*
X673195Y199213D01*
X671097Y200282D01*
X668858Y201010D01*
X666532Y201378D01*
D02*
G37*
G36*
X572029Y186925D02*
X571278D01*
X570585Y186638D01*
X570055Y186108D01*
X569768Y185415D01*
Y184664D01*
X570055Y183971D01*
X570585Y183441D01*
X571278Y183153D01*
X572029D01*
X572722Y183441D01*
X573252Y183971D01*
X573539Y184664D01*
Y185415D01*
X573252Y186108D01*
X572722Y186638D01*
X572029Y186925D01*
D02*
G37*
G36*
X567698D02*
X566948D01*
X566255Y186638D01*
X565724Y186108D01*
X565437Y185415D01*
Y184664D01*
X565724Y183971D01*
X566255Y183441D01*
X566948Y183153D01*
X567698D01*
X568391Y183441D01*
X568922Y183971D01*
X569209Y184664D01*
Y185415D01*
X568922Y186108D01*
X568391Y186638D01*
X567698Y186925D01*
D02*
G37*
G36*
X563367D02*
X562617D01*
X561924Y186638D01*
X561393Y186108D01*
X561106Y185415D01*
Y184664D01*
X561393Y183971D01*
X561924Y183441D01*
X562617Y183153D01*
X563367D01*
X564060Y183441D01*
X564591Y183971D01*
X564878Y184664D01*
Y185415D01*
X564591Y186108D01*
X564060Y186638D01*
X563367Y186925D01*
D02*
G37*
G36*
X366123Y182201D02*
X365373D01*
X364680Y181914D01*
X364149Y181383D01*
X363862Y180690D01*
Y179940D01*
X364149Y179247D01*
X364680Y178716D01*
X365373Y178429D01*
X366123D01*
X366816Y178716D01*
X367347Y179247D01*
X367634Y179940D01*
Y180690D01*
X367347Y181383D01*
X366816Y181914D01*
X366123Y182201D01*
D02*
G37*
G36*
X652886Y194709D02*
X652559Y194258D01*
X651490Y192160D01*
X650762Y189921D01*
X650394Y187595D01*
Y185240D01*
X650762Y182914D01*
X651490Y180674D01*
X652559Y178576D01*
X652886Y178125D01*
X661178Y186417D01*
X652886Y194709D01*
D02*
G37*
G36*
X677822Y194709D02*
X669530Y186417D01*
X677822Y178125D01*
X678150Y178576D01*
X679219Y180674D01*
X679947Y182914D01*
X680315Y185240D01*
Y187595D01*
X679947Y189921D01*
X679219Y192160D01*
X678150Y194258D01*
X677822Y194709D01*
D02*
G37*
G36*
X66517Y180232D02*
X65767D01*
X65074Y179945D01*
X64543Y179415D01*
X64256Y178722D01*
Y177971D01*
X64447Y177509D01*
X64128Y177245D01*
X64034Y177200D01*
X63367Y177476D01*
X62617D01*
X61924Y177189D01*
X61393Y176659D01*
X61106Y175966D01*
Y175215D01*
X61393Y174522D01*
X61924Y173992D01*
X62617Y173705D01*
X63367D01*
X64060Y173992D01*
X64591Y174522D01*
X64878Y175215D01*
Y175966D01*
X64687Y176427D01*
X65006Y176691D01*
X65100Y176737D01*
X65767Y176461D01*
X66517D01*
X67210Y176748D01*
X67740Y177278D01*
X68028Y177971D01*
Y178722D01*
X67740Y179415D01*
X67210Y179945D01*
X66517Y180232D01*
D02*
G37*
G36*
X366123Y176852D02*
X365373D01*
X364680Y176565D01*
X364149Y176034D01*
X363862Y175341D01*
Y174591D01*
X364149Y173898D01*
X364680Y173368D01*
X365373Y173080D01*
X366123D01*
X366816Y173368D01*
X367347Y173898D01*
X367634Y174591D01*
Y175341D01*
X367347Y176034D01*
X366816Y176565D01*
X366123Y176852D01*
D02*
G37*
G36*
X481296Y176689D02*
X480546D01*
X479852Y176402D01*
X479322Y175871D01*
X479035Y175178D01*
Y174428D01*
X479322Y173735D01*
X479852Y173204D01*
X480546Y172917D01*
X481296D01*
X481989Y173204D01*
X482519Y173735D01*
X482806Y174428D01*
Y175178D01*
X482519Y175871D01*
X481989Y176402D01*
X481296Y176689D01*
D02*
G37*
G36*
X103131Y171571D02*
X102381D01*
X101688Y171284D01*
X101157Y170753D01*
X101058Y170514D01*
X100517D01*
X100418Y170753D01*
X99887Y171284D01*
X99194Y171571D01*
X98444D01*
X97751Y171284D01*
X97220Y170753D01*
X96933Y170060D01*
Y169310D01*
X97220Y168617D01*
X97613Y168224D01*
X97701Y167913D01*
X97613Y167602D01*
X97220Y167210D01*
X96933Y166517D01*
Y165767D01*
X97220Y165074D01*
X97613Y164681D01*
X97701Y164370D01*
X97613Y164059D01*
X97220Y163667D01*
X96933Y162973D01*
Y162223D01*
X97220Y161530D01*
X97751Y161000D01*
X98444Y160713D01*
X99194D01*
X99887Y161000D01*
X100418Y161530D01*
X100517Y161770D01*
X101058D01*
X101157Y161530D01*
X101688Y161000D01*
X102381Y160713D01*
X103131D01*
X103824Y161000D01*
X104355Y161530D01*
X104642Y162223D01*
Y162973D01*
X104355Y163667D01*
X103962Y164059D01*
X103874Y164370D01*
X103962Y164681D01*
X104355Y165074D01*
X104642Y165767D01*
Y166517D01*
X104355Y167210D01*
X103962Y167602D01*
X103874Y167913D01*
X103962Y168225D01*
X104355Y168617D01*
X104642Y169310D01*
Y170060D01*
X104355Y170753D01*
X103824Y171284D01*
X103131Y171571D01*
D02*
G37*
G36*
X17409Y176575D02*
X16528D01*
X15677Y176347D01*
X14914Y175906D01*
X14291Y175283D01*
X13850Y174520D01*
X13622Y173669D01*
Y172788D01*
X13850Y171937D01*
X14291Y171174D01*
X14914Y170551D01*
X15677Y170110D01*
X16528Y169882D01*
X17409D01*
X18260Y170110D01*
X19023Y170551D01*
X19646Y171174D01*
X20087Y171937D01*
X20315Y172788D01*
Y173669D01*
X20087Y174520D01*
X19646Y175283D01*
X19023Y175906D01*
X18260Y176347D01*
X17409Y176575D01*
D02*
G37*
G36*
X501162Y171571D02*
X500412D01*
X499719Y171284D01*
X499189Y170753D01*
X498902Y170060D01*
Y169310D01*
X499189Y168617D01*
X499719Y168086D01*
X500412Y167799D01*
X501162D01*
X501856Y168086D01*
X502386Y168617D01*
X502673Y169310D01*
Y170060D01*
X502386Y170753D01*
X501856Y171284D01*
X501162Y171571D01*
D02*
G37*
G36*
X481351Y171177D02*
X480600D01*
X479907Y170890D01*
X479377Y170360D01*
X479089Y169667D01*
Y168916D01*
X479377Y168223D01*
X479907Y167693D01*
X480600Y167405D01*
X481351D01*
X482044Y167693D01*
X482574Y168223D01*
X482861Y168916D01*
Y169667D01*
X482574Y170360D01*
X482044Y170890D01*
X481351Y171177D01*
D02*
G37*
G36*
X501162Y166059D02*
X500412D01*
X499719Y165772D01*
X499189Y165242D01*
X498902Y164548D01*
Y163798D01*
X499189Y163105D01*
X499719Y162575D01*
X500412Y162287D01*
X501162D01*
X501856Y162575D01*
X502386Y163105D01*
X502673Y163798D01*
Y164548D01*
X502386Y165242D01*
X501856Y165772D01*
X501162Y166059D01*
D02*
G37*
G36*
X21267Y165961D02*
X21169D01*
Y161917D01*
X25213D01*
Y162015D01*
X24903Y163171D01*
X24305Y164207D01*
X23459Y165053D01*
X22423Y165651D01*
X21267Y165961D01*
D02*
G37*
G36*
X20169D02*
X20071D01*
X18916Y165651D01*
X17880Y165053D01*
X17034Y164207D01*
X16436Y163171D01*
X16126Y162015D01*
Y161917D01*
X20169D01*
Y165961D01*
D02*
G37*
G36*
X481503Y165665D02*
X480753D01*
X480059Y165378D01*
X479529Y164848D01*
X479242Y164155D01*
Y163404D01*
X479529Y162711D01*
X480059Y162181D01*
X480753Y161894D01*
X481503D01*
X482196Y162181D01*
X482726Y162711D01*
X483014Y163404D01*
Y164155D01*
X482726Y164848D01*
X482196Y165378D01*
X481503Y165665D01*
D02*
G37*
G36*
X190139Y160941D02*
X189389D01*
X188696Y160654D01*
X188165Y160123D01*
X187878Y159430D01*
Y158680D01*
X188165Y157987D01*
X188696Y157456D01*
X189389Y157169D01*
X190139D01*
X190832Y157456D01*
X191363Y157987D01*
X191650Y158680D01*
Y159430D01*
X191363Y160123D01*
X190832Y160654D01*
X190139Y160941D01*
D02*
G37*
G36*
X25213Y160917D02*
X21169D01*
Y156874D01*
X21267D01*
X22423Y157184D01*
X23459Y157782D01*
X24305Y158628D01*
X24903Y159664D01*
X25213Y160819D01*
Y160917D01*
D02*
G37*
G36*
X20169D02*
X16126D01*
Y160819D01*
X16436Y159664D01*
X17034Y158628D01*
X17880Y157782D01*
X18916Y157184D01*
X20071Y156874D01*
X20169D01*
Y160917D01*
D02*
G37*
G36*
X528131Y160547D02*
X527381D01*
X526688Y160260D01*
X526157Y159730D01*
X525870Y159037D01*
Y158286D01*
X526157Y157593D01*
X526688Y157063D01*
X527381Y156776D01*
X528131D01*
X528824Y157063D01*
X529355Y157593D01*
X529642Y158286D01*
Y159037D01*
X529355Y159730D01*
X528824Y160260D01*
X528131Y160547D01*
D02*
G37*
G36*
X33118Y166260D02*
X31843D01*
X30611Y165930D01*
X29507Y165292D01*
X28605Y164391D01*
X27968Y163286D01*
X27638Y162055D01*
Y160780D01*
X27968Y159548D01*
X28605Y158444D01*
X29507Y157542D01*
X30611Y156905D01*
X31843Y156575D01*
X33118D01*
X34350Y156905D01*
X35454Y157542D01*
X36355Y158444D01*
X36993Y159548D01*
X37323Y160780D01*
Y162055D01*
X36993Y163286D01*
X36355Y164391D01*
X35454Y165292D01*
X34350Y165930D01*
X33118Y166260D01*
D02*
G37*
G36*
X103131Y157004D02*
X102381D01*
X101688Y156717D01*
X101157Y156186D01*
X101058Y155947D01*
X100517D01*
X100418Y156186D01*
X99887Y156717D01*
X99194Y157004D01*
X98444D01*
X97751Y156717D01*
X97220Y156186D01*
X96933Y155493D01*
Y154743D01*
X97220Y154050D01*
X97727Y153543D01*
X97220Y153037D01*
X96933Y152344D01*
Y151593D01*
X97220Y150900D01*
X97751Y150370D01*
X98444Y150083D01*
X99194D01*
X99887Y150370D01*
X100418Y150900D01*
X100517Y151140D01*
X101058D01*
X101157Y150900D01*
X101688Y150370D01*
X102381Y150083D01*
X103131D01*
X103824Y150370D01*
X104355Y150900D01*
X104642Y151593D01*
Y152344D01*
X104355Y153037D01*
X103848Y153543D01*
X104355Y154050D01*
X104642Y154743D01*
Y155493D01*
X104355Y156186D01*
X103824Y156717D01*
X103131Y157004D01*
D02*
G37*
G36*
X318822Y156743D02*
X318071D01*
X317378Y156456D01*
X316848Y155925D01*
X316561Y155232D01*
Y155211D01*
X316099Y155020D01*
X316036Y155083D01*
X315342Y155370D01*
X314592D01*
X313899Y155083D01*
X313369Y154552D01*
X313082Y153859D01*
Y153109D01*
X313369Y152416D01*
X313899Y151885D01*
X314592Y151599D01*
X315342D01*
X316036Y151885D01*
X316566Y152416D01*
X316853Y153109D01*
Y153130D01*
X317315Y153322D01*
X317378Y153258D01*
X318071Y152971D01*
X318822D01*
X319515Y153258D01*
X320045Y153789D01*
X320332Y154482D01*
Y155232D01*
X320045Y155925D01*
X319515Y156456D01*
X318822Y156743D01*
D02*
G37*
G36*
X518289Y156413D02*
X517538D01*
X516845Y156126D01*
X516315Y155596D01*
X516028Y154903D01*
Y154152D01*
X516315Y153459D01*
X516845Y152929D01*
X517538Y152642D01*
X518289D01*
X518982Y152929D01*
X519512Y153459D01*
X519799Y154152D01*
Y154903D01*
X519512Y155596D01*
X518982Y156126D01*
X518289Y156413D01*
D02*
G37*
G36*
X297726Y155142D02*
X296976D01*
X296283Y154855D01*
X295752Y154324D01*
X295465Y153631D01*
Y152881D01*
X295752Y152188D01*
X296283Y151657D01*
X296976Y151371D01*
X297726D01*
X298419Y151657D01*
X298950Y152188D01*
X299237Y152881D01*
Y153631D01*
X298950Y154324D01*
X298419Y154855D01*
X297726Y155142D01*
D02*
G37*
G36*
X151950Y154642D02*
X151200D01*
X150507Y154355D01*
X149976Y153824D01*
X149689Y153131D01*
Y152381D01*
X149976Y151688D01*
X150507Y151157D01*
X151200Y150870D01*
X151950D01*
X152643Y151157D01*
X153173Y151688D01*
X153461Y152381D01*
Y153131D01*
X153173Y153824D01*
X152643Y154355D01*
X151950Y154642D01*
D02*
G37*
G36*
X310611Y154248D02*
X309861D01*
X309168Y153961D01*
X308637Y153430D01*
X308350Y152737D01*
Y151987D01*
X308637Y151294D01*
X309168Y150763D01*
X309861Y150476D01*
X310611D01*
X311304Y150763D01*
X311835Y151294D01*
X312122Y151987D01*
Y152737D01*
X311835Y153430D01*
X311304Y153961D01*
X310611Y154248D01*
D02*
G37*
G36*
X21267Y154150D02*
X21169D01*
Y150106D01*
X25213D01*
Y150204D01*
X24903Y151360D01*
X24305Y152396D01*
X23459Y153242D01*
X22423Y153840D01*
X21267Y154150D01*
D02*
G37*
G36*
X20169D02*
X20071D01*
X18916Y153840D01*
X17880Y153242D01*
X17034Y152396D01*
X16436Y151360D01*
X16126Y150204D01*
Y150106D01*
X20169D01*
Y154150D01*
D02*
G37*
G36*
X504706Y151492D02*
X503956D01*
X503263Y151205D01*
X502732Y150674D01*
X502445Y149981D01*
Y149231D01*
X502732Y148538D01*
X503263Y148008D01*
X503956Y147721D01*
X504706D01*
X505399Y148008D01*
X505929Y148538D01*
X506216Y149231D01*
Y149981D01*
X505929Y150674D01*
X505399Y151205D01*
X504706Y151492D01*
D02*
G37*
G36*
X212580D02*
X211830D01*
X211137Y151205D01*
X210606Y150674D01*
X210319Y149981D01*
Y149231D01*
X210606Y148538D01*
X211137Y148008D01*
X211830Y147721D01*
X212580D01*
X213273Y148008D01*
X213803Y148538D01*
X214090Y149231D01*
Y149981D01*
X213803Y150674D01*
X213273Y151205D01*
X212580Y151492D01*
D02*
G37*
G36*
X207855D02*
X207105D01*
X206412Y151205D01*
X205882Y150674D01*
X205594Y149981D01*
Y149231D01*
X205882Y148538D01*
X206412Y148008D01*
X207105Y147721D01*
X207855D01*
X208548Y148008D01*
X209079Y148538D01*
X209366Y149231D01*
Y149981D01*
X209079Y150674D01*
X208548Y151205D01*
X207855Y151492D01*
D02*
G37*
G36*
X233583Y156220D02*
X225079D01*
Y147717D01*
X233583D01*
Y156220D01*
D02*
G37*
G36*
X151950Y150311D02*
X151200D01*
X150507Y150024D01*
X149976Y149493D01*
X149689Y148800D01*
Y148050D01*
X149976Y147357D01*
X150507Y146827D01*
X151200Y146539D01*
X151950D01*
X152643Y146827D01*
X153173Y147357D01*
X153461Y148050D01*
Y148800D01*
X153173Y149493D01*
X152643Y150024D01*
X151950Y150311D01*
D02*
G37*
G36*
X518289Y149524D02*
X517538D01*
X516845Y149237D01*
X516315Y148706D01*
X516028Y148013D01*
Y147263D01*
X516315Y146570D01*
X516845Y146039D01*
X517538Y145752D01*
X518289D01*
X518982Y146039D01*
X519512Y146570D01*
X519799Y147263D01*
Y148013D01*
X519512Y148706D01*
X518982Y149237D01*
X518289Y149524D01*
D02*
G37*
G36*
X25213Y149106D02*
X21169D01*
Y145063D01*
X21267D01*
X22423Y145373D01*
X23459Y145971D01*
X24305Y146817D01*
X24903Y147853D01*
X25213Y149008D01*
Y149106D01*
D02*
G37*
G36*
X20169D02*
X16126D01*
Y149008D01*
X16436Y147853D01*
X17034Y146817D01*
X17880Y145971D01*
X18916Y145373D01*
X20071Y145063D01*
X20169D01*
Y149106D01*
D02*
G37*
G36*
X665354Y182241D02*
X657062Y173950D01*
X657513Y173622D01*
X659611Y172553D01*
X661851Y171825D01*
X663522Y171561D01*
Y171054D01*
X662284Y170858D01*
X660322Y170221D01*
X658483Y169284D01*
X656814Y168071D01*
X655354Y166612D01*
X654142Y164942D01*
X653205Y163103D01*
X652567Y161141D01*
X652244Y159103D01*
Y157039D01*
X652567Y155001D01*
X653205Y153038D01*
X654142Y151200D01*
X655354Y149530D01*
X656814Y148071D01*
X658483Y146858D01*
X660322Y145921D01*
X662284Y145283D01*
X664323Y144961D01*
X666386D01*
X668424Y145283D01*
X670387Y145921D01*
X672226Y146858D01*
X673895Y148071D01*
X675354Y149530D01*
X676567Y151200D01*
X677504Y153038D01*
X678142Y155001D01*
X678465Y157039D01*
Y159103D01*
X678142Y161141D01*
X677504Y163103D01*
X676567Y164942D01*
X675354Y166612D01*
X673895Y168071D01*
X672226Y169284D01*
X670387Y170221D01*
X668424Y170858D01*
X667187Y171054D01*
Y171561D01*
X668858Y171825D01*
X671097Y172553D01*
X673195Y173622D01*
X673646Y173950D01*
X665354Y182241D01*
D02*
G37*
G36*
X33118Y154449D02*
X31843D01*
X30611Y154119D01*
X29507Y153481D01*
X28605Y152580D01*
X27968Y151475D01*
X27638Y150244D01*
Y148969D01*
X27968Y147737D01*
X28605Y146633D01*
X29507Y145731D01*
X30611Y145094D01*
X31843Y144764D01*
X33118D01*
X34350Y145094D01*
X35454Y145731D01*
X36355Y146633D01*
X36993Y147737D01*
X37323Y148969D01*
Y150244D01*
X36993Y151475D01*
X36355Y152580D01*
X35454Y153481D01*
X34350Y154119D01*
X33118Y154449D01*
D02*
G37*
G36*
X514548Y146768D02*
X513798D01*
X513105Y146481D01*
X512574Y145950D01*
X512287Y145257D01*
Y144507D01*
X512367Y144315D01*
X511984Y143932D01*
X511792Y144012D01*
X511042D01*
X510349Y143725D01*
X509819Y143194D01*
X509531Y142501D01*
Y141751D01*
X509819Y141058D01*
X510349Y140527D01*
X511042Y140240D01*
X511792D01*
X512486Y140527D01*
X513016Y141058D01*
X513303Y141751D01*
Y142501D01*
X513224Y142693D01*
X513606Y143076D01*
X513798Y142996D01*
X514548D01*
X515241Y143283D01*
X515772Y143814D01*
X516059Y144507D01*
Y145257D01*
X515772Y145950D01*
X515241Y146481D01*
X514548Y146768D01*
D02*
G37*
G36*
X504312Y145980D02*
X503562D01*
X502869Y145693D01*
X502338Y145163D01*
X502051Y144470D01*
Y143719D01*
X502338Y143026D01*
X502869Y142496D01*
X503562Y142209D01*
X504312D01*
X505005Y142496D01*
X505536Y143026D01*
X505823Y143719D01*
Y144470D01*
X505536Y145163D01*
X505005Y145693D01*
X504312Y145980D01*
D02*
G37*
G36*
X530296Y143224D02*
X529546D01*
X528853Y142937D01*
X528323Y142407D01*
X528035Y141714D01*
Y140963D01*
X528323Y140270D01*
X528853Y139740D01*
X529546Y139453D01*
X530296D01*
X530990Y139740D01*
X531520Y140270D01*
X531807Y140963D01*
Y141714D01*
X531520Y142407D01*
X530990Y142937D01*
X530296Y143224D01*
D02*
G37*
G36*
X381871Y142437D02*
X381121D01*
X380428Y142150D01*
X379897Y141619D01*
X379610Y140926D01*
Y140176D01*
X379897Y139483D01*
X380428Y138953D01*
X381121Y138665D01*
X381871D01*
X382564Y138953D01*
X383095Y139483D01*
X383382Y140176D01*
Y140926D01*
X383095Y141619D01*
X382564Y142150D01*
X381871Y142437D01*
D02*
G37*
G36*
X229890Y146221D02*
X228771D01*
X227690Y145931D01*
X226720Y145371D01*
X225928Y144579D01*
X225368Y143610D01*
X225079Y142528D01*
Y141409D01*
X225368Y140327D01*
X225928Y139358D01*
X226720Y138566D01*
X227690Y138006D01*
X228771Y137717D01*
X229890D01*
X230972Y138006D01*
X231942Y138566D01*
X232733Y139358D01*
X233293Y140327D01*
X233583Y141409D01*
Y142528D01*
X233293Y143610D01*
X232733Y144579D01*
X231942Y145371D01*
X230972Y145931D01*
X229890Y146221D01*
D02*
G37*
G36*
X350769Y140469D02*
X350019D01*
X349325Y140181D01*
X348795Y139651D01*
X348508Y138958D01*
Y138208D01*
X348795Y137514D01*
X349325Y136984D01*
X350019Y136697D01*
X350769D01*
X351462Y136984D01*
X351992Y137514D01*
X352279Y138208D01*
Y138958D01*
X351992Y139651D01*
X351462Y140181D01*
X350769Y140469D01*
D02*
G37*
G36*
X542698Y138500D02*
X541948D01*
X541255Y138213D01*
X540724Y137682D01*
X540437Y136989D01*
Y136239D01*
X540724Y135546D01*
X541255Y135015D01*
X541948Y134728D01*
X542698D01*
X543391Y135015D01*
X543922Y135546D01*
X544209Y136239D01*
Y136989D01*
X543922Y137682D01*
X543391Y138213D01*
X542698Y138500D01*
D02*
G37*
G36*
X17409Y141142D02*
X16528D01*
X15677Y140914D01*
X14914Y140473D01*
X14291Y139850D01*
X13850Y139087D01*
X13622Y138236D01*
Y137355D01*
X13850Y136504D01*
X14291Y135740D01*
X14914Y135117D01*
X15677Y134677D01*
X16528Y134449D01*
X17409D01*
X18260Y134677D01*
X19023Y135117D01*
X19646Y135740D01*
X20087Y136504D01*
X20315Y137355D01*
Y138236D01*
X20087Y139087D01*
X19646Y139850D01*
X19023Y140473D01*
X18260Y140914D01*
X17409Y141142D01*
D02*
G37*
G36*
X321241Y138894D02*
X320491D01*
X319798Y138607D01*
X319267Y138076D01*
X318980Y137383D01*
Y136633D01*
X319267Y135940D01*
X319577Y135630D01*
X319267Y135320D01*
X318980Y134627D01*
Y133877D01*
X319267Y133184D01*
X319798Y132653D01*
X320491Y132366D01*
X321241D01*
X321934Y132653D01*
X322465Y133184D01*
X322752Y133877D01*
Y134627D01*
X322465Y135320D01*
X322155Y135630D01*
X322465Y135940D01*
X322752Y136633D01*
Y137383D01*
X322465Y138076D01*
X321934Y138607D01*
X321241Y138894D01*
D02*
G37*
G36*
X92501Y136138D02*
X91751D01*
X91058Y135851D01*
X90527Y135320D01*
X90240Y134627D01*
Y133877D01*
X90527Y133184D01*
X91058Y132653D01*
X91297Y132554D01*
Y132013D01*
X91058Y131914D01*
X90527Y131383D01*
X90240Y130690D01*
Y129940D01*
X90527Y129247D01*
X91058Y128716D01*
X91751Y128429D01*
X92501D01*
X93194Y128716D01*
X93725Y129247D01*
X94012Y129940D01*
Y130690D01*
X93725Y131383D01*
X93194Y131914D01*
X92955Y132013D01*
Y132554D01*
X93194Y132653D01*
X93725Y133184D01*
X94012Y133877D01*
Y134627D01*
X93725Y135320D01*
X93194Y135851D01*
X92501Y136138D01*
D02*
G37*
G36*
X284686Y130921D02*
X283818D01*
X283016Y130589D01*
X282403Y129976D01*
X282071Y129174D01*
Y128306D01*
X282403Y127505D01*
X283016Y126891D01*
X283818Y126559D01*
X284686D01*
X285488Y126891D01*
X286101Y127505D01*
X286433Y128306D01*
Y129174D01*
X286101Y129976D01*
X285488Y130589D01*
X284686Y130921D01*
D02*
G37*
G36*
X562580Y129839D02*
X561830D01*
X561136Y129551D01*
X560606Y129021D01*
X560319Y128328D01*
Y127578D01*
X560606Y126884D01*
X561136Y126354D01*
X561830Y126067D01*
X562580D01*
X563273Y126354D01*
X563803Y126884D01*
X564090Y127578D01*
Y128328D01*
X563803Y129021D01*
X563273Y129551D01*
X562580Y129839D01*
D02*
G37*
G36*
X533052Y128657D02*
X532302D01*
X531609Y128370D01*
X531078Y127840D01*
X530791Y127147D01*
Y126397D01*
X531078Y125703D01*
X531609Y125173D01*
X532302Y124886D01*
X533052D01*
X533745Y125173D01*
X534276Y125703D01*
X534563Y126397D01*
Y127147D01*
X534276Y127840D01*
X533745Y128370D01*
X533052Y128657D01*
D02*
G37*
G36*
X326024Y128165D02*
X325157D01*
X324355Y127833D01*
X323742Y127220D01*
X323410Y126418D01*
Y125550D01*
X323742Y124749D01*
X324355Y124135D01*
X325157Y123803D01*
X326024D01*
X326826Y124135D01*
X327440Y124749D01*
X327772Y125550D01*
Y126418D01*
X327440Y127220D01*
X326826Y127833D01*
X326024Y128165D01*
D02*
G37*
G36*
X527147Y127476D02*
X526397D01*
X525703Y127189D01*
X525173Y126659D01*
X524886Y125966D01*
Y125215D01*
X525173Y124522D01*
X525703Y123992D01*
X526397Y123705D01*
X527147D01*
X527840Y123992D01*
X528370Y124522D01*
X528657Y125215D01*
Y125966D01*
X528370Y126659D01*
X527840Y127189D01*
X527147Y127476D01*
D02*
G37*
G36*
X521241Y131020D02*
X520491D01*
X519798Y130733D01*
X519267Y130202D01*
X518980Y129509D01*
Y128759D01*
X519267Y128066D01*
X519798Y127535D01*
X520491Y127248D01*
X520724D01*
X520931Y126748D01*
X520842Y126659D01*
X520555Y125966D01*
Y125215D01*
X520842Y124522D01*
X521373Y123992D01*
X522066Y123705D01*
X522816D01*
X523509Y123992D01*
X524040Y124522D01*
X524327Y125215D01*
Y125966D01*
X524040Y126659D01*
X523509Y127189D01*
X522816Y127476D01*
X522583D01*
X522376Y127976D01*
X522465Y128066D01*
X522752Y128759D01*
Y129509D01*
X522465Y130202D01*
X521934Y130733D01*
X521241Y131020D01*
D02*
G37*
G36*
X38257Y127142D02*
X38236D01*
Y123689D01*
X41689D01*
Y123709D01*
X41420Y124715D01*
X40899Y125616D01*
X40163Y126352D01*
X39262Y126872D01*
X38257Y127142D01*
D02*
G37*
G36*
X37236D02*
X37216D01*
X36211Y126872D01*
X35309Y126352D01*
X34573Y125616D01*
X34053Y124715D01*
X33783Y123709D01*
Y123689D01*
X37236D01*
Y127142D01*
D02*
G37*
G36*
X512580Y131020D02*
X511830D01*
X511136Y130733D01*
X510606Y130202D01*
X510319Y129509D01*
Y128759D01*
X510606Y128066D01*
X511136Y127535D01*
X511188Y127514D01*
Y127014D01*
X511136Y126992D01*
X510606Y126462D01*
X510319Y125769D01*
Y125019D01*
X510606Y124326D01*
X511136Y123795D01*
X511830Y123508D01*
X512580D01*
X513273Y123795D01*
X513803Y124326D01*
X514090Y125019D01*
Y125769D01*
X513803Y126462D01*
X513273Y126992D01*
X513221Y127014D01*
Y127514D01*
X513273Y127535D01*
X513803Y128066D01*
X514090Y128759D01*
Y129509D01*
X513803Y130202D01*
X513273Y130733D01*
X512580Y131020D01*
D02*
G37*
G36*
X498800Y127083D02*
X498050D01*
X497357Y126796D01*
X496827Y126265D01*
X496539Y125572D01*
Y124822D01*
X496827Y124129D01*
X497357Y123598D01*
X498050Y123311D01*
X498800D01*
X499493Y123598D01*
X500024Y124129D01*
X500311Y124822D01*
Y125572D01*
X500024Y126265D01*
X499493Y126796D01*
X498800Y127083D01*
D02*
G37*
G36*
X384430Y126886D02*
X383680D01*
X382987Y126599D01*
X382456Y126068D01*
X382169Y125375D01*
Y124625D01*
X382456Y123932D01*
X382987Y123401D01*
X383680Y123114D01*
X384430D01*
X385123Y123401D01*
X385654Y123932D01*
X385941Y124625D01*
Y125375D01*
X385654Y126068D01*
X385123Y126599D01*
X384430Y126886D01*
D02*
G37*
G36*
X290926Y124327D02*
X290176D01*
X289483Y124040D01*
X288952Y123509D01*
X288665Y122816D01*
Y122066D01*
X288952Y121373D01*
X289483Y120842D01*
X290176Y120555D01*
X290926D01*
X291619Y120842D01*
X292150Y121373D01*
X292437Y122066D01*
Y122816D01*
X292150Y123509D01*
X291619Y124040D01*
X290926Y124327D01*
D02*
G37*
G36*
X87580Y123933D02*
X86830D01*
X86137Y123646D01*
X85606Y123116D01*
X85319Y122422D01*
Y121672D01*
X85606Y120979D01*
X86137Y120449D01*
X86830Y120161D01*
X87580D01*
X88273Y120449D01*
X88803Y120979D01*
X89091Y121672D01*
Y122422D01*
X88803Y123116D01*
X88273Y123646D01*
X87580Y123933D01*
D02*
G37*
G36*
X276615Y124425D02*
X275747D01*
X274946Y124093D01*
X274332Y123480D01*
X274000Y122678D01*
Y121810D01*
X274332Y121009D01*
X274946Y120395D01*
X275747Y120063D01*
X276615D01*
X277417Y120395D01*
X278030Y121009D01*
X278362Y121810D01*
Y122678D01*
X278030Y123480D01*
X277417Y124093D01*
X276615Y124425D01*
D02*
G37*
G36*
X315717Y123819D02*
X314967D01*
X314274Y123532D01*
X313743Y123001D01*
X313456Y122308D01*
Y121558D01*
X313743Y120865D01*
X314274Y120334D01*
X314967Y120047D01*
X315717D01*
X316410Y120334D01*
X316941Y120865D01*
X317228Y121558D01*
Y122308D01*
X316941Y123001D01*
X316410Y123532D01*
X315717Y123819D01*
D02*
G37*
G36*
X306281Y123176D02*
X305530D01*
X304837Y122889D01*
X304307Y122359D01*
X304020Y121666D01*
Y120915D01*
X304307Y120222D01*
X304837Y119692D01*
X305530Y119405D01*
X306281D01*
X306974Y119692D01*
X307504Y120222D01*
X307791Y120915D01*
Y121666D01*
X307504Y122359D01*
X306974Y122889D01*
X306281Y123176D01*
D02*
G37*
G36*
X41689Y122689D02*
X38236D01*
Y119236D01*
X38257D01*
X39262Y119506D01*
X40163Y120026D01*
X40899Y120762D01*
X41420Y121663D01*
X41689Y122669D01*
Y122689D01*
D02*
G37*
G36*
X37236D02*
X33783D01*
Y122669D01*
X34053Y121663D01*
X34573Y120762D01*
X35309Y120026D01*
X36211Y119506D01*
X37216Y119236D01*
X37236D01*
Y122689D01*
D02*
G37*
G36*
X657097Y130118D02*
X655895D01*
X654716Y129884D01*
X653606Y129424D01*
X652606Y128756D01*
X651756Y127906D01*
X651088Y126906D01*
X650628Y125796D01*
X650394Y124617D01*
Y123415D01*
X650628Y122236D01*
X651088Y121125D01*
X651756Y120126D01*
X652606Y119276D01*
X653606Y118608D01*
X654716Y118148D01*
X655895Y117913D01*
X657097D01*
X658276Y118148D01*
X659387Y118608D01*
X660386Y119276D01*
X661236Y120126D01*
X661904Y121125D01*
X662364Y122236D01*
X662598Y123415D01*
Y124617D01*
X662364Y125796D01*
X661904Y126906D01*
X661236Y127906D01*
X660386Y128756D01*
X659387Y129424D01*
X658276Y129884D01*
X657097Y130118D01*
D02*
G37*
G36*
X384430Y120980D02*
X383680D01*
X382987Y120693D01*
X382456Y120163D01*
X382169Y119470D01*
Y118719D01*
X382456Y118026D01*
X382987Y117496D01*
X383680Y117209D01*
X384430D01*
X385123Y117496D01*
X385654Y118026D01*
X385941Y118719D01*
Y119470D01*
X385654Y120163D01*
X385123Y120693D01*
X384430Y120980D01*
D02*
G37*
G36*
X333111Y121079D02*
X332243D01*
X331442Y120747D01*
X330828Y120133D01*
X330496Y119332D01*
Y118464D01*
X330828Y117662D01*
X331442Y117049D01*
X332243Y116717D01*
X333111D01*
X333913Y117049D01*
X334526Y117662D01*
X334858Y118464D01*
Y119332D01*
X334526Y120133D01*
X333913Y120747D01*
X333111Y121079D01*
D02*
G37*
G36*
X543289Y120390D02*
X542538D01*
X541845Y120103D01*
X541315Y119572D01*
X541028Y118879D01*
Y118129D01*
X541315Y117436D01*
X541845Y116905D01*
X542538Y116618D01*
X543289D01*
X543982Y116905D01*
X544512Y117436D01*
X544799Y118129D01*
Y118879D01*
X544512Y119572D01*
X543982Y120103D01*
X543289Y120390D01*
D02*
G37*
G36*
X312383Y119012D02*
X311633D01*
X310940Y118725D01*
X310409Y118194D01*
X310122Y117501D01*
Y116751D01*
X310409Y116058D01*
X310940Y115527D01*
X311633Y115240D01*
X312383D01*
X313076Y115527D01*
X313607Y116058D01*
X313894Y116751D01*
Y117501D01*
X313607Y118194D01*
X313076Y118725D01*
X312383Y119012D01*
D02*
G37*
G36*
X276556Y117831D02*
X275806D01*
X275113Y117544D01*
X274582Y117013D01*
X274295Y116320D01*
Y115570D01*
X274582Y114877D01*
X275113Y114346D01*
X275806Y114059D01*
X276556D01*
X277249Y114346D01*
X277780Y114877D01*
X278067Y115570D01*
Y116320D01*
X277780Y117013D01*
X277249Y117544D01*
X276556Y117831D01*
D02*
G37*
G36*
X291320Y116453D02*
X290570D01*
X289877Y116166D01*
X289346Y115635D01*
X289059Y114942D01*
Y114192D01*
X289346Y113499D01*
X289877Y112968D01*
X290570Y112681D01*
X291320D01*
X292013Y112968D01*
X292544Y113499D01*
X292831Y114192D01*
Y114942D01*
X292544Y115635D01*
X292013Y116166D01*
X291320Y116453D01*
D02*
G37*
G36*
X543289Y116059D02*
X542538D01*
X541845Y115772D01*
X541315Y115242D01*
X541028Y114548D01*
Y113798D01*
X541315Y113105D01*
X541845Y112575D01*
X542538Y112287D01*
X543289D01*
X543982Y112575D01*
X544512Y113105D01*
X544799Y113798D01*
Y114548D01*
X544512Y115242D01*
X543982Y115772D01*
X543289Y116059D01*
D02*
G37*
G36*
X228722Y115272D02*
X227971D01*
X227278Y114985D01*
X226748Y114454D01*
X226461Y113761D01*
Y113011D01*
X226748Y112318D01*
X227278Y111787D01*
X227971Y111500D01*
X228722D01*
X229415Y111787D01*
X229945Y112318D01*
X230232Y113011D01*
Y113761D01*
X229945Y114454D01*
X229415Y114985D01*
X228722Y115272D01*
D02*
G37*
G36*
X562580Y114878D02*
X561830D01*
X561136Y114591D01*
X560606Y114060D01*
X560319Y113367D01*
Y112617D01*
X560606Y111924D01*
X561136Y111393D01*
X561830Y111106D01*
X562580D01*
X563273Y111393D01*
X563803Y111924D01*
X564090Y112617D01*
Y113367D01*
X563803Y114060D01*
X563273Y114591D01*
X562580Y114878D01*
D02*
G37*
G36*
X498013Y114484D02*
X497263D01*
X496570Y114197D01*
X496039Y113667D01*
X495752Y112973D01*
Y112223D01*
X496039Y111530D01*
X496570Y111000D01*
X497263Y110713D01*
X498013D01*
X498706Y111000D01*
X499236Y111530D01*
X499524Y112223D01*
Y112973D01*
X499236Y113667D01*
X498706Y114197D01*
X498013Y114484D01*
D02*
G37*
G36*
X577540Y121571D02*
X576790D01*
X576097Y121284D01*
X575567Y120753D01*
X575280Y120060D01*
Y119310D01*
X575567Y118617D01*
X576097Y118086D01*
X576337Y117987D01*
Y117446D01*
X576097Y117347D01*
X575567Y116816D01*
X575280Y116123D01*
Y115373D01*
X575567Y114680D01*
X576097Y114149D01*
X576337Y114050D01*
Y113509D01*
X576097Y113410D01*
X575567Y112879D01*
X575280Y112186D01*
Y111436D01*
X575567Y110743D01*
X576097Y110212D01*
X576790Y109925D01*
X577540D01*
X578234Y110212D01*
X578764Y110743D01*
X579051Y111436D01*
Y112186D01*
X578764Y112879D01*
X578234Y113410D01*
X577994Y113509D01*
Y114050D01*
X578234Y114149D01*
X578764Y114680D01*
X579051Y115373D01*
Y116123D01*
X578764Y116816D01*
X578234Y117347D01*
X577994Y117446D01*
Y117987D01*
X578234Y118086D01*
X578764Y118617D01*
X579051Y119310D01*
Y120060D01*
X578764Y120753D01*
X578234Y121284D01*
X577540Y121571D01*
D02*
G37*
G36*
X485021Y113681D02*
X484271D01*
X483577Y113394D01*
X483047Y112864D01*
X482760Y112170D01*
Y111420D01*
X483047Y110727D01*
X483577Y110197D01*
X484271Y109909D01*
X485021D01*
X485714Y110197D01*
X486244Y110727D01*
X486531Y111420D01*
Y112170D01*
X486244Y112864D01*
X485714Y113394D01*
X485021Y113681D01*
D02*
G37*
G36*
X41988Y117441D02*
X33484D01*
Y108937D01*
X41988D01*
Y117441D01*
D02*
G37*
G36*
X276556Y112319D02*
X275806D01*
X275113Y112032D01*
X274582Y111501D01*
X274295Y110808D01*
Y110058D01*
X274582Y109365D01*
X275113Y108834D01*
X275806Y108547D01*
X276556D01*
X277249Y108834D01*
X277780Y109365D01*
X278067Y110058D01*
Y110808D01*
X277780Y111501D01*
X277249Y112032D01*
X276556Y112319D01*
D02*
G37*
G36*
X87383Y112122D02*
X86633D01*
X85940Y111835D01*
X85409Y111304D01*
X85122Y110611D01*
Y109861D01*
X85409Y109168D01*
X85940Y108637D01*
X86633Y108350D01*
X87383D01*
X88076Y108637D01*
X88607Y109168D01*
X88894Y109861D01*
Y110611D01*
X88607Y111304D01*
X88076Y111835D01*
X87383Y112122D01*
D02*
G37*
G36*
X543289Y111728D02*
X542538D01*
X541845Y111441D01*
X541315Y110911D01*
X541028Y110218D01*
Y109467D01*
X541315Y108774D01*
X541845Y108244D01*
X542538Y107957D01*
X543289D01*
X543982Y108244D01*
X544512Y108774D01*
X544799Y109467D01*
Y110218D01*
X544512Y110911D01*
X543982Y111441D01*
X543289Y111728D01*
D02*
G37*
G36*
X526359Y111335D02*
X525609D01*
X524916Y111047D01*
X524385Y110517D01*
X524098Y109824D01*
Y109074D01*
X524385Y108381D01*
X524916Y107850D01*
X525609Y107563D01*
X526359D01*
X527052Y107850D01*
X527583Y108381D01*
X527870Y109074D01*
Y109824D01*
X527583Y110517D01*
X527052Y111047D01*
X526359Y111335D01*
D02*
G37*
G36*
X668945Y117047D02*
X667670D01*
X666438Y116717D01*
X665334Y116080D01*
X664432Y115178D01*
X663795Y114074D01*
X663465Y112842D01*
Y111567D01*
X663795Y110336D01*
X664432Y109231D01*
X665334Y108330D01*
X666438Y107692D01*
X667670Y107362D01*
X668945D01*
X670176Y107692D01*
X671280Y108330D01*
X672182Y109231D01*
X672820Y110336D01*
X673150Y111567D01*
Y112842D01*
X672820Y114074D01*
X672182Y115178D01*
X671280Y116080D01*
X670176Y116717D01*
X668945Y117047D01*
D02*
G37*
G36*
X657134D02*
X655859D01*
X654627Y116717D01*
X653523Y116080D01*
X652621Y115178D01*
X651984Y114074D01*
X651654Y112842D01*
Y111567D01*
X651984Y110336D01*
X652621Y109231D01*
X653523Y108330D01*
X654627Y107692D01*
X655859Y107362D01*
X657134D01*
X658365Y107692D01*
X659469Y108330D01*
X660371Y109231D01*
X661009Y110336D01*
X661339Y111567D01*
Y112842D01*
X661009Y114074D01*
X660371Y115178D01*
X659469Y116080D01*
X658365Y116717D01*
X657134Y117047D01*
D02*
G37*
G36*
X415336Y110547D02*
X414585D01*
X413892Y110260D01*
X413362Y109730D01*
X413075Y109037D01*
Y108286D01*
X413362Y107593D01*
X413892Y107063D01*
X414585Y106776D01*
X415336D01*
X416029Y107063D01*
X416559Y107593D01*
X416847Y108286D01*
Y109037D01*
X416559Y109730D01*
X416029Y110260D01*
X415336Y110547D01*
D02*
G37*
G36*
X498013Y110153D02*
X497263D01*
X496570Y109866D01*
X496039Y109336D01*
X495752Y108643D01*
Y107893D01*
X496039Y107200D01*
X496570Y106669D01*
X497263Y106382D01*
X498013D01*
X498706Y106669D01*
X499236Y107200D01*
X499524Y107893D01*
Y108643D01*
X499236Y109336D01*
X498706Y109866D01*
X498013Y110153D01*
D02*
G37*
G36*
X334036Y109957D02*
X333286D01*
X332593Y109670D01*
X332063Y109139D01*
X331776Y108446D01*
Y107696D01*
X332063Y107003D01*
X332593Y106472D01*
X333286Y106185D01*
X334036D01*
X334730Y106472D01*
X335260Y107003D01*
X335547Y107696D01*
Y108446D01*
X335260Y109139D01*
X334730Y109670D01*
X334036Y109957D01*
D02*
G37*
G36*
X107462Y108972D02*
X106711D01*
X106018Y108685D01*
X105488Y108155D01*
X105201Y107462D01*
Y106711D01*
X105488Y106018D01*
X106018Y105488D01*
X106711Y105201D01*
X107462D01*
X108155Y105488D01*
X108685Y106018D01*
X108972Y106711D01*
Y107462D01*
X108685Y108155D01*
X108155Y108685D01*
X107462Y108972D01*
D02*
G37*
G36*
X562777Y106610D02*
X562027D01*
X561333Y106323D01*
X560803Y105793D01*
X560516Y105099D01*
Y104349D01*
X560803Y103656D01*
X561333Y103126D01*
X562027Y102839D01*
X562777D01*
X563470Y103126D01*
X564000Y103656D01*
X564287Y104349D01*
Y105099D01*
X564000Y105793D01*
X563470Y106323D01*
X562777Y106610D01*
D02*
G37*
G36*
X498013Y105823D02*
X497263D01*
X496570Y105536D01*
X496039Y105005D01*
X495752Y104312D01*
Y103562D01*
X496039Y102869D01*
X496570Y102338D01*
X497263Y102051D01*
X498013D01*
X498706Y102338D01*
X499236Y102869D01*
X499524Y103562D01*
Y104312D01*
X499236Y105005D01*
X498706Y105536D01*
X498013Y105823D01*
D02*
G37*
G36*
X276615Y106315D02*
X275747D01*
X274946Y105983D01*
X274332Y105369D01*
X274000Y104568D01*
Y103700D01*
X274332Y102898D01*
X274946Y102285D01*
X275747Y101953D01*
X276615D01*
X277417Y102285D01*
X278030Y102898D01*
X278362Y103700D01*
Y104568D01*
X278030Y105369D01*
X277417Y105983D01*
X276615Y106315D01*
D02*
G37*
G36*
X668905Y104937D02*
X668807D01*
Y100894D01*
X672850D01*
Y100992D01*
X672541Y102147D01*
X671943Y103183D01*
X671097Y104029D01*
X670061Y104627D01*
X668905Y104937D01*
D02*
G37*
G36*
X667807D02*
X667709D01*
X666553Y104627D01*
X665517Y104029D01*
X664672Y103183D01*
X664073Y102147D01*
X663764Y100992D01*
Y100894D01*
X667807D01*
Y104937D01*
D02*
G37*
G36*
X657094D02*
X656996D01*
Y100894D01*
X661039D01*
Y100992D01*
X660730Y102147D01*
X660132Y103183D01*
X659286Y104029D01*
X658250Y104627D01*
X657094Y104937D01*
D02*
G37*
G36*
X655996D02*
X655898D01*
X654742Y104627D01*
X653706Y104029D01*
X652860Y103183D01*
X652262Y102147D01*
X651953Y100992D01*
Y100894D01*
X655996D01*
Y104937D01*
D02*
G37*
G36*
X189351Y104642D02*
X188601D01*
X187908Y104355D01*
X187378Y103824D01*
X187091Y103131D01*
Y102381D01*
X187378Y101688D01*
X187908Y101157D01*
X188601Y100870D01*
X189351D01*
X190045Y101157D01*
X190575Y101688D01*
X190862Y102381D01*
Y103131D01*
X190575Y103824D01*
X190045Y104355D01*
X189351Y104642D01*
D02*
G37*
G36*
X334036Y104445D02*
X333286D01*
X332593Y104158D01*
X332063Y103627D01*
X331776Y102934D01*
Y102184D01*
X332063Y101491D01*
X332593Y100960D01*
X333286Y100673D01*
X334036D01*
X334730Y100960D01*
X335260Y101491D01*
X335547Y102184D01*
Y102934D01*
X335260Y103627D01*
X334730Y104158D01*
X334036Y104445D01*
D02*
G37*
G36*
X370236Y103637D02*
X369486D01*
X368793Y103350D01*
X368262Y102819D01*
X367975Y102126D01*
Y101376D01*
X368262Y100683D01*
X368793Y100152D01*
X369486Y99865D01*
X370236D01*
X370929Y100152D01*
X371460Y100683D01*
X371747Y101376D01*
Y102126D01*
X371460Y102819D01*
X370929Y103350D01*
X370236Y103637D01*
D02*
G37*
G36*
X208544Y101197D02*
X207794D01*
X207101Y100910D01*
X206571Y100379D01*
X206283Y99686D01*
Y98936D01*
X206571Y98243D01*
X207101Y97712D01*
X207794Y97425D01*
X208544D01*
X209238Y97712D01*
X209768Y98243D01*
X210055Y98936D01*
Y99686D01*
X209768Y100379D01*
X209238Y100910D01*
X208544Y101197D01*
D02*
G37*
G36*
X374150Y100858D02*
X373400D01*
X372707Y100571D01*
X372177Y100040D01*
X371889Y99347D01*
Y98597D01*
X372177Y97904D01*
X372707Y97373D01*
X373400Y97086D01*
X374150D01*
X374844Y97373D01*
X375374Y97904D01*
X375661Y98597D01*
Y99347D01*
X375374Y100040D01*
X374844Y100571D01*
X374150Y100858D01*
D02*
G37*
G36*
X17383Y103839D02*
X16476D01*
X15599Y103604D01*
X14814Y103150D01*
X14173Y102509D01*
X13719Y101723D01*
X13484Y100847D01*
Y99940D01*
X13719Y99064D01*
X14173Y98278D01*
X14814Y97637D01*
X15599Y97184D01*
X16476Y96949D01*
X17383D01*
X18259Y97184D01*
X19044Y97637D01*
X19686Y98278D01*
X20139Y99064D01*
X20374Y99940D01*
Y100847D01*
X20139Y101723D01*
X19686Y102509D01*
X19044Y103150D01*
X18259Y103604D01*
X17383Y103839D01*
D02*
G37*
G36*
X497517Y100376D02*
X496767D01*
X496073Y100089D01*
X495543Y99558D01*
X495256Y98865D01*
Y98115D01*
X495543Y97422D01*
X496073Y96891D01*
X496767Y96604D01*
X497517D01*
X498210Y96891D01*
X498740Y97422D01*
X499027Y98115D01*
Y98865D01*
X498740Y99558D01*
X498210Y100089D01*
X497517Y100376D01*
D02*
G37*
G36*
X672850Y99894D02*
X668807D01*
Y95850D01*
X668905D01*
X670061Y96160D01*
X671097Y96758D01*
X671943Y97604D01*
X672541Y98640D01*
X672850Y99796D01*
Y99894D01*
D02*
G37*
G36*
X667807D02*
X663764D01*
Y99796D01*
X664073Y98640D01*
X664672Y97604D01*
X665517Y96758D01*
X666553Y96160D01*
X667709Y95850D01*
X667807D01*
Y99894D01*
D02*
G37*
G36*
X661039Y99894D02*
X656996D01*
Y95850D01*
X657094D01*
X658250Y96160D01*
X659286Y96758D01*
X660132Y97604D01*
X660730Y98640D01*
X661039Y99796D01*
Y99894D01*
D02*
G37*
G36*
X655996D02*
X651953D01*
Y99796D01*
X652262Y98640D01*
X652860Y97604D01*
X653706Y96758D01*
X654742Y96160D01*
X655898Y95850D01*
X655996D01*
Y99894D01*
D02*
G37*
G36*
X378065Y98079D02*
X377314D01*
X376621Y97792D01*
X376091Y97262D01*
X375804Y96569D01*
Y95818D01*
X376091Y95125D01*
X376621Y94595D01*
X377314Y94308D01*
X378065D01*
X378758Y94595D01*
X379288Y95125D01*
X379575Y95818D01*
Y96569D01*
X379288Y97262D01*
X378758Y97792D01*
X378065Y98079D01*
D02*
G37*
G36*
X334489Y98441D02*
X333621D01*
X332820Y98109D01*
X332206Y97495D01*
X331874Y96694D01*
Y95826D01*
X332206Y95024D01*
X332820Y94411D01*
X333621Y94079D01*
X334489D01*
X335291Y94411D01*
X335904Y95024D01*
X336236Y95826D01*
Y96694D01*
X335904Y97495D01*
X335291Y98109D01*
X334489Y98441D01*
D02*
G37*
G36*
X501248Y97838D02*
X500498D01*
X499805Y97550D01*
X499274Y97020D01*
X498987Y96327D01*
Y95577D01*
X499274Y94884D01*
X499805Y94353D01*
X500498Y94066D01*
X501248D01*
X501941Y94353D01*
X502472Y94884D01*
X502759Y95577D01*
Y96327D01*
X502472Y97020D01*
X501941Y97550D01*
X501248Y97838D01*
D02*
G37*
G36*
X521259Y105035D02*
X520509D01*
X519816Y104748D01*
X519285Y104218D01*
X518998Y103525D01*
Y102774D01*
X519285Y102081D01*
X519816Y101551D01*
X519859Y101533D01*
Y101033D01*
X519799Y101008D01*
X519268Y100478D01*
X518981Y99784D01*
Y99034D01*
X519268Y98341D01*
X519799Y97811D01*
X519842Y97793D01*
Y97293D01*
X519782Y97268D01*
X519251Y96737D01*
X518964Y96044D01*
Y95294D01*
X519251Y94601D01*
X519782Y94071D01*
X520475Y93783D01*
X521225D01*
X521918Y94071D01*
X522449Y94601D01*
X522503Y94731D01*
X523044D01*
X523098Y94601D01*
X523628Y94071D01*
X524322Y93783D01*
X525072D01*
X525765Y94071D01*
X526295Y94601D01*
X526349Y94731D01*
X526891D01*
X526945Y94601D01*
X527475Y94071D01*
X528168Y93783D01*
X528918D01*
X529611Y94071D01*
X530142Y94601D01*
X530163Y94653D01*
X530663D01*
X530685Y94601D01*
X531215Y94071D01*
X531908Y93783D01*
X532659D01*
X533352Y94071D01*
X533882Y94601D01*
X534169Y95294D01*
Y96044D01*
X533882Y96737D01*
X533352Y97268D01*
X532659Y97555D01*
X531908D01*
X531215Y97268D01*
X530685Y96737D01*
X530663Y96686D01*
X530163D01*
X530142Y96737D01*
X529611Y97268D01*
X528918Y97555D01*
X528168D01*
X527475Y97268D01*
X526945Y96737D01*
X526891Y96607D01*
X526349D01*
X526295Y96737D01*
X525765Y97268D01*
X525072Y97555D01*
X524322D01*
X523628Y97268D01*
X523098Y96737D01*
X523044Y96607D01*
X522503D01*
X522449Y96737D01*
X521918Y97268D01*
X521875Y97286D01*
Y97786D01*
X521935Y97811D01*
X522466Y98341D01*
X522753Y99034D01*
Y99784D01*
X522466Y100478D01*
X521935Y101008D01*
X521892Y101026D01*
Y101526D01*
X521952Y101551D01*
X522483Y102081D01*
X522770Y102774D01*
Y103525D01*
X522483Y104218D01*
X521952Y104748D01*
X521259Y105035D01*
D02*
G37*
G36*
X482659Y96768D02*
X481908D01*
X481215Y96481D01*
X480685Y95950D01*
X480398Y95257D01*
Y94507D01*
X480685Y93814D01*
X481215Y93283D01*
X481908Y92996D01*
X482659D01*
X483352Y93283D01*
X483882Y93814D01*
X484169Y94507D01*
Y95257D01*
X483882Y95950D01*
X483352Y96481D01*
X482659Y96768D01*
D02*
G37*
G36*
X476753D02*
X476003D01*
X475310Y96481D01*
X474779Y95950D01*
X474492Y95257D01*
Y94507D01*
X474779Y93814D01*
X475310Y93283D01*
X476003Y92996D01*
X476753D01*
X477446Y93283D01*
X477977Y93814D01*
X478264Y94507D01*
Y95257D01*
X477977Y95950D01*
X477446Y96481D01*
X476753Y96768D01*
D02*
G37*
G36*
X470848D02*
X470097D01*
X469404Y96481D01*
X468874Y95950D01*
X468587Y95257D01*
Y94507D01*
X468874Y93814D01*
X469404Y93283D01*
X470097Y92996D01*
X470848D01*
X471541Y93283D01*
X472071Y93814D01*
X472358Y94507D01*
Y95257D01*
X472071Y95950D01*
X471541Y96481D01*
X470848Y96768D01*
D02*
G37*
G36*
X299391Y96177D02*
X298641D01*
X297948Y95890D01*
X297417Y95360D01*
X297130Y94666D01*
Y93916D01*
X297417Y93223D01*
X297948Y92693D01*
X298641Y92405D01*
X299391D01*
X300084Y92693D01*
X300615Y93223D01*
X300902Y93916D01*
Y94666D01*
X300615Y95360D01*
X300084Y95890D01*
X299391Y96177D01*
D02*
G37*
G36*
X497619Y95193D02*
X496869D01*
X496176Y94906D01*
X495645Y94375D01*
X495358Y93682D01*
Y92932D01*
X495645Y92239D01*
X496176Y91708D01*
X496869Y91421D01*
X497619D01*
X498312Y91708D01*
X498843Y92239D01*
X499130Y92932D01*
Y93682D01*
X498843Y94375D01*
X498312Y94906D01*
X497619Y95193D01*
D02*
G37*
G36*
X488170Y92831D02*
X487420D01*
X486727Y92544D01*
X486197Y92013D01*
X485910Y91320D01*
Y90724D01*
X485587Y90432D01*
X485450Y90373D01*
X485297Y90436D01*
X484547D01*
X483854Y90149D01*
X483323Y89619D01*
X483036Y88926D01*
Y88175D01*
X483323Y87482D01*
X483854Y86952D01*
X484547Y86665D01*
X485297D01*
X485990Y86952D01*
X486521Y87482D01*
X486808Y88175D01*
Y88771D01*
X487130Y89064D01*
X487268Y89122D01*
X487420Y89059D01*
X488170D01*
X488864Y89346D01*
X489394Y89877D01*
X489681Y90570D01*
Y91320D01*
X489394Y92013D01*
X488864Y92544D01*
X488170Y92831D01*
D02*
G37*
G36*
X33078Y93126D02*
X32980D01*
Y89083D01*
X37024D01*
Y89181D01*
X36714Y90336D01*
X36116Y91372D01*
X35270Y92218D01*
X34234Y92816D01*
X33078Y93126D01*
D02*
G37*
G36*
X31980D02*
X31882D01*
X30727Y92816D01*
X29691Y92218D01*
X28845Y91372D01*
X28247Y90336D01*
X27937Y89181D01*
Y89083D01*
X31980D01*
Y93126D01*
D02*
G37*
G36*
X203131Y88500D02*
X202381D01*
X201688Y88213D01*
X201157Y87682D01*
X201058Y87443D01*
X200517D01*
X200418Y87682D01*
X199887Y88213D01*
X199194Y88500D01*
X198444D01*
X197751Y88213D01*
X197220Y87682D01*
X197121Y87443D01*
X196580D01*
X196481Y87682D01*
X195950Y88213D01*
X195257Y88500D01*
X194507D01*
X193814Y88213D01*
X193283Y87682D01*
X193184Y87443D01*
X192643D01*
X192544Y87682D01*
X192013Y88213D01*
X191320Y88500D01*
X190570D01*
X189877Y88213D01*
X189346Y87682D01*
X189247Y87443D01*
X188706D01*
X188607Y87682D01*
X188076Y88213D01*
X187383Y88500D01*
X186633D01*
X185940Y88213D01*
X185409Y87682D01*
X185122Y86989D01*
Y86239D01*
X185409Y85546D01*
X185940Y85015D01*
X186633Y84728D01*
X187383D01*
X188076Y85015D01*
X188607Y85546D01*
X188706Y85785D01*
X189247D01*
X189346Y85546D01*
X189877Y85015D01*
X190570Y84728D01*
X191320D01*
X192013Y85015D01*
X192544Y85546D01*
X192643Y85785D01*
X193184D01*
X193283Y85546D01*
X193814Y85015D01*
X194507Y84728D01*
X195257D01*
X195950Y85015D01*
X196481Y85546D01*
X196580Y85785D01*
X197121D01*
X197220Y85546D01*
X197751Y85015D01*
X198444Y84728D01*
X199194D01*
X199887Y85015D01*
X200418Y85546D01*
X200517Y85785D01*
X201058D01*
X201157Y85546D01*
X201688Y85015D01*
X202381Y84728D01*
X203131D01*
X203824Y85015D01*
X204355Y85546D01*
X204642Y86239D01*
Y86989D01*
X204355Y87682D01*
X203824Y88213D01*
X203131Y88500D01*
D02*
G37*
G36*
X311399Y90075D02*
X310648D01*
X309955Y89788D01*
X309425Y89257D01*
X309138Y88564D01*
Y87814D01*
X309425Y87121D01*
X309955Y86590D01*
X310648Y86303D01*
X311399D01*
X312092Y86590D01*
X312622Y87121D01*
X312909Y87814D01*
Y88564D01*
X312622Y89257D01*
X312092Y89788D01*
X311399Y90075D01*
D02*
G37*
G36*
X288958D02*
X288208D01*
X287514Y89788D01*
X286984Y89257D01*
X286697Y88564D01*
Y87814D01*
X286984Y87121D01*
X287514Y86590D01*
X288208Y86303D01*
X288958D01*
X289651Y86590D01*
X290181Y87121D01*
X290469Y87814D01*
Y88564D01*
X290181Y89257D01*
X289651Y89788D01*
X288958Y90075D01*
D02*
G37*
G36*
X427147Y88970D02*
X426397D01*
X425703Y88683D01*
X425173Y88152D01*
X424886Y87459D01*
Y86709D01*
X425173Y86016D01*
X425703Y85486D01*
X426397Y85198D01*
X427147D01*
X427840Y85486D01*
X428370Y86016D01*
X428657Y86709D01*
Y87459D01*
X428370Y88152D01*
X427840Y88683D01*
X427147Y88970D01*
D02*
G37*
G36*
X37024Y88083D02*
X32980D01*
Y84039D01*
X33078D01*
X34234Y84349D01*
X35270Y84947D01*
X36116Y85793D01*
X36714Y86829D01*
X37024Y87985D01*
Y88083D01*
D02*
G37*
G36*
X31980D02*
X27937D01*
Y87985D01*
X28247Y86829D01*
X28845Y85793D01*
X29691Y84947D01*
X30727Y84349D01*
X31882Y84039D01*
X31980D01*
Y88083D01*
D02*
G37*
G36*
X21307Y93425D02*
X20032D01*
X18800Y93095D01*
X17696Y92458D01*
X16794Y91556D01*
X16157Y90452D01*
X15827Y89220D01*
Y87945D01*
X16157Y86713D01*
X16794Y85609D01*
X17696Y84708D01*
X18800Y84070D01*
X20032Y83740D01*
X21307D01*
X22538Y84070D01*
X23643Y84708D01*
X24544Y85609D01*
X25182Y86713D01*
X25512Y87945D01*
Y89220D01*
X25182Y90452D01*
X24544Y91556D01*
X23643Y92458D01*
X22538Y93095D01*
X21307Y93425D01*
D02*
G37*
G36*
X668945Y93425D02*
X667670D01*
X666438Y93095D01*
X665334Y92458D01*
X664432Y91556D01*
X663795Y90452D01*
X663465Y89220D01*
Y87945D01*
X663795Y86713D01*
X664432Y85609D01*
X665334Y84708D01*
X666438Y84070D01*
X667670Y83740D01*
X668945D01*
X670176Y84070D01*
X671280Y84708D01*
X672182Y85609D01*
X672820Y86713D01*
X673150Y87945D01*
Y89220D01*
X672820Y90452D01*
X672182Y91556D01*
X671280Y92458D01*
X670176Y93095D01*
X668945Y93425D01*
D02*
G37*
G36*
X657134D02*
X655859D01*
X654627Y93095D01*
X653523Y92458D01*
X652621Y91556D01*
X651984Y90452D01*
X651654Y89220D01*
Y87945D01*
X651984Y86713D01*
X652621Y85609D01*
X653523Y84708D01*
X654627Y84070D01*
X655859Y83740D01*
X657134D01*
X658365Y84070D01*
X659469Y84708D01*
X660371Y85609D01*
X661009Y86713D01*
X661339Y87945D01*
Y89220D01*
X661009Y90452D01*
X660371Y91556D01*
X659469Y92458D01*
X658365Y93095D01*
X657134Y93425D01*
D02*
G37*
G36*
X244470Y84563D02*
X243719D01*
X243026Y84276D01*
X242496Y83745D01*
X242397Y83506D01*
X241855D01*
X241756Y83745D01*
X241226Y84276D01*
X240533Y84563D01*
X239782D01*
X239089Y84276D01*
X238559Y83745D01*
X238460Y83506D01*
X237918D01*
X237819Y83745D01*
X237289Y84276D01*
X236596Y84563D01*
X235845D01*
X235152Y84276D01*
X234622Y83745D01*
X234335Y83052D01*
Y82302D01*
X234622Y81609D01*
X235152Y81078D01*
X235392Y80979D01*
Y80438D01*
X235152Y80339D01*
X234622Y79808D01*
X234335Y79115D01*
Y78365D01*
X234622Y77672D01*
X235152Y77141D01*
X235392Y77042D01*
Y76501D01*
X235152Y76402D01*
X234622Y75871D01*
X234335Y75178D01*
Y74428D01*
X234622Y73735D01*
X235152Y73204D01*
X235845Y72917D01*
X236596D01*
X237289Y73204D01*
X237819Y73735D01*
X237918Y73974D01*
X238460D01*
X238559Y73735D01*
X239089Y73204D01*
X239782Y72917D01*
X240533D01*
X241226Y73204D01*
X241756Y73735D01*
X241855Y73974D01*
X242397D01*
X242496Y73735D01*
X243026Y73204D01*
X243719Y72917D01*
X244470D01*
X245163Y73204D01*
X245693Y73735D01*
X245980Y74428D01*
Y75178D01*
X245693Y75871D01*
X245163Y76402D01*
X244923Y76501D01*
Y77042D01*
X245163Y77141D01*
X245693Y77672D01*
X245980Y78365D01*
Y79115D01*
X245693Y79808D01*
X245163Y80339D01*
X244923Y80438D01*
Y80979D01*
X245163Y81078D01*
X245693Y81609D01*
X245980Y82302D01*
Y83052D01*
X245693Y83745D01*
X245163Y84276D01*
X244470Y84563D01*
D02*
G37*
G36*
X389745Y86532D02*
X388995D01*
X388302Y86244D01*
X387771Y85714D01*
X387484Y85021D01*
Y84271D01*
X387771Y83577D01*
X388302Y83047D01*
X388995Y82760D01*
X389745D01*
X390438Y83047D01*
X390969Y83577D01*
X391256Y84271D01*
Y85021D01*
X390969Y85714D01*
X390438Y86244D01*
X389745Y86532D01*
D02*
G37*
G36*
X521635Y85350D02*
X520885D01*
X520192Y85063D01*
X519661Y84533D01*
X519374Y83840D01*
Y83090D01*
X519661Y82396D01*
X520192Y81866D01*
X520885Y81579D01*
X521635D01*
X522328Y81866D01*
X522859Y82396D01*
X523146Y83090D01*
Y83840D01*
X522859Y84533D01*
X522328Y85063D01*
X521635Y85350D01*
D02*
G37*
G36*
X516911D02*
X516160D01*
X515467Y85063D01*
X514937Y84533D01*
X514650Y83840D01*
Y83090D01*
X514937Y82396D01*
X515467Y81866D01*
X516160Y81579D01*
X516911D01*
X517604Y81866D01*
X518134Y82396D01*
X518421Y83090D01*
Y83840D01*
X518134Y84533D01*
X517604Y85063D01*
X516911Y85350D01*
D02*
G37*
G36*
X512186D02*
X511436D01*
X510743Y85063D01*
X510212Y84533D01*
X509925Y83840D01*
Y83090D01*
X510212Y82396D01*
X510743Y81866D01*
X511436Y81579D01*
X512186D01*
X512879Y81866D01*
X513410Y82396D01*
X513697Y83090D01*
Y83840D01*
X513410Y84533D01*
X512879Y85063D01*
X512186Y85350D01*
D02*
G37*
G36*
X63367Y83776D02*
X62617D01*
X61924Y83489D01*
X61393Y82958D01*
X61106Y82265D01*
Y81515D01*
X61393Y80822D01*
X61924Y80291D01*
X62617Y80004D01*
X63367D01*
X64060Y80291D01*
X64591Y80822D01*
X64878Y81515D01*
Y82265D01*
X64591Y82958D01*
X64060Y83489D01*
X63367Y83776D01*
D02*
G37*
G36*
X21267Y81315D02*
X21169D01*
Y77272D01*
X25213D01*
Y77370D01*
X24903Y78525D01*
X24305Y79561D01*
X23459Y80407D01*
X22423Y81005D01*
X21267Y81315D01*
D02*
G37*
G36*
X20169D02*
X20071D01*
X18916Y81005D01*
X17880Y80407D01*
X17034Y79561D01*
X16436Y78525D01*
X16126Y77370D01*
Y77272D01*
X20169D01*
Y81315D01*
D02*
G37*
G36*
X668905Y81315D02*
X668807D01*
Y77272D01*
X672850D01*
Y77370D01*
X672541Y78525D01*
X671943Y79561D01*
X671097Y80407D01*
X670061Y81005D01*
X668905Y81315D01*
D02*
G37*
G36*
X667807D02*
X667709D01*
X666553Y81005D01*
X665517Y80407D01*
X664672Y79561D01*
X664073Y78525D01*
X663764Y77370D01*
Y77272D01*
X667807D01*
Y81315D01*
D02*
G37*
G36*
X657094D02*
X656996D01*
Y77272D01*
X661039D01*
Y77370D01*
X660730Y78525D01*
X660132Y79561D01*
X659286Y80407D01*
X658250Y81005D01*
X657094Y81315D01*
D02*
G37*
G36*
X655996D02*
X655898D01*
X654742Y81005D01*
X653706Y80407D01*
X652860Y79561D01*
X652262Y78525D01*
X651953Y77370D01*
Y77272D01*
X655996D01*
Y81315D01*
D02*
G37*
G36*
X547619Y79839D02*
X546869D01*
X546176Y79552D01*
X545645Y79021D01*
X545358Y78328D01*
Y77578D01*
X545645Y76885D01*
X546176Y76354D01*
X546869Y76067D01*
X547619D01*
X548312Y76354D01*
X548843Y76885D01*
X549130Y77578D01*
Y78328D01*
X548843Y79021D01*
X548312Y79552D01*
X547619Y79839D01*
D02*
G37*
G36*
X543289D02*
X542538D01*
X541845Y79552D01*
X541315Y79021D01*
X541028Y78328D01*
Y77578D01*
X541315Y76885D01*
X541845Y76354D01*
X542538Y76067D01*
X543289D01*
X543982Y76354D01*
X544512Y76885D01*
X544799Y77578D01*
Y78328D01*
X544512Y79021D01*
X543982Y79552D01*
X543289Y79839D01*
D02*
G37*
G36*
X264788Y78264D02*
X264038D01*
X263345Y77977D01*
X262814Y77446D01*
X262527Y76753D01*
Y76003D01*
X262814Y75310D01*
X263345Y74779D01*
X264038Y74492D01*
X264788D01*
X265481Y74779D01*
X266012Y75310D01*
X266299Y76003D01*
Y76753D01*
X266012Y77446D01*
X265481Y77977D01*
X264788Y78264D01*
D02*
G37*
G36*
X96438Y77870D02*
X95688D01*
X94995Y77583D01*
X94464Y77052D01*
X94177Y76359D01*
Y75609D01*
X94464Y74916D01*
X94995Y74385D01*
X95688Y74098D01*
X96438D01*
X97131Y74385D01*
X97662Y74916D01*
X97949Y75609D01*
Y76359D01*
X97662Y77052D01*
X97131Y77583D01*
X96438Y77870D01*
D02*
G37*
G36*
X25213Y76272D02*
X21169D01*
Y72228D01*
X21267D01*
X22423Y72538D01*
X23459Y73136D01*
X24305Y73982D01*
X24903Y75018D01*
X25213Y76174D01*
Y76272D01*
D02*
G37*
G36*
X20169D02*
X16126D01*
Y76174D01*
X16436Y75018D01*
X17034Y73982D01*
X17880Y73136D01*
X18916Y72538D01*
X20071Y72228D01*
X20169D01*
Y76272D01*
D02*
G37*
G36*
X672850Y76272D02*
X668807D01*
Y72228D01*
X668905D01*
X670061Y72538D01*
X671097Y73136D01*
X671943Y73982D01*
X672541Y75018D01*
X672850Y76174D01*
Y76272D01*
D02*
G37*
G36*
X667807D02*
X663764D01*
Y76174D01*
X664073Y75018D01*
X664672Y73982D01*
X665517Y73136D01*
X666553Y72538D01*
X667709Y72228D01*
X667807D01*
Y76272D01*
D02*
G37*
G36*
X661039Y76272D02*
X656996D01*
Y72228D01*
X657094D01*
X658250Y72538D01*
X659286Y73136D01*
X660132Y73982D01*
X660730Y75018D01*
X661039Y76174D01*
Y76272D01*
D02*
G37*
G36*
X655996D02*
X651953D01*
Y76174D01*
X652262Y75018D01*
X652860Y73982D01*
X653706Y73136D01*
X654742Y72538D01*
X655898Y72228D01*
X655996D01*
Y76272D01*
D02*
G37*
G36*
X536989Y75902D02*
X536239D01*
X535546Y75615D01*
X535015Y75084D01*
X534728Y74391D01*
Y73641D01*
X535015Y72948D01*
X535546Y72417D01*
X536239Y72130D01*
X536989D01*
X537682Y72417D01*
X538213Y72948D01*
X538500Y73641D01*
Y74391D01*
X538213Y75084D01*
X537682Y75615D01*
X536989Y75902D01*
D02*
G37*
G36*
X504509D02*
X503759D01*
X503066Y75615D01*
X502535Y75084D01*
X502248Y74391D01*
Y73641D01*
X502535Y72948D01*
X503066Y72417D01*
X503759Y72130D01*
X504509D01*
X505202Y72417D01*
X505733Y72948D01*
X506020Y73641D01*
Y74391D01*
X505733Y75084D01*
X505202Y75615D01*
X504509Y75902D01*
D02*
G37*
G36*
X33118Y81614D02*
X31843D01*
X30611Y81284D01*
X29507Y80647D01*
X28605Y79745D01*
X27968Y78641D01*
X27638Y77409D01*
Y76134D01*
X27968Y74902D01*
X28605Y73798D01*
X29507Y72897D01*
X30611Y72259D01*
X31843Y71929D01*
X33118D01*
X34350Y72259D01*
X35454Y72897D01*
X36355Y73798D01*
X36993Y74902D01*
X37323Y76134D01*
Y77409D01*
X36993Y78641D01*
X36355Y79745D01*
X35454Y80647D01*
X34350Y81284D01*
X33118Y81614D01*
D02*
G37*
G36*
X264788Y73539D02*
X264038D01*
X263345Y73252D01*
X262814Y72722D01*
X262527Y72029D01*
Y71278D01*
X262814Y70585D01*
X263345Y70055D01*
X264038Y69768D01*
X264788D01*
X265481Y70055D01*
X266012Y70585D01*
X266299Y71278D01*
Y72029D01*
X266012Y72722D01*
X265481Y73252D01*
X264788Y73539D01*
D02*
G37*
G36*
X63367Y71965D02*
X62617D01*
X61924Y71678D01*
X61393Y71147D01*
X61106Y70454D01*
Y69704D01*
X61393Y69011D01*
X61924Y68480D01*
X62617Y68193D01*
X63367D01*
X64060Y68480D01*
X64591Y69011D01*
X64878Y69704D01*
Y70454D01*
X64591Y71147D01*
X64060Y71678D01*
X63367Y71965D01*
D02*
G37*
G36*
X438564Y66059D02*
X437814D01*
X437121Y65772D01*
X436590Y65241D01*
X436303Y64548D01*
Y63798D01*
X436590Y63105D01*
X437121Y62574D01*
X437814Y62287D01*
X438564D01*
X439257Y62574D01*
X439788Y63105D01*
X440075Y63798D01*
Y64548D01*
X439788Y65241D01*
X439257Y65772D01*
X438564Y66059D01*
D02*
G37*
G36*
X33118Y69803D02*
X31843D01*
X30611Y69473D01*
X29507Y68836D01*
X28605Y67934D01*
X27968Y66830D01*
X27638Y65598D01*
Y64323D01*
X27968Y63091D01*
X28605Y61987D01*
X29507Y61086D01*
X30611Y60448D01*
X31843Y60118D01*
X33118D01*
X34350Y60448D01*
X35454Y61086D01*
X36355Y61987D01*
X36993Y63091D01*
X37323Y64323D01*
Y65598D01*
X36993Y66830D01*
X36355Y67934D01*
X35454Y68836D01*
X34350Y69473D01*
X33118Y69803D01*
D02*
G37*
G36*
X21307D02*
X20032D01*
X18800Y69473D01*
X17696Y68836D01*
X16794Y67934D01*
X16157Y66830D01*
X15827Y65598D01*
Y64323D01*
X16157Y63091D01*
X16794Y61987D01*
X17696Y61086D01*
X18800Y60448D01*
X20032Y60118D01*
X21307D01*
X22538Y60448D01*
X23643Y61086D01*
X24544Y61987D01*
X25182Y63091D01*
X25512Y64323D01*
Y65598D01*
X25182Y66830D01*
X24544Y67934D01*
X23643Y68836D01*
X22538Y69473D01*
X21307Y69803D01*
D02*
G37*
G36*
X668945Y69803D02*
X667670D01*
X666438Y69473D01*
X665334Y68836D01*
X664432Y67934D01*
X663795Y66830D01*
X663465Y65598D01*
Y64323D01*
X663795Y63091D01*
X664432Y61987D01*
X665334Y61086D01*
X666438Y60448D01*
X667670Y60118D01*
X668945D01*
X670176Y60448D01*
X671280Y61086D01*
X672182Y61987D01*
X672820Y63091D01*
X673150Y64323D01*
Y65598D01*
X672820Y66830D01*
X672182Y67934D01*
X671280Y68836D01*
X670176Y69473D01*
X668945Y69803D01*
D02*
G37*
G36*
X657134D02*
X655859D01*
X654627Y69473D01*
X653523Y68836D01*
X652621Y67934D01*
X651984Y66830D01*
X651654Y65598D01*
Y64323D01*
X651984Y63091D01*
X652621Y61987D01*
X653523Y61086D01*
X654627Y60448D01*
X655859Y60118D01*
X657134D01*
X658365Y60448D01*
X659469Y61086D01*
X660371Y61987D01*
X661009Y63091D01*
X661339Y64323D01*
Y65598D01*
X661009Y66830D01*
X660371Y67934D01*
X659469Y68836D01*
X658365Y69473D01*
X657134Y69803D01*
D02*
G37*
G36*
X557698Y62516D02*
X556948D01*
X556255Y62229D01*
X555724Y61698D01*
X555437Y61005D01*
Y60255D01*
X555724Y59562D01*
X556255Y59031D01*
X556948Y58744D01*
X557698D01*
X558391Y59031D01*
X558922Y59562D01*
X559209Y60255D01*
Y61005D01*
X558922Y61698D01*
X558391Y62229D01*
X557698Y62516D01*
D02*
G37*
G36*
X33078Y57693D02*
X32980D01*
Y53650D01*
X37024D01*
Y53748D01*
X36714Y54903D01*
X36116Y55939D01*
X35270Y56785D01*
X34234Y57383D01*
X33078Y57693D01*
D02*
G37*
G36*
X31980D02*
X31882D01*
X30727Y57383D01*
X29691Y56785D01*
X28845Y55939D01*
X28247Y54903D01*
X27937Y53748D01*
Y53650D01*
X31980D01*
Y57693D01*
D02*
G37*
G36*
X258249Y55823D02*
X257499D01*
X256806Y55536D01*
X256275Y55005D01*
X255988Y54312D01*
Y53562D01*
X256275Y52869D01*
X256806Y52338D01*
X257499Y52051D01*
X258249D01*
X258942Y52338D01*
X259473Y52869D01*
X259760Y53562D01*
Y54312D01*
X259473Y55005D01*
X258942Y55536D01*
X258249Y55823D01*
D02*
G37*
G36*
X592501Y55035D02*
X591751D01*
X591058Y54748D01*
X590527Y54218D01*
X590240Y53525D01*
Y52775D01*
X590527Y52081D01*
X591058Y51551D01*
X591751Y51264D01*
X592501D01*
X593194Y51551D01*
X593725Y52081D01*
X594012Y52775D01*
Y53525D01*
X593725Y54218D01*
X593194Y54748D01*
X592501Y55035D01*
D02*
G37*
G36*
X587777D02*
X587027D01*
X586333Y54748D01*
X585803Y54218D01*
X585516Y53525D01*
Y52775D01*
X585803Y52081D01*
X586333Y51551D01*
X587027Y51264D01*
X587777D01*
X588470Y51551D01*
X589000Y52081D01*
X589287Y52775D01*
Y53525D01*
X589000Y54218D01*
X588470Y54748D01*
X587777Y55035D01*
D02*
G37*
G36*
X583052D02*
X582302D01*
X581609Y54748D01*
X581078Y54218D01*
X580791Y53525D01*
Y52775D01*
X581078Y52081D01*
X581609Y51551D01*
X582302Y51264D01*
X583052D01*
X583745Y51551D01*
X584276Y52081D01*
X584563Y52775D01*
Y53525D01*
X584276Y54218D01*
X583745Y54748D01*
X583052Y55035D01*
D02*
G37*
G36*
X37024Y52650D02*
X32980D01*
Y48606D01*
X33078D01*
X34234Y48916D01*
X35270Y49514D01*
X36116Y50360D01*
X36714Y51396D01*
X37024Y52552D01*
Y52650D01*
D02*
G37*
G36*
X31980D02*
X27937D01*
Y52552D01*
X28247Y51396D01*
X28845Y50360D01*
X29691Y49514D01*
X30727Y48916D01*
X31882Y48606D01*
X31980D01*
Y52650D01*
D02*
G37*
G36*
X21307Y57992D02*
X20032D01*
X18800Y57662D01*
X17696Y57025D01*
X16794Y56123D01*
X16157Y55019D01*
X15827Y53787D01*
Y52512D01*
X16157Y51280D01*
X16794Y50176D01*
X17696Y49275D01*
X18800Y48637D01*
X20032Y48307D01*
X21307D01*
X22538Y48637D01*
X23643Y49275D01*
X24544Y50176D01*
X25182Y51280D01*
X25512Y52512D01*
Y53787D01*
X25182Y55019D01*
X24544Y56123D01*
X23643Y57025D01*
X22538Y57662D01*
X21307Y57992D01*
D02*
G37*
G36*
X258249Y51098D02*
X257499D01*
X256806Y50811D01*
X256275Y50281D01*
X255988Y49588D01*
Y48838D01*
X256275Y48144D01*
X256806Y47614D01*
X257499Y47327D01*
X258249D01*
X258942Y47614D01*
X259473Y48144D01*
X259760Y48838D01*
Y49588D01*
X259473Y50281D01*
X258942Y50811D01*
X258249Y51098D01*
D02*
G37*
G36*
X124391D02*
X123641D01*
X122948Y50811D01*
X122417Y50281D01*
X122130Y49588D01*
Y48838D01*
X122417Y48144D01*
X122948Y47614D01*
X123641Y47327D01*
X124391D01*
X125084Y47614D01*
X125615Y48144D01*
X125902Y48838D01*
Y49588D01*
X125615Y50281D01*
X125084Y50811D01*
X124391Y51098D01*
D02*
G37*
G36*
X118485D02*
X117735D01*
X117042Y50811D01*
X116511Y50281D01*
X116224Y49588D01*
Y48838D01*
X116511Y48144D01*
X117042Y47614D01*
X117735Y47327D01*
X118485D01*
X119178Y47614D01*
X119709Y48144D01*
X119996Y48838D01*
Y49588D01*
X119709Y50281D01*
X119178Y50811D01*
X118485Y51098D01*
D02*
G37*
G36*
X112580D02*
X111830D01*
X111136Y50811D01*
X110606Y50281D01*
X110319Y49588D01*
Y48838D01*
X110606Y48144D01*
X111136Y47614D01*
X111830Y47327D01*
X112580D01*
X113273Y47614D01*
X113803Y48144D01*
X114091Y48838D01*
Y49588D01*
X113803Y50281D01*
X113273Y50811D01*
X112580Y51098D01*
D02*
G37*
G36*
X106674D02*
X105924D01*
X105231Y50811D01*
X104701Y50281D01*
X104413Y49588D01*
Y48838D01*
X104701Y48144D01*
X105231Y47614D01*
X105924Y47327D01*
X106674D01*
X107368Y47614D01*
X107898Y48144D01*
X108185Y48838D01*
Y49588D01*
X107898Y50281D01*
X107368Y50811D01*
X106674Y51098D01*
D02*
G37*
G36*
X100769D02*
X100019D01*
X99326Y50811D01*
X98795Y50281D01*
X98508Y49588D01*
Y48838D01*
X98795Y48144D01*
X99326Y47614D01*
X100019Y47327D01*
X100769D01*
X101462Y47614D01*
X101992Y48144D01*
X102279Y48838D01*
Y49588D01*
X101992Y50281D01*
X101462Y50811D01*
X100769Y51098D01*
D02*
G37*
G36*
X657097Y59252D02*
X655895D01*
X654716Y59017D01*
X653606Y58557D01*
X652606Y57890D01*
X651756Y57040D01*
X651088Y56040D01*
X650628Y54930D01*
X650394Y53751D01*
Y52549D01*
X650628Y51370D01*
X651088Y50259D01*
X651756Y49260D01*
X652606Y48410D01*
X653606Y47742D01*
X654716Y47282D01*
X655895Y47047D01*
X657097D01*
X658276Y47282D01*
X659387Y47742D01*
X660386Y48410D01*
X661236Y49260D01*
X661904Y50259D01*
X662364Y51370D01*
X662598Y52549D01*
Y53751D01*
X662364Y54930D01*
X661904Y56040D01*
X661236Y57040D01*
X660386Y57890D01*
X659387Y58557D01*
X658276Y59017D01*
X657097Y59252D01*
D02*
G37*
G36*
X291714Y47949D02*
X290964D01*
X290270Y47662D01*
X289740Y47131D01*
X289453Y46438D01*
Y45688D01*
X289599Y45336D01*
X289207Y44976D01*
X288682Y45193D01*
X287932D01*
X287239Y44906D01*
X286708Y44375D01*
X286421Y43682D01*
Y42932D01*
X286708Y42239D01*
X287239Y41708D01*
X287932Y41421D01*
X288682D01*
X289375Y41708D01*
X289906Y42239D01*
X290193Y42932D01*
Y43682D01*
X290047Y44034D01*
X290439Y44394D01*
X290964Y44177D01*
X291714D01*
X292407Y44464D01*
X292937Y44995D01*
X293224Y45688D01*
Y46438D01*
X292937Y47131D01*
X292407Y47662D01*
X291714Y47949D01*
D02*
G37*
G36*
X92895Y46177D02*
X92145D01*
X91452Y45890D01*
X90921Y45360D01*
X90634Y44666D01*
Y43916D01*
X90921Y43223D01*
X91452Y42693D01*
X92145Y42406D01*
X92895D01*
X93588Y42693D01*
X94118Y43223D01*
X94406Y43916D01*
Y44666D01*
X94118Y45360D01*
X93588Y45890D01*
X92895Y46177D01*
D02*
G37*
G36*
X124391Y45193D02*
X123641D01*
X122948Y44906D01*
X122417Y44375D01*
X122130Y43682D01*
Y42932D01*
X122417Y42239D01*
X122948Y41708D01*
X123641Y41421D01*
X124391D01*
X125084Y41708D01*
X125615Y42239D01*
X125902Y42932D01*
Y43682D01*
X125615Y44375D01*
X125084Y44906D01*
X124391Y45193D01*
D02*
G37*
G36*
X118485D02*
X117735D01*
X117042Y44906D01*
X116511Y44375D01*
X116224Y43682D01*
Y42932D01*
X116511Y42239D01*
X117042Y41708D01*
X117735Y41421D01*
X118485D01*
X119178Y41708D01*
X119709Y42239D01*
X119996Y42932D01*
Y43682D01*
X119709Y44375D01*
X119178Y44906D01*
X118485Y45193D01*
D02*
G37*
G36*
X112580D02*
X111830D01*
X111136Y44906D01*
X110606Y44375D01*
X110319Y43682D01*
Y42932D01*
X110606Y42239D01*
X111136Y41708D01*
X111830Y41421D01*
X112580D01*
X113273Y41708D01*
X113803Y42239D01*
X114091Y42932D01*
Y43682D01*
X113803Y44375D01*
X113273Y44906D01*
X112580Y45193D01*
D02*
G37*
G36*
X106674D02*
X105924D01*
X105231Y44906D01*
X104701Y44375D01*
X104413Y43682D01*
Y42932D01*
X104701Y42239D01*
X105231Y41708D01*
X105924Y41421D01*
X106674D01*
X107367Y41708D01*
X107898Y42239D01*
X108185Y42932D01*
Y43682D01*
X107898Y44375D01*
X107367Y44906D01*
X106674Y45193D01*
D02*
G37*
G36*
X100769D02*
X100019D01*
X99326Y44906D01*
X98795Y44375D01*
X98508Y43682D01*
Y42932D01*
X98795Y42239D01*
X99326Y41708D01*
X100019Y41421D01*
X100769D01*
X101462Y41708D01*
X101992Y42239D01*
X102279Y42932D01*
Y43682D01*
X101992Y44375D01*
X101462Y44906D01*
X100769Y45193D01*
D02*
G37*
G36*
X17383Y44783D02*
X16476D01*
X15599Y44549D01*
X14814Y44095D01*
X14173Y43454D01*
X13719Y42668D01*
X13484Y41792D01*
Y40885D01*
X13719Y40009D01*
X14173Y39223D01*
X14814Y38582D01*
X15599Y38129D01*
X16476Y37894D01*
X17383D01*
X18259Y38129D01*
X19044Y38582D01*
X19686Y39223D01*
X20139Y40009D01*
X20374Y40885D01*
Y41792D01*
X20139Y42668D01*
X19686Y43454D01*
X19044Y44095D01*
X18259Y44549D01*
X17383Y44783D01*
D02*
G37*
G36*
X620677Y38008D02*
X620579D01*
Y33965D01*
X624622D01*
Y34063D01*
X624312Y35218D01*
X623714Y36254D01*
X622868Y37100D01*
X621832Y37698D01*
X620677Y38008D01*
D02*
G37*
G36*
X619579D02*
X619481D01*
X618325Y37698D01*
X617289Y37100D01*
X616443Y36254D01*
X615845Y35218D01*
X615535Y34063D01*
Y33965D01*
X619579D01*
Y38008D01*
D02*
G37*
G36*
X482913Y33465D02*
X473228D01*
Y30016D01*
X472728Y29950D01*
X472583Y30491D01*
X471946Y31595D01*
X471044Y32497D01*
X469940Y33135D01*
X468708Y33465D01*
X467433D01*
X466202Y33135D01*
X465098Y32497D01*
X464196Y31595D01*
X463558Y30491D01*
X463330Y29638D01*
X462812D01*
X462583Y30491D01*
X461946Y31595D01*
X461044Y32497D01*
X459940Y33135D01*
X458708Y33465D01*
X457433D01*
X456202Y33135D01*
X455097Y32497D01*
X454196Y31595D01*
X453558Y30491D01*
X453330Y29638D01*
X452812D01*
X452583Y30491D01*
X451946Y31595D01*
X451044Y32497D01*
X449940Y33135D01*
X448708Y33465D01*
X447433D01*
X446202Y33135D01*
X445097Y32497D01*
X444196Y31595D01*
X443558Y30491D01*
X443330Y29638D01*
X442812D01*
X442583Y30491D01*
X441946Y31595D01*
X441044Y32497D01*
X439940Y33135D01*
X438708Y33465D01*
X437433D01*
X436202Y33135D01*
X435098Y32497D01*
X434196Y31595D01*
X433558Y30491D01*
X433330Y29638D01*
X432812D01*
X432583Y30491D01*
X431946Y31595D01*
X431044Y32497D01*
X429940Y33135D01*
X428708Y33465D01*
X427433D01*
X426202Y33135D01*
X425098Y32497D01*
X424196Y31595D01*
X423558Y30491D01*
X423330Y29638D01*
X422812D01*
X422583Y30491D01*
X421946Y31595D01*
X421044Y32497D01*
X419940Y33135D01*
X418708Y33465D01*
X417433D01*
X416202Y33135D01*
X415098Y32497D01*
X414196Y31595D01*
X413558Y30491D01*
X413330Y29638D01*
X412812D01*
X412583Y30491D01*
X411946Y31595D01*
X411044Y32497D01*
X409940Y33135D01*
X408708Y33465D01*
X407433D01*
X406202Y33135D01*
X405097Y32497D01*
X404196Y31595D01*
X403558Y30491D01*
X403330Y29638D01*
X402812D01*
X402583Y30491D01*
X401946Y31595D01*
X401044Y32497D01*
X399940Y33135D01*
X398708Y33465D01*
X397433D01*
X396202Y33135D01*
X395097Y32497D01*
X394196Y31595D01*
X393558Y30491D01*
X393330Y29638D01*
X392812D01*
X392583Y30491D01*
X391946Y31595D01*
X391044Y32497D01*
X389940Y33135D01*
X388708Y33465D01*
X387433D01*
X386202Y33135D01*
X385098Y32497D01*
X384196Y31595D01*
X383558Y30491D01*
X383228Y29260D01*
Y27984D01*
X383558Y26753D01*
X384196Y25649D01*
X385098Y24747D01*
X386202Y24110D01*
X387433Y23780D01*
X388708D01*
X389940Y24110D01*
X391044Y24747D01*
X391946Y25649D01*
X392583Y26753D01*
X392812Y27606D01*
X393330D01*
X393558Y26753D01*
X394196Y25649D01*
X395097Y24747D01*
X396202Y24110D01*
X397433Y23780D01*
X398708D01*
X399940Y24110D01*
X401044Y24747D01*
X401946Y25649D01*
X402583Y26753D01*
X402812Y27606D01*
X403330D01*
X403558Y26753D01*
X404196Y25649D01*
X405097Y24747D01*
X406202Y24110D01*
X407433Y23780D01*
X408708D01*
X409940Y24110D01*
X411044Y24747D01*
X411946Y25649D01*
X412583Y26753D01*
X412812Y27606D01*
X413330D01*
X413558Y26753D01*
X414196Y25649D01*
X415098Y24747D01*
X416202Y24110D01*
X417433Y23780D01*
X418708D01*
X419940Y24110D01*
X421044Y24747D01*
X421946Y25649D01*
X422583Y26753D01*
X422812Y27606D01*
X423330D01*
X423558Y26753D01*
X424196Y25649D01*
X425098Y24747D01*
X426202Y24110D01*
X427433Y23780D01*
X428708D01*
X429940Y24110D01*
X431044Y24747D01*
X431946Y25649D01*
X432583Y26753D01*
X432812Y27606D01*
X433330D01*
X433558Y26753D01*
X434196Y25649D01*
X435098Y24747D01*
X436202Y24110D01*
X437433Y23780D01*
X438708D01*
X439940Y24110D01*
X441044Y24747D01*
X441946Y25649D01*
X442583Y26753D01*
X442812Y27606D01*
X443330D01*
X443558Y26753D01*
X444196Y25649D01*
X445097Y24747D01*
X446202Y24110D01*
X447433Y23780D01*
X448708D01*
X449940Y24110D01*
X451044Y24747D01*
X451946Y25649D01*
X452583Y26753D01*
X452812Y27606D01*
X453330D01*
X453558Y26753D01*
X454196Y25649D01*
X455097Y24747D01*
X456202Y24110D01*
X457433Y23780D01*
X458708D01*
X459940Y24110D01*
X461044Y24747D01*
X461946Y25649D01*
X462583Y26753D01*
X462812Y27606D01*
X463330D01*
X463558Y26753D01*
X464196Y25649D01*
X465098Y24747D01*
X466202Y24110D01*
X467433Y23780D01*
X468708D01*
X469940Y24110D01*
X471044Y24747D01*
X471946Y25649D01*
X472583Y26753D01*
X472728Y27294D01*
X473228Y27228D01*
Y23780D01*
X476677D01*
X476743Y23280D01*
X476202Y23135D01*
X475098Y22497D01*
X474196Y21595D01*
X473558Y20491D01*
X473228Y19260D01*
Y17985D01*
X473558Y16753D01*
X474196Y15649D01*
X475098Y14747D01*
X476202Y14110D01*
X477433Y13780D01*
X478708D01*
X479940Y14110D01*
X481044Y14747D01*
X481946Y15649D01*
X482583Y16753D01*
X482913Y17985D01*
Y19260D01*
X482583Y20491D01*
X481946Y21595D01*
X481044Y22497D01*
X479940Y23135D01*
X479399Y23280D01*
X479465Y23780D01*
X482913D01*
Y33465D01*
D02*
G37*
G36*
X313150Y33386D02*
X303465D01*
Y29937D01*
X302965Y29871D01*
X302820Y30413D01*
X302182Y31517D01*
X301280Y32418D01*
X300176Y33056D01*
X298945Y33386D01*
X297670D01*
X296438Y33056D01*
X295334Y32418D01*
X294432Y31517D01*
X293795Y30413D01*
X293566Y29559D01*
X293048D01*
X292820Y30413D01*
X292182Y31517D01*
X291280Y32418D01*
X290176Y33056D01*
X288945Y33386D01*
X287669D01*
X286438Y33056D01*
X285334Y32418D01*
X284432Y31517D01*
X283795Y30413D01*
X283465Y29181D01*
Y27906D01*
X283795Y26674D01*
X284432Y25570D01*
X285334Y24668D01*
X286438Y24031D01*
X287669Y23701D01*
X288945D01*
X290176Y24031D01*
X291280Y24668D01*
X292182Y25570D01*
X292820Y26674D01*
X293048Y27528D01*
X293566D01*
X293795Y26674D01*
X294432Y25570D01*
X295334Y24668D01*
X296438Y24031D01*
X297670Y23701D01*
X298945D01*
X300176Y24031D01*
X301280Y24668D01*
X302182Y25570D01*
X302820Y26674D01*
X302965Y27215D01*
X303465Y27150D01*
Y23701D01*
X313150D01*
Y33386D01*
D02*
G37*
G36*
X238669D02*
X237394D01*
X236162Y33056D01*
X235058Y32418D01*
X234156Y31517D01*
X233519Y30413D01*
X233290Y29559D01*
X232773D01*
X232544Y30413D01*
X231907Y31517D01*
X231005Y32418D01*
X229901Y33056D01*
X228669Y33386D01*
X227394D01*
X226162Y33056D01*
X225058Y32418D01*
X224156Y31517D01*
X223519Y30413D01*
X223290Y29559D01*
X222773D01*
X222544Y30413D01*
X221906Y31517D01*
X221005Y32418D01*
X219901Y33056D01*
X218669Y33386D01*
X217394D01*
X216162Y33056D01*
X215058Y32418D01*
X214157Y31517D01*
X213519Y30413D01*
X213290Y29559D01*
X212773D01*
X212544Y30413D01*
X211907Y31517D01*
X211005Y32418D01*
X209901Y33056D01*
X208669Y33386D01*
X207394D01*
X206162Y33056D01*
X205058Y32418D01*
X204156Y31517D01*
X203519Y30413D01*
X203290Y29559D01*
X202773D01*
X202544Y30413D01*
X201906Y31517D01*
X201005Y32418D01*
X199901Y33056D01*
X198669Y33386D01*
X197394D01*
X196162Y33056D01*
X195058Y32418D01*
X194157Y31517D01*
X193519Y30413D01*
X193189Y29181D01*
Y27906D01*
X193519Y26674D01*
X194157Y25570D01*
X195058Y24668D01*
X196162Y24031D01*
X197394Y23701D01*
X198669D01*
X199901Y24031D01*
X201005Y24668D01*
X201906Y25570D01*
X202544Y26674D01*
X202773Y27528D01*
X203290D01*
X203519Y26674D01*
X204156Y25570D01*
X205058Y24668D01*
X206162Y24031D01*
X207394Y23701D01*
X208669D01*
X209901Y24031D01*
X211005Y24668D01*
X211907Y25570D01*
X212544Y26674D01*
X212773Y27528D01*
X213290D01*
X213519Y26674D01*
X214157Y25570D01*
X215058Y24668D01*
X216162Y24031D01*
X217394Y23701D01*
X218669D01*
X219901Y24031D01*
X221005Y24668D01*
X221906Y25570D01*
X222544Y26674D01*
X222773Y27528D01*
X223290D01*
X223519Y26674D01*
X224156Y25570D01*
X225058Y24668D01*
X226162Y24031D01*
X227394Y23701D01*
X228669D01*
X229901Y24031D01*
X231005Y24668D01*
X231907Y25570D01*
X232544Y26674D01*
X232773Y27528D01*
X233290D01*
X233519Y26674D01*
X234156Y25570D01*
X235058Y24668D01*
X236162Y24031D01*
X237394Y23701D01*
X238669D01*
X239901Y24031D01*
X241005Y24668D01*
X241906Y25570D01*
X242544Y26674D01*
X242874Y27906D01*
Y29181D01*
X242544Y30413D01*
X241906Y31517D01*
X241005Y32418D01*
X239901Y33056D01*
X238669Y33386D01*
D02*
G37*
G36*
X278905Y33087D02*
X278807D01*
Y29043D01*
X282850D01*
Y29141D01*
X282541Y30297D01*
X281943Y31333D01*
X281097Y32179D01*
X280061Y32777D01*
X278905Y33087D01*
D02*
G37*
G36*
X252575D02*
X248532D01*
Y29043D01*
X252575D01*
Y33087D01*
D02*
G37*
G36*
X247532D02*
X243488D01*
Y29043D01*
X247532D01*
Y33087D01*
D02*
G37*
G36*
X277807D02*
X277709D01*
X276553Y32777D01*
X275517Y32179D01*
X274672Y31333D01*
X274073Y30297D01*
X273764Y29141D01*
Y29043D01*
X277807D01*
Y33087D01*
D02*
G37*
G36*
X624622Y32965D02*
X620579D01*
Y28921D01*
X620677D01*
X621832Y29231D01*
X622868Y29829D01*
X623714Y30675D01*
X624312Y31711D01*
X624622Y32866D01*
Y32965D01*
D02*
G37*
G36*
X619579D02*
X615535D01*
Y32866D01*
X615845Y31711D01*
X616443Y30675D01*
X617289Y29829D01*
X618325Y29231D01*
X619481Y28921D01*
X619579D01*
Y32965D01*
D02*
G37*
G36*
X632527Y38307D02*
X631252D01*
X630021Y37977D01*
X628916Y37339D01*
X628015Y36438D01*
X627377Y35334D01*
X627047Y34102D01*
Y32827D01*
X627377Y31595D01*
X628015Y30491D01*
X628916Y29590D01*
X630021Y28952D01*
X631252Y28622D01*
X632527D01*
X633759Y28952D01*
X634863Y29590D01*
X635765Y30491D01*
X636402Y31595D01*
X636732Y32827D01*
Y34102D01*
X636402Y35334D01*
X635765Y36438D01*
X634863Y37339D01*
X633759Y37977D01*
X632527Y38307D01*
D02*
G37*
G36*
X608905D02*
X607630D01*
X606399Y37977D01*
X605294Y37339D01*
X604393Y36438D01*
X603755Y35334D01*
X603425Y34102D01*
Y32827D01*
X603755Y31595D01*
X604393Y30491D01*
X605294Y29590D01*
X606399Y28952D01*
X607630Y28622D01*
X608905D01*
X610137Y28952D01*
X611241Y29590D01*
X612143Y30491D01*
X612780Y31595D01*
X613110Y32827D01*
Y34102D01*
X612780Y35334D01*
X612143Y36438D01*
X611241Y37339D01*
X610137Y37977D01*
X608905Y38307D01*
D02*
G37*
G36*
X644302Y39567D02*
X643100D01*
X641921Y39332D01*
X640810Y38872D01*
X639811Y38205D01*
X638961Y37355D01*
X638293Y36355D01*
X637833Y35245D01*
X637598Y34066D01*
Y32864D01*
X637833Y31685D01*
X638293Y30574D01*
X638961Y29574D01*
X639811Y28725D01*
X640810Y28057D01*
X641921Y27597D01*
X643100Y27362D01*
X644302D01*
X645481Y27597D01*
X646591Y28057D01*
X647591Y28725D01*
X648441Y29574D01*
X649109Y30574D01*
X649569Y31685D01*
X649803Y32864D01*
Y34066D01*
X649569Y35245D01*
X649109Y36355D01*
X648441Y37355D01*
X647591Y38205D01*
X646591Y38872D01*
X645481Y39332D01*
X644302Y39567D01*
D02*
G37*
G36*
X597058D02*
X595856D01*
X594677Y39332D01*
X593566Y38872D01*
X592567Y38205D01*
X591717Y37355D01*
X591049Y36355D01*
X590589Y35245D01*
X590354Y34066D01*
Y32864D01*
X590589Y31685D01*
X591049Y30574D01*
X591717Y29574D01*
X592567Y28725D01*
X593566Y28057D01*
X594677Y27597D01*
X595856Y27362D01*
X597058D01*
X598237Y27597D01*
X599347Y28057D01*
X600347Y28725D01*
X601197Y29574D01*
X601864Y30574D01*
X602325Y31685D01*
X602559Y32864D01*
Y34066D01*
X602325Y35245D01*
X601864Y36355D01*
X601197Y37355D01*
X600347Y38205D01*
X599347Y38872D01*
X598237Y39332D01*
X597058Y39567D01*
D02*
G37*
G36*
X77493Y37795D02*
X75262D01*
X73059Y37446D01*
X70937Y36757D01*
X68950Y35744D01*
X67843Y34940D01*
X76378Y26406D01*
X84913Y34940D01*
X83806Y35744D01*
X81819Y36757D01*
X79697Y37446D01*
X77493Y37795D01*
D02*
G37*
G36*
X282850Y28043D02*
X278807D01*
Y24000D01*
X278905D01*
X280061Y24310D01*
X281097Y24908D01*
X281943Y25754D01*
X282541Y26790D01*
X282850Y27945D01*
Y28043D01*
D02*
G37*
G36*
X277807D02*
X273764D01*
Y27945D01*
X274073Y26790D01*
X274672Y25754D01*
X275517Y24908D01*
X276553Y24310D01*
X277709Y24000D01*
X277807D01*
Y28043D01*
D02*
G37*
G36*
X252575D02*
X248532D01*
Y24000D01*
X252575D01*
Y28043D01*
D02*
G37*
G36*
X247532D02*
X243488D01*
Y24000D01*
X247532D01*
Y28043D01*
D02*
G37*
G36*
X572165Y26575D02*
X562480D01*
Y23126D01*
X561980Y23060D01*
X561835Y23601D01*
X561198Y24706D01*
X560296Y25607D01*
X559192Y26245D01*
X557960Y26575D01*
X556685D01*
X555454Y26245D01*
X554350Y25607D01*
X553448Y24706D01*
X552810Y23601D01*
X552582Y22748D01*
X552064D01*
X551835Y23601D01*
X551198Y24706D01*
X550296Y25607D01*
X549192Y26245D01*
X547960Y26575D01*
X546685D01*
X545454Y26245D01*
X544349Y25607D01*
X543448Y24706D01*
X542810Y23601D01*
X542582Y22748D01*
X542064D01*
X541835Y23601D01*
X541198Y24706D01*
X540296Y25607D01*
X539192Y26245D01*
X537960Y26575D01*
X536685D01*
X535454Y26245D01*
X534349Y25607D01*
X533448Y24706D01*
X532810Y23601D01*
X532582Y22748D01*
X532064D01*
X531835Y23601D01*
X531198Y24706D01*
X530296Y25607D01*
X529192Y26245D01*
X527960Y26575D01*
X526685D01*
X525454Y26245D01*
X524349Y25607D01*
X523448Y24706D01*
X522810Y23601D01*
X522582Y22748D01*
X522064D01*
X521835Y23601D01*
X521198Y24706D01*
X520296Y25607D01*
X519192Y26245D01*
X517960Y26575D01*
X516685D01*
X515454Y26245D01*
X514350Y25607D01*
X513448Y24706D01*
X512810Y23601D01*
X512480Y22370D01*
Y21095D01*
X512810Y19863D01*
X513448Y18759D01*
X514350Y17857D01*
X515454Y17220D01*
X516685Y16890D01*
X517960D01*
X519192Y17220D01*
X520296Y17857D01*
X521198Y18759D01*
X521835Y19863D01*
X522064Y20717D01*
X522582D01*
X522810Y19863D01*
X523448Y18759D01*
X524349Y17857D01*
X525454Y17220D01*
X526307Y16991D01*
Y16474D01*
X525454Y16245D01*
X524349Y15607D01*
X523448Y14706D01*
X522810Y13601D01*
X522480Y12370D01*
Y11095D01*
X522810Y9863D01*
X523448Y8759D01*
X524349Y7857D01*
X525454Y7220D01*
X526685Y6890D01*
X527960D01*
X529192Y7220D01*
X530296Y7857D01*
X531198Y8759D01*
X531835Y9863D01*
X532165Y11095D01*
Y12370D01*
X531835Y13601D01*
X531198Y14706D01*
X530296Y15607D01*
X529192Y16245D01*
X528339Y16474D01*
Y16991D01*
X529192Y17220D01*
X530296Y17857D01*
X531198Y18759D01*
X531835Y19863D01*
X532064Y20717D01*
X532582D01*
X532810Y19863D01*
X533448Y18759D01*
X534349Y17857D01*
X535454Y17220D01*
X536685Y16890D01*
X537960D01*
X539192Y17220D01*
X540296Y17857D01*
X541198Y18759D01*
X541835Y19863D01*
X542064Y20717D01*
X542582D01*
X542810Y19863D01*
X543448Y18759D01*
X544349Y17857D01*
X545454Y17220D01*
X546307Y16991D01*
Y16474D01*
X545454Y16245D01*
X544349Y15607D01*
X543448Y14706D01*
X542810Y13601D01*
X542480Y12370D01*
Y11095D01*
X542810Y9863D01*
X543448Y8759D01*
X544349Y7857D01*
X545454Y7220D01*
X546685Y6890D01*
X547960D01*
X549192Y7220D01*
X550296Y7857D01*
X551198Y8759D01*
X551835Y9863D01*
X552165Y11095D01*
Y12370D01*
X551835Y13601D01*
X551198Y14706D01*
X550296Y15607D01*
X549192Y16245D01*
X548339Y16474D01*
Y16991D01*
X549192Y17220D01*
X550296Y17857D01*
X551198Y18759D01*
X551835Y19863D01*
X552064Y20717D01*
X552582D01*
X552810Y19863D01*
X553448Y18759D01*
X554350Y17857D01*
X555454Y17220D01*
X556685Y16890D01*
X557960D01*
X559192Y17220D01*
X560296Y17857D01*
X561198Y18759D01*
X561835Y19863D01*
X561980Y20404D01*
X562480Y20338D01*
Y16890D01*
X565929D01*
X565995Y16390D01*
X565454Y16245D01*
X564350Y15607D01*
X563448Y14706D01*
X562810Y13601D01*
X562480Y12370D01*
Y11095D01*
X562810Y9863D01*
X563448Y8759D01*
X564350Y7857D01*
X565454Y7220D01*
X566685Y6890D01*
X567960D01*
X569192Y7220D01*
X570296Y7857D01*
X571198Y8759D01*
X571835Y9863D01*
X572165Y11095D01*
Y12370D01*
X571835Y13601D01*
X571198Y14706D01*
X570296Y15607D01*
X569192Y16245D01*
X568651Y16390D01*
X568717Y16890D01*
X572165D01*
Y26575D01*
D02*
G37*
G36*
X620677Y26197D02*
X620579D01*
Y22153D01*
X624622D01*
Y22252D01*
X624312Y23407D01*
X623714Y24443D01*
X622868Y25289D01*
X621832Y25887D01*
X620677Y26197D01*
D02*
G37*
G36*
X619579D02*
X619481D01*
X618325Y25887D01*
X617289Y25289D01*
X616443Y24443D01*
X615845Y23407D01*
X615535Y22252D01*
Y22153D01*
X619579D01*
Y26197D01*
D02*
G37*
G36*
X398669Y23165D02*
X398571D01*
Y19122D01*
X402614D01*
Y19220D01*
X402305Y20376D01*
X401706Y21412D01*
X400861Y22258D01*
X399825Y22856D01*
X398669Y23165D01*
D02*
G37*
G36*
X468669D02*
X468571D01*
Y19122D01*
X472614D01*
Y19220D01*
X472305Y20376D01*
X471706Y21412D01*
X470860Y22258D01*
X469825Y22856D01*
X468669Y23165D01*
D02*
G37*
G36*
X428669D02*
X428571D01*
Y19122D01*
X432614D01*
Y19220D01*
X432305Y20376D01*
X431706Y21412D01*
X430861Y22258D01*
X429824Y22856D01*
X428669Y23165D01*
D02*
G37*
G36*
X418669D02*
X418571D01*
Y19122D01*
X422614D01*
Y19220D01*
X422305Y20376D01*
X421706Y21412D01*
X420860Y22258D01*
X419825Y22856D01*
X418669Y23165D01*
D02*
G37*
G36*
X458669D02*
X458571D01*
Y19122D01*
X462614D01*
Y19220D01*
X462305Y20376D01*
X461706Y21412D01*
X460860Y22258D01*
X459825Y22856D01*
X458669Y23165D01*
D02*
G37*
G36*
X448669D02*
X448571D01*
Y19122D01*
X452614D01*
Y19220D01*
X452305Y20376D01*
X451706Y21412D01*
X450861Y22258D01*
X449824Y22856D01*
X448669Y23165D01*
D02*
G37*
G36*
X438669D02*
X438571D01*
Y19122D01*
X442614D01*
Y19220D01*
X442305Y20376D01*
X441706Y21412D01*
X440861Y22258D01*
X439824Y22856D01*
X438669Y23165D01*
D02*
G37*
G36*
X388669D02*
X388571D01*
Y19122D01*
X392614D01*
Y19220D01*
X392305Y20376D01*
X391706Y21412D01*
X390861Y22258D01*
X389825Y22856D01*
X388669Y23165D01*
D02*
G37*
G36*
X408669D02*
X408571D01*
Y19122D01*
X412614D01*
Y19220D01*
X412305Y20376D01*
X411706Y21412D01*
X410860Y22258D01*
X409825Y22856D01*
X408669Y23165D01*
D02*
G37*
G36*
X397571D02*
X397473D01*
X396317Y22856D01*
X395281Y22258D01*
X394435Y21412D01*
X393837Y20376D01*
X393528Y19220D01*
Y19122D01*
X397571D01*
Y23165D01*
D02*
G37*
G36*
X467571D02*
X467473D01*
X466317Y22856D01*
X465281Y22258D01*
X464435Y21412D01*
X463837Y20376D01*
X463528Y19220D01*
Y19122D01*
X467571D01*
Y23165D01*
D02*
G37*
G36*
X417571D02*
X417473D01*
X416317Y22856D01*
X415281Y22258D01*
X414435Y21412D01*
X413837Y20376D01*
X413528Y19220D01*
Y19122D01*
X417571D01*
Y23165D01*
D02*
G37*
G36*
X387571D02*
X387473D01*
X386317Y22856D01*
X385281Y22258D01*
X384435Y21412D01*
X383837Y20376D01*
X383528Y19220D01*
Y19122D01*
X387571D01*
Y23165D01*
D02*
G37*
G36*
X427571D02*
X427473D01*
X426317Y22856D01*
X425281Y22258D01*
X424435Y21412D01*
X423837Y20376D01*
X423528Y19220D01*
Y19122D01*
X427571D01*
Y23165D01*
D02*
G37*
G36*
X447571D02*
X447473D01*
X446317Y22856D01*
X445281Y22258D01*
X444435Y21412D01*
X443837Y20376D01*
X443528Y19220D01*
Y19122D01*
X447571D01*
Y23165D01*
D02*
G37*
G36*
X437571D02*
X437473D01*
X436317Y22856D01*
X435281Y22258D01*
X434435Y21412D01*
X433837Y20376D01*
X433528Y19220D01*
Y19122D01*
X437571D01*
Y23165D01*
D02*
G37*
G36*
X457571D02*
X457473D01*
X456317Y22856D01*
X455281Y22258D01*
X454435Y21412D01*
X453837Y20376D01*
X453528Y19220D01*
Y19122D01*
X457571D01*
Y23165D01*
D02*
G37*
G36*
X407571D02*
X407473D01*
X406317Y22856D01*
X405281Y22258D01*
X404435Y21412D01*
X403837Y20376D01*
X403528Y19220D01*
Y19122D01*
X407571D01*
Y23165D01*
D02*
G37*
G36*
X624622Y21154D02*
X620579D01*
Y17110D01*
X620677D01*
X621832Y17420D01*
X622868Y18018D01*
X623714Y18864D01*
X624312Y19900D01*
X624622Y21055D01*
Y21154D01*
D02*
G37*
G36*
X619579D02*
X615535D01*
Y21055D01*
X615845Y19900D01*
X616443Y18864D01*
X617289Y18018D01*
X618325Y17420D01*
X619481Y17110D01*
X619579D01*
Y21154D01*
D02*
G37*
G36*
X632527Y26496D02*
X631252D01*
X630021Y26166D01*
X628916Y25528D01*
X628015Y24627D01*
X627377Y23523D01*
X627047Y22291D01*
Y21016D01*
X627377Y19784D01*
X628015Y18680D01*
X628916Y17779D01*
X630021Y17141D01*
X631252Y16811D01*
X632527D01*
X633759Y17141D01*
X634863Y17779D01*
X635765Y18680D01*
X636402Y19784D01*
X636732Y21016D01*
Y22291D01*
X636402Y23523D01*
X635765Y24627D01*
X634863Y25528D01*
X633759Y26166D01*
X632527Y26496D01*
D02*
G37*
G36*
X608905D02*
X607630D01*
X606399Y26166D01*
X605294Y25528D01*
X604393Y24627D01*
X603755Y23523D01*
X603425Y22291D01*
Y21016D01*
X603755Y19784D01*
X604393Y18680D01*
X605294Y17779D01*
X606399Y17141D01*
X607630Y16811D01*
X608905D01*
X610137Y17141D01*
X611241Y17779D01*
X612143Y18680D01*
X612780Y19784D01*
X613110Y21016D01*
Y22291D01*
X612780Y23523D01*
X612143Y24627D01*
X611241Y25528D01*
X610137Y26166D01*
X608905Y26496D01*
D02*
G37*
G36*
X179115Y19209D02*
X178365D01*
X177672Y18922D01*
X177141Y18391D01*
X176854Y17698D01*
Y16948D01*
X177141Y16255D01*
X177672Y15724D01*
X178365Y15437D01*
X179115D01*
X179808Y15724D01*
X180339Y16255D01*
X180626Y16948D01*
Y17698D01*
X180339Y18391D01*
X179808Y18922D01*
X179115Y19209D01*
D02*
G37*
G36*
X65060Y32157D02*
X64256Y31051D01*
X63243Y29063D01*
X62554Y26941D01*
X62205Y24737D01*
Y22507D01*
X62554Y20303D01*
X63243Y18181D01*
X64256Y16194D01*
X65060Y15088D01*
X73594Y23622D01*
X65060Y32157D01*
D02*
G37*
G36*
X87696Y32157D02*
X79162Y23622D01*
X87696Y15088D01*
X88500Y16194D01*
X89513Y18181D01*
X90202Y20303D01*
X90551Y22507D01*
Y24737D01*
X90202Y26941D01*
X89513Y29063D01*
X88500Y31051D01*
X87696Y32157D01*
D02*
G37*
G36*
X472614Y18122D02*
X468571D01*
Y14079D01*
X468669D01*
X469825Y14388D01*
X470860Y14987D01*
X471706Y15832D01*
X472305Y16868D01*
X472614Y18024D01*
Y18122D01*
D02*
G37*
G36*
X467571D02*
X463528D01*
Y18024D01*
X463837Y16868D01*
X464435Y15832D01*
X465281Y14987D01*
X466317Y14388D01*
X467473Y14079D01*
X467571D01*
Y18122D01*
D02*
G37*
G36*
X462614D02*
X458571D01*
Y14079D01*
X458669D01*
X459825Y14388D01*
X460860Y14987D01*
X461706Y15832D01*
X462305Y16868D01*
X462614Y18024D01*
Y18122D01*
D02*
G37*
G36*
X457571D02*
X453528D01*
Y18024D01*
X453837Y16868D01*
X454435Y15832D01*
X455281Y14987D01*
X456317Y14388D01*
X457473Y14079D01*
X457571D01*
Y18122D01*
D02*
G37*
G36*
X452614D02*
X448571D01*
Y14079D01*
X448669D01*
X449824Y14388D01*
X450861Y14987D01*
X451706Y15832D01*
X452305Y16868D01*
X452614Y18024D01*
Y18122D01*
D02*
G37*
G36*
X447571D02*
X443528D01*
Y18024D01*
X443837Y16868D01*
X444435Y15832D01*
X445281Y14987D01*
X446317Y14388D01*
X447473Y14079D01*
X447571D01*
Y18122D01*
D02*
G37*
G36*
X442614D02*
X438571D01*
Y14079D01*
X438669D01*
X439824Y14388D01*
X440861Y14987D01*
X441706Y15832D01*
X442305Y16868D01*
X442614Y18024D01*
Y18122D01*
D02*
G37*
G36*
X437571D02*
X433528D01*
Y18024D01*
X433837Y16868D01*
X434435Y15832D01*
X435281Y14987D01*
X436317Y14388D01*
X437473Y14079D01*
X437571D01*
Y18122D01*
D02*
G37*
G36*
X432614D02*
X428571D01*
Y14079D01*
X428669D01*
X429824Y14388D01*
X430861Y14987D01*
X431706Y15832D01*
X432305Y16868D01*
X432614Y18024D01*
Y18122D01*
D02*
G37*
G36*
X427571D02*
X423528D01*
Y18024D01*
X423837Y16868D01*
X424435Y15832D01*
X425281Y14987D01*
X426317Y14388D01*
X427473Y14079D01*
X427571D01*
Y18122D01*
D02*
G37*
G36*
X422614D02*
X418571D01*
Y14079D01*
X418669D01*
X419825Y14388D01*
X420860Y14987D01*
X421706Y15832D01*
X422305Y16868D01*
X422614Y18024D01*
Y18122D01*
D02*
G37*
G36*
X417571D02*
X413528D01*
Y18024D01*
X413837Y16868D01*
X414435Y15832D01*
X415281Y14987D01*
X416317Y14388D01*
X417473Y14079D01*
X417571D01*
Y18122D01*
D02*
G37*
G36*
X412614D02*
X408571D01*
Y14079D01*
X408669D01*
X409825Y14388D01*
X410860Y14987D01*
X411706Y15832D01*
X412305Y16868D01*
X412614Y18024D01*
Y18122D01*
D02*
G37*
G36*
X407571D02*
X403528D01*
Y18024D01*
X403837Y16868D01*
X404435Y15832D01*
X405281Y14987D01*
X406317Y14388D01*
X407473Y14079D01*
X407571D01*
Y18122D01*
D02*
G37*
G36*
X402614D02*
X398571D01*
Y14079D01*
X398669D01*
X399825Y14388D01*
X400861Y14987D01*
X401706Y15832D01*
X402305Y16868D01*
X402614Y18024D01*
Y18122D01*
D02*
G37*
G36*
X397571D02*
X393528D01*
Y18024D01*
X393837Y16868D01*
X394435Y15832D01*
X395281Y14987D01*
X396317Y14388D01*
X397473Y14079D01*
X397571D01*
Y18122D01*
D02*
G37*
G36*
X392614D02*
X388571D01*
Y14079D01*
X388669D01*
X389825Y14388D01*
X390861Y14987D01*
X391706Y15832D01*
X392305Y16868D01*
X392614Y18024D01*
Y18122D01*
D02*
G37*
G36*
X387571D02*
X383528D01*
Y18024D01*
X383837Y16868D01*
X384435Y15832D01*
X385281Y14987D01*
X386317Y14388D01*
X387473Y14079D01*
X387571D01*
Y18122D01*
D02*
G37*
G36*
X313150Y16654D02*
X303465D01*
Y13205D01*
X302965Y13139D01*
X302820Y13680D01*
X302182Y14784D01*
X301280Y15686D01*
X300176Y16323D01*
X298945Y16654D01*
X297670D01*
X296438Y16323D01*
X295334Y15686D01*
X294432Y14784D01*
X293795Y13680D01*
X293566Y12827D01*
X293048D01*
X292820Y13680D01*
X292182Y14784D01*
X291280Y15686D01*
X290176Y16323D01*
X288945Y16654D01*
X287669D01*
X286438Y16323D01*
X285334Y15686D01*
X284432Y14784D01*
X283795Y13680D01*
X283465Y12449D01*
Y11174D01*
X283795Y9942D01*
X284432Y8838D01*
X285334Y7936D01*
X286438Y7299D01*
X287669Y6968D01*
X288945D01*
X290176Y7299D01*
X291280Y7936D01*
X292182Y8838D01*
X292820Y9942D01*
X293048Y10795D01*
X293566D01*
X293795Y9942D01*
X294432Y8838D01*
X295334Y7936D01*
X296438Y7299D01*
X297670Y6968D01*
X298945D01*
X300176Y7299D01*
X301280Y7936D01*
X302182Y8838D01*
X302820Y9942D01*
X302965Y10483D01*
X303465Y10417D01*
Y6968D01*
X313150D01*
Y16654D01*
D02*
G37*
G36*
X238669D02*
X237394D01*
X236162Y16323D01*
X235058Y15686D01*
X234156Y14784D01*
X233519Y13680D01*
X233290Y12827D01*
X232773D01*
X232544Y13680D01*
X231907Y14784D01*
X231005Y15686D01*
X229901Y16323D01*
X228669Y16654D01*
X227394D01*
X226162Y16323D01*
X225058Y15686D01*
X224156Y14784D01*
X223519Y13680D01*
X223290Y12827D01*
X222773D01*
X222544Y13680D01*
X221906Y14784D01*
X221005Y15686D01*
X219901Y16323D01*
X218669Y16654D01*
X217394D01*
X216162Y16323D01*
X215058Y15686D01*
X214157Y14784D01*
X213519Y13680D01*
X213290Y12827D01*
X212773D01*
X212544Y13680D01*
X211907Y14784D01*
X211005Y15686D01*
X209901Y16323D01*
X208669Y16654D01*
X207394D01*
X206162Y16323D01*
X205058Y15686D01*
X204156Y14784D01*
X203519Y13680D01*
X203290Y12827D01*
X202773D01*
X202544Y13680D01*
X201906Y14784D01*
X201005Y15686D01*
X199901Y16323D01*
X198669Y16654D01*
X197394D01*
X196162Y16323D01*
X195058Y15686D01*
X194157Y14784D01*
X193519Y13680D01*
X193189Y12449D01*
Y11174D01*
X193519Y9942D01*
X194157Y8838D01*
X195058Y7936D01*
X196162Y7299D01*
X197394Y6968D01*
X198669D01*
X199901Y7299D01*
X201005Y7936D01*
X201906Y8838D01*
X202544Y9942D01*
X202773Y10795D01*
X203290D01*
X203519Y9942D01*
X204156Y8838D01*
X205058Y7936D01*
X206162Y7299D01*
X207394Y6968D01*
X208669D01*
X209901Y7299D01*
X211005Y7936D01*
X211907Y8838D01*
X212544Y9942D01*
X212773Y10795D01*
X213290D01*
X213519Y9942D01*
X214157Y8838D01*
X215058Y7936D01*
X216162Y7299D01*
X217394Y6968D01*
X218669D01*
X219901Y7299D01*
X221005Y7936D01*
X221906Y8838D01*
X222544Y9942D01*
X222773Y10795D01*
X223290D01*
X223519Y9942D01*
X224156Y8838D01*
X225058Y7936D01*
X226162Y7299D01*
X227394Y6968D01*
X228669D01*
X229901Y7299D01*
X231005Y7936D01*
X231907Y8838D01*
X232544Y9942D01*
X232773Y10795D01*
X233290D01*
X233519Y9942D01*
X234156Y8838D01*
X235058Y7936D01*
X236162Y7299D01*
X237394Y6968D01*
X238669D01*
X239901Y7299D01*
X241005Y7936D01*
X241906Y8838D01*
X242544Y9942D01*
X242874Y11174D01*
Y12449D01*
X242544Y13680D01*
X241906Y14784D01*
X241005Y15686D01*
X239901Y16323D01*
X238669Y16654D01*
D02*
G37*
G36*
X278905Y16354D02*
X278807D01*
Y12311D01*
X282850D01*
Y12409D01*
X282541Y13565D01*
X281943Y14601D01*
X281097Y15447D01*
X280061Y16045D01*
X278905Y16354D01*
D02*
G37*
G36*
X136505Y15764D02*
X136484D01*
Y12311D01*
X139937D01*
Y12331D01*
X139668Y13337D01*
X139147Y14238D01*
X138411Y14974D01*
X137510Y15494D01*
X136505Y15764D01*
D02*
G37*
G36*
X252575Y16354D02*
X248532D01*
Y12311D01*
X252575D01*
Y16354D01*
D02*
G37*
G36*
X168670Y15764D02*
X168650D01*
Y12311D01*
X172102D01*
Y12331D01*
X171833Y13337D01*
X171313Y14238D01*
X170577Y14974D01*
X169675Y15494D01*
X168670Y15764D01*
D02*
G37*
G36*
X167650D02*
X167629D01*
X166624Y15494D01*
X165723Y14974D01*
X164987Y14238D01*
X164466Y13337D01*
X164197Y12331D01*
Y12311D01*
X167650D01*
Y15764D01*
D02*
G37*
G36*
X135484D02*
X135464D01*
X134458Y15494D01*
X133557Y14974D01*
X132821Y14238D01*
X132301Y13337D01*
X132032Y12331D01*
Y12311D01*
X135484D01*
Y15764D01*
D02*
G37*
G36*
X247532Y16354D02*
X243488D01*
Y12311D01*
X247532D01*
Y16354D01*
D02*
G37*
G36*
X277807D02*
X277709D01*
X276553Y16045D01*
X275517Y15447D01*
X274672Y14601D01*
X274073Y13565D01*
X273764Y12409D01*
Y12311D01*
X277807D01*
Y16354D01*
D02*
G37*
G36*
X557921Y16276D02*
X557823D01*
Y12232D01*
X561866D01*
Y12330D01*
X561556Y13486D01*
X560958Y14522D01*
X560112Y15368D01*
X559076Y15966D01*
X557921Y16276D01*
D02*
G37*
G36*
X537921D02*
X537823D01*
Y12232D01*
X541866D01*
Y12330D01*
X541557Y13486D01*
X540958Y14522D01*
X540112Y15368D01*
X539077Y15966D01*
X537921Y16276D01*
D02*
G37*
G36*
X517921D02*
X517823D01*
Y12232D01*
X521866D01*
Y12330D01*
X521557Y13486D01*
X520958Y14522D01*
X520113Y15368D01*
X519076Y15966D01*
X517921Y16276D01*
D02*
G37*
G36*
X556823D02*
X556725D01*
X555569Y15966D01*
X554533Y15368D01*
X553687Y14522D01*
X553089Y13486D01*
X552780Y12330D01*
Y12232D01*
X556823D01*
Y16276D01*
D02*
G37*
G36*
X536823D02*
X536725D01*
X535569Y15966D01*
X534533Y15368D01*
X533687Y14522D01*
X533089Y13486D01*
X532780Y12330D01*
Y12232D01*
X536823D01*
Y16276D01*
D02*
G37*
G36*
X516823D02*
X516725D01*
X515569Y15966D01*
X514533Y15368D01*
X513687Y14522D01*
X513089Y13486D01*
X512780Y12330D01*
Y12232D01*
X516823D01*
Y16276D01*
D02*
G37*
G36*
X105756Y36732D02*
X103693D01*
X101654Y36410D01*
X99692Y35772D01*
X97853Y34835D01*
X96184Y33622D01*
X94725Y32163D01*
X93511Y30493D01*
X92575Y28655D01*
X91937Y26692D01*
X91614Y24654D01*
Y22590D01*
X91937Y20552D01*
X92575Y18589D01*
X93511Y16751D01*
X94725Y15081D01*
X96184Y13622D01*
X97853Y12409D01*
X99692Y11472D01*
X101654Y10835D01*
X103693Y10512D01*
X105756D01*
X107794Y10835D01*
X109757Y11472D01*
X111596Y12409D01*
X113265Y13622D01*
X114724Y15081D01*
X115937Y16751D01*
X116874Y18589D01*
X117512Y20552D01*
X117835Y22590D01*
Y24654D01*
X117512Y26692D01*
X116874Y28655D01*
X115937Y30493D01*
X114724Y32163D01*
X113265Y33622D01*
X111596Y34835D01*
X109757Y35772D01*
X107794Y36410D01*
X105756Y36732D01*
D02*
G37*
G36*
X76378Y20838D02*
X67843Y12304D01*
X68950Y11500D01*
X70937Y10487D01*
X73059Y9798D01*
X75262Y9449D01*
X77493D01*
X79697Y9798D01*
X81819Y10487D01*
X83806Y11500D01*
X84913Y12304D01*
X76378Y20838D01*
D02*
G37*
G36*
X172102Y11311D02*
X168650D01*
Y7858D01*
X168670D01*
X169675Y8128D01*
X170577Y8648D01*
X171313Y9384D01*
X171833Y10285D01*
X172102Y11291D01*
Y11311D01*
D02*
G37*
G36*
X167650D02*
X164197D01*
Y11291D01*
X164466Y10285D01*
X164987Y9384D01*
X165723Y8648D01*
X166624Y8128D01*
X167629Y7858D01*
X167650D01*
Y11311D01*
D02*
G37*
G36*
X139937D02*
X136484D01*
Y7858D01*
X136505D01*
X137510Y8128D01*
X138411Y8648D01*
X139147Y9384D01*
X139668Y10285D01*
X139937Y11291D01*
Y11311D01*
D02*
G37*
G36*
X135484D02*
X132032D01*
Y11291D01*
X132301Y10285D01*
X132821Y9384D01*
X133557Y8648D01*
X134458Y8128D01*
X135464Y7858D01*
X135484D01*
Y11311D01*
D02*
G37*
G36*
X162402Y16063D02*
X153898D01*
Y7559D01*
X162402D01*
Y16063D01*
D02*
G37*
G36*
X150236D02*
X141732D01*
Y7559D01*
X150236D01*
Y16063D01*
D02*
G37*
G36*
X282850Y11311D02*
X278807D01*
Y7268D01*
X278905D01*
X280061Y7577D01*
X281097Y8175D01*
X281943Y9021D01*
X282541Y10057D01*
X282850Y11213D01*
Y11311D01*
D02*
G37*
G36*
X277807D02*
X273764D01*
Y11213D01*
X274073Y10057D01*
X274672Y9021D01*
X275517Y8175D01*
X276553Y7577D01*
X277709Y7268D01*
X277807D01*
Y11311D01*
D02*
G37*
G36*
X252575D02*
X248532D01*
Y7268D01*
X252575D01*
Y11311D01*
D02*
G37*
G36*
X247532D02*
X243488D01*
Y7268D01*
X247532D01*
Y11311D01*
D02*
G37*
G36*
X561866Y11232D02*
X557823D01*
Y7189D01*
X557921D01*
X559076Y7499D01*
X560112Y8097D01*
X560958Y8943D01*
X561556Y9979D01*
X561866Y11134D01*
Y11232D01*
D02*
G37*
G36*
X556823D02*
X552780D01*
Y11134D01*
X553089Y9979D01*
X553687Y8943D01*
X554533Y8097D01*
X555569Y7499D01*
X556725Y7189D01*
X556823D01*
Y11232D01*
D02*
G37*
G36*
X541866D02*
X537823D01*
Y7189D01*
X537921D01*
X539077Y7499D01*
X540112Y8097D01*
X540958Y8943D01*
X541557Y9979D01*
X541866Y11134D01*
Y11232D01*
D02*
G37*
G36*
X536823D02*
X532780D01*
Y11134D01*
X533089Y9979D01*
X533687Y8943D01*
X534533Y8097D01*
X535569Y7499D01*
X536725Y7189D01*
X536823D01*
Y11232D01*
D02*
G37*
G36*
X521866D02*
X517823D01*
Y7189D01*
X517921D01*
X519076Y7499D01*
X520113Y8097D01*
X520958Y8943D01*
X521557Y9979D01*
X521866Y11134D01*
Y11232D01*
D02*
G37*
G36*
X516823D02*
X512780D01*
Y11134D01*
X513089Y9979D01*
X513687Y8943D01*
X514533Y8097D01*
X515569Y7499D01*
X516725Y7189D01*
X516823D01*
Y11232D01*
D02*
G37*
%LPD*%
D125*
X656496Y124016D02*
D03*
Y53150D02*
D03*
X643701Y33465D02*
D03*
X596457D02*
D03*
D126*
X656496Y112205D02*
D03*
Y100394D02*
D03*
Y88583D02*
D03*
Y76772D02*
D03*
Y64961D02*
D03*
X668307Y112205D02*
D03*
Y100394D02*
D03*
Y88583D02*
D03*
Y76772D02*
D03*
Y64961D02*
D03*
X631890Y33465D02*
D03*
X620079D02*
D03*
X608268D02*
D03*
X631890Y21654D02*
D03*
X620079D02*
D03*
X608268D02*
D03*
X288307Y11811D02*
D03*
X298307D02*
D03*
X278307D02*
D03*
X288307Y28543D02*
D03*
X298307D02*
D03*
X278307D02*
D03*
X517323Y21732D02*
D03*
X527323D02*
D03*
X537323D02*
D03*
X557323D02*
D03*
X547323D02*
D03*
X567323Y11732D02*
D03*
X557323D02*
D03*
X547323D02*
D03*
X537323D02*
D03*
X527323D02*
D03*
X517323D02*
D03*
X198031Y28543D02*
D03*
X208032D02*
D03*
X218032D02*
D03*
X238032D02*
D03*
X228031D02*
D03*
X198031Y11811D02*
D03*
X208032D02*
D03*
X218032D02*
D03*
X238032D02*
D03*
X228031D02*
D03*
X388071Y18622D02*
D03*
Y28622D02*
D03*
X398071Y18622D02*
D03*
Y28622D02*
D03*
X408071Y18622D02*
D03*
Y28622D02*
D03*
X418071Y18622D02*
D03*
Y28622D02*
D03*
X428071Y18622D02*
D03*
Y28622D02*
D03*
X438071Y18622D02*
D03*
Y28622D02*
D03*
X448071Y18622D02*
D03*
Y28622D02*
D03*
X458071Y18622D02*
D03*
Y28622D02*
D03*
X468071Y18622D02*
D03*
Y28622D02*
D03*
X478071Y18622D02*
D03*
X20669Y88583D02*
D03*
X32480Y53150D02*
D03*
Y76772D02*
D03*
Y88583D02*
D03*
X20669Y53150D02*
D03*
Y64961D02*
D03*
Y76772D02*
D03*
X32480Y64961D02*
D03*
Y149606D02*
D03*
Y161417D02*
D03*
X20669Y149606D02*
D03*
Y161417D02*
D03*
D127*
X308307Y11811D02*
D03*
Y28543D02*
D03*
X567323Y21732D02*
D03*
X248031Y28543D02*
D03*
Y11811D02*
D03*
X478071Y28622D02*
D03*
D128*
X135984Y11811D02*
D03*
X168150D02*
D03*
X37736Y123189D02*
D03*
X229331Y141969D02*
D03*
D129*
X145984Y11811D02*
D03*
X158150D02*
D03*
D130*
X344488Y377953D02*
D03*
Y15748D02*
D03*
X673228D02*
D03*
X15748D02*
D03*
X673228Y377953D02*
D03*
X15748Y377953D02*
D03*
D131*
X369488Y237598D02*
D03*
X260433Y293898D02*
D03*
D132*
X369488D02*
D03*
X260433Y237598D02*
D03*
D133*
X37736Y113189D02*
D03*
X229331Y151969D02*
D03*
D134*
X16929Y100394D02*
D03*
Y41339D02*
D03*
D135*
X76378Y23622D02*
D03*
X104724D02*
D03*
X665354Y186417D02*
D03*
Y158071D02*
D03*
D136*
X661417Y297244D02*
D03*
Y253937D02*
D03*
X435039Y364134D02*
D03*
X478346D02*
D03*
X190945Y364173D02*
D03*
X234252D02*
D03*
X25591Y307087D02*
D03*
Y263779D02*
D03*
D137*
X16969Y137795D02*
D03*
Y173228D02*
D03*
D138*
X178740Y17323D02*
D03*
X438189Y64173D02*
D03*
X414961Y108661D02*
D03*
X62992Y175591D02*
D03*
X66142Y178347D02*
D03*
X151575Y148425D02*
D03*
Y152756D02*
D03*
X498032Y166929D02*
D03*
X503543D02*
D03*
X484135Y172047D02*
D03*
X484252Y166535D02*
D03*
X480921Y174803D02*
D03*
X480975Y169291D02*
D03*
X481128Y163779D02*
D03*
X500787Y169685D02*
D03*
Y164173D02*
D03*
X532677Y126772D02*
D03*
X389370Y84646D02*
D03*
X426772Y87084D02*
D03*
X655315Y351378D02*
D03*
X576378Y185039D02*
D03*
X557874D02*
D03*
X562992D02*
D03*
X529921Y141339D02*
D03*
X640158Y348031D02*
D03*
X571654Y185039D02*
D03*
X567323D02*
D03*
X129724Y387598D02*
D03*
X516142Y277953D02*
D03*
X381496Y140551D02*
D03*
X384055Y119095D02*
D03*
Y125000D02*
D03*
X538189Y360630D02*
D03*
X643701Y372047D02*
D03*
X585827Y237402D02*
D03*
X592126Y271654D02*
D03*
X299016Y94291D02*
D03*
X288583Y88189D02*
D03*
X311024D02*
D03*
X290945Y114567D02*
D03*
X285039Y133858D02*
D03*
X288307Y43307D02*
D03*
X291339Y46063D02*
D03*
X172835Y212598D02*
D03*
Y216535D02*
D03*
Y208661D02*
D03*
X122835Y265354D02*
D03*
X207480Y149606D02*
D03*
X212205D02*
D03*
X189764Y159055D02*
D03*
X98819Y151969D02*
D03*
Y155118D02*
D03*
Y162598D02*
D03*
Y166142D02*
D03*
Y169685D02*
D03*
X260630Y76378D02*
D03*
Y71653D02*
D03*
X260236Y46063D02*
D03*
Y57087D02*
D03*
X131004Y167913D02*
D03*
X127067D02*
D03*
X264413Y71653D02*
D03*
Y76378D02*
D03*
X257874Y53937D02*
D03*
Y49213D02*
D03*
X373205Y94465D02*
D03*
X368898Y97638D02*
D03*
X369861Y101751D02*
D03*
X377690Y96193D02*
D03*
X373775Y98972D02*
D03*
X589764Y56299D02*
D03*
X585039D02*
D03*
X592126Y53150D02*
D03*
X587402D02*
D03*
X582677D02*
D03*
X560236Y57874D02*
D03*
X557323Y60630D02*
D03*
X562205Y127953D02*
D03*
X102756Y169685D02*
D03*
Y166142D02*
D03*
Y162598D02*
D03*
Y155118D02*
D03*
Y151969D02*
D03*
X88189Y130315D02*
D03*
X96063Y134252D02*
D03*
X92126D02*
D03*
Y130315D02*
D03*
X66929Y81890D02*
D03*
Y70079D02*
D03*
X62992Y81890D02*
D03*
Y70079D02*
D03*
X216535Y155905D02*
D03*
X362992Y177559D02*
D03*
X368504D02*
D03*
X365748Y180315D02*
D03*
Y174966D02*
D03*
X208268Y200787D02*
D03*
X239764Y224410D02*
D03*
X235827Y220472D02*
D03*
X239764Y216535D02*
D03*
X235827Y212598D02*
D03*
X239764Y208661D02*
D03*
Y200787D02*
D03*
X235827D02*
D03*
Y204724D02*
D03*
X231890Y200787D02*
D03*
X216142D02*
D03*
X184646Y208268D02*
D03*
Y204724D02*
D03*
Y200787D02*
D03*
X188583D02*
D03*
X192520D02*
D03*
X200394D02*
D03*
Y208268D02*
D03*
X87205Y122047D02*
D03*
X124016Y43307D02*
D03*
X118110D02*
D03*
X112205D02*
D03*
X106299D02*
D03*
X100394D02*
D03*
X100394Y49213D02*
D03*
X106299D02*
D03*
X112205D02*
D03*
X118110D02*
D03*
X124016D02*
D03*
X542913Y77953D02*
D03*
X547244D02*
D03*
X487402Y85433D02*
D03*
X484922Y88551D02*
D03*
X487795Y90945D02*
D03*
X519291Y79528D02*
D03*
X516535Y83465D02*
D03*
X521260D02*
D03*
X513779Y79528D02*
D03*
X511811Y83465D02*
D03*
X504331Y149606D02*
D03*
X503937Y144095D02*
D03*
X573622Y113386D02*
D03*
Y118110D02*
D03*
X577165Y111811D02*
D03*
Y115748D02*
D03*
Y119685D02*
D03*
X562402Y104724D02*
D03*
X525984Y109449D02*
D03*
X419685Y97244D02*
D03*
Y115354D02*
D03*
X484646Y111795D02*
D03*
X502362Y105905D02*
D03*
Y111024D02*
D03*
X497638Y108268D02*
D03*
Y112598D02*
D03*
Y103937D02*
D03*
X500873Y95952D02*
D03*
X515945Y151181D02*
D03*
X517913Y154528D02*
D03*
Y147638D02*
D03*
X527756Y158661D02*
D03*
X562205Y112992D02*
D03*
X546457Y116142D02*
D03*
Y112205D02*
D03*
X542913Y109843D02*
D03*
Y118504D02*
D03*
Y114173D02*
D03*
X532283Y91732D02*
D03*
X516535Y96457D02*
D03*
Y101575D02*
D03*
X520884Y103149D02*
D03*
X520867Y99409D02*
D03*
X574409Y102362D02*
D03*
X542323Y98425D02*
D03*
X520850Y95669D02*
D03*
X524697D02*
D03*
X528543D02*
D03*
X532283D02*
D03*
X520866Y129134D02*
D03*
X500394Y101181D02*
D03*
X497142Y98490D02*
D03*
X497244Y93307D02*
D03*
X491732Y91339D02*
D03*
X161221Y48228D02*
D03*
X511417Y147638D02*
D03*
X508661Y127165D02*
D03*
X529134Y122047D02*
D03*
X525197D02*
D03*
X526772Y125591D02*
D03*
X522441D02*
D03*
X512205Y125394D02*
D03*
Y129134D02*
D03*
X514173Y144882D02*
D03*
X511417Y142126D02*
D03*
X450000Y82677D02*
D03*
X453543Y131890D02*
D03*
X471654Y133071D02*
D03*
Y124803D02*
D03*
X498425Y125197D02*
D03*
X202756Y86614D02*
D03*
X198819D02*
D03*
X194882D02*
D03*
X190945D02*
D03*
X187008D02*
D03*
X504134Y74016D02*
D03*
X499803D02*
D03*
X532283D02*
D03*
X536614D02*
D03*
X542323Y136614D02*
D03*
X546063D02*
D03*
X500984Y147638D02*
D03*
Y141732D02*
D03*
X482283Y108661D02*
D03*
X476378D02*
D03*
X470472D02*
D03*
X482283Y94882D02*
D03*
X476378D02*
D03*
X470472D02*
D03*
X350394Y138583D02*
D03*
X281102Y164567D02*
D03*
X270866Y151772D02*
D03*
X318440Y158853D02*
D03*
X318446Y154857D02*
D03*
X314961Y157480D02*
D03*
X297351Y153256D02*
D03*
X310236Y152362D02*
D03*
X314967Y153484D02*
D03*
X333661Y102559D02*
D03*
X333661Y108071D02*
D03*
X276181Y100000D02*
D03*
X279134Y112992D02*
D03*
X276181Y110433D02*
D03*
X276181Y115945D02*
D03*
X228346Y113386D02*
D03*
X244094Y78740D02*
D03*
X236221D02*
D03*
X240158D02*
D03*
Y82677D02*
D03*
Y74803D02*
D03*
X236221D02*
D03*
X244094D02*
D03*
Y82677D02*
D03*
X236221D02*
D03*
X242638Y108543D02*
D03*
X215158Y108465D02*
D03*
X213583Y90551D02*
D03*
Y94488D02*
D03*
X194882Y102362D02*
D03*
X200787D02*
D03*
X188976Y102756D02*
D03*
X208169Y99311D02*
D03*
X92520Y44291D02*
D03*
X95669Y102362D02*
D03*
X99606D02*
D03*
X103543D02*
D03*
Y88583D02*
D03*
X99606D02*
D03*
X95669D02*
D03*
X103347Y53150D02*
D03*
Y57087D02*
D03*
X87008Y116142D02*
D03*
Y110236D02*
D03*
X99213Y135827D02*
D03*
X96063Y75984D02*
D03*
Y83465D02*
D03*
X97441Y68898D02*
D03*
X127067Y162795D02*
D03*
X131004D02*
D03*
X126969Y156102D02*
D03*
X130905D02*
D03*
Y150984D02*
D03*
X126969D02*
D03*
X123031Y145669D02*
D03*
X126969D02*
D03*
Y139764D02*
D03*
X123031D02*
D03*
X114764Y124606D02*
D03*
Y119488D02*
D03*
X109646D02*
D03*
Y124606D02*
D03*
X104527Y119488D02*
D03*
Y124606D02*
D03*
X119882Y119488D02*
D03*
Y124606D02*
D03*
X107087Y107087D02*
D03*
X103347Y61024D02*
D03*
Y64961D02*
D03*
X111221Y68898D02*
D03*
Y72835D02*
D03*
Y75787D02*
D03*
Y79724D02*
D03*
Y82677D02*
D03*
Y86614D02*
D03*
X327953Y122047D02*
D03*
X315342Y121933D02*
D03*
X305906Y121290D02*
D03*
X307874Y118110D02*
D03*
X340158Y153543D02*
D03*
Y147638D02*
D03*
X267520Y166732D02*
D03*
X298622Y118504D02*
D03*
X312008Y117126D02*
D03*
X320866Y134252D02*
D03*
Y137008D02*
D03*
X274606Y126378D02*
D03*
Y131299D02*
D03*
Y138189D02*
D03*
Y143110D02*
D03*
X340551Y118701D02*
D03*
Y113779D02*
D03*
Y130512D02*
D03*
Y125591D02*
D03*
X334646Y137795D02*
D03*
Y132874D02*
D03*
X309055Y104331D02*
D03*
X305118D02*
D03*
X299213D02*
D03*
X295276D02*
D03*
X290551Y122441D02*
D03*
X297598Y129724D02*
D03*
Y133405D02*
D03*
X294094D02*
D03*
X297598Y141929D02*
D03*
Y138248D02*
D03*
X294094D02*
D03*
X306732Y141929D02*
D03*
Y138248D02*
D03*
X310236D02*
D03*
X306732Y129724D02*
D03*
Y133405D02*
D03*
X310236D02*
D03*
X302165Y141929D02*
D03*
Y138248D02*
D03*
Y129724D02*
D03*
Y133405D02*
D03*
X632677Y382480D02*
D03*
X122441Y364567D02*
D03*
X147835Y380512D02*
D03*
X107087Y377559D02*
D03*
X76968Y387598D02*
D03*
X63681Y332382D02*
D03*
X32283Y351969D02*
D03*
X73622Y354724D02*
D03*
X80709Y378740D02*
D03*
X73228D02*
D03*
X45079Y364173D02*
D03*
X55118Y368110D02*
D03*
X647835Y340748D02*
D03*
X667323Y350394D02*
D03*
X640158Y342126D02*
D03*
X616535Y338189D02*
D03*
Y334252D02*
D03*
X555283Y352362D02*
D03*
Y356267D02*
D03*
X382283Y299213D02*
D03*
Y307087D02*
D03*
Y314961D02*
D03*
X394094Y314567D02*
D03*
Y310630D02*
D03*
Y306693D02*
D03*
Y298819D02*
D03*
X419291D02*
D03*
X421260Y346457D02*
D03*
X216535Y377953D02*
D03*
Y346457D02*
D03*
X248031D02*
D03*
X224409Y338583D02*
D03*
X240157D02*
D03*
X224409Y385827D02*
D03*
X240157D02*
D03*
X263779Y346457D02*
D03*
Y362205D02*
D03*
Y377953D02*
D03*
X279527Y346457D02*
D03*
Y362205D02*
D03*
Y377953D02*
D03*
X295275Y346457D02*
D03*
Y362205D02*
D03*
Y377953D02*
D03*
X311024Y346457D02*
D03*
Y362205D02*
D03*
Y377953D02*
D03*
X326772Y346457D02*
D03*
Y362205D02*
D03*
Y377953D02*
D03*
X342520Y346457D02*
D03*
Y362205D02*
D03*
X358268Y346457D02*
D03*
Y362205D02*
D03*
X374016Y346457D02*
D03*
Y362205D02*
D03*
Y377953D02*
D03*
X255905Y338583D02*
D03*
Y354331D02*
D03*
Y370079D02*
D03*
Y385827D02*
D03*
X271654Y338583D02*
D03*
Y354331D02*
D03*
Y370079D02*
D03*
Y385827D02*
D03*
X287402Y338583D02*
D03*
Y354331D02*
D03*
Y370079D02*
D03*
Y385827D02*
D03*
X303150Y338583D02*
D03*
Y354331D02*
D03*
Y370079D02*
D03*
Y385827D02*
D03*
X318898Y338583D02*
D03*
Y354331D02*
D03*
Y370079D02*
D03*
Y385827D02*
D03*
X334646Y338583D02*
D03*
Y354331D02*
D03*
X350394Y338583D02*
D03*
Y354331D02*
D03*
X366142Y338583D02*
D03*
Y354331D02*
D03*
Y370079D02*
D03*
Y385827D02*
D03*
X551181Y378740D02*
D03*
X545276D02*
D03*
X594488Y368898D02*
D03*
X528346Y375197D02*
D03*
X516929D02*
D03*
X528346Y388189D02*
D03*
X516929D02*
D03*
X532283Y377559D02*
D03*
X563779Y370866D02*
D03*
X605118Y282677D02*
D03*
X602756Y279528D02*
D03*
X596457Y327559D02*
D03*
Y323622D02*
D03*
X587402Y344488D02*
D03*
X609449Y342913D02*
D03*
X585039Y374016D02*
D03*
X623032Y309055D02*
D03*
Y312992D02*
D03*
X619095D02*
D03*
X615158D02*
D03*
X611221Y309055D02*
D03*
Y312992D02*
D03*
X607283D02*
D03*
X603346D02*
D03*
X599409D02*
D03*
Y309055D02*
D03*
X622047Y205709D02*
D03*
X618110D02*
D03*
X622047Y201772D02*
D03*
X618110D02*
D03*
X622047Y197835D02*
D03*
X618110D02*
D03*
X606299Y205709D02*
D03*
Y201772D02*
D03*
Y197835D02*
D03*
X633858Y205709D02*
D03*
Y201772D02*
D03*
Y197835D02*
D03*
Y193898D02*
D03*
X629921D02*
D03*
X625984D02*
D03*
X622047D02*
D03*
X618110D02*
D03*
X614173D02*
D03*
X610236D02*
D03*
X606299D02*
D03*
X569882Y226378D02*
D03*
X554134D02*
D03*
X585630Y210630D02*
D03*
X577756Y218504D02*
D03*
X569882Y210630D02*
D03*
X562008Y218504D02*
D03*
X546260D02*
D03*
X554134Y210630D02*
D03*
X467520Y202756D02*
D03*
X483268D02*
D03*
X499016D02*
D03*
X514764D02*
D03*
X530512D02*
D03*
X546260D02*
D03*
X562008D02*
D03*
X577756D02*
D03*
X593504D02*
D03*
X601378Y194882D02*
D03*
X585630D02*
D03*
X569882D02*
D03*
X554134D02*
D03*
X538386D02*
D03*
X522638D02*
D03*
X506890D02*
D03*
X491142D02*
D03*
X475394D02*
D03*
X459646Y226378D02*
D03*
Y210630D02*
D03*
Y194882D02*
D03*
X46850Y240158D02*
D03*
Y224410D02*
D03*
Y208661D02*
D03*
Y192913D02*
D03*
X31102Y240158D02*
D03*
Y192913D02*
D03*
Y208661D02*
D03*
Y224410D02*
D03*
X38976Y248031D02*
D03*
Y232283D02*
D03*
Y216535D02*
D03*
Y200787D02*
D03*
X7480Y248031D02*
D03*
Y232283D02*
D03*
Y216535D02*
D03*
Y200787D02*
D03*
X15354Y240158D02*
D03*
Y224410D02*
D03*
Y208661D02*
D03*
X23228Y232283D02*
D03*
Y216535D02*
D03*
Y200787D02*
D03*
X15354Y192913D02*
D03*
X7480Y185039D02*
D03*
X23228D02*
D03*
X38976D02*
D03*
X120472Y379134D02*
D03*
X125197D02*
D03*
X50394Y353543D02*
D03*
X45669D02*
D03*
X68504Y328740D02*
D03*
X71260Y325984D02*
D03*
X84646Y349606D02*
D03*
X159843Y372835D02*
D03*
X413386Y385827D02*
D03*
X381890D02*
D03*
X397638D02*
D03*
X413386Y370079D02*
D03*
X381890D02*
D03*
X397638D02*
D03*
X405512Y377953D02*
D03*
X389764D02*
D03*
X405512Y362205D02*
D03*
X389764D02*
D03*
X405512Y346457D02*
D03*
X413386Y354331D02*
D03*
X397638D02*
D03*
X389764Y346457D02*
D03*
X381890Y354331D02*
D03*
X452756Y346457D02*
D03*
X444882Y338583D02*
D03*
X429134D02*
D03*
X413386D02*
D03*
X397638D02*
D03*
X381890D02*
D03*
X484252Y330709D02*
D03*
X468504D02*
D03*
X452756D02*
D03*
X437008D02*
D03*
X421260D02*
D03*
X405512D02*
D03*
X389764D02*
D03*
X493110Y322835D02*
D03*
X476378D02*
D03*
X460630D02*
D03*
X444882D02*
D03*
X429134D02*
D03*
X413386D02*
D03*
X397638D02*
D03*
X381890D02*
D03*
X419291Y302756D02*
D03*
X386221Y295276D02*
D03*
X390158Y299213D02*
D03*
Y307087D02*
D03*
Y314961D02*
D03*
X394094Y302756D02*
D03*
X386221Y303150D02*
D03*
Y311024D02*
D03*
X398031Y314961D02*
D03*
X413779D02*
D03*
X405905D02*
D03*
X417717D02*
D03*
X419291Y306693D02*
D03*
Y310630D02*
D03*
X409842Y314961D02*
D03*
X401968D02*
D03*
X161417Y297244D02*
D03*
X156890Y315945D02*
D03*
Y312008D02*
D03*
Y308071D02*
D03*
Y304134D02*
D03*
X160827D02*
D03*
Y308071D02*
D03*
Y312008D02*
D03*
Y315945D02*
D03*
X141929Y312008D02*
D03*
Y308071D02*
D03*
Y304134D02*
D03*
Y315945D02*
D03*
X512401Y207677D02*
D03*
Y211614D02*
D03*
Y215551D02*
D03*
Y219488D02*
D03*
X508464D02*
D03*
Y215551D02*
D03*
Y211614D02*
D03*
Y207677D02*
D03*
X527362Y211614D02*
D03*
Y215551D02*
D03*
Y219488D02*
D03*
X531299D02*
D03*
Y215551D02*
D03*
Y211614D02*
D03*
Y207677D02*
D03*
X527362D02*
D03*
X468111Y207677D02*
D03*
Y211614D02*
D03*
Y215551D02*
D03*
Y219488D02*
D03*
X464174D02*
D03*
Y215551D02*
D03*
Y211614D02*
D03*
Y207677D02*
D03*
X483071Y211614D02*
D03*
Y215551D02*
D03*
Y219488D02*
D03*
X487008D02*
D03*
Y215551D02*
D03*
Y211614D02*
D03*
Y207677D02*
D03*
X483071D02*
D03*
X523031Y328740D02*
D03*
Y324803D02*
D03*
Y320866D02*
D03*
Y316929D02*
D03*
X526968D02*
D03*
Y320866D02*
D03*
Y324803D02*
D03*
Y328740D02*
D03*
X508071Y324803D02*
D03*
Y320866D02*
D03*
Y316929D02*
D03*
X504134D02*
D03*
Y320866D02*
D03*
Y324803D02*
D03*
Y328740D02*
D03*
X508071D02*
D03*
X449213Y313976D02*
D03*
X464961D02*
D03*
X480709D02*
D03*
X488583D02*
D03*
Y310039D02*
D03*
X480709D02*
D03*
X476772D02*
D03*
X484646D02*
D03*
X472835D02*
D03*
X468898D02*
D03*
X464961D02*
D03*
X461024D02*
D03*
X457087D02*
D03*
X453150D02*
D03*
X449213D02*
D03*
X476772Y313976D02*
D03*
X461024D02*
D03*
X484646D02*
D03*
X468898D02*
D03*
X472835D02*
D03*
X453150D02*
D03*
X457087D02*
D03*
X477264Y270669D02*
D03*
X503051D02*
D03*
X118898Y356102D02*
D03*
X115157Y356102D02*
D03*
X176772Y212598D02*
D03*
X180709D02*
D03*
X161024D02*
D03*
X164961D02*
D03*
X149213D02*
D03*
X66535D02*
D03*
X82284D02*
D03*
X98032D02*
D03*
X113779D02*
D03*
X129528D02*
D03*
X126772Y192913D02*
D03*
X130709D02*
D03*
Y196850D02*
D03*
Y200787D02*
D03*
Y204724D02*
D03*
X126772D02*
D03*
Y200787D02*
D03*
Y196850D02*
D03*
X107874Y192913D02*
D03*
Y196850D02*
D03*
Y200787D02*
D03*
Y204724D02*
D03*
X111811D02*
D03*
Y200787D02*
D03*
Y196850D02*
D03*
Y192913D02*
D03*
X86221D02*
D03*
Y196850D02*
D03*
Y200787D02*
D03*
Y204724D02*
D03*
X63386D02*
D03*
Y200787D02*
D03*
Y196850D02*
D03*
Y192913D02*
D03*
X67323D02*
D03*
Y196850D02*
D03*
Y200787D02*
D03*
Y204724D02*
D03*
X82284D02*
D03*
Y200787D02*
D03*
Y196850D02*
D03*
Y192913D02*
D03*
X94095D02*
D03*
X141339D02*
D03*
X54724Y185039D02*
D03*
X70473D02*
D03*
X86221D02*
D03*
X101969D02*
D03*
X117717D02*
D03*
X133465D02*
D03*
X196457Y208268D02*
D03*
X192520D02*
D03*
Y204724D02*
D03*
X196457D02*
D03*
X200394D02*
D03*
X157087Y212598D02*
D03*
X184646Y216535D02*
D03*
X180709D02*
D03*
X176772D02*
D03*
X168898D02*
D03*
X164961D02*
D03*
X161024D02*
D03*
X149213D02*
D03*
X157087D02*
D03*
X153150D02*
D03*
X145276D02*
D03*
X227953Y204724D02*
D03*
X210630Y209055D02*
D03*
Y212992D02*
D03*
X212205Y204724D02*
D03*
X188583D02*
D03*
X212205Y185039D02*
D03*
X149213D02*
D03*
X164961D02*
D03*
X180709D02*
D03*
X196457D02*
D03*
X227953D02*
D03*
X243701D02*
D03*
X188583Y192913D02*
D03*
X172835D02*
D03*
X157087D02*
D03*
X180709Y200787D02*
D03*
X164961D02*
D03*
X149213D02*
D03*
X164961Y208661D02*
D03*
X157087D02*
D03*
X149213D02*
D03*
X145276Y212598D02*
D03*
X153150D02*
D03*
X168898D02*
D03*
X184646D02*
D03*
X180709Y208661D02*
D03*
X188583Y208268D02*
D03*
X196457Y200787D02*
D03*
X204331Y192913D02*
D03*
X235827D02*
D03*
X216142Y204724D02*
D03*
X208268D02*
D03*
X212205Y200787D02*
D03*
X227953D02*
D03*
X231890Y204724D02*
D03*
X243701Y200787D02*
D03*
Y208661D02*
D03*
Y216535D02*
D03*
X235827D02*
D03*
Y208661D02*
D03*
X239764Y204724D02*
D03*
Y212598D02*
D03*
Y220472D02*
D03*
X243701Y224410D02*
D03*
X235827D02*
D03*
X165354Y293307D02*
D03*
X169291Y297244D02*
D03*
Y305118D02*
D03*
X165354Y301181D02*
D03*
Y309055D02*
D03*
X169291Y312992D02*
D03*
X165354Y316929D02*
D03*
X152657Y253543D02*
D03*
X126870D02*
D03*
X210630Y216929D02*
D03*
D139*
X284252Y128740D02*
D03*
X325590Y125984D02*
D03*
X332677Y118898D02*
D03*
X344488Y368110D02*
D03*
X334646Y377953D02*
D03*
X354331D02*
D03*
X344488Y387795D02*
D03*
X351448Y370993D02*
D03*
X337528D02*
D03*
X351448Y384912D02*
D03*
X337528D02*
D03*
X344488Y5906D02*
D03*
X334646Y15748D02*
D03*
X354331D02*
D03*
X344488Y25591D02*
D03*
X351448Y8788D02*
D03*
X337528D02*
D03*
X351448Y22708D02*
D03*
X337528D02*
D03*
X334055Y96260D02*
D03*
X276181Y104134D02*
D03*
X276181Y122244D02*
D03*
X424606Y306693D02*
D03*
X449213Y267215D02*
D03*
Y262598D02*
D03*
X206299Y216929D02*
D03*
X180709Y266929D02*
D03*
Y262313D02*
D03*
X673228Y5906D02*
D03*
X663386Y15748D02*
D03*
X683071D02*
D03*
X673228Y25591D02*
D03*
X680188Y8788D02*
D03*
X666269D02*
D03*
X680188Y22708D02*
D03*
X666269D02*
D03*
X15748Y5906D02*
D03*
X5906Y15748D02*
D03*
X25591D02*
D03*
X15748Y25591D02*
D03*
X22708Y8788D02*
D03*
X8788D02*
D03*
X22708Y22708D02*
D03*
X8788D02*
D03*
X673228Y368110D02*
D03*
X663386Y377953D02*
D03*
X683071D02*
D03*
X673228Y387795D02*
D03*
X680188Y370993D02*
D03*
X666269D02*
D03*
X680188Y384912D02*
D03*
X666269D02*
D03*
X15748Y368110D02*
D03*
X5906Y377953D02*
D03*
X25591D02*
D03*
X15748Y387795D02*
D03*
X22708Y370993D02*
D03*
X8788D02*
D03*
X22708Y384912D02*
D03*
X8788D02*
D03*
M02*
