G04*
G04 #@! TF.GenerationSoftware,Altium Limited,Altium Designer,24.10.1 (45)*
G04*
G04 Layer_Physical_Order=1*
G04 Layer_Color=255*
%FSLAX25Y25*%
%MOIN*%
G70*
G04*
G04 #@! TF.SameCoordinates,2ED57A9A-72F5-4DC9-83BB-2DC3BA24BD7A*
G04*
G04*
G04 #@! TF.FilePolarity,Positive*
G04*
G01*
G75*
%ADD10C,0.00984*%
%ADD11C,0.01181*%
%ADD15C,0.01000*%
G04:AMPARAMS|DCode=20|XSize=62.99mil|YSize=55.12mil|CornerRadius=4.13mil|HoleSize=0mil|Usage=FLASHONLY|Rotation=90.000|XOffset=0mil|YOffset=0mil|HoleType=Round|Shape=RoundedRectangle|*
%AMROUNDEDRECTD20*
21,1,0.06299,0.04685,0,0,90.0*
21,1,0.05472,0.05512,0,0,90.0*
1,1,0.00827,0.02343,0.02736*
1,1,0.00827,0.02343,-0.02736*
1,1,0.00827,-0.02343,-0.02736*
1,1,0.00827,-0.02343,0.02736*
%
%ADD20ROUNDEDRECTD20*%
G04:AMPARAMS|DCode=21|XSize=104.33mil|YSize=141.73mil|CornerRadius=1.97mil|HoleSize=0mil|Usage=FLASHONLY|Rotation=270.000|XOffset=0mil|YOffset=0mil|HoleType=Round|Shape=RoundedRectangle|*
%AMROUNDEDRECTD21*
21,1,0.10433,0.13780,0,0,270.0*
21,1,0.10039,0.14173,0,0,270.0*
1,1,0.00394,-0.06890,-0.05020*
1,1,0.00394,-0.06890,0.05020*
1,1,0.00394,0.06890,0.05020*
1,1,0.00394,0.06890,-0.05020*
%
%ADD21ROUNDEDRECTD21*%
G04:AMPARAMS|DCode=22|XSize=43.31mil|YSize=35.43mil|CornerRadius=2.66mil|HoleSize=0mil|Usage=FLASHONLY|Rotation=270.000|XOffset=0mil|YOffset=0mil|HoleType=Round|Shape=RoundedRectangle|*
%AMROUNDEDRECTD22*
21,1,0.04331,0.03012,0,0,270.0*
21,1,0.03799,0.03543,0,0,270.0*
1,1,0.00532,-0.01506,-0.01900*
1,1,0.00532,-0.01506,0.01900*
1,1,0.00532,0.01506,0.01900*
1,1,0.00532,0.01506,-0.01900*
%
%ADD22ROUNDEDRECTD22*%
G04:AMPARAMS|DCode=23|XSize=25.59mil|YSize=37.4mil|CornerRadius=3.2mil|HoleSize=0mil|Usage=FLASHONLY|Rotation=270.000|XOffset=0mil|YOffset=0mil|HoleType=Round|Shape=RoundedRectangle|*
%AMROUNDEDRECTD23*
21,1,0.02559,0.03100,0,0,270.0*
21,1,0.01919,0.03740,0,0,270.0*
1,1,0.00640,-0.01550,-0.00960*
1,1,0.00640,-0.01550,0.00960*
1,1,0.00640,0.01550,0.00960*
1,1,0.00640,0.01550,-0.00960*
%
%ADD23ROUNDEDRECTD23*%
G04:AMPARAMS|DCode=24|XSize=51.18mil|YSize=51.18mil|CornerRadius=5.12mil|HoleSize=0mil|Usage=FLASHONLY|Rotation=270.000|XOffset=0mil|YOffset=0mil|HoleType=Round|Shape=RoundedRectangle|*
%AMROUNDEDRECTD24*
21,1,0.05118,0.04095,0,0,270.0*
21,1,0.04095,0.05118,0,0,270.0*
1,1,0.01024,-0.02047,-0.02047*
1,1,0.01024,-0.02047,0.02047*
1,1,0.01024,0.02047,0.02047*
1,1,0.01024,0.02047,-0.02047*
%
%ADD24ROUNDEDRECTD24*%
G04:AMPARAMS|DCode=25|XSize=43.31mil|YSize=35.43mil|CornerRadius=2.66mil|HoleSize=0mil|Usage=FLASHONLY|Rotation=180.000|XOffset=0mil|YOffset=0mil|HoleType=Round|Shape=RoundedRectangle|*
%AMROUNDEDRECTD25*
21,1,0.04331,0.03012,0,0,180.0*
21,1,0.03799,0.03543,0,0,180.0*
1,1,0.00532,-0.01900,0.01506*
1,1,0.00532,0.01900,0.01506*
1,1,0.00532,0.01900,-0.01506*
1,1,0.00532,-0.01900,-0.01506*
%
%ADD25ROUNDEDRECTD25*%
G04:AMPARAMS|DCode=26|XSize=25.59mil|YSize=37.4mil|CornerRadius=3.2mil|HoleSize=0mil|Usage=FLASHONLY|Rotation=180.000|XOffset=0mil|YOffset=0mil|HoleType=Round|Shape=RoundedRectangle|*
%AMROUNDEDRECTD26*
21,1,0.02559,0.03100,0,0,180.0*
21,1,0.01919,0.03740,0,0,180.0*
1,1,0.00640,-0.00960,0.01550*
1,1,0.00640,0.00960,0.01550*
1,1,0.00640,0.00960,-0.01550*
1,1,0.00640,-0.00960,-0.01550*
%
%ADD26ROUNDEDRECTD26*%
G04:AMPARAMS|DCode=27|XSize=31.5mil|YSize=35.43mil|CornerRadius=3.94mil|HoleSize=0mil|Usage=FLASHONLY|Rotation=0.000|XOffset=0mil|YOffset=0mil|HoleType=Round|Shape=RoundedRectangle|*
%AMROUNDEDRECTD27*
21,1,0.03150,0.02756,0,0,0.0*
21,1,0.02362,0.03543,0,0,0.0*
1,1,0.00787,0.01181,-0.01378*
1,1,0.00787,-0.01181,-0.01378*
1,1,0.00787,-0.01181,0.01378*
1,1,0.00787,0.01181,0.01378*
%
%ADD27ROUNDEDRECTD27*%
G04:AMPARAMS|DCode=28|XSize=43.31mil|YSize=35.43mil|CornerRadius=3.54mil|HoleSize=0mil|Usage=FLASHONLY|Rotation=270.000|XOffset=0mil|YOffset=0mil|HoleType=Round|Shape=RoundedRectangle|*
%AMROUNDEDRECTD28*
21,1,0.04331,0.02835,0,0,270.0*
21,1,0.03622,0.03543,0,0,270.0*
1,1,0.00709,-0.01417,-0.01811*
1,1,0.00709,-0.01417,0.01811*
1,1,0.00709,0.01417,0.01811*
1,1,0.00709,0.01417,-0.01811*
%
%ADD28ROUNDEDRECTD28*%
G04:AMPARAMS|DCode=29|XSize=74.8mil|YSize=55.12mil|CornerRadius=6.89mil|HoleSize=0mil|Usage=FLASHONLY|Rotation=270.000|XOffset=0mil|YOffset=0mil|HoleType=Round|Shape=RoundedRectangle|*
%AMROUNDEDRECTD29*
21,1,0.07480,0.04134,0,0,270.0*
21,1,0.06102,0.05512,0,0,270.0*
1,1,0.01378,-0.02067,-0.03051*
1,1,0.01378,-0.02067,0.03051*
1,1,0.01378,0.02067,0.03051*
1,1,0.01378,0.02067,-0.03051*
%
%ADD29ROUNDEDRECTD29*%
G04:AMPARAMS|DCode=30|XSize=22.64mil|YSize=44.88mil|CornerRadius=1.7mil|HoleSize=0mil|Usage=FLASHONLY|Rotation=90.000|XOffset=0mil|YOffset=0mil|HoleType=Round|Shape=RoundedRectangle|*
%AMROUNDEDRECTD30*
21,1,0.02264,0.04149,0,0,90.0*
21,1,0.01924,0.04488,0,0,90.0*
1,1,0.00340,0.02074,0.00962*
1,1,0.00340,0.02074,-0.00962*
1,1,0.00340,-0.02074,-0.00962*
1,1,0.00340,-0.02074,0.00962*
%
%ADD30ROUNDEDRECTD30*%
G04:AMPARAMS|DCode=31|XSize=11.81mil|YSize=47.24mil|CornerRadius=1.48mil|HoleSize=0mil|Usage=FLASHONLY|Rotation=90.000|XOffset=0mil|YOffset=0mil|HoleType=Round|Shape=RoundedRectangle|*
%AMROUNDEDRECTD31*
21,1,0.01181,0.04429,0,0,90.0*
21,1,0.00886,0.04724,0,0,90.0*
1,1,0.00295,0.02215,0.00443*
1,1,0.00295,0.02215,-0.00443*
1,1,0.00295,-0.02215,-0.00443*
1,1,0.00295,-0.02215,0.00443*
%
%ADD31ROUNDEDRECTD31*%
G04:AMPARAMS|DCode=32|XSize=11.81mil|YSize=47.24mil|CornerRadius=1.48mil|HoleSize=0mil|Usage=FLASHONLY|Rotation=0.000|XOffset=0mil|YOffset=0mil|HoleType=Round|Shape=RoundedRectangle|*
%AMROUNDEDRECTD32*
21,1,0.01181,0.04429,0,0,0.0*
21,1,0.00886,0.04724,0,0,0.0*
1,1,0.00295,0.00443,-0.02215*
1,1,0.00295,-0.00443,-0.02215*
1,1,0.00295,-0.00443,0.02215*
1,1,0.00295,0.00443,0.02215*
%
%ADD32ROUNDEDRECTD32*%
G04:AMPARAMS|DCode=33|XSize=43.31mil|YSize=35.43mil|CornerRadius=3.54mil|HoleSize=0mil|Usage=FLASHONLY|Rotation=0.000|XOffset=0mil|YOffset=0mil|HoleType=Round|Shape=RoundedRectangle|*
%AMROUNDEDRECTD33*
21,1,0.04331,0.02835,0,0,0.0*
21,1,0.03622,0.03543,0,0,0.0*
1,1,0.00709,0.01811,-0.01417*
1,1,0.00709,-0.01811,-0.01417*
1,1,0.00709,-0.01811,0.01417*
1,1,0.00709,0.01811,0.01417*
%
%ADD33ROUNDEDRECTD33*%
G04:AMPARAMS|DCode=34|XSize=43.31mil|YSize=133.86mil|CornerRadius=1.97mil|HoleSize=0mil|Usage=FLASHONLY|Rotation=0.000|XOffset=0mil|YOffset=0mil|HoleType=Round|Shape=RoundedRectangle|*
%AMROUNDEDRECTD34*
21,1,0.04331,0.12992,0,0,0.0*
21,1,0.03937,0.13386,0,0,0.0*
1,1,0.00394,0.01968,-0.06496*
1,1,0.00394,-0.01968,-0.06496*
1,1,0.00394,-0.01968,0.06496*
1,1,0.00394,0.01968,0.06496*
%
%ADD34ROUNDEDRECTD34*%
G04:AMPARAMS|DCode=35|XSize=62.99mil|YSize=124.02mil|CornerRadius=4.72mil|HoleSize=0mil|Usage=FLASHONLY|Rotation=0.000|XOffset=0mil|YOffset=0mil|HoleType=Round|Shape=RoundedRectangle|*
%AMROUNDEDRECTD35*
21,1,0.06299,0.11457,0,0,0.0*
21,1,0.05354,0.12402,0,0,0.0*
1,1,0.00945,0.02677,-0.05728*
1,1,0.00945,-0.02677,-0.05728*
1,1,0.00945,-0.02677,0.05728*
1,1,0.00945,0.02677,0.05728*
%
%ADD35ROUNDEDRECTD35*%
G04:AMPARAMS|DCode=36|XSize=55.12mil|YSize=35.43mil|CornerRadius=2.66mil|HoleSize=0mil|Usage=FLASHONLY|Rotation=90.000|XOffset=0mil|YOffset=0mil|HoleType=Round|Shape=RoundedRectangle|*
%AMROUNDEDRECTD36*
21,1,0.05512,0.03012,0,0,90.0*
21,1,0.04980,0.03543,0,0,90.0*
1,1,0.00532,0.01506,0.02490*
1,1,0.00532,0.01506,-0.02490*
1,1,0.00532,-0.01506,-0.02490*
1,1,0.00532,-0.01506,0.02490*
%
%ADD36ROUNDEDRECTD36*%
G04:AMPARAMS|DCode=37|XSize=23.62mil|YSize=39.37mil|CornerRadius=2.01mil|HoleSize=0mil|Usage=FLASHONLY|Rotation=270.000|XOffset=0mil|YOffset=0mil|HoleType=Round|Shape=RoundedRectangle|*
%AMROUNDEDRECTD37*
21,1,0.02362,0.03535,0,0,270.0*
21,1,0.01961,0.03937,0,0,270.0*
1,1,0.00402,-0.01768,-0.00980*
1,1,0.00402,-0.01768,0.00980*
1,1,0.00402,0.01768,0.00980*
1,1,0.00402,0.01768,-0.00980*
%
%ADD37ROUNDEDRECTD37*%
G04:AMPARAMS|DCode=38|XSize=49.21mil|YSize=102.36mil|CornerRadius=3.69mil|HoleSize=0mil|Usage=FLASHONLY|Rotation=0.000|XOffset=0mil|YOffset=0mil|HoleType=Round|Shape=RoundedRectangle|*
%AMROUNDEDRECTD38*
21,1,0.04921,0.09498,0,0,0.0*
21,1,0.04183,0.10236,0,0,0.0*
1,1,0.00738,0.02092,-0.04749*
1,1,0.00738,-0.02092,-0.04749*
1,1,0.00738,-0.02092,0.04749*
1,1,0.00738,0.02092,0.04749*
%
%ADD38ROUNDEDRECTD38*%
G04:AMPARAMS|DCode=39|XSize=218.5mil|YSize=224.41mil|CornerRadius=5.46mil|HoleSize=0mil|Usage=FLASHONLY|Rotation=0.000|XOffset=0mil|YOffset=0mil|HoleType=Round|Shape=RoundedRectangle|*
%AMROUNDEDRECTD39*
21,1,0.21850,0.21348,0,0,0.0*
21,1,0.20758,0.22441,0,0,0.0*
1,1,0.01093,0.10379,-0.10674*
1,1,0.01093,-0.10379,-0.10674*
1,1,0.01093,-0.10379,0.10674*
1,1,0.01093,0.10379,0.10674*
%
%ADD39ROUNDEDRECTD39*%
G04:AMPARAMS|DCode=40|XSize=55.12mil|YSize=35.43mil|CornerRadius=2.66mil|HoleSize=0mil|Usage=FLASHONLY|Rotation=180.000|XOffset=0mil|YOffset=0mil|HoleType=Round|Shape=RoundedRectangle|*
%AMROUNDEDRECTD40*
21,1,0.05512,0.03012,0,0,180.0*
21,1,0.04980,0.03543,0,0,180.0*
1,1,0.00532,-0.02490,0.01506*
1,1,0.00532,0.02490,0.01506*
1,1,0.00532,0.02490,-0.01506*
1,1,0.00532,-0.02490,-0.01506*
%
%ADD40ROUNDEDRECTD40*%
G04:AMPARAMS|DCode=41|XSize=62.99mil|YSize=124.02mil|CornerRadius=4.72mil|HoleSize=0mil|Usage=FLASHONLY|Rotation=90.000|XOffset=0mil|YOffset=0mil|HoleType=Round|Shape=RoundedRectangle|*
%AMROUNDEDRECTD41*
21,1,0.06299,0.11457,0,0,90.0*
21,1,0.05354,0.12402,0,0,90.0*
1,1,0.00945,0.05728,0.02677*
1,1,0.00945,0.05728,-0.02677*
1,1,0.00945,-0.05728,-0.02677*
1,1,0.00945,-0.05728,0.02677*
%
%ADD41ROUNDEDRECTD41*%
G04:AMPARAMS|DCode=42|XSize=74.8mil|YSize=68.9mil|CornerRadius=6.89mil|HoleSize=0mil|Usage=FLASHONLY|Rotation=270.000|XOffset=0mil|YOffset=0mil|HoleType=Round|Shape=RoundedRectangle|*
%AMROUNDEDRECTD42*
21,1,0.07480,0.05512,0,0,270.0*
21,1,0.06102,0.06890,0,0,270.0*
1,1,0.01378,-0.02756,-0.03051*
1,1,0.01378,-0.02756,0.03051*
1,1,0.01378,0.02756,0.03051*
1,1,0.01378,0.02756,-0.03051*
%
%ADD42ROUNDEDRECTD42*%
G04:AMPARAMS|DCode=43|XSize=98.43mil|YSize=66.93mil|CornerRadius=1.97mil|HoleSize=0mil|Usage=FLASHONLY|Rotation=180.000|XOffset=0mil|YOffset=0mil|HoleType=Round|Shape=RoundedRectangle|*
%AMROUNDEDRECTD43*
21,1,0.09843,0.06299,0,0,180.0*
21,1,0.09449,0.06693,0,0,180.0*
1,1,0.00394,-0.04724,0.03150*
1,1,0.00394,0.04724,0.03150*
1,1,0.00394,0.04724,-0.03150*
1,1,0.00394,-0.04724,-0.03150*
%
%ADD43ROUNDEDRECTD43*%
G04:AMPARAMS|DCode=44|XSize=23.62mil|YSize=61.02mil|CornerRadius=2.95mil|HoleSize=0mil|Usage=FLASHONLY|Rotation=0.000|XOffset=0mil|YOffset=0mil|HoleType=Round|Shape=RoundedRectangle|*
%AMROUNDEDRECTD44*
21,1,0.02362,0.05512,0,0,0.0*
21,1,0.01772,0.06102,0,0,0.0*
1,1,0.00591,0.00886,-0.02756*
1,1,0.00591,-0.00886,-0.02756*
1,1,0.00591,-0.00886,0.02756*
1,1,0.00591,0.00886,0.02756*
%
%ADD44ROUNDEDRECTD44*%
G04:AMPARAMS|DCode=45|XSize=30mil|YSize=145.98mil|CornerRadius=2.25mil|HoleSize=0mil|Usage=FLASHONLY|Rotation=0.000|XOffset=0mil|YOffset=0mil|HoleType=Round|Shape=RoundedRectangle|*
%AMROUNDEDRECTD45*
21,1,0.03000,0.14148,0,0,0.0*
21,1,0.02550,0.14598,0,0,0.0*
1,1,0.00450,0.01275,-0.07074*
1,1,0.00450,-0.01275,-0.07074*
1,1,0.00450,-0.01275,0.07074*
1,1,0.00450,0.01275,0.07074*
%
%ADD45ROUNDEDRECTD45*%
G04:AMPARAMS|DCode=46|XSize=47.24mil|YSize=59.06mil|CornerRadius=3.54mil|HoleSize=0mil|Usage=FLASHONLY|Rotation=270.000|XOffset=0mil|YOffset=0mil|HoleType=Round|Shape=RoundedRectangle|*
%AMROUNDEDRECTD46*
21,1,0.04724,0.05197,0,0,270.0*
21,1,0.04016,0.05906,0,0,270.0*
1,1,0.00709,-0.02598,-0.02008*
1,1,0.00709,-0.02598,0.02008*
1,1,0.00709,0.02598,0.02008*
1,1,0.00709,0.02598,-0.02008*
%
%ADD46ROUNDEDRECTD46*%
G04:AMPARAMS|DCode=47|XSize=23.62mil|YSize=9.84mil|CornerRadius=1.23mil|HoleSize=0mil|Usage=FLASHONLY|Rotation=180.000|XOffset=0mil|YOffset=0mil|HoleType=Round|Shape=RoundedRectangle|*
%AMROUNDEDRECTD47*
21,1,0.02362,0.00738,0,0,180.0*
21,1,0.02116,0.00984,0,0,180.0*
1,1,0.00246,-0.01058,0.00369*
1,1,0.00246,0.01058,0.00369*
1,1,0.00246,0.01058,-0.00369*
1,1,0.00246,-0.01058,-0.00369*
%
%ADD47ROUNDEDRECTD47*%
G04:AMPARAMS|DCode=48|XSize=23.62mil|YSize=9.84mil|CornerRadius=1.23mil|HoleSize=0mil|Usage=FLASHONLY|Rotation=90.000|XOffset=0mil|YOffset=0mil|HoleType=Round|Shape=RoundedRectangle|*
%AMROUNDEDRECTD48*
21,1,0.02362,0.00738,0,0,90.0*
21,1,0.02116,0.00984,0,0,90.0*
1,1,0.00246,0.00369,0.01058*
1,1,0.00246,0.00369,-0.01058*
1,1,0.00246,-0.00369,-0.01058*
1,1,0.00246,-0.00369,0.01058*
%
%ADD48ROUNDEDRECTD48*%
G04:AMPARAMS|DCode=49|XSize=50.39mil|YSize=51.18mil|CornerRadius=6.3mil|HoleSize=0mil|Usage=FLASHONLY|Rotation=0.000|XOffset=0mil|YOffset=0mil|HoleType=Round|Shape=RoundedRectangle|*
%AMROUNDEDRECTD49*
21,1,0.05039,0.03858,0,0,0.0*
21,1,0.03780,0.05118,0,0,0.0*
1,1,0.01260,0.01890,-0.01929*
1,1,0.01260,-0.01890,-0.01929*
1,1,0.01260,-0.01890,0.01929*
1,1,0.01260,0.01890,0.01929*
%
%ADD49ROUNDEDRECTD49*%
G04:AMPARAMS|DCode=50|XSize=86.61mil|YSize=173.23mil|CornerRadius=6.5mil|HoleSize=0mil|Usage=FLASHONLY|Rotation=0.000|XOffset=0mil|YOffset=0mil|HoleType=Round|Shape=RoundedRectangle|*
%AMROUNDEDRECTD50*
21,1,0.08661,0.16024,0,0,0.0*
21,1,0.07362,0.17323,0,0,0.0*
1,1,0.01299,0.03681,-0.08012*
1,1,0.01299,-0.03681,-0.08012*
1,1,0.01299,-0.03681,0.08012*
1,1,0.01299,0.03681,0.08012*
%
%ADD50ROUNDEDRECTD50*%
G04:AMPARAMS|DCode=51|XSize=17.72mil|YSize=41.34mil|CornerRadius=2.22mil|HoleSize=0mil|Usage=FLASHONLY|Rotation=0.000|XOffset=0mil|YOffset=0mil|HoleType=Round|Shape=RoundedRectangle|*
%AMROUNDEDRECTD51*
21,1,0.01772,0.03691,0,0,0.0*
21,1,0.01329,0.04134,0,0,0.0*
1,1,0.00443,0.00664,-0.01846*
1,1,0.00443,-0.00664,-0.01846*
1,1,0.00443,-0.00664,0.01846*
1,1,0.00443,0.00664,0.01846*
%
%ADD51ROUNDEDRECTD51*%
G04:AMPARAMS|DCode=52|XSize=27.95mil|YSize=54.02mil|CornerRadius=3.49mil|HoleSize=0mil|Usage=FLASHONLY|Rotation=90.000|XOffset=0mil|YOffset=0mil|HoleType=Round|Shape=RoundedRectangle|*
%AMROUNDEDRECTD52*
21,1,0.02795,0.04703,0,0,90.0*
21,1,0.02097,0.05402,0,0,90.0*
1,1,0.00699,0.02351,0.01048*
1,1,0.00699,0.02351,-0.01048*
1,1,0.00699,-0.02351,-0.01048*
1,1,0.00699,-0.02351,0.01048*
%
%ADD52ROUNDEDRECTD52*%
G04:AMPARAMS|DCode=53|XSize=27.95mil|YSize=23.23mil|CornerRadius=2.9mil|HoleSize=0mil|Usage=FLASHONLY|Rotation=270.000|XOffset=0mil|YOffset=0mil|HoleType=Round|Shape=RoundedRectangle|*
%AMROUNDEDRECTD53*
21,1,0.02795,0.01742,0,0,270.0*
21,1,0.02215,0.02323,0,0,270.0*
1,1,0.00581,-0.00871,-0.01107*
1,1,0.00581,-0.00871,0.01107*
1,1,0.00581,0.00871,0.01107*
1,1,0.00581,0.00871,-0.01107*
%
%ADD53ROUNDEDRECTD53*%
G04:AMPARAMS|DCode=54|XSize=47.24mil|YSize=59.06mil|CornerRadius=3.54mil|HoleSize=0mil|Usage=FLASHONLY|Rotation=0.000|XOffset=0mil|YOffset=0mil|HoleType=Round|Shape=RoundedRectangle|*
%AMROUNDEDRECTD54*
21,1,0.04724,0.05197,0,0,0.0*
21,1,0.04016,0.05906,0,0,0.0*
1,1,0.00709,0.02008,-0.02598*
1,1,0.00709,-0.02008,-0.02598*
1,1,0.00709,-0.02008,0.02598*
1,1,0.00709,0.02008,0.02598*
%
%ADD54ROUNDEDRECTD54*%
G04:AMPARAMS|DCode=55|XSize=90.55mil|YSize=98.43mil|CornerRadius=6.79mil|HoleSize=0mil|Usage=FLASHONLY|Rotation=90.000|XOffset=0mil|YOffset=0mil|HoleType=Round|Shape=RoundedRectangle|*
%AMROUNDEDRECTD55*
21,1,0.09055,0.08484,0,0,90.0*
21,1,0.07697,0.09843,0,0,90.0*
1,1,0.01358,0.04242,0.03848*
1,1,0.01358,0.04242,-0.03848*
1,1,0.01358,-0.04242,-0.03848*
1,1,0.01358,-0.04242,0.03848*
%
%ADD55ROUNDEDRECTD55*%
G04:AMPARAMS|DCode=56|XSize=142.91mil|YSize=209.84mil|CornerRadius=10.72mil|HoleSize=0mil|Usage=FLASHONLY|Rotation=180.000|XOffset=0mil|YOffset=0mil|HoleType=Round|Shape=RoundedRectangle|*
%AMROUNDEDRECTD56*
21,1,0.14291,0.18840,0,0,180.0*
21,1,0.12148,0.20984,0,0,180.0*
1,1,0.02144,-0.06074,0.09420*
1,1,0.02144,0.06074,0.09420*
1,1,0.02144,0.06074,-0.09420*
1,1,0.02144,-0.06074,-0.09420*
%
%ADD56ROUNDEDRECTD56*%
G04:AMPARAMS|DCode=57|XSize=106.3mil|YSize=244.1mil|CornerRadius=7.97mil|HoleSize=0mil|Usage=FLASHONLY|Rotation=270.000|XOffset=0mil|YOffset=0mil|HoleType=Round|Shape=RoundedRectangle|*
%AMROUNDEDRECTD57*
21,1,0.10630,0.22815,0,0,270.0*
21,1,0.09035,0.24410,0,0,270.0*
1,1,0.01595,-0.11408,-0.04518*
1,1,0.01595,-0.11408,0.04518*
1,1,0.01595,0.11408,0.04518*
1,1,0.01595,0.11408,-0.04518*
%
%ADD57ROUNDEDRECTD57*%
G04:AMPARAMS|DCode=58|XSize=27.95mil|YSize=23.23mil|CornerRadius=2.9mil|HoleSize=0mil|Usage=FLASHONLY|Rotation=0.000|XOffset=0mil|YOffset=0mil|HoleType=Round|Shape=RoundedRectangle|*
%AMROUNDEDRECTD58*
21,1,0.02795,0.01742,0,0,0.0*
21,1,0.02215,0.02323,0,0,0.0*
1,1,0.00581,0.01107,-0.00871*
1,1,0.00581,-0.01107,-0.00871*
1,1,0.00581,-0.01107,0.00871*
1,1,0.00581,0.01107,0.00871*
%
%ADD58ROUNDEDRECTD58*%
G04:AMPARAMS|DCode=59|XSize=27.95mil|YSize=54.02mil|CornerRadius=3.49mil|HoleSize=0mil|Usage=FLASHONLY|Rotation=180.000|XOffset=0mil|YOffset=0mil|HoleType=Round|Shape=RoundedRectangle|*
%AMROUNDEDRECTD59*
21,1,0.02795,0.04703,0,0,180.0*
21,1,0.02097,0.05402,0,0,180.0*
1,1,0.00699,-0.01048,0.02351*
1,1,0.00699,0.01048,0.02351*
1,1,0.00699,0.01048,-0.02351*
1,1,0.00699,-0.01048,-0.02351*
%
%ADD59ROUNDEDRECTD59*%
%ADD117C,0.03937*%
G04:AMPARAMS|DCode=118|XSize=116.14mil|YSize=192.91mil|CornerRadius=1.97mil|HoleSize=0mil|Usage=FLASHONLY|Rotation=270.000|XOffset=0mil|YOffset=0mil|HoleType=Round|Shape=RoundedRectangle|*
%AMROUNDEDRECTD118*
21,1,0.11614,0.18898,0,0,270.0*
21,1,0.11221,0.19291,0,0,270.0*
1,1,0.00394,-0.09449,-0.05610*
1,1,0.00394,-0.09449,0.05610*
1,1,0.00394,0.09449,0.05610*
1,1,0.00394,0.09449,-0.05610*
%
%ADD118ROUNDEDRECTD118*%
G04:AMPARAMS|DCode=119|XSize=141.73mil|YSize=181.1mil|CornerRadius=1.97mil|HoleSize=0mil|Usage=FLASHONLY|Rotation=270.000|XOffset=0mil|YOffset=0mil|HoleType=Round|Shape=RoundedRectangle|*
%AMROUNDEDRECTD119*
21,1,0.14173,0.17717,0,0,270.0*
21,1,0.13780,0.18110,0,0,270.0*
1,1,0.00394,-0.08858,-0.06890*
1,1,0.00394,-0.08858,0.06890*
1,1,0.00394,0.08858,0.06890*
1,1,0.00394,0.08858,-0.06890*
%
%ADD119ROUNDEDRECTD119*%
G04:AMPARAMS|DCode=120|XSize=39.37mil|YSize=39.37mil|CornerRadius=3.94mil|HoleSize=0mil|Usage=FLASHONLY|Rotation=0.000|XOffset=0mil|YOffset=0mil|HoleType=Round|Shape=RoundedRectangle|*
%AMROUNDEDRECTD120*
21,1,0.03937,0.03150,0,0,0.0*
21,1,0.03150,0.03937,0,0,0.0*
1,1,0.00787,0.01575,-0.01575*
1,1,0.00787,-0.01575,-0.01575*
1,1,0.00787,-0.01575,0.01575*
1,1,0.00787,0.01575,0.01575*
%
%ADD120ROUNDEDRECTD120*%
G04:AMPARAMS|DCode=121|XSize=39.37mil|YSize=39.37mil|CornerRadius=3.94mil|HoleSize=0mil|Usage=FLASHONLY|Rotation=90.000|XOffset=0mil|YOffset=0mil|HoleType=Round|Shape=RoundedRectangle|*
%AMROUNDEDRECTD121*
21,1,0.03937,0.03150,0,0,90.0*
21,1,0.03150,0.03937,0,0,90.0*
1,1,0.00787,0.01575,0.01575*
1,1,0.00787,0.01575,-0.01575*
1,1,0.00787,-0.01575,-0.01575*
1,1,0.00787,-0.01575,0.01575*
%
%ADD121ROUNDEDRECTD121*%
%ADD122C,0.00800*%
%ADD123C,0.00800*%
%ADD124C,0.01968*%
%ADD125C,0.10236*%
%ADD126C,0.07087*%
%ADD127R,0.07087X0.07087*%
%ADD128C,0.05906*%
%ADD129R,0.05906X0.05906*%
%ADD130C,0.25591*%
G04:AMPARAMS|DCode=131|XSize=393.7mil|YSize=196.85mil|CornerRadius=1.97mil|HoleSize=0mil|Usage=FLASHONLY|Rotation=270.000|XOffset=0mil|YOffset=0mil|HoleType=Round|Shape=RoundedRectangle|*
%AMROUNDEDRECTD131*
21,1,0.39370,0.19291,0,0,270.0*
21,1,0.38976,0.19685,0,0,270.0*
1,1,0.00394,-0.09646,-0.19488*
1,1,0.00394,-0.09646,0.19488*
1,1,0.00394,0.09646,0.19488*
1,1,0.00394,0.09646,-0.19488*
%
%ADD131ROUNDEDRECTD131*%
%ADD132C,0.13780*%
%ADD133R,0.05906X0.05906*%
%ADD134C,0.04921*%
%ADD135C,0.23622*%
%ADD136C,0.31496*%
%ADD137C,0.04724*%
%ADD138C,0.01772*%
%ADD139C,0.02362*%
G36*
X552362Y378346D02*
X551181Y377165D01*
Y373067D01*
X544291D01*
Y381890D01*
X530512D01*
Y378210D01*
X530398Y377934D01*
Y377184D01*
X530512Y376908D01*
Y373067D01*
X515783D01*
Y389764D01*
X552362D01*
Y378346D01*
D02*
G37*
G36*
X126378Y376905D02*
X126357Y376801D01*
Y373789D01*
X126378Y373686D01*
Y373031D01*
X119095D01*
X119095Y382874D01*
X104331D01*
Y374016D01*
X92520D01*
X90551Y375984D01*
Y387795D01*
X126378D01*
Y376905D01*
D02*
G37*
G36*
X211614Y328740D02*
X173228D01*
Y326949D01*
X173193Y326772D01*
Y321850D01*
X129921D01*
Y356299D01*
X132446D01*
X132549Y356279D01*
X135561D01*
X135665Y356299D01*
X146653D01*
Y371063D01*
X159192D01*
X159467Y370949D01*
X160218D01*
X160493Y371063D01*
X166339D01*
Y389764D01*
X211614D01*
Y328740D01*
D02*
G37*
G36*
X455709Y333661D02*
X528543D01*
Y309055D01*
X504921D01*
X495079Y299213D01*
X443933D01*
Y305118D01*
X443898Y305296D01*
Y306102D01*
X443091D01*
X442913Y306138D01*
X427165D01*
Y314961D01*
X420276D01*
Y305296D01*
X420240Y305118D01*
Y294327D01*
X414405D01*
Y310039D01*
X414370Y310217D01*
Y311024D01*
X413563D01*
X413386Y311059D01*
X402559D01*
X402381Y311024D01*
X401575D01*
Y310217D01*
X401540Y310039D01*
Y294327D01*
X394685D01*
X394507Y294291D01*
X380906D01*
Y337598D01*
X213583D01*
Y389764D01*
X335957D01*
X336111Y389288D01*
X335306Y388703D01*
X333737Y387135D01*
X332434Y385340D01*
X331426Y383363D01*
X330741Y381253D01*
X330394Y379062D01*
Y376844D01*
X330741Y374652D01*
X331426Y372542D01*
X332434Y370566D01*
X333737Y368771D01*
X335306Y367202D01*
X337101Y365898D01*
X339078Y364891D01*
X341188Y364205D01*
X343379Y363858D01*
X345597D01*
X347789Y364205D01*
X349899Y364891D01*
X351875Y365898D01*
X353670Y367202D01*
X355239Y368771D01*
X356543Y370566D01*
X357550Y372542D01*
X358236Y374652D01*
X358583Y376844D01*
Y379062D01*
X358236Y381253D01*
X357550Y383363D01*
X356543Y385340D01*
X355239Y387135D01*
X353670Y388703D01*
X352865Y389288D01*
X353020Y389764D01*
X455709D01*
Y333661D01*
D02*
G37*
G36*
X51575Y351314D02*
X51554Y351211D01*
Y348199D01*
X51575Y348095D01*
Y347852D01*
X51181Y347476D01*
X44291D01*
X44291Y357283D01*
X29528D01*
Y347476D01*
X18665D01*
X15748Y350394D01*
Y362205D01*
X51575D01*
Y351314D01*
D02*
G37*
G36*
X514764Y372047D02*
X551181D01*
Y366142D01*
X547736Y362697D01*
Y353839D01*
X544291Y350394D01*
X544291Y344488D01*
X557051D01*
Y309090D01*
X529563D01*
Y333661D01*
X529528Y333839D01*
Y334646D01*
X528721D01*
X528543Y334681D01*
X457677D01*
Y389764D01*
X514764D01*
Y372047D01*
D02*
G37*
G36*
X173193Y294291D02*
X173228Y294114D01*
Y292500D01*
X173193Y292323D01*
Y290390D01*
X140748D01*
Y319882D01*
X173193D01*
Y294291D01*
D02*
G37*
G36*
X685039Y276575D02*
X650591D01*
X636846Y290319D01*
Y297244D01*
X636811Y297422D01*
Y298228D01*
X636004D01*
X635827Y298264D01*
X596457D01*
Y315945D01*
X635827D01*
X642717Y322835D01*
X685039D01*
Y276575D01*
D02*
G37*
G36*
X17717Y346457D02*
X51181D01*
X51181Y334646D01*
X65945D01*
Y307087D01*
X78740Y307087D01*
Y275626D01*
X55118D01*
X54940Y275590D01*
X52165D01*
X44291Y283465D01*
X2953D01*
Y350394D01*
X13780D01*
X17717Y346457D01*
D02*
G37*
G36*
X53150Y272638D02*
X53150Y215551D01*
X126969D01*
X137795Y226378D01*
X185039D01*
Y217520D01*
X186830D01*
X187008Y217484D01*
X203740D01*
Y208661D01*
X209646D01*
Y218326D01*
X209681Y218504D01*
Y225358D01*
X215516D01*
Y207677D01*
X215551Y207500D01*
Y206693D01*
X216358D01*
X216535Y206658D01*
X227362D01*
X227540Y206693D01*
X228346D01*
Y207500D01*
X228382Y207677D01*
Y227362D01*
X248031D01*
Y183071D01*
X2953D01*
Y281496D01*
X17699D01*
X17796Y281006D01*
X17214Y280765D01*
X15069Y279526D01*
X14475Y279070D01*
X25591Y267955D01*
X36706Y279070D01*
X36112Y279526D01*
X33967Y280765D01*
X33385Y281006D01*
X33482Y281496D01*
X44291D01*
X53150Y272638D01*
D02*
G37*
G36*
X284449Y251969D02*
X237205D01*
Y294291D01*
X174213D01*
Y326772D01*
X213583D01*
Y335630D01*
X284449D01*
Y251969D01*
D02*
G37*
G36*
X593504Y275590D02*
X606299D01*
Y250984D01*
X599033D01*
Y255130D01*
X599192Y255368D01*
X599299Y255906D01*
X599192Y256443D01*
X598887Y256899D01*
X598431Y257204D01*
X597894Y257311D01*
X597356Y257204D01*
X596900Y256899D01*
X596634Y256633D01*
X596330Y256177D01*
X596223Y255640D01*
Y250984D01*
X581196D01*
X580730Y251296D01*
X580177Y251406D01*
X576398D01*
X575845Y251296D01*
X575379Y250984D01*
X569917D01*
Y276610D01*
X574803Y281496D01*
X593504D01*
Y275590D01*
D02*
G37*
G36*
X413386Y293307D02*
X421260D01*
Y305118D01*
X423097D01*
X423371Y304844D01*
X424172Y304512D01*
X425040D01*
X425842Y304844D01*
X426116Y305118D01*
X442913D01*
Y287402D01*
X448819D01*
Y269685D01*
X440945D01*
Y264764D01*
X449803D01*
X452756Y261811D01*
X455709D01*
Y238224D01*
X394685D01*
Y293307D01*
X402559D01*
Y310039D01*
X413386D01*
Y293307D01*
D02*
G37*
G36*
X583661Y366142D02*
X582677Y365158D01*
Y341535D01*
X602362D01*
Y335630D01*
X582677D01*
Y291339D01*
X568898Y277559D01*
Y235236D01*
X491142D01*
Y283465D01*
X494095Y286417D01*
Y296260D01*
X505870Y308035D01*
X528543D01*
X528721Y308071D01*
X558071D01*
Y354331D01*
X575787D01*
Y372047D01*
X583661D01*
Y366142D01*
D02*
G37*
G36*
X492126Y287402D02*
X489173Y284449D01*
Y235236D01*
X456728D01*
Y237205D01*
X456693Y237382D01*
Y238047D01*
X456728Y238224D01*
Y261811D01*
X456693Y261989D01*
Y262795D01*
X455886D01*
X455709Y262831D01*
X453178D01*
X450787Y265221D01*
Y265705D01*
X451062Y265979D01*
X451394Y266781D01*
Y267648D01*
X451062Y268450D01*
X450787Y268724D01*
Y288386D01*
X448997D01*
X448819Y288421D01*
X443933D01*
Y296260D01*
X492126D01*
Y287402D01*
D02*
G37*
G36*
X173193Y267717D02*
X173228Y267539D01*
Y266732D01*
X174035D01*
X174213Y266697D01*
X176743D01*
X179134Y264306D01*
Y263823D01*
X178860Y263548D01*
X178528Y262747D01*
Y261879D01*
X178860Y261077D01*
X179134Y260803D01*
Y241142D01*
X180925D01*
X181102Y241106D01*
X185039D01*
Y229331D01*
X140748D01*
Y264764D01*
Y289370D01*
X173193D01*
Y267717D01*
D02*
G37*
G36*
X125984Y366142D02*
X121063Y361221D01*
X110236D01*
Y347441D01*
X127953D01*
Y319882D01*
X138779D01*
Y230315D01*
X125984Y217520D01*
X55118D01*
Y274606D01*
X80709D01*
Y315945D01*
X87598D01*
Y333661D01*
X74803D01*
Y346457D01*
X86614D01*
Y371063D01*
X125984D01*
Y366142D01*
D02*
G37*
G36*
X635827Y289370D02*
X650591Y274606D01*
X685039D01*
Y213583D01*
X607283D01*
Y250807D01*
X607319Y250984D01*
Y275590D01*
X607283Y275768D01*
Y284449D01*
X605769D01*
X605493Y284563D01*
X604743D01*
X604467Y284449D01*
X596457D01*
Y297244D01*
X635827D01*
Y289370D01*
D02*
G37*
G36*
X235236Y230315D02*
X227362D01*
Y207677D01*
X216535D01*
Y226378D01*
X208661D01*
Y218504D01*
X207809D01*
X207535Y218778D01*
X206733Y219110D01*
X205865D01*
X205064Y218778D01*
X204789Y218504D01*
X187008D01*
Y242126D01*
X181102D01*
Y259842D01*
X188976D01*
Y264764D01*
X180118D01*
X177165Y267717D01*
X174213D01*
Y292323D01*
X235236D01*
Y230315D01*
D02*
G37*
G36*
X392717Y237205D02*
X455709D01*
Y195866D01*
X341535Y195866D01*
Y277559D01*
X392717D01*
X392717Y237205D01*
D02*
G37*
G36*
X491142Y234217D02*
X568898D01*
X568927Y234223D01*
X593504Y209646D01*
X685039D01*
Y173228D01*
X673504D01*
X673342Y173728D01*
X673646Y173950D01*
X665354Y182241D01*
X657062Y173950D01*
X657367Y173728D01*
X657204Y173228D01*
X636811D01*
Y191929D01*
X456693D01*
Y195688D01*
X456728Y195866D01*
Y234217D01*
X489173D01*
X489351Y234252D01*
X490964D01*
X491142Y234217D01*
D02*
G37*
G36*
X501968Y137795D02*
X500356D01*
X500178Y137831D01*
X494517D01*
X494143Y138204D01*
X494433Y138622D01*
X494842Y138540D01*
X495760D01*
Y141732D01*
X496260D01*
Y142232D01*
X499058D01*
Y143543D01*
X498953Y144072D01*
X498779Y144333D01*
X498694Y144685D01*
X498779Y145037D01*
X498953Y145298D01*
X499058Y145827D01*
Y147138D01*
X496260D01*
Y147638D01*
X495760D01*
Y150830D01*
X494842D01*
X494314Y150725D01*
X493866Y150425D01*
X493610Y150042D01*
X493354Y150046D01*
X493110Y150126D01*
Y151575D01*
X494550D01*
X494754Y151534D01*
X497766D01*
X497969Y151575D01*
X501968D01*
Y137795D01*
D02*
G37*
G36*
X492043Y151075D02*
X491626Y150780D01*
X491378Y150830D01*
X490461D01*
Y147638D01*
X489961D01*
Y147138D01*
X487162D01*
Y145827D01*
X487268Y145298D01*
X487442Y145037D01*
X487527Y144685D01*
X487442Y144333D01*
X487268Y144072D01*
X487162Y143543D01*
Y142232D01*
X489961D01*
Y141732D01*
X490461D01*
Y138540D01*
X491378D01*
X491699Y138604D01*
X491906Y138646D01*
X492077Y138759D01*
X492126Y138779D01*
X492126Y138779D01*
X494095Y136811D01*
X500178D01*
X500564Y136426D01*
Y133858D01*
X500572Y133815D01*
Y131644D01*
X500645Y131279D01*
X500851Y130970D01*
X500869Y130790D01*
X495407Y125328D01*
X494722D01*
X494705Y125339D01*
X494341Y125412D01*
X489911D01*
X489547Y125339D01*
X489237Y125133D01*
X489149Y125000D01*
X488189D01*
Y136811D01*
X485236Y139764D01*
Y151575D01*
X491983D01*
X492043Y151075D01*
D02*
G37*
G36*
X131890Y149606D02*
X127953Y145669D01*
Y138779D01*
X118568D01*
X117161Y140186D01*
Y173228D01*
X131890D01*
Y149606D01*
D02*
G37*
G36*
X326772Y132210D02*
X320939D01*
X319291Y133858D01*
X315325D01*
X315297Y133899D01*
X314996Y134101D01*
X314641Y134171D01*
X312525D01*
X312027Y134561D01*
Y137092D01*
X312525Y137482D01*
X313546D01*
X313583Y137475D01*
X317126D01*
X317625Y137574D01*
X317956Y137795D01*
X318898D01*
X319882Y138779D01*
X326772Y138779D01*
Y132210D01*
D02*
G37*
G36*
X276575Y137205D02*
X268872D01*
X268701Y137376D01*
Y144095D01*
X276575D01*
Y137205D01*
D02*
G37*
G36*
X333337Y138759D02*
X336348D01*
X336614Y138332D01*
Y131890D01*
X330161D01*
X329830Y132111D01*
X329331Y132210D01*
X328740D01*
Y138759D01*
X330049D01*
X330153Y138779D01*
X333233D01*
X333337Y138759D01*
D02*
G37*
G36*
X116142Y139764D02*
X118110Y137795D01*
Y136262D01*
X118038Y136214D01*
X117799Y135855D01*
X117715Y135433D01*
Y129921D01*
X117799Y129499D01*
X117840Y129437D01*
X117573Y128937D01*
X111836D01*
X111569Y129437D01*
X111610Y129499D01*
X111694Y129921D01*
Y135433D01*
X111610Y135855D01*
X111371Y136214D01*
X111221Y136314D01*
Y137795D01*
X110236Y138779D01*
Y148622D01*
X107121D01*
X107018Y148643D01*
X104006D01*
X103902Y148622D01*
X101421D01*
X101212Y148761D01*
X100718Y148859D01*
X97707D01*
X97441Y149078D01*
Y173228D01*
X116142D01*
Y139764D01*
D02*
G37*
G36*
X122047Y116177D02*
X118110D01*
X117933Y116142D01*
X117126D01*
Y115335D01*
X117091Y115157D01*
Y102398D01*
X110236D01*
X110058Y102362D01*
X109252D01*
Y101556D01*
X109217Y101378D01*
X109217Y90551D01*
X109217Y88618D01*
X109252Y88583D01*
X109702Y88583D01*
X116857Y88583D01*
X116979Y88083D01*
X116591Y87795D01*
X116378Y87837D01*
X115461D01*
Y84646D01*
Y81454D01*
X116378D01*
X116514Y81227D01*
X116153Y80948D01*
X115461D01*
Y77756D01*
Y74564D01*
X116378D01*
X116591Y74606D01*
X117091Y74237D01*
Y65980D01*
X116142D01*
X115964Y65945D01*
X114173D01*
Y52201D01*
X101378D01*
Y86614D01*
X94488D01*
Y105315D01*
X106344D01*
X106351Y105310D01*
X107087Y105164D01*
X107822Y105310D01*
X107829Y105315D01*
X110236D01*
X112205Y107283D01*
Y116142D01*
X102362D01*
Y127953D01*
X111627D01*
X111689Y127947D01*
X111836Y127917D01*
X117573D01*
X117720Y127947D01*
X117782Y127953D01*
X122047D01*
Y116177D01*
D02*
G37*
G36*
X276575Y125394D02*
X268701D01*
Y132283D01*
X276575D01*
Y125394D01*
D02*
G37*
G36*
X346457Y124606D02*
X338583D01*
Y131496D01*
X346457D01*
Y124606D01*
D02*
G37*
G36*
Y119513D02*
Y112795D01*
X338583D01*
Y119685D01*
X346285D01*
X346457Y119513D01*
D02*
G37*
G36*
X483577Y110197D02*
X484271Y109909D01*
X485021D01*
X485714Y110197D01*
X485720Y110203D01*
X486221Y110156D01*
Y103871D01*
X485972Y103707D01*
X485475Y103977D01*
Y104027D01*
X482283D01*
Y104527D01*
X481783D01*
Y107326D01*
X480472D01*
X479944Y107221D01*
X479683Y107046D01*
X479331Y106961D01*
X478978Y107046D01*
X478717Y107221D01*
X478189Y107326D01*
X476878D01*
Y104527D01*
X475878D01*
Y107326D01*
X474567D01*
X474039Y107221D01*
X473778Y107046D01*
X473425Y106961D01*
X473073Y107046D01*
X472812Y107221D01*
X472284Y107326D01*
X470972D01*
Y104527D01*
X470472D01*
Y104027D01*
X467281D01*
Y103110D01*
X467330Y102862D01*
X466977Y102362D01*
X465551D01*
Y108982D01*
X466806Y110236D01*
X483538D01*
X483577Y110197D01*
D02*
G37*
G36*
X311024Y103347D02*
X293307D01*
Y109824D01*
X293719Y110236D01*
X311024D01*
Y103347D01*
D02*
G37*
G36*
X204724Y95615D02*
X204224Y95555D01*
X203930Y95973D01*
X203979Y96220D01*
Y97138D01*
X200787D01*
Y97638D01*
X200287D01*
Y100436D01*
X198976D01*
X198448Y100331D01*
X198000Y100031D01*
X197669D01*
X197221Y100331D01*
X196693Y100436D01*
X195382D01*
Y97638D01*
X194382D01*
Y100436D01*
X193071D01*
X192542Y100331D01*
X192429Y100255D01*
X191929Y100522D01*
Y104331D01*
X204724D01*
Y95615D01*
D02*
G37*
G36*
X467330Y99894D02*
X467281Y99646D01*
Y98728D01*
X470472D01*
Y98228D01*
X470972D01*
Y95430D01*
X472284D01*
X472812Y95535D01*
X473260Y95835D01*
X473591D01*
X474039Y95535D01*
X474567Y95430D01*
X475878D01*
Y98228D01*
X476878D01*
Y95430D01*
X478189D01*
X478717Y95535D01*
X479165Y95835D01*
X479496D01*
X479944Y95535D01*
X480472Y95430D01*
X481783D01*
Y98228D01*
X482283D01*
Y98728D01*
X485475D01*
Y99646D01*
X485426Y99894D01*
X485720Y100311D01*
X486221Y100251D01*
Y92520D01*
X465551D01*
Y100394D01*
X466977D01*
X467330Y99894D01*
D02*
G37*
G36*
X156496Y90551D02*
X110236D01*
X110236Y101378D01*
X118110D01*
Y115157D01*
X156496D01*
Y90551D01*
D02*
G37*
G36*
X206016Y94349D02*
X206402Y94272D01*
X209937D01*
X210095Y94303D01*
X210545Y94007D01*
X210595Y93932D01*
Y91108D01*
X210545Y91032D01*
X210095Y90736D01*
X209937Y90767D01*
X206402D01*
X206016Y90691D01*
X205807Y90551D01*
X204724D01*
Y84646D01*
X185039D01*
Y94488D01*
X186427D01*
X186494Y94293D01*
X186510Y93988D01*
X186164Y93757D01*
X185884Y93338D01*
X185786Y92844D01*
Y91839D01*
X188976D01*
Y91339D01*
X189476D01*
Y88542D01*
X190876D01*
X191370Y88640D01*
X191788Y88920D01*
X192310Y88801D01*
X192542Y88645D01*
X193071Y88540D01*
X194382D01*
Y91339D01*
X195382D01*
Y88540D01*
X196693D01*
X197221Y88645D01*
X197669Y88945D01*
X198000D01*
X198448Y88645D01*
X198976Y88540D01*
X200287D01*
Y91339D01*
X200787D01*
Y91839D01*
X203979D01*
Y92756D01*
X203874Y93284D01*
X203575Y93732D01*
X203192Y93988D01*
X203196Y94244D01*
X203275Y94488D01*
X205807D01*
X206016Y94349D01*
D02*
G37*
G36*
X214371Y84146D02*
X214240Y83949D01*
X214151Y83504D01*
Y79882D01*
X214240Y79436D01*
X214492Y79059D01*
X214567Y79009D01*
Y62008D01*
X206693D01*
Y83180D01*
X207120Y83336D01*
X207193Y83340D01*
X207635Y82898D01*
Y82193D01*
X210433D01*
X213231D01*
Y83504D01*
X213126Y84032D01*
X213050Y84146D01*
X213318Y84646D01*
X214137D01*
X214371Y84146D01*
D02*
G37*
G36*
X157480Y66929D02*
X136811D01*
X128937Y59055D01*
Y56102D01*
X136811D01*
Y51181D01*
X128937D01*
Y3937D01*
X91535D01*
Y17186D01*
X92035Y17306D01*
X92602Y16194D01*
X93406Y15088D01*
X101941Y23622D01*
X93406Y32157D01*
X92602Y31051D01*
X92035Y29938D01*
X91535Y30058D01*
Y45276D01*
X93504D01*
X99410Y51181D01*
X116142D01*
Y64961D01*
X118110D01*
Y75268D01*
X118354Y75348D01*
X118610Y75351D01*
X118866Y74968D01*
X119314Y74669D01*
X119843Y74564D01*
X120760D01*
Y77756D01*
Y80948D01*
X119843D01*
X119314Y80843D01*
X118866Y80543D01*
X118610Y80160D01*
X118354Y80164D01*
X118110Y80244D01*
Y82158D01*
X118354Y82237D01*
X118610Y82241D01*
X118866Y81858D01*
X119314Y81559D01*
X119843Y81454D01*
X120760D01*
Y84646D01*
Y87837D01*
X119843D01*
X119314Y87732D01*
X118866Y87433D01*
X118610Y87050D01*
X118354Y87054D01*
X118110Y87133D01*
Y88583D01*
X157480D01*
Y66929D01*
D02*
G37*
G36*
X216221Y95280D02*
X216298Y94894D01*
X216516Y94567D01*
X216535Y94554D01*
Y94488D01*
X216634D01*
X216843Y94349D01*
X217228Y94272D01*
X220764D01*
X221149Y94349D01*
X221358Y94488D01*
X227362D01*
X233268Y88583D01*
Y79867D01*
X232768Y79807D01*
X232473Y80224D01*
X232523Y80472D01*
Y81390D01*
X226139D01*
Y80472D01*
X226188Y80224D01*
X225894Y79807D01*
X225394Y79867D01*
Y87598D01*
X222441Y90551D01*
X221358D01*
X221149Y90691D01*
X220764Y90767D01*
X217228D01*
X216843Y90691D01*
X216634Y90551D01*
X216535D01*
Y90485D01*
X216516Y90472D01*
X216298Y90145D01*
X216221Y89760D01*
Y88583D01*
X211614D01*
Y96457D01*
X216221D01*
Y95280D01*
D02*
G37*
G36*
X246063Y69882D02*
X236221D01*
X228346Y62008D01*
X218504D01*
Y77756D01*
X225835D01*
X226188Y77256D01*
X226139Y77008D01*
Y76091D01*
X232523D01*
Y77008D01*
X232473Y77256D01*
X232826Y77756D01*
X234252D01*
Y79626D01*
X234260Y79730D01*
X234287Y79867D01*
Y84646D01*
X246063D01*
Y69882D01*
D02*
G37*
G36*
X143701Y38386D02*
X163386Y18701D01*
Y5906D01*
X140748D01*
Y29528D01*
X131890Y38386D01*
Y48228D01*
X143701D01*
Y38386D01*
D02*
G37*
%LPC*%
G36*
X235491Y383071D02*
X233013D01*
X230557Y382748D01*
X228165Y382106D01*
X225876Y381158D01*
X223730Y379920D01*
X223137Y379464D01*
X234252Y368349D01*
X245367Y379464D01*
X244774Y379920D01*
X242628Y381158D01*
X240339Y382106D01*
X237947Y382748D01*
X235491Y383071D01*
D02*
G37*
G36*
X436278Y383032D02*
X433801D01*
X431345Y382708D01*
X428952Y382067D01*
X426663Y381119D01*
X424518Y379880D01*
X423924Y379425D01*
X435039Y368310D01*
X446154Y379425D01*
X445561Y379880D01*
X443415Y381119D01*
X441127Y382067D01*
X438734Y382708D01*
X436278Y383032D01*
D02*
G37*
G36*
X249543Y375288D02*
X238428Y364173D01*
X249543Y353058D01*
X249998Y353652D01*
X251237Y355797D01*
X252185Y358086D01*
X252826Y360479D01*
X253150Y362935D01*
Y365412D01*
X252826Y367868D01*
X252185Y370261D01*
X251237Y372549D01*
X249998Y374695D01*
X249543Y375288D01*
D02*
G37*
G36*
X218961D02*
X218506Y374695D01*
X217267Y372549D01*
X216319Y370261D01*
X215678Y367868D01*
X215354Y365412D01*
Y362935D01*
X215678Y360479D01*
X216319Y358086D01*
X217267Y355797D01*
X218506Y353652D01*
X218961Y353058D01*
X230076Y364173D01*
X218961Y375288D01*
D02*
G37*
G36*
X419748Y375249D02*
X419293Y374655D01*
X418054Y372510D01*
X417106Y370221D01*
X416465Y367828D01*
X416142Y365372D01*
Y362895D01*
X416465Y360439D01*
X417106Y358046D01*
X418054Y355758D01*
X419293Y353612D01*
X419748Y353019D01*
X430864Y364134D01*
X419748Y375249D01*
D02*
G37*
G36*
X450330Y375249D02*
X439215Y364134D01*
X450330Y353019D01*
X450786Y353612D01*
X452025Y355758D01*
X452973Y358046D01*
X453614Y360439D01*
X453937Y362895D01*
Y365372D01*
X453614Y367828D01*
X452973Y370221D01*
X452025Y372510D01*
X450786Y374655D01*
X450330Y375249D01*
D02*
G37*
G36*
X234252Y359997D02*
X223137Y348882D01*
X223730Y348427D01*
X225876Y347188D01*
X228165Y346240D01*
X230557Y345599D01*
X233013Y345276D01*
X235491D01*
X237947Y345599D01*
X240339Y346240D01*
X242628Y347188D01*
X244774Y348427D01*
X245367Y348882D01*
X234252Y359997D01*
D02*
G37*
G36*
X435039Y359958D02*
X423924Y348843D01*
X424518Y348387D01*
X426663Y347149D01*
X428952Y346201D01*
X431345Y345560D01*
X433801Y345236D01*
X436278D01*
X438734Y345560D01*
X441127Y346201D01*
X443415Y347149D01*
X445561Y348387D01*
X446154Y348843D01*
X435039Y359958D01*
D02*
G37*
G36*
X481299Y382806D02*
Y367087D01*
X497018D01*
X496921Y367828D01*
X496280Y370221D01*
X495332Y372510D01*
X494093Y374655D01*
X492585Y376621D01*
X490833Y378372D01*
X488868Y379880D01*
X486723Y381119D01*
X484434Y382067D01*
X482041Y382708D01*
X481299Y382806D01*
D02*
G37*
G36*
X475394Y382806D02*
X474652Y382708D01*
X472259Y382067D01*
X469970Y381119D01*
X467825Y379880D01*
X465860Y378372D01*
X464108Y376621D01*
X462600Y374655D01*
X461361Y372510D01*
X460413Y370221D01*
X459772Y367828D01*
X459675Y367087D01*
X475394D01*
Y382806D01*
D02*
G37*
G36*
X497018Y361181D02*
X481299D01*
Y345462D01*
X482041Y345560D01*
X484434Y346201D01*
X486723Y347149D01*
X488868Y348387D01*
X490833Y349895D01*
X492585Y351647D01*
X494093Y353612D01*
X495332Y355758D01*
X496280Y358046D01*
X496921Y360439D01*
X497018Y361181D01*
D02*
G37*
G36*
X475394D02*
X459675D01*
X459772Y360439D01*
X460413Y358046D01*
X461361Y355758D01*
X462600Y353612D01*
X464108Y351647D01*
X465860Y349895D01*
X467825Y348387D01*
X469970Y347149D01*
X472259Y346201D01*
X474652Y345560D01*
X475394Y345462D01*
Y361181D01*
D02*
G37*
G36*
X662656Y316142D02*
X660179D01*
X657723Y315818D01*
X655330Y315177D01*
X653041Y314229D01*
X650896Y312991D01*
X650302Y312535D01*
X661417Y301420D01*
X672533Y312535D01*
X671939Y312991D01*
X669794Y314229D01*
X667505Y315177D01*
X665112Y315818D01*
X662656Y316142D01*
D02*
G37*
G36*
X646126Y308359D02*
X645671Y307766D01*
X644432Y305620D01*
X643484Y303332D01*
X642843Y300939D01*
X642520Y298483D01*
Y296006D01*
X642843Y293549D01*
X643484Y291157D01*
X644432Y288868D01*
X645671Y286723D01*
X646126Y286129D01*
X657241Y297244D01*
X646126Y308359D01*
D02*
G37*
G36*
X676708Y308359D02*
X665593Y297244D01*
X676708Y286129D01*
X677164Y286723D01*
X678403Y288868D01*
X679351Y291157D01*
X679992Y293549D01*
X680315Y296006D01*
Y298483D01*
X679992Y300939D01*
X679351Y303332D01*
X678403Y305620D01*
X677164Y307766D01*
X676708Y308359D01*
D02*
G37*
G36*
X661417Y293068D02*
X650302Y281953D01*
X650896Y281498D01*
X653041Y280259D01*
X655330Y279311D01*
X657723Y278670D01*
X660179Y278346D01*
X662656D01*
X665112Y278670D01*
X667505Y279311D01*
X669794Y280259D01*
X671939Y281498D01*
X672533Y281953D01*
X661417Y293068D01*
D02*
G37*
G36*
X40881Y274895D02*
X29766Y263779D01*
X40881Y252664D01*
X41337Y253258D01*
X42576Y255403D01*
X43524Y257692D01*
X44165Y260085D01*
X44488Y262541D01*
Y265018D01*
X44165Y267474D01*
X43524Y269867D01*
X42576Y272156D01*
X41337Y274301D01*
X40881Y274895D01*
D02*
G37*
G36*
X10300Y274895D02*
X9844Y274301D01*
X8605Y272156D01*
X7657Y269867D01*
X7016Y267474D01*
X6693Y265018D01*
Y262541D01*
X7016Y260085D01*
X7657Y257692D01*
X8605Y255403D01*
X9844Y253258D01*
X10300Y252664D01*
X21415Y263779D01*
X10300Y274895D01*
D02*
G37*
G36*
X25591Y259604D02*
X14475Y248488D01*
X15069Y248033D01*
X17214Y246794D01*
X19503Y245846D01*
X21896Y245205D01*
X24352Y244882D01*
X26829D01*
X29285Y245205D01*
X31678Y245846D01*
X33967Y246794D01*
X36112Y248033D01*
X36706Y248488D01*
X25591Y259604D01*
D02*
G37*
G36*
X666532Y201378D02*
X664177D01*
X661851Y201010D01*
X659611Y200282D01*
X657513Y199213D01*
X657062Y198885D01*
X665354Y190593D01*
X673646Y198885D01*
X673195Y199213D01*
X671097Y200282D01*
X668858Y201010D01*
X666532Y201378D01*
D02*
G37*
G36*
X652886Y194709D02*
X652559Y194258D01*
X651490Y192160D01*
X650762Y189921D01*
X650394Y187595D01*
Y185240D01*
X650762Y182914D01*
X651490Y180674D01*
X652559Y178576D01*
X652886Y178125D01*
X661178Y186417D01*
X652886Y194709D01*
D02*
G37*
G36*
X677822Y194709D02*
X669530Y186417D01*
X677822Y178125D01*
X678150Y178576D01*
X679219Y180674D01*
X679947Y182914D01*
X680315Y185240D01*
Y187595D01*
X679947Y189921D01*
X679219Y192160D01*
X678150Y194258D01*
X677822Y194709D01*
D02*
G37*
G36*
X497677Y150830D02*
X496760D01*
Y148138D01*
X499058D01*
Y149449D01*
X498953Y149977D01*
X498654Y150425D01*
X498206Y150725D01*
X497677Y150830D01*
D02*
G37*
G36*
X499058Y141232D02*
X496760D01*
Y138540D01*
X497677D01*
X498206Y138646D01*
X498654Y138945D01*
X498953Y139393D01*
X499058Y139921D01*
Y141232D01*
D02*
G37*
G36*
X489461Y150830D02*
X488543D01*
X488015Y150725D01*
X487567Y150425D01*
X487268Y149977D01*
X487162Y149449D01*
Y148138D01*
X489461D01*
Y150830D01*
D02*
G37*
G36*
Y141232D02*
X487162D01*
Y139921D01*
X487268Y139393D01*
X487567Y138945D01*
X488015Y138646D01*
X488543Y138540D01*
X489461D01*
Y141232D01*
D02*
G37*
G36*
X114461Y87837D02*
X113543D01*
X113015Y87732D01*
X112567Y87433D01*
X112268Y86985D01*
X112162Y86457D01*
Y85146D01*
X114461D01*
Y87837D01*
D02*
G37*
G36*
Y84146D02*
X112162D01*
Y82835D01*
X112268Y82306D01*
X112567Y81858D01*
X113015Y81559D01*
X113543Y81454D01*
X114461D01*
Y84146D01*
D02*
G37*
G36*
Y80948D02*
X113543D01*
X113015Y80843D01*
X112567Y80543D01*
X112268Y80095D01*
X112162Y79567D01*
Y78256D01*
X114461D01*
Y80948D01*
D02*
G37*
G36*
Y77256D02*
X112162D01*
Y75945D01*
X112268Y75416D01*
X112567Y74968D01*
X113015Y74669D01*
X113543Y74564D01*
X114461D01*
Y77256D01*
D02*
G37*
G36*
X484094Y107326D02*
X482784D01*
Y105027D01*
X485475D01*
Y105945D01*
X485370Y106473D01*
X485071Y106921D01*
X484623Y107221D01*
X484094Y107326D01*
D02*
G37*
G36*
X469972D02*
X468661D01*
X468133Y107221D01*
X467685Y106921D01*
X467386Y106473D01*
X467281Y105945D01*
Y105027D01*
X469972D01*
Y107326D01*
D02*
G37*
G36*
X202598Y100436D02*
X201287D01*
Y98138D01*
X203979D01*
Y99055D01*
X203874Y99584D01*
X203575Y100031D01*
X203127Y100331D01*
X202598Y100436D01*
D02*
G37*
G36*
X485475Y97728D02*
X482784D01*
Y95430D01*
X484094D01*
X484623Y95535D01*
X485071Y95835D01*
X485370Y96283D01*
X485475Y96811D01*
Y97728D01*
D02*
G37*
G36*
X469972D02*
X467281D01*
Y96811D01*
X467386Y96283D01*
X467685Y95835D01*
X468133Y95535D01*
X468661Y95430D01*
X469972D01*
Y97728D01*
D02*
G37*
G36*
X188476Y90839D02*
X185786D01*
Y89833D01*
X185884Y89339D01*
X186164Y88920D01*
X186583Y88640D01*
X187077Y88542D01*
X188476D01*
Y90839D01*
D02*
G37*
G36*
X203979Y90839D02*
X201287D01*
Y88540D01*
X202598D01*
X203127Y88645D01*
X203575Y88945D01*
X203874Y89393D01*
X203979Y89921D01*
Y90839D01*
D02*
G37*
G36*
X213231Y81193D02*
X210933D01*
Y78501D01*
X211850D01*
X212379Y78606D01*
X212827Y78905D01*
X213126Y79353D01*
X213231Y79882D01*
Y81193D01*
D02*
G37*
G36*
X209933D02*
X207635D01*
Y79882D01*
X207740Y79353D01*
X208039Y78905D01*
X208487Y78606D01*
X209016Y78501D01*
X209933D01*
Y81193D01*
D02*
G37*
G36*
X122677Y87837D02*
X121760D01*
Y85146D01*
X124058D01*
Y86457D01*
X123953Y86985D01*
X123654Y87433D01*
X123206Y87732D01*
X122677Y87837D01*
D02*
G37*
G36*
X124058Y84146D02*
X121760D01*
Y81454D01*
X122677D01*
X123206Y81559D01*
X123654Y81858D01*
X123953Y82306D01*
X124058Y82835D01*
Y84146D01*
D02*
G37*
G36*
X122677Y80948D02*
X121760D01*
Y78256D01*
X124058D01*
Y79567D01*
X123953Y80095D01*
X123654Y80543D01*
X123206Y80843D01*
X122677Y80948D01*
D02*
G37*
G36*
X124058Y77256D02*
X121760D01*
Y74564D01*
X122677D01*
X123206Y74669D01*
X123654Y74968D01*
X123953Y75416D01*
X124058Y75945D01*
Y77256D01*
D02*
G37*
G36*
X105840Y37795D02*
X103609D01*
X101406Y37446D01*
X99284Y36757D01*
X97296Y35744D01*
X96190Y34940D01*
X104724Y26406D01*
X113259Y34940D01*
X112153Y35744D01*
X110165Y36757D01*
X108043Y37446D01*
X105840Y37795D01*
D02*
G37*
G36*
X116043Y32157D02*
X107508Y23622D01*
X116043Y15088D01*
X116846Y16194D01*
X117859Y18181D01*
X118549Y20303D01*
X118898Y22507D01*
Y24737D01*
X118549Y26941D01*
X117859Y29063D01*
X116846Y31051D01*
X116043Y32157D01*
D02*
G37*
G36*
X104724Y20838D02*
X96190Y12304D01*
X97296Y11500D01*
X99284Y10487D01*
X101406Y9798D01*
X103609Y9449D01*
X105840D01*
X108043Y9798D01*
X110165Y10487D01*
X112153Y11500D01*
X113259Y12304D01*
X104724Y20838D01*
D02*
G37*
G36*
X231142Y84688D02*
X229831D01*
Y82390D01*
X232523D01*
Y83307D01*
X232417Y83836D01*
X232118Y84284D01*
X231670Y84583D01*
X231142Y84688D01*
D02*
G37*
G36*
X228831D02*
X227520D01*
X226991Y84583D01*
X226543Y84284D01*
X226244Y83836D01*
X226139Y83307D01*
Y82390D01*
X228831D01*
Y84688D01*
D02*
G37*
G36*
X232523Y75091D02*
X229831D01*
Y72792D01*
X231142D01*
X231670Y72897D01*
X232118Y73197D01*
X232417Y73645D01*
X232523Y74173D01*
Y75091D01*
D02*
G37*
G36*
X228831D02*
X226139D01*
Y74173D01*
X226244Y73645D01*
X226543Y73197D01*
X226991Y72897D01*
X227520Y72792D01*
X228831D01*
Y75091D01*
D02*
G37*
G36*
X149937Y15764D02*
X146484D01*
Y12311D01*
X149937D01*
Y15764D01*
D02*
G37*
G36*
X162102D02*
X158650D01*
Y12311D01*
X162102D01*
Y15764D01*
D02*
G37*
G36*
X157650D02*
X154197D01*
Y12311D01*
X157650D01*
Y15764D01*
D02*
G37*
G36*
X145484D02*
X142032D01*
Y12311D01*
X145484D01*
Y15764D01*
D02*
G37*
G36*
X162102Y11311D02*
X158650D01*
Y7858D01*
X162102D01*
Y11311D01*
D02*
G37*
G36*
X157650D02*
X154197D01*
Y7858D01*
X157650D01*
Y11311D01*
D02*
G37*
G36*
X149937D02*
X146484D01*
Y7858D01*
X149937D01*
Y11311D01*
D02*
G37*
G36*
X145484D02*
X142032D01*
Y7858D01*
X145484D01*
Y11311D01*
D02*
G37*
%LPD*%
G36*
G01X133878Y352992D02*
G01X149035D01*
G01Y352539D01*
G01X151752D01*
G01Y355709D01*
G02X152146Y356102I394J0D01*
G01X154114D01*
G02X154508Y355709I0J-394D01*
G01Y340158D01*
G01X151752D01*
G01Y350437D01*
G01X149035D01*
G01Y328697D01*
G01X151752D01*
G01Y338976D01*
G01X154508D01*
G01Y323425D01*
G02X154114Y323031I-394J0D01*
G01X152146D01*
G02X151752Y323425I0J394D01*
G01Y326594D01*
G01X149035D01*
G01Y326142D01*
G01X133878D01*
G01Y352992D01*
D02*
G37*
G36*
G01X82697Y312638D02*
G01X97854D01*
G01Y312185D01*
G01X100571D01*
G01Y315354D01*
G02X100965Y315748I394J0D01*
G01X102933D01*
G02X103327Y315354I0J-394D01*
G01Y299803D01*
G01X100571D01*
G01Y310083D01*
G01X97854D01*
G01Y288342D01*
G01X100571D01*
G01Y298622D01*
G01X103327D01*
G01Y283071D01*
G02X102933Y282677I-394J0D01*
G01X100965D01*
G02X100571Y283071I0J394D01*
G01Y286240D01*
G01X97854D01*
G01Y285787D01*
G01X82697D01*
G01Y312638D01*
D02*
G37*
G36*
G01X566909Y246417D02*
G01X551752D01*
G01Y246870D01*
G01X549035D01*
G01Y243701D01*
G02X548642Y243307I-394J0D01*
G01X546673D01*
G02X546279Y243701I0J394D01*
G01Y259252D01*
G01X549035D01*
G01Y248972D01*
G01X551752D01*
G01Y270713D01*
G01X549035D01*
G01Y260433D01*
G01X546279D01*
G01Y275984D01*
G02X546673Y276378I394J0D01*
G01X548642D01*
G02X549035Y275984I0J-394D01*
G01Y272815D01*
G01X551752D01*
G01Y273268D01*
G01X566909D01*
G01Y246417D01*
D02*
G37*
G36*
G01X609272Y281142D02*
G01X624429D01*
G01Y280689D01*
G01X627146D01*
G01Y283858D01*
G02X627539Y284252I394J0D01*
G01X629508D01*
G02X629902Y283858I0J-394D01*
G01Y268307D01*
G01X627146D01*
G01Y278587D01*
G01X624429D01*
G01Y256846D01*
G01X627146D01*
G01Y267126D01*
G01X629902D01*
G01Y251575D01*
G02X629508Y251181I-394J0D01*
G01X627539D01*
G02X627146Y251575I0J394D01*
G01Y254744D01*
G01X624429D01*
G01Y254291D01*
G01X609272D01*
G01Y281142D01*
D02*
G37*
G36*
G01X560551Y350039D02*
G01X575709D01*
G01Y349587D01*
G01X578425D01*
G01Y352756D01*
G02X578819Y353150I394J0D01*
G01X580787D01*
G02X581181Y352756I0J-394D01*
G01Y337205D01*
G01X578425D01*
G01Y347484D01*
G01X575709D01*
G01Y325744D01*
G01X578425D01*
G01Y336024D01*
G01X581181D01*
G01Y320472D01*
G02X580787Y320079I-394J0D01*
G01X578819D01*
G02X578425Y320472I0J394D01*
G01Y323642D01*
G01X575709D01*
G01Y323189D01*
G01X560551D01*
G01Y350039D01*
D02*
G37*
D10*
X396063Y80350D02*
X400394Y76019D01*
X396063Y133036D02*
X431531Y168504D01*
X410236Y86221D02*
Y127165D01*
X396063Y80350D02*
Y133036D01*
X410236Y86221D02*
X414567Y81890D01*
X410236Y127165D02*
X437402Y154331D01*
X406693Y84753D02*
X411024Y80422D01*
X399606Y81817D02*
Y131568D01*
X403150Y83285D02*
X407480Y78954D01*
X406693Y128633D02*
X435934Y157874D01*
X399606Y81817D02*
X403937Y77487D01*
X399606Y131568D02*
X432999Y164961D01*
X403150Y130101D02*
X434466Y161417D01*
X403150Y83285D02*
Y130101D01*
X406693Y84753D02*
Y128633D01*
X62992Y175591D02*
X136614D01*
X146850Y165354D01*
Y153150D02*
Y165354D01*
Y153150D02*
X151575Y148425D01*
X66142Y178347D02*
X141339D01*
X151575Y168110D01*
Y152756D02*
Y168110D01*
X498588Y184876D02*
X515748Y167717D01*
Y156693D02*
Y167717D01*
Y156693D02*
X517913Y154528D01*
X365748Y180315D02*
X467267D01*
X365748Y174966D02*
X466699D01*
X467267Y180315D02*
X471828Y184876D01*
X498588D01*
X473228Y181496D02*
X497188D01*
X466699Y174966D02*
X473228Y181496D01*
X431531Y168504D02*
X467717D01*
X477559Y178347D02*
X492126D01*
X467717Y168504D02*
X477559Y178347D01*
X492126D02*
X500787Y169685D01*
X497188Y181496D02*
X511811Y166873D01*
X432999Y164961D02*
X471260D01*
X480515Y174216D01*
X473101Y161417D02*
X480975Y169291D01*
X434466Y161417D02*
X473101D01*
X487402Y164173D02*
X500787D01*
X477559Y154331D02*
X487402Y164173D01*
X437402Y154331D02*
X477559D01*
X475222Y157874D02*
X481128Y163779D01*
X529921Y125591D02*
X533465Y122047D01*
X537402D01*
X526772Y125591D02*
X529921D01*
X529528Y129921D02*
X532677Y126772D01*
X529528Y129921D02*
Y133858D01*
X435934Y157874D02*
X475222D01*
X407480Y64331D02*
X416299Y55512D01*
X421181D02*
X448071Y28622D01*
X416299Y55512D02*
X421181D01*
X427638Y59055D02*
X458071Y28622D01*
X411024Y64331D02*
X416299Y59055D01*
X427638D01*
X434488Y62205D02*
X468071Y28622D01*
X414567Y64331D02*
X416693Y62205D01*
X434488D01*
X414567Y64331D02*
Y81890D01*
X411024Y64331D02*
Y80422D01*
X407480Y64331D02*
Y78954D01*
X400394Y57087D02*
Y76019D01*
X403937Y62756D02*
Y77487D01*
Y62756D02*
X438071Y28622D01*
X400394Y57087D02*
X418071Y39409D01*
Y28622D02*
Y39409D01*
X511811Y151181D02*
Y166873D01*
X389370Y59055D02*
Y84646D01*
X408071Y28622D02*
Y40354D01*
X389370Y59055D02*
X408071Y40354D01*
X466184Y78740D02*
X469333Y75590D01*
X475984D01*
X466184Y78740D02*
Y89722D01*
X431496Y92126D02*
X444882Y78740D01*
X466184D01*
X431496Y92126D02*
Y120472D01*
X426848Y87084D02*
X431496Y91732D01*
X426772Y87084D02*
X426848D01*
X431496Y91732D02*
Y92126D01*
X655315Y351378D02*
Y355512D01*
X529921Y141339D02*
X562992Y174409D01*
Y185039D01*
X637008Y348031D02*
X640158D01*
X571654Y126378D02*
Y185039D01*
X570472Y125197D02*
X571654Y126378D01*
X570472Y113172D02*
Y125197D01*
X582677Y86010D02*
Y100968D01*
X570472Y113172D02*
X582677Y100968D01*
X567323Y112992D02*
Y185039D01*
X579921Y87402D02*
Y100394D01*
X567323Y112992D02*
X579921Y100394D01*
X546457Y74410D02*
X571077D01*
X582677Y86010D01*
X542913Y77953D02*
X546457Y74410D01*
X570472Y77953D02*
X579921Y87402D01*
X547244Y77953D02*
X570472D01*
X368307Y119095D02*
X384055D01*
X368307Y125000D02*
X384055D01*
X370079Y108661D02*
X385433D01*
X391808Y115036D01*
Y145200D01*
X383071Y112205D02*
X388189Y117323D01*
X366929Y112205D02*
X383071D01*
X388189Y117323D02*
Y143701D01*
X365748Y171260D02*
X391808Y145200D01*
X358268Y173622D02*
X388189Y143701D01*
X643701Y372047D02*
Y375787D01*
X292913Y43307D02*
X311024Y61417D01*
Y88189D01*
X288307Y43307D02*
X292913D01*
X288583Y48819D02*
Y88189D01*
Y48819D02*
X291339Y46063D01*
X305118Y88189D02*
X311024D01*
X288583D02*
X294488D01*
X290945Y114567D02*
X290945D01*
X297244Y120866D01*
Y126378D01*
X287992Y130905D02*
X297244D01*
X285039Y133858D02*
X287992Y130905D01*
X297244D02*
X299213Y132874D01*
X288307Y28543D02*
Y43307D01*
X201575Y146850D02*
X212205Y136221D01*
X245571D01*
X246850Y137500D02*
Y137795D01*
X245571Y136221D02*
X246850Y137500D01*
X245571Y133465D02*
X246850Y132185D01*
Y131890D02*
Y132185D01*
X211620Y133465D02*
X245571D01*
X199213Y145872D02*
X211620Y133465D01*
X199213Y145872D02*
Y153734D01*
X201575Y146850D02*
Y152756D01*
X203937Y155118D01*
X199213Y153734D02*
X202958Y157480D01*
X206896Y155118D02*
X208661Y153352D01*
X207874Y157480D02*
X211024Y154331D01*
X202958Y157480D02*
X207874D01*
X203937Y155118D02*
X206896D01*
X189764Y159055D02*
X201181Y170472D01*
X273622D01*
X208661Y150787D02*
Y153352D01*
X211024Y150787D02*
Y154331D01*
Y150787D02*
X212205Y149606D01*
X207480D02*
X208661Y150787D01*
X362992Y70473D02*
Y96850D01*
X314173Y21654D02*
X362992Y70473D01*
Y96850D02*
X367893Y101751D01*
X369861D01*
X298150Y21654D02*
X314173D01*
X288307Y11811D02*
X298150Y21654D01*
X298307Y11811D02*
Y16811D01*
X300000Y18504D02*
X316535D01*
X298307Y16811D02*
X300000Y18504D01*
X316535D02*
X368110Y70079D01*
Y93307D01*
X373775Y98972D01*
X316142Y11811D02*
X377690Y73359D01*
Y96193D01*
X308307Y11811D02*
X316142D01*
X308307Y46890D02*
X370079Y108661D01*
X308307Y28543D02*
Y46890D01*
X298307Y43583D02*
X366929Y112205D01*
X298307Y28543D02*
Y43583D01*
X92126Y134252D02*
Y138189D01*
X68898Y161417D02*
X92126Y138189D01*
X60236Y161417D02*
X68898D01*
X60236Y149606D02*
X72835D01*
X92126Y130315D01*
X37736Y113189D02*
X59055D01*
X273622Y170472D02*
X277953Y166142D01*
Y161417D02*
Y166142D01*
Y161417D02*
X281496Y157874D01*
X284842D01*
X285433Y157283D01*
X369291Y148622D02*
Y157087D01*
X364173Y143504D02*
X369291Y148622D01*
X353150Y173228D02*
X369291Y157087D01*
X297638Y173228D02*
X353150D01*
X291339Y166929D02*
X297638Y173228D01*
X291339Y163583D02*
Y166929D01*
X358268Y173622D02*
Y178740D01*
X359842Y180315D01*
X365748D01*
Y171260D02*
Y174966D01*
X511811Y151181D02*
X515354Y147638D01*
X517913D01*
X284252Y124508D02*
X284449Y124311D01*
X284252Y124508D02*
Y128740D01*
X324558Y125325D02*
X325218Y125984D01*
X319882Y124311D02*
X320896Y125325D01*
X324558D01*
X325218Y125984D02*
X325590D01*
X520866Y128943D02*
Y129134D01*
X519291Y124803D02*
Y127368D01*
X520866Y128943D01*
X513779Y119291D02*
X519291Y124803D01*
X513779Y88583D02*
Y119291D01*
X488615Y88551D02*
X491732Y85433D01*
X484922Y88551D02*
X488615D01*
X491732Y85433D02*
X498622D01*
X499902Y88484D02*
X500000Y88583D01*
X498622Y85433D02*
X499902Y86713D01*
Y88484D01*
X487795Y93898D02*
X490354Y96457D01*
X492126D01*
X487795Y90945D02*
Y93898D01*
X515748Y60630D02*
X557323D01*
X557323Y60630D01*
X557323Y60630D02*
X636221D01*
X652756Y44094D02*
X662992D01*
X636221Y60630D02*
X652756Y44094D01*
X662992D02*
X678346Y59449D01*
Y78543D01*
X668307Y88583D02*
X678346Y78543D01*
X509842Y66535D02*
X515748Y60630D01*
X509842Y81496D02*
X511811Y83465D01*
X509842Y66535D02*
Y81496D01*
X526374Y70866D02*
X662402D01*
X523279Y73961D02*
X526374Y70866D01*
X662402D02*
X668307Y64961D01*
X523279Y73961D02*
Y81445D01*
X521260Y83465D02*
X523279Y81445D01*
X516535Y68898D02*
X520472Y64961D01*
X656496D01*
X516535Y68898D02*
Y83465D01*
X519685Y85039D02*
X521260Y83465D01*
X368307Y125000D02*
Y125394D01*
X504331Y149606D02*
X506693Y147244D01*
Y140157D02*
Y147244D01*
X505905Y139370D02*
X506693Y140157D01*
X503937Y133858D02*
Y144095D01*
X505905Y133858D02*
Y139370D01*
X526955Y108268D02*
X537402D01*
X525984Y109238D02*
Y109449D01*
Y109238D02*
X526955Y108268D01*
X479134Y71653D02*
Y78740D01*
X479134Y78740D02*
X479134Y78740D01*
X477854Y77067D02*
X479134Y78347D01*
X475984Y75590D02*
X477461Y77067D01*
X479134Y78347D02*
Y78740D01*
X477461Y77067D02*
X477854D01*
X462992Y92913D02*
X466184Y89722D01*
X462992Y92913D02*
Y108268D01*
X468898Y114173D01*
X485268Y112205D02*
X492126D01*
X484859Y111795D02*
X485268Y112205D01*
X484646Y111795D02*
X484859D01*
X492126Y108268D02*
X497638D01*
X495276Y110236D02*
X497638Y112598D01*
X492126Y110236D02*
X495276D01*
X492126Y106299D02*
X495276D01*
X497638Y103937D01*
X468898Y114173D02*
X492126D01*
X522441Y125591D02*
X527559Y130709D01*
Y133858D01*
X505229Y95952D02*
X507874Y93307D01*
X500873Y95952D02*
X505229D01*
X517913Y154528D02*
X521457D01*
X517913Y147638D02*
X521457D01*
X537402Y104331D02*
X546457D01*
X552362Y110236D01*
Y113189D02*
X555905Y116732D01*
X552362Y110236D02*
Y113189D01*
X555905Y116732D02*
Y117126D01*
X549606Y118898D02*
X553234Y122525D01*
X555399D02*
X555905Y123031D01*
X553234Y122525D02*
X555399D01*
X549606Y111024D02*
Y118898D01*
X544882Y106299D02*
X549606Y111024D01*
X537402Y106299D02*
X544882D01*
X540551Y112205D02*
X542913Y109843D01*
X537402Y112205D02*
X540551D01*
X537402Y116142D02*
X540551D01*
X542913Y118504D01*
X537402Y114173D02*
X542913D01*
X524034Y106299D02*
X537402D01*
X520884Y103149D02*
X524034Y106299D01*
X520867Y99409D02*
X525788Y104331D01*
X537402D01*
X552879Y92003D02*
X558391D01*
X552362Y92520D02*
X552879Y92003D01*
X558391D02*
X559055Y91339D01*
X527543Y102362D02*
X537402D01*
X520850Y95669D02*
X527543Y102362D01*
X524697Y95669D02*
X529421Y100394D01*
X537402D01*
X531299Y98425D02*
X537402D01*
X528543Y95669D02*
X531299Y98425D01*
X532497Y95669D02*
X533284Y96457D01*
X537402D01*
X532283Y95669D02*
X532497D01*
X519685Y85039D02*
Y88583D01*
X516535Y83563D02*
X517717Y84744D01*
Y88583D01*
X516535Y83465D02*
Y83563D01*
X511811Y83465D02*
Y88583D01*
X511811Y88583D01*
X497142Y98490D02*
X497206Y98425D01*
X505905D01*
X509842Y94488D01*
Y88583D02*
Y94488D01*
X507874Y88583D02*
Y93307D01*
X497244Y93307D02*
X504724D01*
X505905Y92126D01*
Y88583D02*
Y92126D01*
X32480Y64961D02*
X53937D01*
X53937Y76772D02*
X53937Y76772D01*
X32480Y76772D02*
X53937D01*
X53937Y149606D02*
X53937Y149606D01*
X32480Y149606D02*
X53937D01*
X32480Y161417D02*
X53937D01*
X53937Y161417D01*
X153740Y44094D02*
X157480Y40354D01*
X172539D01*
X153740Y44094D02*
Y44685D01*
X172244Y46063D02*
X179134D01*
X163976Y53740D02*
X165354Y52362D01*
X172244D01*
X157480Y53740D02*
X163976D01*
X157283Y53543D02*
X157480Y53740D01*
X141535Y53543D02*
X157283D01*
X512205Y125394D02*
X514764D01*
X517717Y128347D02*
Y133858D01*
X514764Y125394D02*
X517717Y128347D01*
X512205Y129134D02*
X514961D01*
X515748Y129921D01*
Y133858D01*
X511909Y137106D02*
X514173Y139370D01*
Y144882D01*
X511909Y133957D02*
Y137106D01*
X511811Y133858D02*
X511909Y133957D01*
X509941D02*
Y137894D01*
X511417Y139370D02*
Y142126D01*
X509941Y137894D02*
X511417Y139370D01*
X509842Y133858D02*
X509941Y133957D01*
X500787Y159055D02*
X508661Y151181D01*
X507874Y138583D02*
X508661Y139370D01*
Y151181D01*
X507874Y133858D02*
Y138583D01*
X493898Y159055D02*
X500787D01*
X489961Y155118D02*
X493898Y159055D01*
X489961Y154724D02*
Y155118D01*
X307283Y167717D02*
X346850D01*
X357283Y151772D02*
Y157283D01*
X346850Y167717D02*
X357283Y157283D01*
X364173Y151772D02*
Y157087D01*
X351181Y170079D02*
X364173Y157087D01*
X303740Y170079D02*
X351181D01*
X297244Y163583D02*
X297638D01*
X298917Y164862D02*
Y165256D01*
X297638Y163583D02*
X298917Y164862D01*
Y165256D02*
X303740Y170079D01*
X303150Y163583D02*
X303543D01*
X304823Y164862D02*
Y165256D01*
X303543Y163583D02*
X304823Y164862D01*
Y165256D02*
X307283Y167717D01*
X343898Y163583D02*
X350394Y157087D01*
Y151772D02*
Y157087D01*
X309055Y163583D02*
X343898D01*
X291437Y157382D02*
X292600Y156219D01*
X285433Y157283D02*
X291339D01*
X292600Y154644D02*
X297244Y150000D01*
X292600Y154644D02*
Y156219D01*
X277362Y151969D02*
X280709D01*
X273819Y155512D02*
X277362Y151969D01*
X280709D02*
X284055Y148622D01*
X284252Y151575D02*
X292471D01*
X273819Y162008D02*
X284252Y151575D01*
X279921Y148425D02*
X285630Y142717D01*
X266998Y148425D02*
X279921D01*
X254695Y160728D02*
X266998Y148425D01*
X253150Y156102D02*
X263583Y145669D01*
X277953D02*
X282874Y140748D01*
X263583Y145669D02*
X277953D01*
X273819Y162008D02*
Y162402D01*
X292471Y151575D02*
X295276Y148770D01*
X284055Y148622D02*
X291929D01*
X318446Y153387D02*
Y154857D01*
X311024Y145965D02*
X318446Y153387D01*
X299213Y145276D02*
Y151394D01*
X297351Y153256D02*
X299213Y151394D01*
X297244Y145276D02*
Y150000D01*
X295276Y145276D02*
Y148770D01*
X291929Y148622D02*
X293307Y147244D01*
Y145276D02*
Y147244D01*
X297244Y157283D02*
X297638D01*
X298917Y156004D01*
X301181Y145276D02*
Y153347D01*
X298917Y155610D02*
Y156004D01*
Y155610D02*
X301181Y153347D01*
X307648Y153711D02*
Y156004D01*
X308927Y157283D02*
X309055D01*
X307648Y156004D02*
X308927Y157283D01*
X305118Y151181D02*
X307648Y153711D01*
X305118Y145276D02*
Y151181D01*
X303150Y147638D02*
Y157283D01*
X303150Y147638D02*
X303150Y147638D01*
X307087Y149213D02*
X310236Y152362D01*
X307087Y145276D02*
Y149213D01*
X309055Y147572D02*
X314967Y153484D01*
X309055Y145276D02*
Y147572D01*
X318504Y150394D02*
X321654Y153543D01*
X318504Y146949D02*
Y150394D01*
X314272Y142717D02*
X318504Y146949D01*
X321654Y153543D02*
X328543D01*
X311024Y145276D02*
Y145965D01*
X303150Y145276D02*
Y147638D01*
X329724Y102559D02*
X333661D01*
X329724Y108071D02*
X333661D01*
X312402Y124311D02*
X319882D01*
X231693Y102165D02*
X233583Y100275D01*
X231299Y102165D02*
X231693D01*
X233583Y100275D02*
X238189D01*
X219488Y102165D02*
X225394D01*
X219488Y102165D02*
X219488Y102165D01*
X219176Y96440D02*
Y101853D01*
X218996Y96260D02*
X219176Y96440D01*
Y101853D02*
X219488Y102165D01*
X188976Y97638D02*
Y102756D01*
X208169Y96260D02*
Y99311D01*
X87008Y110236D02*
X90354D01*
X90354Y110236D01*
X96653Y110236D02*
Y116142D01*
X96653Y110236D02*
X96653Y110236D01*
X104705Y110925D02*
Y111417D01*
X96653Y110236D02*
X104016D01*
X104705Y110925D01*
X107244Y107087D02*
X109705Y109547D01*
Y111417D01*
X107087Y107087D02*
X107244D01*
X109016Y133366D02*
X109705Y132677D01*
X108858Y135813D02*
X109016Y135655D01*
X107185Y143996D02*
X108858Y142323D01*
X109016Y133366D02*
Y135655D01*
X108858Y135813D02*
Y142323D01*
X104705Y138957D02*
X105512Y139764D01*
X104705Y132677D02*
Y138957D01*
X105512Y145276D02*
X106791Y143996D01*
X107185D01*
X105512Y145276D02*
Y145669D01*
X236221Y151969D02*
X237795Y150394D01*
X246850D01*
X229331Y151969D02*
X236221D01*
X309055Y124936D02*
X312058Y121933D01*
X315342D01*
X319671Y118026D02*
X319882Y117815D01*
X314567Y119685D02*
X316226Y118026D01*
X311024Y119685D02*
X314567D01*
X316226Y118026D02*
X319671D01*
X309055Y124936D02*
Y126378D01*
X307087Y123622D02*
Y126378D01*
Y123622D02*
X311024Y119685D01*
X305118Y122291D02*
X305906Y121503D01*
Y121290D02*
Y121503D01*
X305118Y122291D02*
Y126378D01*
X313583Y142717D02*
X314272D01*
X253150Y162008D02*
X254429Y160728D01*
X254695D01*
X253150Y162008D02*
Y162402D01*
X285630Y142717D02*
X290748D01*
X282874Y140748D02*
X290748D01*
X253150Y156102D02*
Y156496D01*
X246850Y150394D02*
Y156496D01*
X250295Y158957D02*
X251083D01*
X248524Y160728D02*
X250295Y158957D01*
X248130Y160728D02*
X248524D01*
X246850Y162008D02*
X248130Y160728D01*
X251083Y158957D02*
X253150Y156890D01*
X246850Y162008D02*
Y162402D01*
X253150Y156496D02*
Y156890D01*
X290650Y117815D02*
X295276Y122441D01*
X284449Y117815D02*
X290650D01*
X295276Y122441D02*
Y126378D01*
X308071Y114469D02*
X310578Y116975D01*
X311857D02*
X312008Y117126D01*
X307087Y114469D02*
X308071D01*
X310578Y116975D02*
X311857D01*
X304724Y115748D02*
X305807D01*
X303150Y117323D02*
Y126378D01*
X305807Y115748D02*
X307087Y114469D01*
X303150Y117323D02*
X304724Y115748D01*
X321935Y141128D02*
X322539Y141732D01*
X317126Y138779D02*
X319474Y141128D01*
X313583Y138779D02*
X317126D01*
X319474Y141128D02*
X321935D01*
X322539Y141732D02*
X328543D01*
X268307Y133760D02*
X281004D01*
X280188Y135728D02*
X283240Y138779D01*
X264469Y129921D02*
X268307Y133760D01*
X281004D02*
X284055Y136811D01*
X264469Y139764D02*
X268504Y135728D01*
X280188D01*
X329331Y130905D02*
X337106Y123130D01*
X328515Y128937D02*
X336291Y121161D01*
X346654D02*
X350689Y117126D01*
X336291Y121161D02*
X346654D01*
X346850Y123130D02*
X350689Y126969D01*
X337106Y123130D02*
X346850D01*
X328150Y148031D02*
X328543Y147638D01*
X322539Y148031D02*
X328150D01*
X328543Y141732D02*
X328543Y141732D01*
X315158Y140748D02*
X320866Y146457D01*
X322146Y148031D02*
X322539D01*
X320866Y146752D02*
X322146Y148031D01*
X320866Y146457D02*
Y146752D01*
X313583Y140748D02*
X315158D01*
X260531Y130020D02*
X261614Y128937D01*
X259252Y131693D02*
X260531Y130413D01*
X261614Y128937D02*
X264469D01*
X260531Y130020D02*
Y130413D01*
X253346Y131693D02*
X258858D01*
X253150Y131890D02*
X253346Y131693D01*
X260531Y139665D02*
X261614Y140748D01*
X259252Y137992D02*
X260531Y139272D01*
X261614Y140748D02*
X264469D01*
X260531Y139272D02*
Y139665D01*
X253346Y137992D02*
X258858D01*
X253150Y137795D02*
X253346Y137992D01*
X264469Y139764D02*
Y140748D01*
Y128937D02*
Y129921D01*
X283240Y138779D02*
X290748D01*
X284055Y136811D02*
X290748D01*
X361811Y118898D02*
X362008Y119095D01*
X356299Y118898D02*
X361811D01*
X361811Y125197D02*
X362008Y125000D01*
X356299Y125197D02*
X361811D01*
X354626Y126476D02*
Y126870D01*
X350689Y127953D02*
X353543D01*
X354626Y126476D02*
X355906Y125197D01*
X353543Y127953D02*
X354626Y126870D01*
X353543Y116142D02*
X354626Y117224D01*
Y117618D02*
X355906Y118898D01*
X356299D01*
X350689Y116142D02*
X353543D01*
X354626Y117224D02*
Y117618D01*
X350689Y116142D02*
Y117126D01*
Y126969D02*
Y127953D01*
X313583Y128937D02*
X328515D01*
X313583Y130905D02*
X329331D01*
X298228Y114469D02*
X301181Y117421D01*
Y126378D01*
X297244Y114469D02*
X298228D01*
X293307Y123622D02*
Y126378D01*
X292126Y122441D02*
X293307Y123622D01*
X290551Y122441D02*
X292126D01*
X286713Y125591D02*
X290059Y128937D01*
X285433Y124311D02*
X286713Y125591D01*
X290059Y128937D02*
X290748D01*
X286713Y125591D02*
Y125591D01*
X284449Y124311D02*
X285433D01*
X311024Y125689D02*
X312402Y124311D01*
X311024Y125689D02*
Y126378D01*
X636811Y375000D02*
X642913D01*
X643701Y375787D01*
D11*
X179528Y52362D02*
X187008Y59842D01*
Y86614D01*
X179134Y52362D02*
X179528D01*
X373622Y132677D02*
X381496Y140551D01*
X350787Y132677D02*
X373622D01*
X341732Y141732D02*
X350787Y132677D01*
X334842Y141732D02*
X341732D01*
X594488Y368898D02*
X599409D01*
X589567D02*
X594488D01*
X585827Y237402D02*
Y244094D01*
X597244Y232283D02*
Y244094D01*
X578346Y232283D02*
Y247972D01*
X578287Y248031D02*
X578346Y247972D01*
X597628Y244478D02*
Y255640D01*
X597244Y244094D02*
X597628Y244478D01*
Y255640D02*
X597894Y255906D01*
X582480Y248031D02*
X585827Y244685D01*
X578287Y248031D02*
X582480D01*
X585827Y244094D02*
Y244685D01*
X299016Y94291D02*
X304134D01*
X562205Y123031D02*
X562205Y123031D01*
X562205Y123031D02*
Y127953D01*
X99892Y148914D02*
X100584Y149606D01*
X105126D02*
X105913Y150394D01*
X108858Y153301D02*
Y153543D01*
X105951Y150394D02*
X108858Y153301D01*
X99892Y146349D02*
Y148914D01*
X99213Y145669D02*
X99892Y146349D01*
X100584Y149606D02*
X105126D01*
X105913Y150394D02*
X105951D01*
X87205Y122047D02*
X90551D01*
X499308Y79229D02*
Y81985D01*
X501968Y84646D01*
X498819Y78740D02*
X499308Y79229D01*
X503937Y84646D02*
X505118Y83465D01*
Y75000D02*
Y83465D01*
X503937Y84646D02*
Y88583D01*
X485433Y78740D02*
Y79134D01*
X483858Y80315D02*
X484252D01*
X482283Y81890D02*
Y94882D01*
X484252Y80315D02*
X485433Y79134D01*
X482283Y81890D02*
X483858Y80315D01*
X552362Y102165D02*
X554921Y104724D01*
X562402D02*
X569488Y97638D01*
Y96063D02*
Y97638D01*
X554921Y104724D02*
X562402D01*
X552362Y98425D02*
Y102165D01*
X419685Y92126D02*
Y97244D01*
Y115354D02*
Y120472D01*
X527756Y154528D02*
X527756Y154528D01*
X527756Y154528D02*
Y158661D01*
X527756Y147638D02*
Y154528D01*
X562205Y112992D02*
Y117126D01*
X562205Y117126D01*
X546063Y87598D02*
Y92520D01*
X537598Y79134D02*
X546063Y87598D01*
X541142Y131890D02*
Y135470D01*
Y131496D02*
Y131890D01*
X559055Y99606D02*
X562694Y95968D01*
X564859D02*
X565354Y95472D01*
X562694Y95968D02*
X564859D01*
X574409Y99213D02*
Y102362D01*
X569488Y96063D02*
X573819Y91732D01*
X574409D01*
X542323Y98425D02*
X546063D01*
X537598Y75000D02*
Y78740D01*
Y79134D01*
X332677Y116929D02*
Y118898D01*
X330118Y114370D02*
X332677Y116929D01*
X330118Y114370D02*
X333595Y110894D01*
X335760D01*
X329724Y114370D02*
X330118D01*
X335760Y110894D02*
X338583Y108071D01*
X271654Y98228D02*
Y104134D01*
X334055Y96260D02*
X338583D01*
X261811Y122244D02*
X271654D01*
X161221Y44685D02*
Y48228D01*
X496260Y147638D02*
Y154724D01*
X449176Y83661D02*
Y87045D01*
X450000Y82677D02*
Y82837D01*
X448622Y87598D02*
X449176Y87045D01*
Y83661D02*
X450000Y82837D01*
X448435Y87785D02*
Y93415D01*
X446772Y95079D02*
X448435Y93415D01*
Y87785D02*
X448622Y87598D01*
X453543Y131890D02*
X454921Y130512D01*
Y126969D02*
Y130512D01*
X455108Y121152D02*
Y126781D01*
X454921Y126969D02*
X455108Y126781D01*
Y121152D02*
X456772Y119488D01*
X471813Y133071D02*
X472994Y134252D01*
X476181Y135433D02*
Y135827D01*
X471654Y133071D02*
X471813D01*
X472994Y134252D02*
X475000D01*
X476181Y135433D01*
X475000Y123622D02*
X476181Y122441D01*
X472994Y123622D02*
X475000D01*
X471654Y124803D02*
X471813D01*
X476181Y122047D02*
Y122441D01*
X471813Y124803D02*
X472994Y123622D01*
X498819Y75000D02*
Y78740D01*
X501968Y84646D02*
Y88583D01*
X504134Y74016D02*
X505118Y75000D01*
X498819D02*
X499803Y74016D01*
X531299Y75000D02*
X532283Y74016D01*
X531299Y75000D02*
Y79134D01*
X530118Y80315D02*
X531299Y79134D01*
X536614Y74016D02*
X537598Y75000D01*
X536024Y80315D02*
X536417D01*
X532087Y84252D02*
X532087D01*
X536024Y80315D01*
X536417D02*
X537598Y79134D01*
X527559Y82874D02*
Y88583D01*
X530118Y80315D02*
X530118D01*
X527559Y82874D02*
X530118Y80315D01*
X529528Y86811D02*
Y88583D01*
Y86811D02*
X532087Y84252D01*
X542286Y136614D02*
X542323D01*
X541142Y135470D02*
X542286Y136614D01*
X546063D02*
X547441Y135236D01*
Y131890D02*
Y135236D01*
X540248Y124016D02*
X546260Y130027D01*
Y130709D02*
X547441Y131890D01*
X537402Y124016D02*
X540248D01*
X546260Y130027D02*
Y130709D01*
X537402Y128150D02*
X539567Y130315D01*
X539961D02*
X541142Y131496D01*
X537402Y125984D02*
Y128150D01*
X539567Y130315D02*
X539961D01*
X500000Y138976D02*
X501968Y137008D01*
Y133858D02*
Y137008D01*
X482283Y104527D02*
X482480Y104331D01*
X492126D01*
X80118Y368701D02*
Y374409D01*
X482677Y98228D02*
X486811Y102362D01*
X492126D01*
X482283Y98228D02*
X482677D01*
X364173Y136811D02*
Y143504D01*
X350394Y138583D02*
Y143504D01*
X350394Y143504D01*
X357283D01*
X364173D01*
X281102Y164567D02*
X282087Y163583D01*
X285433D01*
X267520Y155118D02*
X270866Y151772D01*
X267520Y155118D02*
Y155512D01*
X329724Y96260D02*
X334055D01*
X271654Y104134D02*
X276181D01*
X271654Y122244D02*
X276181D01*
X271654Y110433D02*
X276181D01*
X271654Y115945D02*
X276181D01*
X225787Y108465D02*
X231299D01*
X226969Y109646D02*
Y111848D01*
X228346Y113226D01*
Y113386D01*
X225394Y108465D02*
X225787D01*
X226969Y109646D01*
X231299Y108465D02*
X231299Y108465D01*
X238189Y108543D02*
X242638D01*
X215158Y108465D02*
X219488D01*
X210433Y81693D02*
Y82087D01*
X208169Y84350D02*
Y88779D01*
Y84350D02*
X210433Y82087D01*
X216732Y81693D02*
Y82087D01*
X218996Y84350D02*
Y88779D01*
X216732Y82087D02*
X218996Y84350D01*
X80118Y374409D02*
X80709Y375000D01*
Y378740D01*
X73228Y375000D02*
X73622Y374606D01*
Y369094D02*
Y374606D01*
X87008Y116142D02*
X90354D01*
X99213Y135827D02*
Y139764D01*
X92126Y75984D02*
X96063D01*
X86614Y61811D02*
X92520D01*
X86519Y56395D02*
X86614Y56299D01*
X83369Y56395D02*
X86519D01*
X81890Y57874D02*
X83369Y56395D01*
X81890Y57874D02*
Y72047D01*
X79134Y74803D02*
X81890Y72047D01*
X79134Y74803D02*
Y93110D01*
X86614Y100591D01*
X84350Y80413D02*
Y80413D01*
X86614Y82677D02*
Y92323D01*
X84350Y80413D02*
X86614Y82677D01*
X83661Y79724D02*
X84350Y80413D01*
X83071Y79724D02*
X83661D01*
X92126Y83465D02*
X96063D01*
X92126Y83465D02*
X92126Y83465D01*
X86614Y68110D02*
Y71063D01*
X91535Y75984D01*
X92126D01*
X92520Y68110D02*
X93307Y68898D01*
X97441D01*
X92520Y56299D02*
Y61811D01*
X86614Y50000D02*
X92520D01*
Y44291D02*
Y50000D01*
X125984Y125197D02*
Y128937D01*
X122244Y132677D02*
X125984Y128937D01*
X119705Y132677D02*
X122244D01*
X125984Y113189D02*
Y118898D01*
X284449Y112008D02*
Y117815D01*
X237402Y144095D02*
X246850D01*
X235276Y141969D02*
X237402Y144095D01*
X229331Y141969D02*
X235276D01*
X267520Y162402D02*
Y166732D01*
X294783Y113287D02*
X296063D01*
X297244Y114469D01*
X291732Y100591D02*
Y110236D01*
X294783Y113287D01*
X291732Y100591D02*
X304134D01*
X284449D02*
X291732D01*
X304134D02*
X319882D01*
X284449Y100591D02*
X284449Y100591D01*
X319882Y112008D02*
Y117815D01*
X319882Y112008D02*
X319882Y112008D01*
X632677Y382480D02*
X636811D01*
X637008Y382283D02*
X643504D01*
X636811Y382480D02*
X637008Y382283D01*
X643504D02*
X643701Y382087D01*
X631102Y355512D02*
X643110D01*
X651575Y347047D01*
Y346457D02*
Y347047D01*
X611417Y375197D02*
X631102Y355512D01*
X147835Y380512D02*
Y384842D01*
X73622Y354724D02*
Y356299D01*
X71063Y358858D02*
X73622Y356299D01*
X71063Y358858D02*
Y359252D01*
X73228Y378740D02*
X73228Y378740D01*
Y375000D02*
Y378740D01*
X45079Y364173D02*
Y368110D01*
X44587Y368602D02*
Y375689D01*
Y368602D02*
X45079Y368110D01*
X44094Y376181D02*
X44587Y375689D01*
X51378Y368110D02*
X55118D01*
X51476Y368209D02*
Y376083D01*
X51378Y368110D02*
X51476Y368209D01*
Y376083D02*
X51575Y376181D01*
X599409Y375197D02*
X611417D01*
X647835Y340748D02*
X651575D01*
X667323Y346654D02*
Y350394D01*
X667224Y346555D02*
X667323Y346654D01*
X659154Y346555D02*
X667224D01*
X659055Y346457D02*
X659154Y346555D01*
X637008Y342126D02*
X640158D01*
X613091Y336221D02*
X614946Y334365D01*
X616422D02*
X616535Y334252D01*
X613091Y336221D02*
Y337402D01*
X614946Y334365D02*
X616422D01*
X599409Y368898D02*
X599409Y368898D01*
X560433Y375295D02*
X561122Y375984D01*
X555118Y375295D02*
X560433D01*
X561122Y375984D02*
Y377165D01*
Y366929D02*
Y368110D01*
X555118Y368799D02*
X560433D01*
X561122Y368110D01*
X597894Y279528D02*
X602756D01*
X581890Y318504D02*
X605905D01*
X607283Y319882D02*
Y323622D01*
X605905Y318504D02*
X607283Y319882D01*
X613189Y314764D02*
Y323622D01*
X596457D02*
X601378D01*
X587402Y344488D02*
X588681Y345768D01*
X592520D01*
X609449Y342913D02*
X610532Y343996D01*
Y347638D01*
X583760Y375295D02*
X585039Y374016D01*
X579724Y375295D02*
X583760D01*
X575591Y374410D02*
X578839D01*
X574409Y373228D02*
X575591Y374410D01*
X566240Y373920D02*
Y377165D01*
Y373920D02*
X566932Y373228D01*
X574409D01*
X578839Y374410D02*
X579724Y375295D01*
X79774Y349656D02*
X84597D01*
X79724Y349705D02*
X79774Y349656D01*
X84597D02*
X84646Y349606D01*
X73228Y347244D02*
X75689Y349705D01*
X79724D01*
X67421Y347244D02*
X73228D01*
X66240Y348425D02*
X67421Y347244D01*
X154528Y375295D02*
X155512D01*
X153543D02*
X154528D01*
X155512D02*
X157972Y372835D01*
X159843D01*
X152362Y374114D02*
X153543Y375295D01*
X151181Y372835D02*
X152362Y374016D01*
X142126Y372835D02*
X151181D01*
X152362Y374016D02*
Y374114D01*
X141043Y373917D02*
X142126Y372835D01*
X141043Y373917D02*
Y377165D01*
X604724Y345768D02*
X605413Y346457D01*
X599409Y345768D02*
X604724D01*
X605413Y346457D02*
Y347638D01*
X135236Y375295D02*
X135925Y375984D01*
X129921Y375295D02*
X135236D01*
X135925Y375984D02*
Y377165D01*
X135236Y368799D02*
X135925Y368110D01*
X129921Y368799D02*
X135236D01*
X135925Y366929D02*
Y368110D01*
X66240Y348425D02*
Y351575D01*
X60433Y349705D02*
X61122Y350394D01*
X55118Y349705D02*
X60433D01*
X61122Y350394D02*
Y351575D01*
X60433Y343209D02*
X61122Y342520D01*
X55118Y343209D02*
X60433D01*
X61122Y341339D02*
Y342520D01*
D15*
X178740Y40256D02*
X178839Y40354D01*
X178740Y17323D02*
Y40256D01*
X414961Y87402D02*
X438189Y64173D01*
X414961Y87402D02*
Y108661D01*
X145276Y388976D02*
X157283D01*
X161417Y384842D01*
X141535D02*
Y385236D01*
X145276Y388976D01*
X130918Y388583D02*
X138189D01*
X141535Y385236D01*
X129933Y387598D02*
X130918Y388583D01*
X129724Y387598D02*
X129933D01*
X64764Y375984D02*
Y379724D01*
Y359252D02*
Y375984D01*
X64764Y375984D02*
X64764Y375984D01*
X58858Y375984D02*
X64764D01*
X59252Y385236D02*
X64764Y379724D01*
X47835Y385236D02*
X59252D01*
X64764Y358858D02*
Y359252D01*
X555283Y356267D02*
X559842Y360827D01*
X550723Y351707D02*
X555283Y356267D01*
X299213Y132874D02*
X302165Y135827D01*
X299213Y126378D02*
Y132874D01*
X497244Y124016D02*
X498425Y125197D01*
X492126Y124016D02*
X497244D01*
X334842Y153543D02*
X340158D01*
X334842Y147638D02*
X340158D01*
X299213Y119303D02*
Y126378D01*
X298622Y118504D02*
Y118713D01*
X299213Y119303D01*
X595079Y380315D02*
X601968D01*
X603543Y378740D02*
X627756D01*
X601968Y380315D02*
X603543Y378740D01*
X589961Y375197D02*
X595079Y380315D01*
X589567Y375197D02*
X589961D01*
X630709Y341732D02*
X640748Y331693D01*
X655315D01*
X630709Y341732D02*
Y342126D01*
X122500Y351378D02*
X123749Y352627D01*
Y354851D01*
X127756Y358858D01*
X134843Y384842D02*
X138484Y381201D01*
Y377165D02*
Y381201D01*
X142126Y381496D02*
X143557Y380065D01*
X141535Y384842D02*
X142126Y384252D01*
X143557Y377210D02*
X143602Y377165D01*
X142126Y381496D02*
Y384252D01*
X143557Y377210D02*
Y380065D01*
X112992Y377559D02*
X113189Y377756D01*
X107087Y377559D02*
X112992D01*
X76968Y384055D02*
Y387598D01*
X38189Y351969D02*
X38386Y352165D01*
X32283Y351969D02*
X38189D01*
X66354Y357587D02*
X68799Y355142D01*
X64764Y358858D02*
X66035Y357587D01*
X68799Y351575D02*
Y355142D01*
X66035Y357587D02*
X66354D01*
X63636Y351620D02*
X63681Y351575D01*
X62385Y355726D02*
X63636Y354474D01*
Y351620D02*
Y354474D01*
X60810Y355726D02*
X62385D01*
X59055Y360236D02*
X59130Y360162D01*
Y357406D02*
X60810Y355726D01*
X59130Y357406D02*
Y360162D01*
X622835Y347808D02*
X630485D01*
X613260D02*
X622835D01*
Y342126D02*
Y347808D01*
X613091Y347638D02*
X613260Y347808D01*
X630485D02*
X630709Y348031D01*
X659274Y340529D02*
X667148D01*
X667323Y340354D01*
X659055Y340748D02*
X659274Y340529D01*
X630709Y348031D02*
X630709Y348031D01*
Y342126D02*
Y348031D01*
X659055Y340748D02*
Y341215D01*
X657218Y341995D02*
X658276D01*
X652354Y345505D02*
X653707D01*
X657218Y341995D01*
X651575Y346285D02*
Y346457D01*
X658276Y341995D02*
X659055Y341215D01*
X651575Y346285D02*
X652354Y345505D01*
X581693Y382677D02*
X583661Y384646D01*
X589567D01*
X589173Y375197D02*
X589567D01*
X581693Y382677D02*
X589173Y375197D01*
X570472Y382677D02*
X581693D01*
X568799Y381004D02*
X570472Y382677D01*
X568799Y377165D02*
Y381004D01*
X563681Y377165D02*
Y385827D01*
X532283Y377559D02*
X538189D01*
X538386Y377756D01*
X563730Y366978D02*
Y370817D01*
X563779Y370866D01*
X563681Y366929D02*
X563730Y366978D01*
X549173Y348425D02*
X550723Y349975D01*
Y351707D01*
X551181Y360236D02*
X555512D01*
X556496Y361221D02*
X559842D01*
X555512Y360236D02*
X556496Y361221D01*
X559842Y360827D02*
Y361221D01*
X566142D02*
X566240Y361319D01*
Y366929D01*
X607283Y329921D02*
X613189D01*
X607283D02*
X608546Y331184D01*
Y332562D02*
X610487Y334502D01*
Y337357D02*
X610532Y337402D01*
X608546Y331184D02*
Y332562D01*
X610487Y334502D02*
Y337357D01*
X602640Y332562D02*
X603543Y333465D01*
X606299D01*
X607587Y334752D01*
X602640Y331184D02*
Y332562D01*
X601378Y329921D02*
X602640Y331184D01*
X607587Y334752D02*
Y337016D01*
X607972Y337402D01*
X71653Y341339D02*
X73524Y343209D01*
X79724D01*
X68799Y341339D02*
X71653D01*
X71289Y321880D02*
Y325955D01*
Y321880D02*
X71319Y321850D01*
X71260Y325984D02*
X71289Y325955D01*
X124016Y362992D02*
X137795D01*
X122441Y364567D02*
X124016Y362992D01*
X137795D02*
X138484Y363681D01*
Y366929D01*
X141043Y361516D02*
Y366929D01*
X134055Y359252D02*
X138779D01*
X141043Y361516D01*
X127756Y358858D02*
Y359252D01*
X143602Y366929D02*
X148425D01*
X576870D02*
X578740Y368799D01*
X568799Y366929D02*
X576870D01*
X578740Y368799D02*
X579724D01*
X604724Y339272D02*
X605413Y338583D01*
X599409Y339272D02*
X604724D01*
X605413Y337402D02*
Y338583D01*
X115157Y351378D02*
Y356102D01*
Y351378D02*
X122500D01*
X122500Y351378D01*
X63681Y332382D02*
Y341339D01*
X76181Y329921D02*
X83858Y322244D01*
Y321850D02*
Y322244D01*
X74016Y329921D02*
X76181D01*
X66240Y337697D02*
X74016Y329921D01*
X66240Y337697D02*
Y341339D01*
X77559Y321850D02*
X77559Y321850D01*
X71319Y321850D02*
X77559D01*
X71319Y311024D02*
Y321850D01*
D20*
X431496Y92126D02*
D03*
Y120472D02*
D03*
X419685D02*
D03*
Y92126D02*
D03*
D21*
X147638Y106398D02*
D03*
Y74705D02*
D03*
D22*
X479134Y78740D02*
D03*
X485433D02*
D03*
X527756Y147638D02*
D03*
X521457D02*
D03*
X527756Y154528D02*
D03*
X521457D02*
D03*
X489961Y154724D02*
D03*
X496260D02*
D03*
X562205Y117126D02*
D03*
X555905D02*
D03*
X562205Y123031D02*
D03*
X555905D02*
D03*
X552362Y98425D02*
D03*
X546063D02*
D03*
X552362Y92520D02*
D03*
X546063D02*
D03*
X53937Y76772D02*
D03*
X60236D02*
D03*
X53937Y64961D02*
D03*
X60236D02*
D03*
X60236Y161417D02*
D03*
X53937D02*
D03*
X60236Y149606D02*
D03*
X53937D02*
D03*
X172539Y40354D02*
D03*
X178839D02*
D03*
X79921Y369094D02*
D03*
X73622D02*
D03*
X96653Y116142D02*
D03*
X90354D02*
D03*
X90354Y110236D02*
D03*
X96653D02*
D03*
X105512Y145669D02*
D03*
X99213D02*
D03*
X105512Y139764D02*
D03*
X99213D02*
D03*
X328543Y147638D02*
D03*
X334842D02*
D03*
X328543Y153543D02*
D03*
X334842D02*
D03*
X334842Y141732D02*
D03*
X328543D02*
D03*
X246850Y162402D02*
D03*
X253150D02*
D03*
X246850Y156496D02*
D03*
X253150D02*
D03*
X253150Y131890D02*
D03*
X246850D02*
D03*
X253150Y137795D02*
D03*
X246850D02*
D03*
X368307Y119095D02*
D03*
X362008D02*
D03*
X368307Y125000D02*
D03*
X362008D02*
D03*
X267520Y162402D02*
D03*
X273819D02*
D03*
X273819Y155512D02*
D03*
X267520D02*
D03*
X141535Y384842D02*
D03*
X147835D02*
D03*
X51378Y368110D02*
D03*
X45079D02*
D03*
X71063Y359252D02*
D03*
X64764D02*
D03*
X83858Y321850D02*
D03*
X77559D02*
D03*
X566142Y361221D02*
D03*
X559842D02*
D03*
X134055Y359252D02*
D03*
X127756D02*
D03*
X630709Y348031D02*
D03*
X637008D02*
D03*
X630709Y342126D02*
D03*
X637008D02*
D03*
D23*
X574409Y99213D02*
D03*
Y91732D02*
D03*
X565354Y95472D02*
D03*
X92126Y83465D02*
D03*
Y75984D02*
D03*
X83071Y79724D02*
D03*
X636811Y382480D02*
D03*
Y375000D02*
D03*
X627756Y378740D02*
D03*
D24*
X559055Y99606D02*
D03*
Y91339D02*
D03*
X238189Y108543D02*
D03*
Y100275D02*
D03*
X86614Y92323D02*
D03*
Y100591D02*
D03*
X364173Y151772D02*
D03*
Y143504D02*
D03*
X350394Y151772D02*
D03*
Y143504D02*
D03*
X357283Y151772D02*
D03*
Y143504D02*
D03*
D25*
X179134Y52362D02*
D03*
Y46063D02*
D03*
X172244Y52362D02*
D03*
Y46063D02*
D03*
X329724Y102559D02*
D03*
Y96260D02*
D03*
X291339Y157283D02*
D03*
Y163583D02*
D03*
X285433Y157283D02*
D03*
Y163583D02*
D03*
X271654Y115945D02*
D03*
Y122244D02*
D03*
X188976Y91339D02*
D03*
Y97638D02*
D03*
X231299Y108465D02*
D03*
Y102165D02*
D03*
X225394Y108465D02*
D03*
Y102165D02*
D03*
X219488Y102165D02*
D03*
Y108465D02*
D03*
X86614Y50000D02*
D03*
Y56299D02*
D03*
Y61811D02*
D03*
Y68110D02*
D03*
X92520Y61811D02*
D03*
Y68110D02*
D03*
Y50000D02*
D03*
Y56299D02*
D03*
X322539Y141732D02*
D03*
Y148031D02*
D03*
X246850Y144095D02*
D03*
Y150394D02*
D03*
X304134Y100591D02*
D03*
Y94291D02*
D03*
X303150Y163583D02*
D03*
Y157283D02*
D03*
X309055Y163583D02*
D03*
Y157283D02*
D03*
X297244Y163583D02*
D03*
Y157283D02*
D03*
X329724Y114370D02*
D03*
Y108071D02*
D03*
X271654Y104134D02*
D03*
Y110433D02*
D03*
X643701Y382087D02*
D03*
Y375787D02*
D03*
X613189Y329921D02*
D03*
Y323622D02*
D03*
X607283D02*
D03*
Y329921D02*
D03*
X601378Y323622D02*
D03*
Y329921D02*
D03*
X599409Y375197D02*
D03*
Y368898D02*
D03*
X589567Y368898D02*
D03*
Y375197D02*
D03*
X667323Y346654D02*
D03*
Y340354D02*
D03*
D26*
X161221Y44685D02*
D03*
X153740D02*
D03*
X157480Y53740D02*
D03*
X76968Y384055D02*
D03*
X73228Y375000D02*
D03*
X80709D02*
D03*
X47835Y385236D02*
D03*
X44094Y376181D02*
D03*
X51575D02*
D03*
X659055Y346457D02*
D03*
X651575D02*
D03*
X655315Y355512D02*
D03*
X651575Y340748D02*
D03*
X659055D02*
D03*
X655315Y331693D02*
D03*
D27*
X137795Y44882D02*
D03*
X141535Y53543D02*
D03*
X134055D02*
D03*
D28*
X454921Y126969D02*
D03*
X448622D02*
D03*
X448622Y87598D02*
D03*
X454921D02*
D03*
X476181Y135827D02*
D03*
X482480D02*
D03*
X476181Y122047D02*
D03*
X482480D02*
D03*
X531299Y78740D02*
D03*
X537598D02*
D03*
X547441Y131890D02*
D03*
X541142D02*
D03*
X498819Y78740D02*
D03*
X505118D02*
D03*
X496260Y147638D02*
D03*
X489961D02*
D03*
X496260Y141732D02*
D03*
X489961D02*
D03*
X210433Y81693D02*
D03*
X216732D02*
D03*
X121260Y84646D02*
D03*
X114961D02*
D03*
X121260Y77756D02*
D03*
X114961D02*
D03*
D29*
X446772Y119488D02*
D03*
Y95079D02*
D03*
X456772D02*
D03*
Y119488D02*
D03*
D30*
X476378Y130561D02*
D03*
Y127313D02*
D03*
D31*
X492126Y125984D02*
D03*
Y124016D02*
D03*
Y122047D02*
D03*
Y120079D02*
D03*
Y118110D02*
D03*
Y116142D02*
D03*
Y114173D02*
D03*
Y112205D02*
D03*
Y110236D02*
D03*
Y108268D02*
D03*
Y106299D02*
D03*
Y104331D02*
D03*
Y102362D02*
D03*
Y100394D02*
D03*
Y98425D02*
D03*
Y96457D02*
D03*
X537402D02*
D03*
Y98425D02*
D03*
Y100394D02*
D03*
Y102362D02*
D03*
Y104331D02*
D03*
Y106299D02*
D03*
Y108268D02*
D03*
Y110236D02*
D03*
Y112205D02*
D03*
Y114173D02*
D03*
Y116142D02*
D03*
Y118110D02*
D03*
Y120079D02*
D03*
Y122047D02*
D03*
Y124016D02*
D03*
Y125984D02*
D03*
D32*
X500000Y88583D02*
D03*
X501968D02*
D03*
X503937D02*
D03*
X505905D02*
D03*
X507874D02*
D03*
X509842D02*
D03*
X511811D02*
D03*
X513779D02*
D03*
X515748D02*
D03*
X517717D02*
D03*
X519685D02*
D03*
X521654D02*
D03*
X523622D02*
D03*
X525591D02*
D03*
X527559D02*
D03*
X529528D02*
D03*
Y133858D02*
D03*
X527559D02*
D03*
X525591D02*
D03*
X523622D02*
D03*
X521654D02*
D03*
X519685D02*
D03*
X517717D02*
D03*
X515748D02*
D03*
X513779D02*
D03*
X511811D02*
D03*
X509842D02*
D03*
X507874D02*
D03*
X505905D02*
D03*
X503937D02*
D03*
X501968D02*
D03*
X500000D02*
D03*
D33*
X470472Y104527D02*
D03*
Y98228D02*
D03*
X476378Y104527D02*
D03*
Y98228D02*
D03*
X482283Y104527D02*
D03*
Y98228D02*
D03*
X229331Y81890D02*
D03*
Y75591D02*
D03*
X200787Y97638D02*
D03*
Y91339D02*
D03*
X194882Y97638D02*
D03*
Y91339D02*
D03*
X258858Y137992D02*
D03*
Y131693D02*
D03*
X356299Y118898D02*
D03*
Y125197D02*
D03*
X125984Y118898D02*
D03*
Y125197D02*
D03*
D34*
X210630Y69882D02*
D03*
X222441D02*
D03*
D35*
X121555Y60039D02*
D03*
X108760D02*
D03*
X121555Y165354D02*
D03*
X108760D02*
D03*
D36*
X121358Y70866D02*
D03*
X114862D02*
D03*
X324508Y135433D02*
D03*
X331004D02*
D03*
X264469Y140748D02*
D03*
X270965D02*
D03*
X264469Y128937D02*
D03*
X270965D02*
D03*
X350689Y116142D02*
D03*
X344193D02*
D03*
X350689Y127953D02*
D03*
X344193D02*
D03*
X112894Y142717D02*
D03*
X119390D02*
D03*
D37*
X218996Y88779D02*
D03*
Y92520D02*
D03*
Y96260D02*
D03*
X208169D02*
D03*
Y92520D02*
D03*
Y88779D02*
D03*
D38*
X611079Y201874D02*
D03*
X629079D02*
D03*
D39*
X620079Y227661D02*
D03*
D40*
X307087Y114469D02*
D03*
Y107972D02*
D03*
X297244Y114469D02*
D03*
Y107972D02*
D03*
X284449Y124311D02*
D03*
Y117815D02*
D03*
X319882Y124311D02*
D03*
Y117815D02*
D03*
X599409Y339272D02*
D03*
Y345768D02*
D03*
X592520Y339272D02*
D03*
Y345768D02*
D03*
X579724Y368799D02*
D03*
Y375295D02*
D03*
X79724Y343209D02*
D03*
Y349705D02*
D03*
X154528Y368799D02*
D03*
Y375295D02*
D03*
X555118D02*
D03*
Y368799D02*
D03*
X55118Y349705D02*
D03*
Y343209D02*
D03*
X129921Y375295D02*
D03*
Y368799D02*
D03*
X548228D02*
D03*
Y375295D02*
D03*
X48228Y343209D02*
D03*
Y349705D02*
D03*
X123031Y368799D02*
D03*
Y375295D02*
D03*
D41*
X178150Y221949D02*
D03*
Y234744D02*
D03*
X163386Y221949D02*
D03*
Y234744D02*
D03*
X148622Y221949D02*
D03*
Y234744D02*
D03*
X485236Y304626D02*
D03*
Y291831D02*
D03*
X470472Y304626D02*
D03*
Y291831D02*
D03*
X455709Y304625D02*
D03*
Y291830D02*
D03*
X604331Y303642D02*
D03*
Y290846D02*
D03*
X618110Y303642D02*
D03*
Y290846D02*
D03*
D42*
X121457Y153543D02*
D03*
X108858D02*
D03*
D43*
X116142Y95472D02*
D03*
X100394D02*
D03*
D44*
X104705Y111417D02*
D03*
X109705D02*
D03*
X114705D02*
D03*
X119705D02*
D03*
X104705Y132677D02*
D03*
X109705D02*
D03*
X114705D02*
D03*
X119705D02*
D03*
D45*
X219585Y217520D02*
D03*
X213486D02*
D03*
X224313D02*
D03*
X230411D02*
D03*
X410337Y302165D02*
D03*
X416435D02*
D03*
X405608D02*
D03*
X399510D02*
D03*
D46*
X319882Y112008D02*
D03*
Y100591D02*
D03*
X284449Y112008D02*
D03*
Y100591D02*
D03*
X38386Y352165D02*
D03*
Y340748D02*
D03*
X538386Y377756D02*
D03*
Y366339D02*
D03*
X113189Y377756D02*
D03*
Y366339D02*
D03*
D47*
X313583Y142717D02*
D03*
Y128937D02*
D03*
Y130905D02*
D03*
Y132874D02*
D03*
Y134843D02*
D03*
Y136811D02*
D03*
Y138779D02*
D03*
Y140748D02*
D03*
X290748Y128937D02*
D03*
Y130905D02*
D03*
Y132874D02*
D03*
Y134843D02*
D03*
Y136811D02*
D03*
Y138779D02*
D03*
Y140748D02*
D03*
Y142717D02*
D03*
D48*
X305118Y126378D02*
D03*
X307087D02*
D03*
X309055D02*
D03*
X311024D02*
D03*
X303150D02*
D03*
X301181D02*
D03*
X299213D02*
D03*
X297244D02*
D03*
X295276D02*
D03*
X293307D02*
D03*
Y145276D02*
D03*
X295276D02*
D03*
X297244D02*
D03*
X299213D02*
D03*
X301181D02*
D03*
X303150D02*
D03*
X305118D02*
D03*
X307087D02*
D03*
X309055D02*
D03*
X311024D02*
D03*
D49*
X122500Y327756D02*
D03*
Y335630D02*
D03*
Y343504D02*
D03*
Y351378D02*
D03*
X71319Y311024D02*
D03*
Y303150D02*
D03*
Y295276D02*
D03*
Y287402D02*
D03*
X578287Y248031D02*
D03*
Y255906D02*
D03*
Y263779D02*
D03*
Y271654D02*
D03*
X597894Y279528D02*
D03*
Y271654D02*
D03*
Y263779D02*
D03*
Y255906D02*
D03*
X549173Y348425D02*
D03*
Y340551D02*
D03*
Y332677D02*
D03*
Y324803D02*
D03*
D50*
X149607Y277559D02*
D03*
Y309055D02*
D03*
X119094Y199803D02*
D03*
Y231299D02*
D03*
X74803Y199803D02*
D03*
Y231299D02*
D03*
X515748Y321850D02*
D03*
Y290354D02*
D03*
X519684Y214567D02*
D03*
Y246063D02*
D03*
X475394Y214567D02*
D03*
Y246063D02*
D03*
D51*
X135925Y366929D02*
D03*
X138484D02*
D03*
X141043D02*
D03*
X143602D02*
D03*
X135925Y377165D02*
D03*
X138484D02*
D03*
X141043D02*
D03*
X143602D02*
D03*
X605413Y337402D02*
D03*
X607972D02*
D03*
X610532D02*
D03*
X613091D02*
D03*
X605413Y347638D02*
D03*
X607972D02*
D03*
X610532D02*
D03*
X613091D02*
D03*
X61122Y341339D02*
D03*
X63681D02*
D03*
X66240D02*
D03*
X68799D02*
D03*
X61122Y351575D02*
D03*
X63681D02*
D03*
X66240D02*
D03*
X68799D02*
D03*
X561122Y366929D02*
D03*
X563681D02*
D03*
X566240D02*
D03*
X568799D02*
D03*
X561122Y377165D02*
D03*
X563681D02*
D03*
X566240D02*
D03*
X568799D02*
D03*
D52*
X185118Y257421D02*
D03*
Y262421D02*
D03*
Y252421D02*
D03*
Y247421D02*
D03*
X444803Y272106D02*
D03*
Y267106D02*
D03*
Y277106D02*
D03*
Y282106D02*
D03*
D53*
X161768Y262421D02*
D03*
Y257421D02*
D03*
Y252421D02*
D03*
Y247421D02*
D03*
X468153Y267106D02*
D03*
Y272106D02*
D03*
Y277106D02*
D03*
Y282106D02*
D03*
D54*
X585827Y244094D02*
D03*
X597244D02*
D03*
D55*
X22638Y356102D02*
D03*
Y336811D02*
D03*
X522638Y381693D02*
D03*
Y362402D02*
D03*
X97441Y381693D02*
D03*
Y362402D02*
D03*
D56*
X131417Y253543D02*
D03*
X148110D02*
D03*
X498504Y270669D02*
D03*
X481811D02*
D03*
D57*
X190945Y309646D02*
D03*
Y276969D02*
D03*
X218504Y309646D02*
D03*
Y276969D02*
D03*
X411417Y250394D02*
D03*
Y217717D02*
D03*
X438976Y250394D02*
D03*
Y217717D02*
D03*
D58*
X439587Y287752D02*
D03*
X434587D02*
D03*
X429587D02*
D03*
X424587D02*
D03*
X191319Y235870D02*
D03*
X196319D02*
D03*
X201319D02*
D03*
X206319D02*
D03*
D59*
X439587Y311102D02*
D03*
X434587D02*
D03*
X424587D02*
D03*
X429587D02*
D03*
X191319Y212520D02*
D03*
X196319D02*
D03*
X206319D02*
D03*
X201319D02*
D03*
D117*
X441929Y127953D02*
D03*
X461614Y87598D02*
D03*
X71319Y321850D02*
D03*
X578346Y232283D02*
D03*
X59055Y360236D02*
D03*
X58858Y375984D02*
D03*
X551181Y360236D02*
D03*
X563681Y385827D02*
D03*
X589567Y384646D02*
D03*
X622835Y342126D02*
D03*
X134843Y384842D02*
D03*
X161417D02*
D03*
X115157Y351378D02*
D03*
X479134Y71653D02*
D03*
X463583Y126969D02*
D03*
Y132874D02*
D03*
X90551Y122047D02*
D03*
X261811Y122244D02*
D03*
X338583Y108071D02*
D03*
X271654Y98228D02*
D03*
X338583Y96260D02*
D03*
X305118Y88189D02*
D03*
X294488D02*
D03*
X59055Y113189D02*
D03*
D118*
X112205Y122047D02*
D03*
D119*
X302165Y135827D02*
D03*
D120*
X597244Y232283D02*
D03*
X79724Y337598D02*
D03*
X7874Y346457D02*
D03*
X522638Y344488D02*
D03*
X579724Y363189D02*
D03*
X79724Y251969D02*
D03*
X154528Y363189D02*
D03*
D121*
X364173Y136811D02*
D03*
D122*
X208032Y28543D02*
X219646Y40157D01*
X240945D02*
X254724Y53937D01*
X219646Y40157D02*
X240945D01*
X218032Y28543D02*
X226496Y37008D01*
X245669D02*
X257874Y49213D01*
X226496Y37008D02*
X245669D01*
X254724Y53937D02*
X257874D01*
X208032Y11811D02*
X214331Y5512D01*
X259449D01*
X268110Y14173D01*
Y72681D01*
X264413Y76378D02*
X268110Y72681D01*
X226299Y20079D02*
X256693D01*
X218032Y11811D02*
X226299Y20079D01*
X256693D02*
X264413Y27799D01*
Y71653D01*
X592126Y51575D02*
Y53150D01*
X556693Y40945D02*
X576772D01*
X542913Y44094D02*
X575197D01*
X576772Y40945D02*
X587402Y51575D01*
Y53150D01*
X582677Y51575D02*
Y53150D01*
X567323Y21732D02*
Y26772D01*
X592126Y51575D01*
X575197Y44094D02*
X582677Y51575D01*
X547323Y21732D02*
Y31575D01*
X556693Y40945D01*
X527323Y28504D02*
X542913Y44094D01*
X527323Y21732D02*
Y28504D01*
X60236Y76772D02*
Y77165D01*
X62992Y79921D01*
Y81890D01*
Y68110D02*
Y70079D01*
X60236Y65354D02*
X62992Y68110D01*
X60236Y64961D02*
Y65354D01*
X577165Y111811D02*
X632283D01*
X655512Y88583D01*
X656496D01*
X662402Y106299D02*
X668307Y112205D01*
X650787Y106299D02*
X662402D01*
X641339Y115748D02*
X650787Y106299D01*
X577165Y115748D02*
X641339D01*
X649016Y119685D02*
X656496Y112205D01*
X577165Y119685D02*
X649016D01*
X456772Y95079D02*
Y106772D01*
X466142Y116142D01*
X492126D01*
X464961Y118110D02*
X492126D01*
X460236Y113386D02*
X464961Y118110D01*
X452046Y113386D02*
X460236D01*
X441929Y127953D02*
X447638D01*
X448622Y126969D01*
X454921Y87598D02*
X461614D01*
X454921Y87992D02*
X456772Y89842D01*
X454921Y87598D02*
Y87992D01*
X456772Y89842D02*
Y95079D01*
X447240Y125203D02*
X447250D01*
X448622Y126575D02*
Y126969D01*
X446772Y124734D02*
X447240Y125203D01*
X447250D02*
X448622Y126575D01*
X446772Y118660D02*
Y124734D01*
Y118660D02*
X452046Y113386D01*
X465896Y130561D02*
X476378D01*
X463583Y132874D02*
X465896Y130561D01*
X463583Y126969D02*
X463755Y127141D01*
X476206D02*
X476378Y127313D01*
X463755Y127141D02*
X476206D01*
X476378Y127313D02*
X481864D01*
X482480Y122047D02*
Y126697D01*
X481864Y127313D02*
X482480Y126697D01*
Y121653D02*
X484055Y120079D01*
X492126D01*
X482480Y121653D02*
Y122047D01*
X478340Y131293D02*
X482480Y135433D01*
Y135827D01*
X477110Y131293D02*
X478340D01*
X476378Y130561D02*
X477110Y131293D01*
X482480Y135433D02*
X486614Y131299D01*
Y124409D02*
Y131299D01*
Y124409D02*
X488976Y122047D01*
X492126D01*
D123*
X535906Y3150D02*
X601968D01*
X527323Y11732D02*
X535906Y3150D01*
X553150Y5906D02*
X580709D01*
X547323Y11732D02*
X553150Y5906D01*
X580709D02*
X608268Y33465D01*
X583071Y27480D02*
Y36220D01*
X567323Y11732D02*
X583071Y27480D01*
Y36220D02*
X588583Y41732D01*
X623622D01*
X631890Y33465D01*
X601968Y3150D02*
X608268Y9449D01*
Y21654D01*
D124*
X424597Y306703D02*
X424606Y306693D01*
X424587Y311102D02*
X424597Y311092D01*
Y306703D02*
Y311092D01*
X444803Y267106D02*
X444911Y267215D01*
X449213D01*
X206309Y212529D02*
Y216919D01*
Y212529D02*
X206319Y212520D01*
X206299Y216929D02*
X206309Y216919D01*
X180709Y262313D02*
X185010D01*
X185118Y262421D01*
D125*
X656496Y124016D02*
D03*
Y53150D02*
D03*
X643701Y33465D02*
D03*
X596457D02*
D03*
D126*
X656496Y112205D02*
D03*
Y100394D02*
D03*
Y88583D02*
D03*
Y76772D02*
D03*
Y64961D02*
D03*
X668307Y112205D02*
D03*
Y100394D02*
D03*
Y88583D02*
D03*
Y76772D02*
D03*
Y64961D02*
D03*
X631890Y33465D02*
D03*
X620079D02*
D03*
X608268D02*
D03*
X631890Y21654D02*
D03*
X620079D02*
D03*
X608268D02*
D03*
X288307Y11811D02*
D03*
X298307D02*
D03*
X278307D02*
D03*
X288307Y28543D02*
D03*
X298307D02*
D03*
X278307D02*
D03*
X517323Y21732D02*
D03*
X527323D02*
D03*
X537323D02*
D03*
X557323D02*
D03*
X547323D02*
D03*
X567323Y11732D02*
D03*
X557323D02*
D03*
X547323D02*
D03*
X537323D02*
D03*
X527323D02*
D03*
X517323D02*
D03*
X198031Y28543D02*
D03*
X208032D02*
D03*
X218032D02*
D03*
X238032D02*
D03*
X228031D02*
D03*
X198031Y11811D02*
D03*
X208032D02*
D03*
X218032D02*
D03*
X238032D02*
D03*
X228031D02*
D03*
X388071Y18622D02*
D03*
Y28622D02*
D03*
X398071Y18622D02*
D03*
Y28622D02*
D03*
X408071Y18622D02*
D03*
Y28622D02*
D03*
X418071Y18622D02*
D03*
Y28622D02*
D03*
X428071Y18622D02*
D03*
Y28622D02*
D03*
X438071Y18622D02*
D03*
Y28622D02*
D03*
X448071Y18622D02*
D03*
Y28622D02*
D03*
X458071Y18622D02*
D03*
Y28622D02*
D03*
X468071Y18622D02*
D03*
Y28622D02*
D03*
X478071Y18622D02*
D03*
X20669Y88583D02*
D03*
X32480Y53150D02*
D03*
Y76772D02*
D03*
Y88583D02*
D03*
X20669Y53150D02*
D03*
Y64961D02*
D03*
Y76772D02*
D03*
X32480Y64961D02*
D03*
Y149606D02*
D03*
Y161417D02*
D03*
X20669Y149606D02*
D03*
Y161417D02*
D03*
D127*
X308307Y11811D02*
D03*
Y28543D02*
D03*
X567323Y21732D02*
D03*
X248031Y28543D02*
D03*
Y11811D02*
D03*
X478071Y28622D02*
D03*
D128*
X135984Y11811D02*
D03*
X168150D02*
D03*
X37736Y123189D02*
D03*
X229331Y141969D02*
D03*
D129*
X145984Y11811D02*
D03*
X158150D02*
D03*
D130*
X344488Y377953D02*
D03*
Y15748D02*
D03*
X673228D02*
D03*
X15748D02*
D03*
X673228Y377953D02*
D03*
X15748Y377953D02*
D03*
D131*
X369488Y237598D02*
D03*
X260433Y293898D02*
D03*
D132*
X369488D02*
D03*
X260433Y237598D02*
D03*
D133*
X37736Y113189D02*
D03*
X229331Y151969D02*
D03*
D134*
X16929Y100394D02*
D03*
Y41339D02*
D03*
D135*
X76378Y23622D02*
D03*
X104724D02*
D03*
X665354Y186417D02*
D03*
Y158071D02*
D03*
D136*
X661417Y297244D02*
D03*
Y253937D02*
D03*
X435039Y364134D02*
D03*
X478346D02*
D03*
X190945Y364173D02*
D03*
X234252D02*
D03*
X25591Y307087D02*
D03*
Y263779D02*
D03*
D137*
X16969Y137795D02*
D03*
Y173228D02*
D03*
D138*
X178740Y17323D02*
D03*
X438189Y64173D02*
D03*
X414961Y108661D02*
D03*
X62992Y175591D02*
D03*
X66142Y178347D02*
D03*
X151575Y148425D02*
D03*
Y152756D02*
D03*
X498032Y166929D02*
D03*
X503543D02*
D03*
X484135Y172047D02*
D03*
X484252Y166535D02*
D03*
X480921Y174803D02*
D03*
X480975Y169291D02*
D03*
X481128Y163779D02*
D03*
X500787Y169685D02*
D03*
Y164173D02*
D03*
X532677Y126772D02*
D03*
X389370Y84646D02*
D03*
X426772Y87084D02*
D03*
X655315Y351378D02*
D03*
X576378Y185039D02*
D03*
X557874D02*
D03*
X562992D02*
D03*
X529921Y141339D02*
D03*
X640158Y348031D02*
D03*
X571654Y185039D02*
D03*
X567323D02*
D03*
X129724Y387598D02*
D03*
X516142Y277953D02*
D03*
X381496Y140551D02*
D03*
X384055Y119095D02*
D03*
Y125000D02*
D03*
X538189Y360630D02*
D03*
X643701Y372047D02*
D03*
X585827Y237402D02*
D03*
X592126Y271654D02*
D03*
X299016Y94291D02*
D03*
X288583Y88189D02*
D03*
X311024D02*
D03*
X290945Y114567D02*
D03*
X285039Y133858D02*
D03*
X288307Y43307D02*
D03*
X291339Y46063D02*
D03*
X172835Y212598D02*
D03*
Y216535D02*
D03*
Y208661D02*
D03*
X122835Y265354D02*
D03*
X207480Y149606D02*
D03*
X212205D02*
D03*
X189764Y159055D02*
D03*
X98819Y151969D02*
D03*
Y155118D02*
D03*
Y162598D02*
D03*
Y166142D02*
D03*
Y169685D02*
D03*
X260630Y76378D02*
D03*
Y71653D02*
D03*
X260236Y46063D02*
D03*
Y57087D02*
D03*
X131004Y167913D02*
D03*
X127067D02*
D03*
X264413Y71653D02*
D03*
Y76378D02*
D03*
X257874Y53937D02*
D03*
Y49213D02*
D03*
X373205Y94465D02*
D03*
X368898Y97638D02*
D03*
X369861Y101751D02*
D03*
X377690Y96193D02*
D03*
X373775Y98972D02*
D03*
X589764Y56299D02*
D03*
X585039D02*
D03*
X592126Y53150D02*
D03*
X587402D02*
D03*
X582677D02*
D03*
X560236Y57874D02*
D03*
X557323Y60630D02*
D03*
X562205Y127953D02*
D03*
X102756Y169685D02*
D03*
Y166142D02*
D03*
Y162598D02*
D03*
Y155118D02*
D03*
Y151969D02*
D03*
X88189Y130315D02*
D03*
X96063Y134252D02*
D03*
X92126D02*
D03*
Y130315D02*
D03*
X66929Y81890D02*
D03*
Y70079D02*
D03*
X62992Y81890D02*
D03*
Y70079D02*
D03*
X216535Y155905D02*
D03*
X362992Y177559D02*
D03*
X368504D02*
D03*
X365748Y180315D02*
D03*
Y174966D02*
D03*
X208268Y200787D02*
D03*
X239764Y224410D02*
D03*
X235827Y220472D02*
D03*
X239764Y216535D02*
D03*
X235827Y212598D02*
D03*
X239764Y208661D02*
D03*
Y200787D02*
D03*
X235827D02*
D03*
Y204724D02*
D03*
X231890Y200787D02*
D03*
X216142D02*
D03*
X184646Y208268D02*
D03*
Y204724D02*
D03*
Y200787D02*
D03*
X188583D02*
D03*
X192520D02*
D03*
X200394D02*
D03*
Y208268D02*
D03*
X87205Y122047D02*
D03*
X124016Y43307D02*
D03*
X118110D02*
D03*
X112205D02*
D03*
X106299D02*
D03*
X100394D02*
D03*
X100394Y49213D02*
D03*
X106299D02*
D03*
X112205D02*
D03*
X118110D02*
D03*
X124016D02*
D03*
X542913Y77953D02*
D03*
X547244D02*
D03*
X487402Y85433D02*
D03*
X484922Y88551D02*
D03*
X487795Y90945D02*
D03*
X519291Y79528D02*
D03*
X516535Y83465D02*
D03*
X521260D02*
D03*
X513779Y79528D02*
D03*
X511811Y83465D02*
D03*
X504331Y149606D02*
D03*
X503937Y144095D02*
D03*
X573622Y113386D02*
D03*
Y118110D02*
D03*
X577165Y111811D02*
D03*
Y115748D02*
D03*
Y119685D02*
D03*
X562402Y104724D02*
D03*
X525984Y109449D02*
D03*
X419685Y97244D02*
D03*
Y115354D02*
D03*
X484646Y111795D02*
D03*
X502362Y105905D02*
D03*
Y111024D02*
D03*
X497638Y108268D02*
D03*
Y112598D02*
D03*
Y103937D02*
D03*
X500873Y95952D02*
D03*
X515945Y151181D02*
D03*
X517913Y154528D02*
D03*
Y147638D02*
D03*
X527756Y158661D02*
D03*
X562205Y112992D02*
D03*
X546457Y116142D02*
D03*
Y112205D02*
D03*
X542913Y109843D02*
D03*
Y118504D02*
D03*
Y114173D02*
D03*
X532283Y91732D02*
D03*
X516535Y96457D02*
D03*
Y101575D02*
D03*
X520884Y103149D02*
D03*
X520867Y99409D02*
D03*
X574409Y102362D02*
D03*
X542323Y98425D02*
D03*
X520850Y95669D02*
D03*
X524697D02*
D03*
X528543D02*
D03*
X532283D02*
D03*
X520866Y129134D02*
D03*
X500394Y101181D02*
D03*
X497142Y98490D02*
D03*
X497244Y93307D02*
D03*
X491732Y91339D02*
D03*
X161221Y48228D02*
D03*
X511417Y147638D02*
D03*
X508661Y127165D02*
D03*
X529134Y122047D02*
D03*
X525197D02*
D03*
X526772Y125591D02*
D03*
X522441D02*
D03*
X512205Y125394D02*
D03*
Y129134D02*
D03*
X514173Y144882D02*
D03*
X511417Y142126D02*
D03*
X450000Y82677D02*
D03*
X453543Y131890D02*
D03*
X471654Y133071D02*
D03*
Y124803D02*
D03*
X498425Y125197D02*
D03*
X202756Y86614D02*
D03*
X198819D02*
D03*
X194882D02*
D03*
X190945D02*
D03*
X187008D02*
D03*
X504134Y74016D02*
D03*
X499803D02*
D03*
X532283D02*
D03*
X536614D02*
D03*
X542323Y136614D02*
D03*
X546063D02*
D03*
X500984Y147638D02*
D03*
Y141732D02*
D03*
X482283Y108661D02*
D03*
X476378D02*
D03*
X470472D02*
D03*
X482283Y94882D02*
D03*
X476378D02*
D03*
X470472D02*
D03*
X350394Y138583D02*
D03*
X281102Y164567D02*
D03*
X270866Y151772D02*
D03*
X318440Y158853D02*
D03*
X318446Y154857D02*
D03*
X314961Y157480D02*
D03*
X297351Y153256D02*
D03*
X310236Y152362D02*
D03*
X314967Y153484D02*
D03*
X333661Y102559D02*
D03*
X333661Y108071D02*
D03*
X276181Y100000D02*
D03*
X279134Y112992D02*
D03*
X276181Y110433D02*
D03*
X276181Y115945D02*
D03*
X228346Y113386D02*
D03*
X244094Y78740D02*
D03*
X236221D02*
D03*
X240158D02*
D03*
Y82677D02*
D03*
Y74803D02*
D03*
X236221D02*
D03*
X244094D02*
D03*
Y82677D02*
D03*
X236221D02*
D03*
X242638Y108543D02*
D03*
X215158Y108465D02*
D03*
X213583Y90551D02*
D03*
Y94488D02*
D03*
X194882Y102362D02*
D03*
X200787D02*
D03*
X188976Y102756D02*
D03*
X208169Y99311D02*
D03*
X92520Y44291D02*
D03*
X95669Y102362D02*
D03*
X99606D02*
D03*
X103543D02*
D03*
Y88583D02*
D03*
X99606D02*
D03*
X95669D02*
D03*
X103347Y53150D02*
D03*
Y57087D02*
D03*
X87008Y116142D02*
D03*
Y110236D02*
D03*
X99213Y135827D02*
D03*
X96063Y75984D02*
D03*
Y83465D02*
D03*
X97441Y68898D02*
D03*
X127067Y162795D02*
D03*
X131004D02*
D03*
X126969Y156102D02*
D03*
X130905D02*
D03*
Y150984D02*
D03*
X126969D02*
D03*
X123031Y145669D02*
D03*
X126969D02*
D03*
Y139764D02*
D03*
X123031D02*
D03*
X114764Y124606D02*
D03*
Y119488D02*
D03*
X109646D02*
D03*
Y124606D02*
D03*
X104527Y119488D02*
D03*
Y124606D02*
D03*
X119882Y119488D02*
D03*
Y124606D02*
D03*
X107087Y107087D02*
D03*
X103347Y61024D02*
D03*
Y64961D02*
D03*
X111221Y68898D02*
D03*
Y72835D02*
D03*
Y75787D02*
D03*
Y79724D02*
D03*
Y82677D02*
D03*
Y86614D02*
D03*
X327953Y122047D02*
D03*
X315342Y121933D02*
D03*
X305906Y121290D02*
D03*
X307874Y118110D02*
D03*
X340158Y153543D02*
D03*
Y147638D02*
D03*
X267520Y166732D02*
D03*
X298622Y118504D02*
D03*
X312008Y117126D02*
D03*
X320866Y134252D02*
D03*
Y137008D02*
D03*
X274606Y126378D02*
D03*
Y131299D02*
D03*
Y138189D02*
D03*
Y143110D02*
D03*
X340551Y118701D02*
D03*
Y113779D02*
D03*
Y130512D02*
D03*
Y125591D02*
D03*
X334646Y137795D02*
D03*
Y132874D02*
D03*
X309055Y104331D02*
D03*
X305118D02*
D03*
X299213D02*
D03*
X295276D02*
D03*
X290551Y122441D02*
D03*
X297598Y129724D02*
D03*
Y133405D02*
D03*
X294094D02*
D03*
X297598Y141929D02*
D03*
Y138248D02*
D03*
X294094D02*
D03*
X306732Y141929D02*
D03*
Y138248D02*
D03*
X310236D02*
D03*
X306732Y129724D02*
D03*
Y133405D02*
D03*
X310236D02*
D03*
X302165Y141929D02*
D03*
Y138248D02*
D03*
Y129724D02*
D03*
Y133405D02*
D03*
X632677Y382480D02*
D03*
X122441Y364567D02*
D03*
X147835Y380512D02*
D03*
X107087Y377559D02*
D03*
X76968Y387598D02*
D03*
X63681Y332382D02*
D03*
X32283Y351969D02*
D03*
X73622Y354724D02*
D03*
X80709Y378740D02*
D03*
X73228D02*
D03*
X45079Y364173D02*
D03*
X55118Y368110D02*
D03*
X647835Y340748D02*
D03*
X667323Y350394D02*
D03*
X640158Y342126D02*
D03*
X616535Y338189D02*
D03*
Y334252D02*
D03*
X555283Y352362D02*
D03*
Y356267D02*
D03*
X382283Y299213D02*
D03*
Y307087D02*
D03*
Y314961D02*
D03*
X394094Y314567D02*
D03*
Y310630D02*
D03*
Y306693D02*
D03*
Y298819D02*
D03*
X419291D02*
D03*
X421260Y346457D02*
D03*
X216535Y377953D02*
D03*
Y346457D02*
D03*
X248031D02*
D03*
X224409Y338583D02*
D03*
X240157D02*
D03*
X224409Y385827D02*
D03*
X240157D02*
D03*
X263779Y346457D02*
D03*
Y362205D02*
D03*
Y377953D02*
D03*
X279527Y346457D02*
D03*
Y362205D02*
D03*
Y377953D02*
D03*
X295275Y346457D02*
D03*
Y362205D02*
D03*
Y377953D02*
D03*
X311024Y346457D02*
D03*
Y362205D02*
D03*
Y377953D02*
D03*
X326772Y346457D02*
D03*
Y362205D02*
D03*
Y377953D02*
D03*
X342520Y346457D02*
D03*
Y362205D02*
D03*
X358268Y346457D02*
D03*
Y362205D02*
D03*
X374016Y346457D02*
D03*
Y362205D02*
D03*
Y377953D02*
D03*
X255905Y338583D02*
D03*
Y354331D02*
D03*
Y370079D02*
D03*
Y385827D02*
D03*
X271654Y338583D02*
D03*
Y354331D02*
D03*
Y370079D02*
D03*
Y385827D02*
D03*
X287402Y338583D02*
D03*
Y354331D02*
D03*
Y370079D02*
D03*
Y385827D02*
D03*
X303150Y338583D02*
D03*
Y354331D02*
D03*
Y370079D02*
D03*
Y385827D02*
D03*
X318898Y338583D02*
D03*
Y354331D02*
D03*
Y370079D02*
D03*
Y385827D02*
D03*
X334646Y338583D02*
D03*
Y354331D02*
D03*
X350394Y338583D02*
D03*
Y354331D02*
D03*
X366142Y338583D02*
D03*
Y354331D02*
D03*
Y370079D02*
D03*
Y385827D02*
D03*
X551181Y378740D02*
D03*
X545276D02*
D03*
X594488Y368898D02*
D03*
X528346Y375197D02*
D03*
X516929D02*
D03*
X528346Y388189D02*
D03*
X516929D02*
D03*
X532283Y377559D02*
D03*
X563779Y370866D02*
D03*
X605118Y282677D02*
D03*
X602756Y279528D02*
D03*
X596457Y327559D02*
D03*
Y323622D02*
D03*
X587402Y344488D02*
D03*
X609449Y342913D02*
D03*
X585039Y374016D02*
D03*
X623032Y309055D02*
D03*
Y312992D02*
D03*
X619095D02*
D03*
X615158D02*
D03*
X611221Y309055D02*
D03*
Y312992D02*
D03*
X607283D02*
D03*
X603346D02*
D03*
X599409D02*
D03*
Y309055D02*
D03*
X622047Y205709D02*
D03*
X618110D02*
D03*
X622047Y201772D02*
D03*
X618110D02*
D03*
X622047Y197835D02*
D03*
X618110D02*
D03*
X606299Y205709D02*
D03*
Y201772D02*
D03*
Y197835D02*
D03*
X633858Y205709D02*
D03*
Y201772D02*
D03*
Y197835D02*
D03*
Y193898D02*
D03*
X629921D02*
D03*
X625984D02*
D03*
X622047D02*
D03*
X618110D02*
D03*
X614173D02*
D03*
X610236D02*
D03*
X606299D02*
D03*
X569882Y226378D02*
D03*
X554134D02*
D03*
X585630Y210630D02*
D03*
X577756Y218504D02*
D03*
X569882Y210630D02*
D03*
X562008Y218504D02*
D03*
X546260D02*
D03*
X554134Y210630D02*
D03*
X467520Y202756D02*
D03*
X483268D02*
D03*
X499016D02*
D03*
X514764D02*
D03*
X530512D02*
D03*
X546260D02*
D03*
X562008D02*
D03*
X577756D02*
D03*
X593504D02*
D03*
X601378Y194882D02*
D03*
X585630D02*
D03*
X569882D02*
D03*
X554134D02*
D03*
X538386D02*
D03*
X522638D02*
D03*
X506890D02*
D03*
X491142D02*
D03*
X475394D02*
D03*
X459646Y226378D02*
D03*
Y210630D02*
D03*
Y194882D02*
D03*
X46850Y240158D02*
D03*
Y224410D02*
D03*
Y208661D02*
D03*
Y192913D02*
D03*
X31102Y240158D02*
D03*
Y192913D02*
D03*
Y208661D02*
D03*
Y224410D02*
D03*
X38976Y248031D02*
D03*
Y232283D02*
D03*
Y216535D02*
D03*
Y200787D02*
D03*
X7480Y248031D02*
D03*
Y232283D02*
D03*
Y216535D02*
D03*
Y200787D02*
D03*
X15354Y240158D02*
D03*
Y224410D02*
D03*
Y208661D02*
D03*
X23228Y232283D02*
D03*
Y216535D02*
D03*
Y200787D02*
D03*
X15354Y192913D02*
D03*
X7480Y185039D02*
D03*
X23228D02*
D03*
X38976D02*
D03*
X120472Y379134D02*
D03*
X125197D02*
D03*
X50394Y353543D02*
D03*
X45669D02*
D03*
X68504Y328740D02*
D03*
X71260Y325984D02*
D03*
X84646Y349606D02*
D03*
X159843Y372835D02*
D03*
X413386Y385827D02*
D03*
X381890D02*
D03*
X397638D02*
D03*
X413386Y370079D02*
D03*
X381890D02*
D03*
X397638D02*
D03*
X405512Y377953D02*
D03*
X389764D02*
D03*
X405512Y362205D02*
D03*
X389764D02*
D03*
X405512Y346457D02*
D03*
X413386Y354331D02*
D03*
X397638D02*
D03*
X389764Y346457D02*
D03*
X381890Y354331D02*
D03*
X452756Y346457D02*
D03*
X444882Y338583D02*
D03*
X429134D02*
D03*
X413386D02*
D03*
X397638D02*
D03*
X381890D02*
D03*
X484252Y330709D02*
D03*
X468504D02*
D03*
X452756D02*
D03*
X437008D02*
D03*
X421260D02*
D03*
X405512D02*
D03*
X389764D02*
D03*
X493110Y322835D02*
D03*
X476378D02*
D03*
X460630D02*
D03*
X444882D02*
D03*
X429134D02*
D03*
X413386D02*
D03*
X397638D02*
D03*
X381890D02*
D03*
X419291Y302756D02*
D03*
X386221Y295276D02*
D03*
X390158Y299213D02*
D03*
Y307087D02*
D03*
Y314961D02*
D03*
X394094Y302756D02*
D03*
X386221Y303150D02*
D03*
Y311024D02*
D03*
X398031Y314961D02*
D03*
X413779D02*
D03*
X405905D02*
D03*
X417717D02*
D03*
X419291Y306693D02*
D03*
Y310630D02*
D03*
X409842Y314961D02*
D03*
X401968D02*
D03*
X161417Y297244D02*
D03*
X156890Y315945D02*
D03*
Y312008D02*
D03*
Y308071D02*
D03*
Y304134D02*
D03*
X160827D02*
D03*
Y308071D02*
D03*
Y312008D02*
D03*
Y315945D02*
D03*
X141929Y312008D02*
D03*
Y308071D02*
D03*
Y304134D02*
D03*
Y315945D02*
D03*
X512401Y207677D02*
D03*
Y211614D02*
D03*
Y215551D02*
D03*
Y219488D02*
D03*
X508464D02*
D03*
Y215551D02*
D03*
Y211614D02*
D03*
Y207677D02*
D03*
X527362Y211614D02*
D03*
Y215551D02*
D03*
Y219488D02*
D03*
X531299D02*
D03*
Y215551D02*
D03*
Y211614D02*
D03*
Y207677D02*
D03*
X527362D02*
D03*
X468111Y207677D02*
D03*
Y211614D02*
D03*
Y215551D02*
D03*
Y219488D02*
D03*
X464174D02*
D03*
Y215551D02*
D03*
Y211614D02*
D03*
Y207677D02*
D03*
X483071Y211614D02*
D03*
Y215551D02*
D03*
Y219488D02*
D03*
X487008D02*
D03*
Y215551D02*
D03*
Y211614D02*
D03*
Y207677D02*
D03*
X483071D02*
D03*
X523031Y328740D02*
D03*
Y324803D02*
D03*
Y320866D02*
D03*
Y316929D02*
D03*
X526968D02*
D03*
Y320866D02*
D03*
Y324803D02*
D03*
Y328740D02*
D03*
X508071Y324803D02*
D03*
Y320866D02*
D03*
Y316929D02*
D03*
X504134D02*
D03*
Y320866D02*
D03*
Y324803D02*
D03*
Y328740D02*
D03*
X508071D02*
D03*
X449213Y313976D02*
D03*
X464961D02*
D03*
X480709D02*
D03*
X488583D02*
D03*
Y310039D02*
D03*
X480709D02*
D03*
X476772D02*
D03*
X484646D02*
D03*
X472835D02*
D03*
X468898D02*
D03*
X464961D02*
D03*
X461024D02*
D03*
X457087D02*
D03*
X453150D02*
D03*
X449213D02*
D03*
X476772Y313976D02*
D03*
X461024D02*
D03*
X484646D02*
D03*
X468898D02*
D03*
X472835D02*
D03*
X453150D02*
D03*
X457087D02*
D03*
X477264Y270669D02*
D03*
X503051D02*
D03*
X118898Y356102D02*
D03*
X115157Y356102D02*
D03*
X176772Y212598D02*
D03*
X180709D02*
D03*
X161024D02*
D03*
X164961D02*
D03*
X149213D02*
D03*
X66535D02*
D03*
X82284D02*
D03*
X98032D02*
D03*
X113779D02*
D03*
X129528D02*
D03*
X126772Y192913D02*
D03*
X130709D02*
D03*
Y196850D02*
D03*
Y200787D02*
D03*
Y204724D02*
D03*
X126772D02*
D03*
Y200787D02*
D03*
Y196850D02*
D03*
X107874Y192913D02*
D03*
Y196850D02*
D03*
Y200787D02*
D03*
Y204724D02*
D03*
X111811D02*
D03*
Y200787D02*
D03*
Y196850D02*
D03*
Y192913D02*
D03*
X86221D02*
D03*
Y196850D02*
D03*
Y200787D02*
D03*
Y204724D02*
D03*
X63386D02*
D03*
Y200787D02*
D03*
Y196850D02*
D03*
Y192913D02*
D03*
X67323D02*
D03*
Y196850D02*
D03*
Y200787D02*
D03*
Y204724D02*
D03*
X82284D02*
D03*
Y200787D02*
D03*
Y196850D02*
D03*
Y192913D02*
D03*
X94095D02*
D03*
X141339D02*
D03*
X54724Y185039D02*
D03*
X70473D02*
D03*
X86221D02*
D03*
X101969D02*
D03*
X117717D02*
D03*
X133465D02*
D03*
X196457Y208268D02*
D03*
X192520D02*
D03*
Y204724D02*
D03*
X196457D02*
D03*
X200394D02*
D03*
X157087Y212598D02*
D03*
X184646Y216535D02*
D03*
X180709D02*
D03*
X176772D02*
D03*
X168898D02*
D03*
X164961D02*
D03*
X161024D02*
D03*
X149213D02*
D03*
X157087D02*
D03*
X153150D02*
D03*
X145276D02*
D03*
X227953Y204724D02*
D03*
X210630Y209055D02*
D03*
Y212992D02*
D03*
X212205Y204724D02*
D03*
X188583D02*
D03*
X212205Y185039D02*
D03*
X149213D02*
D03*
X164961D02*
D03*
X180709D02*
D03*
X196457D02*
D03*
X227953D02*
D03*
X243701D02*
D03*
X188583Y192913D02*
D03*
X172835D02*
D03*
X157087D02*
D03*
X180709Y200787D02*
D03*
X164961D02*
D03*
X149213D02*
D03*
X164961Y208661D02*
D03*
X157087D02*
D03*
X149213D02*
D03*
X145276Y212598D02*
D03*
X153150D02*
D03*
X168898D02*
D03*
X184646D02*
D03*
X180709Y208661D02*
D03*
X188583Y208268D02*
D03*
X196457Y200787D02*
D03*
X204331Y192913D02*
D03*
X235827D02*
D03*
X216142Y204724D02*
D03*
X208268D02*
D03*
X212205Y200787D02*
D03*
X227953D02*
D03*
X231890Y204724D02*
D03*
X243701Y200787D02*
D03*
Y208661D02*
D03*
Y216535D02*
D03*
X235827D02*
D03*
Y208661D02*
D03*
X239764Y204724D02*
D03*
Y212598D02*
D03*
Y220472D02*
D03*
X243701Y224410D02*
D03*
X235827D02*
D03*
X165354Y293307D02*
D03*
X169291Y297244D02*
D03*
Y305118D02*
D03*
X165354Y301181D02*
D03*
Y309055D02*
D03*
X169291Y312992D02*
D03*
X165354Y316929D02*
D03*
X152657Y253543D02*
D03*
X126870D02*
D03*
X210630Y216929D02*
D03*
D139*
X284252Y128740D02*
D03*
X325590Y125984D02*
D03*
X332677Y118898D02*
D03*
X344488Y368110D02*
D03*
X334646Y377953D02*
D03*
X354331D02*
D03*
X344488Y387795D02*
D03*
X351448Y370993D02*
D03*
X337528D02*
D03*
X351448Y384912D02*
D03*
X337528D02*
D03*
X344488Y5906D02*
D03*
X334646Y15748D02*
D03*
X354331D02*
D03*
X344488Y25591D02*
D03*
X351448Y8788D02*
D03*
X337528D02*
D03*
X351448Y22708D02*
D03*
X337528D02*
D03*
X334055Y96260D02*
D03*
X276181Y104134D02*
D03*
X276181Y122244D02*
D03*
X424606Y306693D02*
D03*
X449213Y267215D02*
D03*
Y262598D02*
D03*
X206299Y216929D02*
D03*
X180709Y266929D02*
D03*
Y262313D02*
D03*
X673228Y5906D02*
D03*
X663386Y15748D02*
D03*
X683071D02*
D03*
X673228Y25591D02*
D03*
X680188Y8788D02*
D03*
X666269D02*
D03*
X680188Y22708D02*
D03*
X666269D02*
D03*
X15748Y5906D02*
D03*
X5906Y15748D02*
D03*
X25591D02*
D03*
X15748Y25591D02*
D03*
X22708Y8788D02*
D03*
X8788D02*
D03*
X22708Y22708D02*
D03*
X8788D02*
D03*
X673228Y368110D02*
D03*
X663386Y377953D02*
D03*
X683071D02*
D03*
X673228Y387795D02*
D03*
X680188Y370993D02*
D03*
X666269D02*
D03*
X680188Y384912D02*
D03*
X666269D02*
D03*
X15748Y368110D02*
D03*
X5906Y377953D02*
D03*
X25591D02*
D03*
X15748Y387795D02*
D03*
X22708Y370993D02*
D03*
X8788D02*
D03*
X22708Y384912D02*
D03*
X8788D02*
D03*
M02*
