M48
;Layer_Color=9474304
;FILE_FORMAT=2:4
INCH,TZ
;TYPE=PLATED
T01F00S00C0.0079
T02F00S00C0.0118
T03F00S00C0.0354
T04F00S00C0.0433
T05F00S00C0.0472
T06F00S00C0.0984
T08F00S00C0.1339
T09F00S00C0.1772
T10F00S00C0.2283
;TYPE=NON_PLATED
T11F00S00C0.0472
T12F00S00C0.0492
T13F00S00C0.1024
%
T01
X6299Y7008
X6693
Y8189
X6299Y8189
X9606Y8346
X9567Y8858
X9961
X10354
X11122Y8661
Y8268
Y7972
Y7579
Y7283
Y6890
X10335Y6496
Y6102
Y5709
Y5315
X10039Y4921
X10630
X11220
X11811
X12402
X12402Y4331
X11811
X11220
X10630
X10039
X9252Y4429
X9744Y6890
X9606Y7598
X9567Y10236
X9961
X10354
X10709Y10709
X10965Y11949
X11476
Y12461
X10965
X10453
Y11949
X11988
Y12461
X12303Y13976
X12697
Y14567
X12303
X12697Y15098
X13091
Y15610
X12697
X10276Y15512
Y15197
X9882Y15197
Y15512
X9921Y13583
X9606Y13425
X9213
Y13032
X8819
X8720Y12205
X8701Y11614
Y11024
X15157Y14843
Y15276
X20748Y14961
X21220
X21654Y15591
X21516Y10846
X21358Y9449
Y9055
X20817Y9931
X20079Y10236
X19488
X18898Y10276
X18701Y8661
X19094
X19488
X19882
X20276
X23622Y8268
Y7874
X24016
X24409
Y8268
X24016
Y7480
X24409
X23622
X26063Y7638
X26441
Y7165
X26063
X26024Y5709
X25787Y5394
Y4921
X26024Y4606
X28831Y4331
X29134Y4606
X28858Y8819
X29902Y9429
X29921Y10433
X29528
X30512
X30906
X30787Y11811
X31201Y11713
X30591Y12129
X30673Y12972
Y13341
X31024
Y13825
X30673
Y14193
X30217
Y13825
X29760
X29409
Y13341
X29760
Y12972
X30217
Y13341
X29760Y14193
X29735Y15326
X31024Y15236
X27087Y15177
X27461Y14311
Y13819
Y13130
Y12638
X27618Y11594
X27618Y11043
X27913Y11299
X29094Y11457
X29055Y12244
X29862Y11850
X28504Y13386
X27618Y10000
X24264Y10854
X22835Y11339
X31102Y8819
X16122Y4823
X17874Y1732
X33366Y10256
X33366Y10807
X34055Y11378
Y11870
Y12559
Y13051
X33465Y13287
Y13780
X32087Y13701
Y13425
X31534Y12193
X32795Y12205
X34016Y14764
Y15354
X31845Y15486
X31497Y15348
X35039Y13858
X38150Y14055
X38406Y12500
Y11909
X37769Y9619
X37321Y9447
X37378Y9897
X36890Y9764
X36986Y10175
X38937Y8465
X42677Y8708
X41968Y9724
X41496Y10866
X41968Y11535
X45354Y13189
X45000Y8268
X43819Y6417
X47047Y9488
X47638
X48228
X48492Y8855
X48780Y9094
X49173Y9134
X49724Y9331
X49714Y9849
X50039Y10118
X49764Y10394
Y10827
Y11260
X50236Y11102
Y10591
X50087Y9595
X51654Y9646
X52085Y9567
X52087Y9941
X52088Y10315
X51654Y10157
X52470Y9567
X52854
X53228
Y9173
X54232Y9843
X54291Y10984
Y11417
Y11850
X54646Y11614
Y11220
X56220Y11299
X56240Y10472
X57441Y10236
X57362Y11339
Y11811
X57717Y11968
Y11575
Y11181
X56220Y12795
X54606Y13661
X54232
X52992Y14134
X53268Y12677
X52677Y12559
X52244
X52087Y12913
X51220
Y12539
X50866Y12717
X49843Y12520
X50098Y14173
X50394Y14409
X50433Y14961
X50098Y14764
X51142
X51417Y14488
X51142Y14213
X51791Y14764
X51594Y15118
X51791Y15453
X52520Y12205
X52913
X52598Y10945
X52126Y8346
X51654
X51181
X51378Y7953
X51929
X53228Y7402
X53661
X54291Y7795
X54724
X55732Y6063
X56024Y5787
X58504Y5630
X58976
X59213Y5315
X58740
X58268
X50413Y7402
X49980
X48740Y8543
X48228Y10866
X48465Y11180
X47638Y10866
X47047
X47165Y12480
Y13307
X62598Y19390
X62992
X63386
Y19783
Y20177
Y20571
X62205
X61811
Y20177
X62205
Y19783
X61811
Y19390
X62205
X61417
X61024
X60630
Y19783
Y20177
Y20571
X59350Y20276
X60138Y19488
X58563
X57776Y20276
X58563Y21063
X57776Y21850
X56201
X56988Y22638
X55413
X54626Y21850
X55413Y21063
X54626Y20276
X55413Y19488
X55787Y18504
X56299
X56732
X57165
X57638
X56988Y19488
X56201Y20276
X56988Y21063
X53130Y21161
Y20768
X52736
Y21161
Y21555
Y21949
X53130
Y21555
X53051Y20276
X53839Y19488
X52264
X51476Y20276
X51240Y20768
Y21161
X50846
Y20768
Y21555
X51240
Y21949
X50846
X48701Y21949
X48307
Y21555
Y21161
Y20768
X48701
Y21161
Y21555
X48327Y20276
X49114Y19488
X50689
X49902Y20276
X47539Y19488
X48092Y17480
X48098Y16929
X48113Y16378
X48425Y16654
X48414Y17205
X50079Y16968
X49803Y16693
X50079Y16417
X50354Y16693
X52776Y15866
X51614Y27795
X50305Y27067
X47726
X47677Y31004
X48071
X48465
X48858
X47283
X46890
X59941Y30906
X61122
X62303
X60512Y28268
X60276Y27953
X59213Y27165
X58583Y23740
X46811Y21949
X46417
Y21555
X46811
Y21161
Y20768
X46417
Y21161
X45965Y21063
Y22638
Y19488
X46752Y20276
X46496Y31004
X46102
X45709
X45315
X44921
X41929Y31063
Y30669
Y30276
Y29882
X39409
Y30276
Y30669
Y31063
X39016Y30709
Y29921
X38228
Y30709
X38622Y30315
Y31102
Y29528
X36850Y17756
X36575Y17497
Y18032
X36299Y17756
X31844Y15885
X31496Y15748
X28110Y16457
X26752Y16673
X24370Y18504
X22795
X23583Y19291
Y20079
X23976
X24370
Y20866
X23976
X23583
Y21260
Y21654
Y22047
X23976
Y22441
X24370
Y21654
X23976
Y21260
Y20472
X23583
X23189
X22795
Y20079
X23189
X21614
Y20472
X21220
X20827
X20827Y20079
X21220
X21063Y20906
Y21299
Y21693
X20039Y20827
Y20472
Y20079
X19646
X19252
X18858
X18465
Y20472
Y20827
X18858
Y20472
X19252
Y20827
X19646
Y20472
X18858Y19291
X19646Y18504
X21220
X20433Y19291
X17283
X18071Y20079
Y20866
Y21260
Y21654
X18465
Y21260
X17677
X17283
Y21654
X17677
X16890
Y21260
X16496
Y21654
X16102
Y21260
X15709
Y21654
Y20866
X16496
X17283
X16496Y20079
Y18504
X18071
X15709Y19291
X18976Y15906
X23583Y22441
X16929Y29724
X16535Y29331
X16142Y29724
X16083Y30413
X15689
Y30807
X16083
Y31201
X15689
X16535Y30906
X16929Y30512
X16535Y30118
X14193Y30413
Y30807
Y31201
X12283Y26535
X12687Y25354
X15266
X15315Y21654
Y21260
X14921
Y21654
X14528
Y21260
X14921Y20866
Y20079
X14134Y19291
X13071
Y19685
Y20079
Y20472
X12677
Y20079
Y19685
Y19291
X13346Y18504
X11772
X11181Y19291
X10787
Y19685
X11181
Y20079
X10787
Y20472
X11181
X11378Y21260
X9803
X8228
X8228Y20472
X8622
Y20079
Y19685
Y19291
X8228
Y19685
Y20079
X6732
X6339
Y20472
X6732
Y19685
X6339
Y19291
X6732
X7047Y18504
X6614Y17835
X6299Y17559
X5472Y18504
X3898
X4685Y19291
X3898Y20079
X4685Y20866
X3898Y21654
X4685Y22441
X3898Y23228
X4685Y24016
X3898Y24803
X3110Y24016
X2323Y23228
X3110Y22441
X2323Y21654
X3110Y20866
X2323Y20079
X3110Y19291
X2323Y18504
X748
X1535Y19291
X748Y20079
X1535Y20866
X748Y21654
X1535Y22441
X748Y23228
X1535Y24016
X748Y24803
X6654Y21260
X9409Y19291
X8622Y18504
X10197
X10276Y16969
Y16614
Y16260
X9882Y16260
Y16614
Y16968
X12707Y16791
X13100
Y16280
X12707
X14921Y18504
X12953Y21260
X14193Y31594
X11890Y35610
X11516Y35610
X12244Y36457
X12047Y37913
X12520
X12972Y38760
X14783Y38051
X10709Y37756
X8071Y37874
X7323
X7697Y38760
X7362Y35472
X8465Y34961
X6850Y32874
X7126Y32598
X6368Y33238
X5039Y35354
X4567
X4508Y36417
X5512Y36811
X3228Y35197
X15984Y37283
X16083Y31594
X15689
X16535Y31693
X16929Y31299
X21654Y34646
X22441Y33858
X24016
X24803Y34646
X25591Y33858
X26378Y34646
X27165Y33858
X27953Y34646
X28740Y33858
X29528Y34646
X30315Y33858
X31102Y34646
Y36220
X30315Y35433
X29528Y36220
X28740Y35433
X27953Y36220
X27165Y35433
X26378Y36220
X25591Y35433
Y37008
X26378Y37795
X27165Y37008
X27953Y37795
X28740Y37008
X29528Y37795
X30315Y37008
X31102Y37795
X30315Y38583
X28740
X27165
X25591
X24016
X22441
X21654Y37795
X31890Y37008
X32677Y37795
Y36220
X31890Y35433
Y33858
X32677Y34646
X33465Y33858
X34252Y34646
X35039Y33858
X35827Y34646
X36614Y33858
X37402Y34646
X38189Y33858
X38976Y34646
X39764Y33858
X40551Y34646
X41339Y33858
X42126Y34646
X42913Y33858
X44488
X45276Y34646
Y33071
X46063Y32283
X46102Y31398
X45709
X45315
X44921
X44488Y32283
X43701Y33071
X42913Y32283
X42126Y33071
X41339Y32283
X41378Y31496
X41772
X40984
X40591
X40197
X39803
X39409Y31457
X39016Y31496
X38228
X38189Y32283
X38976Y33071
X39764Y32283
X40551Y33071
Y36220
X41339Y35433
Y37008
X40551Y37795
X39764Y37008
X38976Y37795
X38189Y37008
X37402Y37795
X36614Y37008
Y35433
X35827Y36220
X35039Y35433
X34252Y36220
X33465Y35433
X37402Y36220
X38189Y35433
X38976Y36220
X39764Y35433
Y38583
X41339
X38189
X36614
X31890
X46850Y33071
X46496Y31398
X46890
X47283
X47677
X48071
X48465
X48858
X49311Y32283
X50413Y32087
X50807
Y32480
Y32874
X50413
Y32480
Y31693
X50807
X52303
X52697
Y32087
X52303
Y32480
Y32874
X52697
Y32480
X53819Y36063
X55528Y35627
Y35236
X56378Y37087
X55118Y37874
X54528
X53228Y37756
X52835Y37520
X51693
Y38819
X52835
X58504Y37402
X59449Y36890
X58740Y34449
X60945Y34291
X61654Y33819
Y33425
X61516Y31299
X61909
X62303
X61122
X60728
X60335
X59941
X59646Y32362
Y32756
X48425Y33071
X47638Y32283
X64016Y34213
Y34803
X64783Y34075
X65532Y35138
X66732Y35039
X64370Y37205
X63268Y38248
T02
X879Y879
X1575Y591
X2271Y879
X2559Y1575
X2271Y2271
X1575Y2559
X879Y2271
X591Y1575
X27618Y10413
X27618Y12224
X28425Y12874
X32559Y12598
X33268Y11890
X33406Y9626
X33753Y2271
X33465Y1575
X33753Y879
X34449Y591
X35145Y879
X35433Y1575
X35145Y2271
X34449Y2559
X66627Y2271
X66339Y1575
X66627Y879
X67323Y591
X68019Y879
X68307Y1575
X68019Y2271
X67323Y2559
X44921Y26260
Y26721
X42461Y30669
X18071Y26693
Y26231
X20630Y21693
X2271Y37099
X1575Y36811
X879Y37099
X591Y37795
X879Y38491
X1575Y38780
X2271Y38491
X2559Y37795
X33465Y37795
X33753Y37099
X34449Y36811
X35145Y37099
X35433Y37795
X35145Y38491
X34449Y38780
X33753Y38491
X66627
X66339Y37795
X66627Y37099
X67323Y36811
X68019Y37099
X68307Y37795
X68019Y38491
X67323Y38780
T03
X13598Y1181
X14598
X3774Y11319
Y12319
X22933Y14197
Y15197
X16815Y1181
X15815
T04
X2067Y5315
X3248Y5315
Y6496
Y7677
Y8858
X2067
Y7677
Y6496
Y14961
X3248
X60827Y3346
X62008
Y2165
X60827
X63189
Y3346
X65650Y6496
Y7677
Y8858
Y10039
Y11220
X66831
Y10039
Y8858
Y7677
Y6496
X3248Y16142
X2067
T05
X19803Y1181
X20803
X21803
X22803
X23803
X24803
Y2854
X23803
X22803
X21803
X20803
X19803
X27831
X28831
X29831
X30831
Y1181
X29831
X28831
X27831
X38807Y1862
Y2862
X39807
Y1862
X40807
Y2862
X41807
Y1862
X42807
Y2862
X43807
Y1862
X44807
Y2862
X45807
Y1862
X46807
Y2862
X47807
Y1862
X51732Y2173
X52732
X53732
X54732
X55732
X56732
Y1173
X55732
X54732
X53732
X52732
X51732
T06
X36949Y29390
X26043Y23760
T08
X1575Y1575
X34449
X67323
X1575Y37795
X34449Y37795
X67323
T09
X7638Y2362
X10472
X66535Y15807
Y18642
T10
X66142Y25394
Y29724
X2559Y30709
Y26378
X19094Y36417
X23425
X43504Y36413
X47835
T11
X1697Y13780
Y17323
T12
X1693Y4134
Y10039
T13
X59646Y3346
X64370
X65650Y5315
Y12402
M30
